<?xml version="1.0" encoding="utf-8" ?>
<svg baseProfile="full" height="200mm" version="1.1" viewBox="0,0,200,200" width="200mm" xmlns="http://www.w3.org/2000/svg" xmlns:ev="http://www.w3.org/2001/xml-events" xmlns:xlink="http://www.w3.org/1999/xlink"><defs /><rect fill="#1a1a1a" height="200" width="200" x="0" y="0" /><rect fill="#1a1a1a" height="200" width="180" x="10" y="0" /><text alignment-baseline="middle" fill="#e1ed5e" style="dominant-baseline: central; font-size:9.0px; font-family:Arial;" text-anchor="middle" x="100.0" y="100.0">2017</text><line stroke="#e1ed5e" stroke-width="0.3" x1="100.0" x2="100.0" y1="15.0" y2="10.0" /><path d="M 100.0 14.0 a86.0,86.0 0 0,1 42.46469731375804,11.215312516191453" fill="none" id="id25" stroke="none" /><text fill="#e1ed5e" style="font-size:6.75px; font-family:Arial;" text-anchor="middle"><textPath startOffset="22.20632615414155" xlink:href="#id25">January</textPath></text><line stroke="#e1ed5e" stroke-width="0.3" x1="143.23703022742887" x2="145.7803849466894" y1="26.81831364943548" y2="22.513508569990506" /><path d="M 143.74570117128098 25.957352633546492 a86.0,86.0 0 0,1 28.547481713284135,27.462654790039103" fill="none" id="id26" stroke="none" /><text fill="#e1ed5e" style="font-size:6.75px; font-family:Arial;" text-anchor="middle"><textPath startOffset="19.985693538727396" xlink:href="#id26">February</textPath></text><path d="M 115.4437574822437 85.77008943001954 l 20.512259606437425 -18.90003906908161 a48.89201088080054,48.89201088080054 0 0,0 0.5649503506331539,0.6238322876332089 l -20.834553597686615 18.544153994178853" fill="red" stroke="none" /><path d="M 116.60985879189232 87.15038557335679 l 14.105699128680985 -10.912362187585947 a38.83396748965095,38.83396748965095 0 0,0 0.40447252507339704,0.5322384312601212 l -14.291447593978493 10.667938980444791" fill="red" stroke="none" /><path d="M 117.45458315368197 88.32363383020206 l 14.878030249581006 -9.952762982070544 a38.90009148257967,38.90009148257967 0 0,0 0.36751947785849204,0.5597573788405485 l -15.047146362797422 9.695187539252322" fill="red" stroke="none" /><path d="M 117.65298651832404 88.62581576622439 l 16.745670379439932 -10.789581684443037 a40.92065634917988,40.92065634917988 0 0,0 0.3764162642935368,0.5954001335509769 l -16.928914239979424 10.499733903177855" fill="red" stroke="none" /><line stroke="#e1ed5e" stroke-width="0.3" x1="172.23445277983987" x2="176.4835382374775" y1="55.19839476539836" y2="52.563006222186495" /><path d="M 173.08426987136738 54.67131705675599 a86.0,86.0 0 0,1 12.851231095245387,41.99856678651699" fill="none" id="id27" stroke="none" /><text fill="#e1ed5e" style="font-size:6.75px; font-family:Arial;" text-anchor="middle"><textPath startOffset="22.20632615414155" xlink:href="#id27">March</textPath></text><path d="M 117.84615892207809 88.93136811851018 l 16.667790527726556 -10.337778478535782 a40.61338586138173,40.61338586138173 0 0,0 0.3633625514980603,0.5972724949128835 l -16.84326887751084 10.049338210415817" fill="red" stroke="none" /><path d="M 118.03404312379186 89.2402003453031 l 15.32391355400449 -9.142832732248358 a38.84415077778919,38.84415077778919 0 0,0 0.3376487584714918,0.577151178680937 l -15.479021986946309 8.877702141213526" fill="red" stroke="none" /><path d="M 118.21658344932153 89.55222093294921 l 18.642251568174473 -10.691913016429115 a42.490708398793885,42.490708398793885 0 0,0 0.3584240147103703,0.6375963281434335 l -18.823533224177275 10.369433178350889" fill="red" stroke="none" /><line stroke="#e1ed5e" stroke-width="0.3" x1="184.98032266829074" x2="189.97916517819016" y1="98.17113171792111" y2="98.06355123074" /><path d="M 185.9800911702706 98.14961562048488 a86.0,86.0 0 0,1 -9.607161424134198,41.387399972396054" fill="none" id="id28" stroke="none" /><text fill="#e1ed5e" style="font-size:6.75px; font-family:Arial;" text-anchor="middle"><textPath startOffset="21.466115282336823" xlink:href="#id28">April</textPath></text><path d="M 120.95626037817324 101.35467743843564 l 12.68229522213708 0.8198227591647652 a33.70876553634874,33.70876553634874 0 0,0 -0.04241436136415747,0.5787102624469322 l -12.666304302108585 -1.0380061581084676" fill="red" stroke="none" /><path d="M 120.92983693683757 101.71520430193887 l 21.704184543501217 1.7786622423974472 a42.77694345106511,42.77694345106511 0 0,0 -0.06645785952970082,0.7333569420661323 l -21.670352087694443 -2.15200057301215" fill="red" stroke="none" /><path d="M 120.89721153311464 102.0752229133903 l 17.90554530905173 1.7781318738727478 a38.993618473653,38.993618473653 0 0,0 -0.07207821549015599,0.6673547572596207 l -17.87228479206052 -2.08608295301716" fill="red" stroke="none" /><path d="M 120.8583938346157 102.4346265915055 l 21.5886871928479 2.5198676529050346 a42.73525126836108,42.73525126836108 0 0,0 -0.09157246709680801,0.7299226617156289 l -21.542113216504244 -2.8911080689080584" fill="red" stroke="none" /><path d="M 119.9155931802556 106.66101706037122 l 33.81443476510789 11.309656951644092 a56.65563544304895,56.65563544304895 0 0,0 -0.31729629556382044,0.9222115580121644 l -33.61474763860084 -11.890041212745556" fill="red" stroke="none" /><path d="M 119.54520255179757 107.68017299344265 l 33.19343077166624 13.043164423425903 a56.66409937976736,56.66409937976736 0 0,0 -0.3645319853174228,0.9047384925073159 l -32.96399617209143 -13.612602283776033" fill="red" stroke="none" /><line stroke="#e1ed5e" stroke-width="0.3" x1="174.80103733775053" x2="179.2010983576182" y1="140.37084112569926" y2="142.7455964860345" /><path d="M 175.68104954172406 140.8457921977663 a86.0,86.0 0 0,1 -30.038265399797805,32.042727171017184" fill="none" id="id29" stroke="none" /><text fill="#e1ed5e" style="font-size:6.75px; font-family:Arial;" text-anchor="middle"><textPath startOffset="22.206326154141568" xlink:href="#id29">May</textPath></text><path d="M 117.94076556474637 110.91462005526583 l 15.23673018759922 9.269566579089052 a38.83487626460756,38.83487626460756 0 0,0 -0.35235319726319414,0.5681055456887236 l -15.074912350668063 -9.530468456143048" fill="red" stroke="none" /><path d="M 117.75023020441432 111.22182372390056 l 53.25069061324299 33.66547117170166 a84.0,84.0 0 0,0 -0.783180546491808,1.2155136003141789 l -52.66330520337414 -34.5771063719373" fill="red" stroke="none" /><path d="M 117.55443506779137 111.5257021239791 l 29.95762832218879 19.66925731583054 a56.83767818995479,56.83767818995479 0 0,0 -0.5440093719926461,0.8132201989681488 l -29.61461584478542 -20.182014429004493" fill="red" stroke="none" /><path d="M 117.14729908036423 112.12312394758627 l 44.52648239923351 31.48018020482676 a75.53081129579513,75.53081129579513 0 0,0 -0.7596968401874767,1.0551524660570664 l -43.97800576667043 -32.241966276334956" fill="red" stroke="none" /><path d="M 116.93607887273984 112.41649034213515 l 28.861722635648064 21.159638134404446 a56.787278738065886,56.787278738065886 0 0,0 -0.5847432962929571,0.7833592027682004 l -28.493218072660014 -21.65331021668196" fill="red" stroke="none" /><path d="M 116.71984013943494 112.70617746262583 l 19.49825300115461 14.81762150700922 a45.48966674379251,45.48966674379251 0 0,0 -0.47914305574994526,0.6193569886907055 l -19.240303128186596 -15.151056489813177" fill="red" stroke="none" /><path d="M 116.498646956653 112.99209946851258 l 21.660720814915248 17.057049594820203 a48.570450977484185,48.570450977484185 0 0,0 -0.5229004271155707,0.652398682442874 l -21.363902475744823 -17.427376110841326" fill="red" stroke="none" /><path d="M 116.27256486870786 113.27417163493432 l 3.138933759843494 2.5605518131304192 a25.050843213012655,25.050843213012655 0 0,0 -0.2754447573297287,0.33179095426225597 l -3.094393002620222 -2.6142040245064453" fill="red" stroke="none" /><path d="M 115.56566222782051 114.09645910891815 l 26.46760381383358 23.96939426103635 a56.70806509581638,56.70806509581638 0 0,0 -0.661468773372983,0.7178937118270003 l -26.051088632464875 -24.421439227664685" fill="red" stroke="none" /><path d="M 115.32070863581623 114.36230785411682 l 41.6403570940808 39.03550690484648 a78.0761783780316,78.0761783780316 0 0,0 -0.9275949999374395,0.9725796489584666 l -40.96225554276439 -39.74649367038745" fill="red" stroke="none" /><path d="M 114.55890576462653 115.13401014063108 l 24.81439244843575 25.794607989061284 a56.79267905444254,56.79267905444254 0 0,0 -0.7103524598355145,0.6716825887394723 l -24.36670415420943 -26.21792521454668" fill="red" stroke="none" /><path d="M 114.29624159901734 115.38237550388516 l 31.892172745524125 34.31512914835913 a67.84697184342781,67.84697184342781 0 0,0 -0.8623041596342799,0.7876944047916256 l -31.296769036422983 -34.859016319737336" fill="red" stroke="none" /><path d="M 112.92097659922987 116.55440617244103 l 21.956175096569005 28.130338117283006 a56.684584171093576,56.684584171093576 0 0,0 -0.7743418445704378,0.5937323067864526 l -21.46870452350507 -28.504109765896832" fill="red" stroke="none" /><path d="M 112.63410532772338 116.77436683061366 l 18.199809093222232 24.163980436900495 a51.25113223640802,51.25113223640802 0 0,0 -0.709254729093609,0.5246896926976302 l -17.78116939371006 -24.473680078337892" fill="red" stroke="none" /><path d="M 112.34349029814194 116.9893568818739 l 6.725253891459183 9.256517866782822 a32.44168531828491,32.44168531828491 0 0,0 -0.45460482989034806,0.32434847561990776 l -6.564921733719951 -9.370910604246948" fill="red" stroke="none" /><path d="M 112.04921762599082 117.19931262002967 l 6.595498638004104 9.414556735644018 a32.494976329361194,32.494976329361194 0 0,0 -0.4608764278115525,0.3169950095444195 l -6.432465325569669 -9.526692534553533" fill="red" stroke="none" /><path d="M 111.7513745106137 117.40417183066458 l 29.981170833921464 44.40309926356248 a74.57710172062843,74.57710172062843 0 0,0 -1.0700936972889858,0.7091997521373115 l -29.212402437892514 -44.91259703679111" fill="red" stroke="none" /><path d="M 111.45004920935366 117.60387380957326 l 12.9569304843718 19.92062785371814 a44.76370050440744,44.76370050440744 0 0,0 -0.6495387691149498,0.4145663743123686 l -12.61210991320992 -20.14070865685432" fill="red" stroke="none" /><line stroke="#e1ed5e" stroke-width="0.3" x1="143.8653032363475" x2="146.44561519142675" y1="172.8068346515853" y2="177.08958963109032" /><path d="M 144.38136562736335 173.6633856474863 a86.0,86.0 0 0,1 -40.68145358897372,12.25698825130547" fill="none" id="id30" stroke="none" /><text fill="#e1ed5e" style="font-size:6.75px; font-family:Arial;" text-anchor="middle"><textPath startOffset="21.466115282336833" xlink:href="#id30">June</textPath></text><path d="M 110.8373102113329 117.98757091392108 l 9.200205798802262 15.270334704968235 a38.82770060165001,38.82770060165001 0 0,0 -0.575448948634481,0.33998538196105926 l -8.935988979139399 -15.426438659223043" fill="red" stroke="none" /><path d="M 110.5260780823613 118.17145234162733 l 11.90752500670861 20.556281406341398 a44.756048851652245,44.756048851652245 0 0,0 -0.6699580544881873,0.38041966816956574 l -11.551918185299224 -20.75820424030559" fill="red" stroke="none" /><line stroke="#e1ed5e" stroke-width="0.3" x1="102.19456741930631" x2="102.32365962044197" y1="184.97166512339345" y2="189.96999836594603" /><path d="M 102.22038585953345 185.97133177190398 a86.0,86.0 0 0,1 -42.740103519485714,-10.115201625700543" fill="none" id="id31" stroke="none" /><text fill="#e1ed5e" style="font-size:6.75px; font-family:Arial;" text-anchor="middle"><textPath startOffset="22.20632615414155" xlink:href="#id31">July</textPath></text><path d="M 94.81253420990036 120.34920634021253 l -4.722552719724724 18.52546187959813 a40.11792985767609,40.11792985767609 0 0,0 -0.6676952333274335,-0.17634437970931593 l 5.040738395863647 -18.441426150585233" fill="red" stroke="none" /><path d="M 94.46302465271185 120.25689768951611 l -4.722085751157198 17.275642736816973 a38.90938094439389,38.90938094439389 0 0,0 -0.6445409951856618,-0.1821537233854527 l 5.018757914447473 -17.191800220093" fill="red" stroke="none" /><path d="M 91.40352486487194 119.15986991738527 l -4.391928902772027 9.788754709433961 a31.72887497589891,31.72887497589891 0 0,0 -0.4963786137084305,-0.22786307571996145 l 4.559775512247877 -9.711704563379927" fill="red" stroke="none" /><path d="M 91.07499286063937 119.00905698771935 l -9.029790809438204 19.232232019938944 a42.2465496147252,42.2465496147252 0 0,0 -0.6556007304827712,-0.3147281914225151 l 9.359504207921217 -19.073949552016867" fill="red" stroke="none" /><path d="M 90.42595943632237 118.69057910512821 l -1.6319343522293888 3.1858856145271073 a24.57953584684343,24.57953584684343 0 0,0 -0.37490709254381277,-0.1961336716154627 l 1.6865323472996971 -3.157322523966928" fill="red" stroke="none" /><path d="M 90.10565033884886 118.52300852407294 l -15.221803406351258 28.496425121770304 a53.30711289580467,53.30711289580467 0 0,0 -0.8056410284891151,-0.4392997244912637 l 15.710067246709013 -28.230184745519274" fill="red" stroke="none" /><line stroke="#e1ed5e" stroke-width="0.3" x1="58.666819895761336" x2="56.23545636021788" y1="174.27360380694188" y2="178.64263932499728" /><path d="M 58.180547188652646 175.14741091055294 a86.0,86.0 0 0,1 -31.652253787137756,-30.449443065178592" fill="none" id="id32" stroke="none" /><text fill="#e1ed5e" style="font-size:6.75px; font-family:Arial;" text-anchor="middle"><textPath startOffset="22.20632615414155" xlink:href="#id32">August</textPath></text><path d="M 89.7882731507175 118.34994917583269 l -10.415684759801211 18.716451075782206 a42.41943112894701,42.41943112894701 0 0,0 -0.6349809753278771,-0.3605587697766492 l 10.736314502050295 -18.534389140210926" fill="red" stroke="none" /><path d="M 89.1626897886671 117.98757091392108 l -9.224394611228899 15.310482857080073 a38.87457247770171,38.87457247770171 0 0,0 -0.5701989008033873,-0.35026273618558457 l 9.486572711964595 -15.14943165406611" fill="red" stroke="none" /><path d="M 87.65650970185807 116.9893568818739 l -20.969673445075493 28.86227940798638 a56.675739333863554,56.675739333863554 0 0,0 -0.7843248410981188,-0.5802247668856578 l 21.463383256592177 -28.497044692360955" fill="red" stroke="none" /><path d="M 87.36589467227662 116.77436683061367 l -7.1764700406103366 9.52823630067037 a32.92849568240649,32.92849568240649 0 0,0 -0.44982092500993726,-0.34490350394937347 l 7.339419694113761 -9.40329345489363" fill="red" stroke="none" /><path d="M 87.07902340077011 116.55440617244103 l -12.42299058998918 15.916384533608028 a41.190641193895665,41.190641193895665 0 0,0 -0.5551763028619001,-0.44106563166144525 l 12.69512438556844 -15.700184987941451" fill="red" stroke="none" /><path d="M 83.50135304334701 112.99209946851258 l -18.671958785509805 14.703505472337445 a44.76626007732041,44.76626007732041 0 0,0 -0.47152340703553425,-0.6095075655883461 l 18.922289009763407 -14.379919912635847" fill="red" stroke="none" /><path d="M 83.28015986056508 112.70617746262583 l -20.790524111272504 15.799677909346196 a47.11275004400122,47.11275004400122 0 0,0 -0.4851238758107571,-0.6499027094592641 l 21.059409253778348 -15.439462320377626" fill="red" stroke="none" /><line stroke="#e1ed5e" stroke-width="0.3" x1="26.63291911575756" x2="22.317208475507996" y1="142.92168965132927" y2="145.44649492493687" /><path d="M 25.769776987707644 143.4266507060508 a86.0,86.0 0 0,1 -11.730757126820373,-40.83630448921669" fill="none" id="id33" stroke="none" /><text fill="#e1ed5e" style="font-size:6.75px; font-family:Arial;" text-anchor="middle"><textPath startOffset="21.46611528233685" xlink:href="#id33">September</textPath></text><path d="M 81.51974371655577 109.97397251340807 l -13.323673144144033 7.190914870394787 a36.140327695438096,36.140327695438096 0 0,0 -0.2907532245749976,-0.5499955276823353 l 13.445478876943916 -6.9605043276263245" fill="red" stroke="none" /><path d="M 81.02952815118164 109.00673069616217 l -17.108561729419936 8.122739872975268 a39.9388961529809,39.9388961529809 0 0,0 -0.2895101795181852,-0.6235791706474899 l 17.24584652577795 -7.827040635048952" fill="red" stroke="none" /><path d="M 80.87730276802145 108.67885076344099 l -26.570086238081476 12.058853959494893 a50.17850992623702,50.17850992623702 0 0,0 -0.35019561831380963,-0.7895986703544189 l 26.773722941126568 -11.599706952647779" fill="red" stroke="none" /><path d="M 80.32549172779595 107.34259656027581 l -18.544778345856763 6.92097732809619 a40.79415901403693,40.79415901403693 0 0,0 -0.239861377663271,-0.6599954949667529 l 18.661163984525256 -6.6007340361233195" fill="red" stroke="none" /><path d="M 80.20201598880116 107.00284435728193 l -19.054316359925604 6.739797937380487 a41.21118126633985,41.21118126633985 0 0,0 -0.23080060878962952,-0.6708146045128551 l 19.167507799658463 -6.410810629778335" fill="red" stroke="none" /><line stroke="#e1ed5e" stroke-width="0.3" x1="15.007084014347285" x2="10.007500721073583" y1="101.09737516637583" y2="101.16192664675087" /><path d="M 14.007167355692545 101.11028546245083 a86.0,86.0 0 0,1 10.666146001902534,-42.60595125391555" fill="none" id="id34" stroke="none" /><text fill="#e1ed5e" style="font-size:6.75px; font-family:Arial;" text-anchor="middle"><textPath startOffset="22.20632615414155" xlink:href="#id34">October</textPath></text><line stroke="#e1ed5e" stroke-width="0.3" x1="26.266209847984257" x2="21.92892807433627" y1="57.711370442889674" y2="55.22380399835377" /><path d="M 25.39875349325466 57.213857153982495 a86.0,86.0 0 0,1 29.58750427330802,-30.492523968695096" fill="none" id="id35" stroke="none" /><text fill="#e1ed5e" style="font-size:6.75px; font-family:Arial;" text-anchor="middle"><textPath startOffset="21.46611528233685" xlink:href="#id35">November</textPath></text><line stroke="#e1ed5e" stroke-width="0.3" x1="56.762969772571076" x2="54.21961505331055" y1="26.818313649435495" y2="22.513508569990535" /><path d="M 56.25429882871897 25.957352633546506 a86.0,86.0 0 0,1 42.265352541879196,-11.944610805530505" fill="none" id="id36" stroke="none" /><text fill="#e1ed5e" style="font-size:6.75px; font-family:Arial;" text-anchor="middle"><textPath startOffset="22.20632615414155" xlink:href="#id36">December</textPath></text></svg>