<?xml version="1.0" encoding="utf-8" ?>
<svg baseProfile="full" height="200mm" version="1.1" viewBox="0,0,200,200" width="200mm" xmlns="http://www.w3.org/2000/svg" xmlns:ev="http://www.w3.org/2001/xml-events" xmlns:xlink="http://www.w3.org/1999/xlink"><defs /><rect fill="#1a1a1a" height="200" width="200" x="0" y="0" /><rect fill="#1a1a1a" height="200" width="180" x="10" y="0" /><text alignment-baseline="middle" fill="#e1ed5e" style="dominant-baseline: central; font-size:9.0px; font-family:Arial;" text-anchor="middle" x="100.0" y="100.0">2016</text><line stroke="#e1ed5e" stroke-width="0.3" x1="100.0" x2="100.0" y1="15.0" y2="10.0" /><path d="M 100.0 14.0 a86.0,86.0 0 0,1 42.35913384403234,11.155469271406648" fill="none" id="id13" stroke="none" /><text fill="#e1ed5e" style="font-size:6.75px; font-family:Arial;" text-anchor="middle"><textPath startOffset="22.145653131862478" xlink:href="#id13">January</textPath></text><path d="M 100.0 79.0 l 0.0 -30.788186967151447 a51.78818696715145,51.78818696715145 0 0,0 0.8890130948765603,0.007631108202105287 l -0.5285201700277056 30.783650257143776" fill="#87ff25" stroke="none" /><path d="M 102.15924093988457 79.11130261209362 l 0.9412440787872083 -9.10568263447051 a30.154201038624276,30.154201038624276 0 0,0 0.5144365546690974,0.05764368896264196 l -1.0974165350571023 9.088183185000897" fill="#ff6d0a" stroke="none" /><path d="M 103.23170211078529 79.25015418208739 l 1.0443743438938338 -6.705632471402131 a27.78647365070449,27.78647365070449 0 0,0 0.4706797042085086,0.07745016621287656 l -1.1593315511554123 6.686716306693587" fill="#ff4c07" stroke="none" /><path d="M 104.29559338865022 79.4440306129975 l 1.5297048973525316 -7.320191693238249 a28.478315552230903,28.478315552230903 0 0,0 0.4776730023274068,0.10410660760726696 l -1.6551403162990725 7.292853627497264" fill="#ff5607" stroke="none" /><path d="M 104.9986988182912 79.60360301121754 l 1.2678058992697618 -5.173080708844583 a26.32617084014803,26.32617084014803 0 0,0 0.4380107019615092,0.1113406076110897 l -1.3564218944566653 5.150554869398225" fill="#ff3805" stroke="none" /><line stroke="#e1ed5e" stroke-width="0.3" x1="143.13028292997686" x2="145.6673583964461" y1="26.7553504044142" y2="22.446841604673864" /><path d="M 143.63769802327073 25.89364864446614 a86.0,86.0 0 0,1 29.32050498858742,28.57503671076993" fill="none" id="id14" stroke="none" /><text fill="#e1ed5e" style="font-size:6.75px; font-family:Arial;" text-anchor="middle"><textPath startOffset="20.669276256404974" xlink:href="#id14">February</textPath></text><path d="M 117.21940702142032 87.97951657250589 l 6.254202633367173 -4.36591916394454 a28.627339033064878,28.627339033064878 0 0,0 0.27783550012408914,0.4053702978955654 l -6.328227870306587 4.257914130978925" fill="#ff5808" stroke="none" /><path d="M 117.62189284568427 88.57770195909679 l 26.310826813739645 -17.054360062274707 a52.35459782482167,52.35459782482167 0 0,0 0.4823661162449837,0.7583596536194522 l -26.599710621610516 16.600186733976585" fill="#81ff25" stroke="none" /><path d="M 117.81537515405839 88.88188828441811 l 16.91305672368788 -10.55499827984813 a40.9363857413093,40.9363857413093 0 0,0 0.36693043885359494,0.5993532959743151 l -17.09175512699688 10.263107867749259" fill="#fff917" stroke="none" /><line stroke="#e1ed5e" stroke-width="0.3" x1="172.87174338648825" x2="177.1583165268699" y1="56.24261187166439" y2="53.66864786411523" /><path d="M 173.72905801456457 55.72781907015455 a86.0,86.0 0 0,1 12.242430191666344,42.057860355516425" fill="none" id="id15" stroke="none" /><text fill="#e1ed5e" style="font-size:6.75px; font-family:Arial;" text-anchor="middle"><textPath startOffset="22.145653131862474" xlink:href="#id15">March</textPath></text><path d="M 118.00360718960297 89.18935116829356 l 16.024054404236875 -9.62198426126537 a39.69098447578355,39.69098447578355 0 0,0 0.3457392634024796,0.5871408550800356 l -16.186867377769122 9.345492237891778" fill="#ffea16" stroke="none" /><path d="M 118.36410011445183 89.81374322990088 l 17.158605574888917 -9.517589270008722 a40.62147422563336,40.62147422563336 0 0,0 0.3330083663534922,0.6126978865764451 l -17.31945929085775 9.221636549957674" fill="#fff517" stroke="none" /><path d="M 118.53625476483649 90.13048839642627 l 16.228395669507652 -8.640706625991616 a39.38539194585066,39.38539194585066 0 0,0 0.3126298589348815,0.5995089762996645 l -16.37433359741748 8.360851406587452" fill="#ffe615" stroke="none" /><path d="M 118.70294669586156 90.45014215332178 l 21.837469002448422 -11.150367270777165 a45.51949719521414,45.51949719521414 0 0,0 0.34937316707060523,0.698980369947625 l -22.025662082730765 10.77385504466579" fill="#ceff1d" stroke="none" /><path d="M 118.8641267826498 90.77261029715802 l 19.439069965670257 -9.508623224427584 a42.64004059040433,42.64004059040433 0 0,0 0.315984512252295,0.6602861005445719 l -19.599433735882464 9.173524621817908" fill="#f0ff19" stroke="none" /><path d="M 119.16976305983485 91.42560881287824 l 14.910078491535256 -6.669088460721695 a37.333621200477054,37.333621200477054 0 0,0 0.25665285537913374,0.587271959768479 l -15.02236522893136 6.412154431177367" fill="#ffcc13" stroke="none" /><path d="M 119.31412917781788 91.75594674310238 l 4.302676585753011 -1.8365567814930497 a25.678243966835772,25.678243966835772 0 0,0 0.16956708551843316,0.4068992765142185 l -4.333569515807928 1.7624249955375533" fill="#ff2e04" stroke="none" /><path d="M 119.58574465831526 92.42381321644754 l 14.779527482961077 -5.717038730821053 a36.84673355834917,36.84673355834917 0 0,0 0.22313209096603653,0.5918843809745509 l -14.875490257741555 5.4624860696523445" fill="#ffc612" stroke="none" /><path d="M 119.71291397450082 92.76114493625339 l 13.887459615874045 -5.099667532308196 a35.79419289865489,35.79419289865489 0 0,0 0.2068560554092882,0.5786132025548457 l -13.972955841327277 4.860519373372433" fill="#ffb811" stroke="none" /><path d="M 119.83427380445688 93.10060997987247 l 21.751011774840286 -7.566130983494239 a44.0293910316498,44.0293910316498 0 0,0 0.24219221635459623,0.715998252915751 l -21.877689412767246 7.191631056104326" fill="#dfff1b" stroke="none" /><path d="M 120.05942366710727 93.78553927170692 l 27.088567008274943 -8.39210730339673 a49.35873635325676,49.35873635325676 0 0,0 0.24379379878716811,0.811510266526624 l -27.22863712706574 7.925859433279382" fill="#a2ff22" stroke="none" /><path d="M 120.26092885502905 94.47779374421319 l 30.004066771272853 -8.177741820668892 a52.0985447264099,52.0985447264099 0 0,0 0.22777116384046067,0.8648842088301054 l -30.140027415918045 7.661477107465988" fill="#84ff25" stroke="none" /><path d="M 120.43855184770803 95.1765574152323 l 30.69050317940025 -7.242875184430852 a52.533573003102916,52.533573003102916 0 0,0 0.19960040615309607,0.8794762182570792 l -30.81031444711101 6.714964632234746" fill="#7fff26" stroke="none" /><path d="M 120.51834098615036 95.52812308129327 l 22.17422316882031 -4.832768733389881 a43.6947532872926,43.6947532872926 0 0,0 0.15343576820807048,0.7342456952489786 l -22.253916647852748 4.451406586855498" fill="#e3ff1b" stroke="none" /><path d="M 120.592083275326 95.88100663000786 l 17.97688996081861 -3.595881464330267 a39.333001286447754,39.333001286447754 0 0,0 0.12675285870117198,0.6632245173844042 l -18.03596911180194 3.2867543819125484" fill="#ffe515" stroke="none" /><path d="M 120.65975698304385 96.23510406497455 l 17.7029571044979 -3.2260685009681285 a38.99450494502784,38.99450494502784 0 0,0 0.11435636684950053,0.6595771349660139 l -17.755728288839634 2.921698333081522" fill="#ffe115" stroke="none" /><path d="M 120.7213421655516 96.59031103205396 l 22.136851046899356 -3.642610415707513 a43.43454445521972,43.43454445521972 0 0,0 0.11474684362046558,0.7367570498749264 l -22.196119382658086 3.262065183901145" fill="#e6ff1a" stroke="none" /><path d="M 120.86939407059847 97.66154086499901 l 36.29981669880483 -4.067470175273141 a57.52699010312192,57.52699010312192 0 0,0 0.10154228051683828,0.982329452269242 l -36.36429137180333 3.443736200720968" fill="#4bff2c" stroke="none" /><path d="M 120.9064616781168 98.02013634271609 l 25.778830892535282 -2.441282087672518 a46.89416884971445,46.89416884971445 0 0,0 0.06901566074976787,0.8020665929347282 l -25.81694017598279 1.9983944473621276" fill="#beff1f" stroke="none" /><path d="M 120.93736805541906 98.37931529534042 l 17.963259587320678 -1.3904698996522198 a39.0169947977821,39.0169947977821 0 0,0 0.04595837612096917,0.6682247023218317 l -17.984481924606715 1.0819017731760538" fill="#ffe115" stroke="none" /><path d="M 120.96210409425399 98.7389718711861 l 22.38042007301597 -1.3463504961069612 a43.4208800519298,43.4208800519298 0 0,0 0.03837250086479178,0.7444162654809703 l -22.400234163337334 0.9619624372492601" fill="#e7ff1a" stroke="none" /><path d="M 120.98066250479742 99.09900007780936 l 6.560727886155564 -0.2817458845061963 a27.56677478977431,27.56677478977431 0 0,0 0.016245117452897768,0.4729588696632111 l -6.56459769060531 0.16908075027886524" fill="#ff4906" stroke="none" /><path d="M 120.99303781780057 99.45929381324524 l 19.682571715820508 -0.5069532285110436 a40.68909929184967,40.68909929184967 0 0,0 0.01199082257887054,0.698405301247052 l -19.688373969998043 0.16900101129492529" fill="#fff617" stroke="none" /><line stroke="#e1ed5e" stroke-width="0.3" x1="184.99686870605535" x2="189.99668451229388" y1="99.2704041080226" y2="99.22748670261217" /><path d="M 185.99683186730306 99.26182062694052 a86.0,86.0 0 0,1 -10.086455211305974,41.156179273409016" fill="none" id="id16" stroke="none" /><text fill="#e1ed5e" style="font-size:6.75px; font-family:Arial;" text-anchor="middle"><textPath startOffset="21.40746469413373" xlink:href="#id16">April</textPath></text><path d="M 120.98066250479742 100.90099992219065 l 34.53206862139222 1.4829556089490503 a55.56389620124813,55.56389620124813 0 0,0 -0.04910369509976881,0.9525985667779453 l -34.50152333683588 -2.075525969103726" fill="#5fff29" stroke="none" /><path d="M 120.9064616781168 101.97986365728391 l 8.924302529987015 0.8451407281521265 a29.964231060002533,29.964231060002533 0 0,0 -0.05289058840575453,0.5116684643517254 l -8.908479549099594 -0.9982137147867833" fill="#ff6a09" stroke="none" /><path d="M 120.86939407059847 102.33845913500097 l 16.966623865248003 1.9011455930918206 a38.07280527479112,38.07280527479112 0 0,0 -0.07835367686754978,0.6488808450053116 l -16.93148810212079 -2.1921201150205407" fill="#ffd614" stroke="none" /><path d="M 120.82617615685814 102.69636545807757 l 17.58623205778699 2.276889828512187 a38.73301399315743,38.73301399315743 0 0,0 -0.09103269670981394,0.6586672455050585 l -17.54455484452197 -2.5784453822173306" fill="#ffde14" stroke="none" /><path d="M 120.77682067341334 103.0534771498775 l 31.19227823666001 4.584190735695211 a52.52733776097258,52.52733776097258 0 0,0 -0.13876849147276163,0.8909932610541338 l -31.108988253048977 -5.118972178680796" fill="#7fff26" stroke="none" /><path d="M 120.7213421655516 103.40968896794604 l 15.54994321733181 2.558737238964566 a36.75905677127624,36.75905677127624 0 0,0 -0.10780062952725558,0.6217653842107123 l -15.50372777031232 -2.8252956560958666" fill="#ffc512" stroke="none" /><path d="M 120.65975698304385 103.76489593502545 l 14.747524431362939 2.6874902172806934 a35.990399611805756,35.990399611805756 0 0,0 -0.11598113257036344,0.6068622945698291 l -14.699217006510414 -2.9402550768838367" fill="#ffbb11" stroke="none" /><path d="M 120.592083275326 104.11899336999214 l 17.712041372691107 3.5429043291874533 a39.06290620785306,39.06290620785306 0 0,0 -0.13717086312477278,0.6564122364634482 l -17.64861279874197 -3.846433016936311" fill="#ffe215" stroke="none" /><path d="M 120.51834098615036 104.47187691870673 l 3.162647637705164 0.6892843326174571 a24.236889397473128,24.236889397473128 0 0,0 -0.09208764397840796,0.40575515067947704 l -3.150349132169092 -0.7434738172359511" fill="#ff1902" stroke="none" /><path d="M 120.35273937422433 105.17358676015961 l 43.48895871497098 11.054723243095454 a65.87200058047206,65.87200058047206 0 0,0 -0.2879877416059166,1.0935363627770753 l -43.29278149256033 -11.799640110245333" fill="#36ff71" stroke="none" /><path d="M 120.16314734710363 105.8691983318838 l 17.300721894501514 5.0359880000668555 a39.018772244736915,39.018772244736915 0 0,0 -0.19272241172211182,0.6415102290555064 l -17.211723162775773 -5.332235832713085" fill="#ffe115" stroke="none" /><path d="M 119.94978838288452 106.5578916946017 l 10.061981184027859 3.3075730715311984 a31.591671490904965,31.591671490904965 0 0,0 -0.1737761244807725,0.5137382340336404 l -10.003719637974722 -3.479812980038999" fill="#ff810b" stroke="none" /><path d="M 119.31412917781788 108.2440532568976 l 5.830607163606737 2.48873948881051 a27.33954289672899,27.33954289672899 0 0,0 -0.18794779406816217,0.430061333989522 l -5.787025487521609 -2.588462892575877" fill="#ff4606" stroke="none" /><path d="M 119.16976305983485 108.57439118712176 l 13.669048943407297 6.11399172910264 a35.974104109455084,35.974104109455084 0 0,0 -0.2569844990161824,0.5615575086683435 l -13.562079979536058 -6.347738219985672" fill="#ffbb11" stroke="none" /><path d="M 119.0197475246899 108.90220220490707 l 6.831874231790931 3.1976621020309066 a28.543178934492648,28.543178934492648 0 0,0 -0.2115195564747026,0.4419945209912242 l -6.7759754173563165 -3.3144691250872342" fill="#ff5708" stroke="none" /><path d="M 118.8641267826498 109.22738970284198 l 3.6383045754630587 1.7796770856262683 a25.050248228558175,25.050248228558175 0 0,0 -0.1922667230260312,0.3846622404238367 l -3.607217939225295 -1.8418711822138507" fill="#ff2503" stroke="none" /><path d="M 118.5362547648365 109.86951160357373 l 6.587710578181421 3.5075848286076567 a28.46331575050674,28.46331575050674 0 0,0 -0.2333377224674621,0.429315127964724 l -6.52652750609862 -3.620154790046984" fill="#ff5607" stroke="none" /><line stroke="#e1ed5e" stroke-width="0.3" x1="174.33088141563837" x2="178.70328620479359" y1="141.23008692659167" y2="143.65538615756765" /><path d="M 175.20536237346943 141.71514677278685 a86.0,86.0 0 0,1 -30.301960400862466,31.631185727798858" fill="none" id="id17" stroke="none" /><text fill="#e1ed5e" style="font-size:6.75px; font-family:Arial;" text-anchor="middle"><textPath startOffset="22.145653131862474" xlink:href="#id17">May</textPath></text><path d="M 118.36410011445183 110.18625677009912 l 55.092300343355504 30.558770310297355 a84.0,84.0 0 0,0 -0.7102665399144867,1.2549729196035138 l -54.559600438419636 -31.49999999999999" fill="#4dd2ff" stroke="none" /><path d="M 117.423217284605 111.72311816256416 l 12.402487937338337 8.344947389691592 a35.948573643413056,35.948573643413056 0 0,0 -0.3488899169227549,0.5090408154917884 l -12.257408283600261 -8.556622940253424" fill="#ffba11" stroke="none" /><path d="M 116.35404254752997 113.17365903436017 l 4.687694918364523 3.7760752017221613 a27.019404254303048,27.019404254303048 0 0,0 -0.29406527545706285,0.35871182171265353 l -4.622182823668832 -3.8559893051333076" fill="#ff4106" stroke="none" /><path d="M 116.1254893667686 113.45245675266167 l 9.239157838348342 7.707634070785577 a33.03202645156036,33.03202645156036 0 0,0 -0.3669786356917062,0.4322999100901756 l -9.105484639149521 -7.86510076332531" fill="#ff940d" stroke="none" /><path d="M 115.41159269507618 114.26474011684316 l 9.951845574244835 9.21127969109338 a34.56049054721716,34.56049054721716 0 0,0 -0.40673445818846915,0.4319378996487915 l -9.792255282320106 -9.380759050686668" fill="#ffa80f" stroke="none" /><path d="M 114.65682725009322 115.03919595460226 l 10.42715950633162 10.69918423611206 a35.93981923213098,35.93981923213098 0 0,0 -0.4455297047214622,0.4268073788335088 l -10.241957315744845 -10.876603745251149" fill="#ffba11" stroke="none" /><path d="M 114.13192950727249 115.5334660781643 l 5.226090012614194 5.74438840008364 a28.765952286163063,28.765952286163063 0 0,0 -0.36811511504866773,0.32917080578696134 l -5.126709870742149 -5.833254735753989" fill="#ff5a08" stroke="none" /><path d="M 113.86319453409587 115.77377054828091 l 20.82628995721046 23.69649494198846 a52.54771348160576,52.54771348160576 0 0,0 -0.6826711680630462,0.5896750955953932 l -20.416439309384554 -24.050514170048572" fill="#7fff26" stroke="none" /><path d="M 113.59037401385874 116.0094264158162 l 0.9667592212745973 1.1388399317799907 a22.493847308842547,22.493847308842547 0 0,0 -0.2965178218348122,0.24736571299637874 l -0.9470670652778924 -1.1552678286882396" fill="#ff0000" stroke="none" /><path d="M 110.96478420261333 117.91015095944535 l 1.1305743315499595 1.8467082046272958 a23.165301252065728,23.165301252065728 0 0,0 -0.3409350381663104,0.2047216945595735 l -1.0987065368262123 -1.8658438997227929" fill="#ff0a01" stroke="none" /><line stroke="#e1ed5e" stroke-width="0.3" x1="143.1302829299769" x2="145.66735839644613" y1="173.24464959558577" y2="177.55315839532614" /><path d="M 143.63769802327073 174.10635135553383 a86.0,86.0 0 0,1 -40.68552437913181,11.842963189579606" fill="none" id="id18" stroke="none" /><text fill="#e1ed5e" style="font-size:6.75px; font-family:Arial;" text-anchor="middle"><textPath startOffset="21.407464694133747" xlink:href="#id18">June</textPath></text><path d="M 106.0420521117495 120.11202640906438 l 5.595893344320374 18.62690897756775 a40.44931259401224,40.44931259401224 0 0,0 -0.6667202171649482,0.1940725383321569 l -5.2753131147738195 -18.72022521020243" fill="#fff316" stroke="none" /><path d="M 104.9986988182912 120.39639698878246 l 2.1314998197928237 8.697246640851738 a29.954629563169192,29.954629563169192 0 0,0 -0.5004817314451866,0.11811232587996187 l -1.981885934607758 -8.732555110377925" fill="#ff6a09" stroke="none" /><path d="M 104.29559338865022 120.5559693870025 l 2.860710638212991 13.689535992757584 a34.985244404463955,34.985244404463955 0 0,0 -0.5889241357874462,0.11780132093985218 l -2.625290016894586 -13.736626710360298" fill="#ffae10" stroke="none" /><line stroke="#e1ed5e" stroke-width="0.3" x1="101.45913802915013" x2="101.54496967792366" y1="184.9874750549273" y2="189.98673829345242" /><path d="M 101.47630435890484 185.9873277026323 a86.0,86.0 0 0,1 -42.54439059252881,-10.42667462771756" fill="none" id="id19" stroke="none" /><text fill="#e1ed5e" style="font-size:6.75px; font-family:Arial;" text-anchor="middle"><textPath startOffset="22.145653131862474" xlink:href="#id19">July</textPath></text><path d="M 100.0 121.0 l 1.8333337269487944e-15 14.970305954543242 a35.97030595454324,35.97030595454324 0 0,0 -0.6174781333933989,-0.005300307133286187 l 0.2569852085445449 -14.968100045604391" fill="#ffbb11" stroke="none" /><path d="M 96.76829788921471 120.74984581791261 l -1.7913403768937441 11.501690240538444 a32.64035131493836,32.64035131493836 0 0,0 -0.5529003462369092,-0.09097954157002451 l 1.9885182261837169 -11.469244700472752" fill="#ff8f0d" stroke="none" /><path d="M 96.41257539226777 120.69131181640829 l -4.000453532231043 23.073552894751987 a44.41778110006278,44.41778110006278 0 0,0 -0.7501640080440278,-0.13670487154351993 l 4.395952273826127 -23.001479849277104" fill="#dbff1b" stroke="none" /><path d="M 96.05791012581884 120.62667999033965 l -4.546013734408093 23.786664820979475 a45.21717704810058,45.21717704810058 0 0,0 -0.7611633809939263,-0.15225399382254307 l 4.953673600932977 -23.70512143049407" fill="#d1ff1c" stroke="none" /><path d="M 95.70440661134978 120.55596938700252 l -4.82331499122585 23.081308292697543 a44.57988888877834,44.57988888877834 0 0,0 -0.747748206170033,-0.16296824126439743 l 5.218825614015019 -22.995108593299427" fill="#d9ff1c" stroke="none" /><path d="M 95.35216902796893 120.47920084513623 l -4.834570225909193 21.30200845342791 a42.843732131189526,42.843732131189526 0 0,0 -0.7158327627912205,-0.1689345829071679 l 5.199535142440301 -21.215877726874513" fill="#eeff19" stroke="none" /><path d="M 95.00130118170881 120.39639698878247 l -12.274190247171806 50.08288478615327 a72.5650181298026,72.5650181298026 0 0,0 -1.2073253919789266,-0.30689739343182637 l 13.132120932376111 -49.864802160886185" fill="#3fffbb" stroke="none" /><path d="M 94.6519064749342 120.30758222061772 l -2.0147131183060796 7.650193869871485 a28.911038818998037,28.911038818998037 0 0,0 -0.47884747712126396,-0.13051200922954956 l 2.1457419963620383 -7.6144813664977935" fill="#ff5c08" stroke="none" /><path d="M 94.30408787586889 120.21278271476187 l -6.172605196009226 21.90439825824683 a43.75749806023691,43.75749806023691 0 0,0 -0.7212485636562985,-0.2099449452911521 l 6.547713772047131 -21.795209618653157" fill="#e3ff1b" stroke="none" /><path d="M 93.95794788825049 120.11202640906438 l -6.354851377403691 21.153233431979537 a43.08717774313202,43.08717774313202 0 0,0 -0.7065463456653511,-0.21888986397232052 l 6.7170383559406766 -21.041026980200566" fill="#ebff1a" stroke="none" /><path d="M 93.27111125876986 119.89276391827306 l -1.7654191568276318 5.219148042734397 a26.509647093169605,26.509647093169605 0 0,0 -0.4298277057308436,-0.14951638827469133 l 1.8547526346034973 -5.188073221891115" fill="#ff3a05" stroke="none" /><path d="M 92.93061703081489 119.77432235084164 l -3.793478880386306 10.611035579603849 a32.26874252468108,32.26874252468108 0 0,0 -0.5200044063253397,-0.19095282081420692 l 3.975072438365765 -10.544351909780922" fill="#ff8a0c" stroke="none" /><path d="M 92.59220618246901 119.65005319985036 l -4.09452753095682 10.861220734997449 a32.6073800470262,32.6073800470262 0 0,0 -0.5220716961535852,-0.20194854744960242 l 4.280371489603934 -10.789332299409805" fill="#ff8e0d" stroke="none" /><path d="M 91.92203290615298 119.3841803445677 l -8.067256600302931 19.358479059080157 a41.972156315838774,41.972156315838774 0 0,0 -0.6626902311331426,-0.2828630536737784 l 8.398381906606506 -19.217141355746975" fill="#f8ff18" stroke="none" /><path d="M 91.59046798132341 119.24265499422711 l -13.527437642303727 30.953424629178784 a54.7802614767954,54.7802614767954 0 0,0 -0.8584499923846257,-0.38397376255055493 l 14.056801037543988 -30.716647115718374" fill="#67ff28" stroke="none" /><path d="M 91.26138138417905 119.09545874513695 l -5.1468356922658565 11.246764843556226 a33.368493727590035,33.368493727590035 0 0,0 -0.5188185620555498,-0.24283328372693125 l 5.339142968192896 -11.156755328258768" fill="#ff980e" stroke="none" /><path d="M 90.93487009805054 118.94263497670748 l -9.167311774834774 19.156155791107118 a42.23671137135388,42.23671137135388 0 0,0 -0.6513298134518647,-0.3185980503124821 l 9.494801837548707 -18.995963990697415" fill="#f5ff19" stroke="none" /><path d="M 90.6110303473126 118.78422872680471 l -5.501223390920209 11.00613190529544 a33.30440564649792,33.30440564649792 0 0,0 -0.5091970500047116,-0.25999964190503355 l 5.689347662638503 -10.910074311717574" fill="#ff980e" stroke="none" /><path d="M 90.28995756902619 118.62028667847754 l -12.409586683073544 23.797018730130592 a47.83832971864871,47.83832971864871 0 0,0 -0.7248900738363865,-0.38596313472209426 l 12.816265572696492 -23.580485127685925" fill="#b3ff20" stroke="none" /><path d="M 89.97174638481275 118.45085714620012 l -5.019447702776799 9.235218420932183 a31.51114239858049,31.51114239858049 0 0,0 -0.47305098947586594,-0.2623934096481275 l 5.177242880408766 -9.147692095850907" fill="#ff800b" stroke="none" /><line stroke="#e1ed5e" stroke-width="0.3" x1="58.13341422392154" x2="55.670673884152215" y1="173.97424548756322" y2="178.32567169271397" /><path d="M 57.64086615596767 174.84453072859336 a86.0,86.0 0 0,1 -31.369924170532244,-30.572349798747897" fill="none" id="id20" stroke="none" /><text fill="#e1ed5e" style="font-size:6.75px; font-family:Arial;" text-anchor="middle"><textPath startOffset="22.145653131862474" xlink:href="#id20">August</textPath></text><path d="M 89.34428304082925 118.09573695890944 l -2.751195399650159 4.672131257370163 a26.421981797567334,26.421981797567334 0 0,0 -0.388865194307808,-0.23350237617729983 l 2.8309933505153944 -4.624214880656944" fill="#ff3905" stroke="none" /><path d="M 89.03521579738668 117.91015095944536 l -12.511666307841326 20.436866625631932 a44.96262321350983,44.96262321350983 0 0,0 -0.6548182401144605,-0.4086550119790612 l 12.860648676745498 -20.219075816811323" fill="#d4ff1c" stroke="none" /><path d="M 88.4268655584334 117.5232005979908 l -6.6712162763549 10.101071722046273 a33.105237566434845,33.105237566434845 0 0,0 -0.47151902093100906,-0.31725904050768805 l 6.843631585382913 -9.985063007481463" fill="#ff950d" stroke="none" /><path d="M 88.1277618465304 117.32195027204791 l -6.527453953667238 9.523750393725292 a32.54597231415478,32.54597231415478 0 0,0 -0.45813091326604183,-0.3198109576994562 l 6.689979958107045 -9.410294620220707" fill="#ff8d0d" stroke="none" /><path d="M 87.83215693770417 117.11559508785305 l -11.44915519588741 16.104670600002315 a40.759644982491324,40.759644982491324 0 0,0 -0.5667900164430217,-0.4103122623050653 l 11.723926222704385 -15.905757566324182" fill="#fff717" stroke="none" /><path d="M 87.54013794807813 116.9041958592261 l -7.087522086572834 9.615584908465191 a32.94539419439816,32.94539419439816 0 0,0 -0.4523669497672048,-0.33946459252163574 l 7.251542025250806 -9.492501288679541" fill="#ff930d" stroke="none" /><path d="M 87.2517909369889 116.68781488649013 l -17.449151391477347 22.841499296728458 a49.74381628116111,49.74381628116111 0 0,0 -0.6741235918814605,-0.5242025824471153 l 17.838684927994034 -22.538595662660548" fill="#9eff22" stroke="none" /><path d="M 86.96720088162412 116.46651593811092 l -11.50854836907493 14.54067490971261 a39.5439454376161,39.5439454376161 0 0,0 -0.5286634389868704,-0.4258538443265314 l 11.756462578417063 -14.340972771592668" fill="#ffe815" stroke="none" /><path d="M 86.40962598614128 116.0094264158162 l -7.590801447207471 8.941945018011658 a32.729392452981976,32.729392452981976 0 0,0 -0.4252023750508563,-0.367279684400478 l 7.7431833020211895 -8.810321201146458" fill="#ff900d" stroke="none" /><path d="M 86.13680546590413 115.77377054828092 l -6.208161734601217 7.0637484374451125 a30.40413813756875,30.40413813756875 0 0,0 -0.38907882127895543,-0.3479166811667098 l 6.328505582703543 -6.956136226395021" fill="#ff700a" stroke="none" /><path d="M 85.86807049272751 115.53346607816431 l -7.489204076346869 8.231947195357659 a32.12893221851618,32.12893221851618 0 0,0 -0.40477899735670814,-0.3746573969538213 l 7.629412845017545 -8.102172052271458" fill="#ff880c" stroke="none" /><path d="M 85.08716467003676 114.78537596483092 l -17.25197995236165 17.10452801828273 a45.293943504604336,45.293943504604336 0 0,0 -0.5426930482708577,-0.5568508761740354 l 17.54305980178332 -16.805854450040954" fill="#d0ff1d" stroke="none" /><path d="M 84.1078160697243 113.72728997021213 l -8.383815603666312 7.241740238675922 a32.078409893154195,32.078409893154195 0 0,0 -0.3563841629581005,-0.4198196478494102 l 8.506894330131525 -7.096753808376957" fill="#ff870c" stroke="none" /><path d="M 83.42222388311158 112.89097897827486 l -19.654415331501355 15.283392240443806 a45.89735167439327,45.89735167439327 0 0,0 -0.47831165041025175,-0.626125304397276 l 19.913878959265904 -14.94374602280566" fill="#c9ff1d" stroke="none" /><path d="M 83.20337586046588 112.60449989151573 l -21.501747926493007 16.135312498240904 a47.882586804664754,47.882586804664754 0 0,0 -0.4877137435533254,-0.6616773612666146 l 21.77556368963016 -15.76382882770541" fill="#b3ff20" stroke="none" /><path d="M 82.98947788004972 112.3143062007846 l -20.65714986939143 14.954183471466967 a46.50187138279844,46.50187138279844 0 0,0 -0.46254946771277594,-0.6506337529948472 l 20.910814435634165 -14.597372491762616" fill="#c2ff1e" stroke="none" /><path d="M 82.576782715395 111.72311816256416 l -10.963427854105262 7.376683542481405 a34.21409135726279,34.21409135726279 0 0,0 -0.32369065701055716,-0.49010891069573104 l 11.088442950036546 -7.187394753446615" fill="#ffa40f" stroke="none" /><path d="M 82.18462484594161 111.11811171558189 l -10.273839236085252 6.41163553318177 a33.11036097146918,33.11036097146918 0 0,0 -0.2967824115845699,-0.48477176525927745 l 10.382389612125227 -6.234326651797936" fill="#ff950d" stroke="none" /><path d="M 81.99639281039703 110.81064883170644 l -10.323921831011928 6.1992184291551995 a33.042162227159295,33.042162227159295 0 0,0 -0.2878228640716431,-0.48878614728198744 l 10.42881840521334 -6.021081113579653" fill="#ff940d" stroke="none" /><line stroke="#e1ed5e" stroke-width="0.3" x1="26.387840678322732" x2="22.057713659400548" y1="142.50000000000003" y2="145.00000000000006" /><path d="M 25.521815274538298 143.00000000000003 a86.0,86.0 0 0,1 -11.493303480769221,-40.785679425670985" fill="none" id="id21" stroke="none" /><text fill="#e1ed5e" style="font-size:6.75px; font-family:Arial;" text-anchor="middle"><textPath startOffset="21.40746469413373" xlink:href="#id21">September</textPath></text><path d="M 81.81346652052679 110.50000000000001 l -11.530073522347973 6.656891051903787 a34.31378210380756,34.31378210380756 0 0,0 -0.2901420391220361,-0.5126531822554069 l 11.642648926491388 -6.457981099549258" fill="#ffa50f" stroke="none" /><path d="M 80.9802524753101 108.90220220490708 l -1.376966118815711 0.6444896707010005 a22.520329776070536,22.520329776070536 0 0,0 -0.16087615823799223,-0.35154343927402526 l 1.387826741908759 -0.6207572492122864" fill="#ff0000" stroke="none" /><path d="M 80.68587082218212 108.24405325689762 l -18.8483683270547 8.045247645558977 a41.49358431974971,41.49358431974971 0 0,0 -0.27400417917597225,-0.6575102823033194 l 18.98369835076716 -7.720504853814376" fill="#feff18" stroke="none" /><path d="M 80.41425534168474 107.57618678355246 l -11.43179284666982 4.422063055972643 a33.25726435058694,33.25726435058694 0 0,0 -0.2013954078888894,-0.5342252466391164 l 11.506018938373145 -4.225169529139382" fill="#ff970d" stroke="none" /><path d="M 80.05021161711548 106.5578916946017 l -15.696241760377516 5.159666433612404 a37.52253500847753,37.52253500847753 0 0,0 -0.1958949424005876,-0.613638116967144 l 15.78250141855536 -4.889459282953869" fill="#ffcf13" stroke="none" /><path d="M 79.34024301695615 103.76489593502545 l -13.299224887592452 2.4235617950095185 a34.518248199563,34.518248199563 0 0,0 -0.1012291721532591,-0.5838629643743326 l 13.338868877237946 -2.1949057977145934" fill="#ffa80f" stroke="none" /><path d="M 79.2786578344484 103.40968896794605 l -14.333783861951515 2.3586186798396573 a35.52654266775237,35.52654266775237 0 0,0 -0.09385521793776544,-0.6026178263509518 l 14.372160572027548 -2.1122126715572556" fill="#ffb510" stroke="none" /><path d="M 79.03789590574601 101.26102812881392 l -22.665694236461587 1.3635118813816174 a43.70666994236356,43.70666994236356 0 0,0 -0.038625063060783726,-0.7493159046106809 l 22.685760888978944 -0.9742241833942057" fill="#e3ff1b" stroke="none" /><line stroke="#e1ed5e" stroke-width="0.3" x1="15.003131293944662" x2="10.003315487706104" y1="100.72959589197737" y2="100.7725132973878" /><path d="M 14.003168132696942 100.73817937305945 a86.0,86.0 0 0,1 10.791469493833615,-42.45332614584628" fill="none" id="id22" stroke="none" /><text fill="#e1ed5e" style="font-size:6.75px; font-family:Arial;" text-anchor="middle"><textPath startOffset="22.145653131862435" xlink:href="#id22">October</textPath></text><line stroke="#e1ed5e" stroke-width="0.3" x1="26.387840678322718" x2="22.05771365940052" y1="57.49999999999999" y2="54.99999999999999" /><path d="M 25.521815274538284 56.99999999999999 a86.0,86.0 0 0,1 29.574782752854787,-30.34633250058573" fill="none" id="id23" stroke="none" /><text fill="#e1ed5e" style="font-size:6.75px; font-family:Arial;" text-anchor="middle"><textPath startOffset="21.40746469413373" xlink:href="#id23">November</textPath></text><path d="M 84.58840730492382 85.73525988315684 l -15.837250182841467 -14.658722332821403 a42.580005416696935,42.580005416696935 0 0,0 0.5011142827721239,-0.5321660027248135 l 15.583280066333073 14.928429795490727" fill="#f1ff19" stroke="none" /><line stroke="#e1ed5e" stroke-width="0.3" x1="56.869717070023135" x2="54.33264160355391" y1="26.7553504044142" y2="22.446841604673864" /><path d="M 56.362301976729285 25.89364864446614 a86.0,86.0 0 0,1 42.16139366436587,-11.88097634709845" fill="none" id="id24" stroke="none" /><text fill="#e1ed5e" style="font-size:6.75px; font-family:Arial;" text-anchor="middle"><textPath startOffset="22.145653131862474" xlink:href="#id24">December</textPath></text></svg>