<?xml version="1.0" encoding="utf-8" ?>
<svg baseProfile="full" height="200mm" version="1.1" viewBox="0,0,200,200" width="200mm" xmlns="http://www.w3.org/2000/svg" xmlns:ev="http://www.w3.org/2001/xml-events" xmlns:xlink="http://www.w3.org/1999/xlink"><defs /><rect fill="#1a1a1a" height="200" width="200" x="0" y="0" /><rect fill="#1a1a1a" height="200" width="180" x="10" y="0" /><text alignment-baseline="middle" fill="#e1ed5e" style="dominant-baseline: central; font-size:9.0px; font-family:Arial;" text-anchor="middle" x="100.0" y="100.0">2017</text><line stroke="#e1ed5e" stroke-width="0.3" x1="100.0" x2="100.0" y1="15.0" y2="10.0" /><path d="M 100.0 14.0 a86.0,86.0 0 0,1 42.46469731375804,11.215312516191453" fill="none" id="id25" stroke="none" /><text fill="#e1ed5e" style="font-size:6.75px; font-family:Arial;" text-anchor="middle"><textPath startOffset="22.20632615414155" xlink:href="#id25">January</textPath></text><line stroke="#e1ed5e" stroke-width="0.3" x1="143.23703022742887" x2="145.7803849466894" y1="26.81831364943548" y2="22.513508569990506" /><path d="M 143.74570117128098 25.957352633546492 a86.0,86.0 0 0,1 28.547481713284135,27.462654790039103" fill="none" id="id26" stroke="none" /><text fill="#e1ed5e" style="font-size:6.75px; font-family:Arial;" text-anchor="middle"><textPath startOffset="19.985693538727396" xlink:href="#id26">February</textPath></text><path d="M 114.42810811169701 84.74124197986012 l 20.469399971173253 -21.64785698579398 a50.7930536745943,50.7930536745943 0 0,0 0.6301162662059832,0.6061713488496924 l -20.838999480991657 21.292302550181986" fill="red" stroke="none" /><path d="M 115.4437574822437 85.77008943001954 l 15.538447481669579 -14.317158134263384 a42.12875687734865,42.12875687734865 0 0,0 0.4868005128204559,0.5375372848135422 l -15.782591635106069 14.047568062180291" fill="red" stroke="none" /><path d="M 116.60985879189232 87.15038557335679 l 10.685349605972013 -8.266332915343332 a34.50958756102994,34.50958756102994 0 0,0 0.35943224250190386,0.4729706989586156 l -10.826057788698028 8.081177440503682" fill="red" stroke="none" /><path d="M 117.45458315368197 88.32363383020206 l 15.186567536990164 -10.15916117062113 a39.2712996047413,39.2712996047413 0 0,0 0.37102657025941277,0.5650989211749301 l -15.359190742607503 9.896244185468527" fill="red" stroke="none" /><path d="M 117.65298651832404 88.62581576622439 l 15.794582579963443 -10.176776149101311 a39.789241912972486,39.789241912972486 0 0,0 0.366008738280003,0.5789379267703448 l -15.9674189144894 9.903390574616761" fill="red" stroke="none" /><line stroke="#e1ed5e" stroke-width="0.3" x1="172.23445277983987" x2="176.4835382374775" y1="55.19839476539836" y2="52.563006222186495" /><path d="M 173.08426987136738 54.67131705675599 a86.0,86.0 0 0,1 12.851231095245387,41.99856678651699" fill="none" id="id27" stroke="none" /><text fill="#e1ed5e" style="font-size:6.75px; font-family:Arial;" text-anchor="middle"><textPath startOffset="22.20632615414155" xlink:href="#id27">March</textPath></text><path d="M 117.84615892207809 88.93136811851018 l 19.39787246931894 -12.031043239302035 a43.825938266847146,43.825938266847146 0 0,0 0.3921048297916098,0.6445172431542564 l -19.602093097396775 11.695358222940698" fill="red" stroke="none" /><path d="M 118.03404312379186 89.2402003453031 l 41.85781545227431 -24.973973121732772 a69.74193315741267,69.74193315741267 0 0,0 0.6062245324582278,1.036234236540536 l -42.281499659202865 24.249759472838342" fill="red" stroke="none" /><path d="M 118.21658344932153 89.55222093294921 l 14.121878939229243 -8.099338252925792 a37.279642038741315,37.279642038741315 0 0,0 0.3144668439293528,0.559401426196927 l -14.259203424451028 7.855053316794071" fill="red" stroke="none" /><path d="M 118.73160827565052 90.50648371742162 l 30.5151627376558 -15.465633812770092 a55.2105391091154,55.2105391091154 0 0,0 0.4223342993963644,0.8514001763947978 l -30.77685705000557 14.938074047876343" fill="red" stroke="none" /><path d="M 119.196687751892 91.48605970444005 l 22.545567448260023 -9.999204949566732 a45.66346916367367,45.66346916367367 0 0,0 0.3124887971253419,0.7212672277492306 l -22.71434695522805 9.609638577230898" fill="red" stroke="none" /><path d="M 119.47837535516314 92.15188598940014 l 5.080466271377822 -2.046991999987893 a26.477345505134956,26.477345505134956 0 0,0 0.1666893265614099,0.42420615442479936 l -5.114949147820933 1.9592368406673095" fill="red" stroke="none" /><path d="M 119.7369772167798 92.82701384747503 l 17.122961300288853 -6.2229774573977075 a39.218706104618676,39.218706104618676 0 0,0 0.22512829502558554,0.6364680061395745 l -17.227542676124248 5.927311824831518" fill="red" stroke="none" /><path d="M 119.85752413597 93.16781622104841 l 48.347512967600615 -16.634455110723042 a72.12912190702056,72.12912190702056 0 0,0 0.39383430074880393,1.1775144310629526 l -48.62668456212119 15.799767576737775" fill="red" stroke="none" /><path d="M 120.08093135843002 93.85539295169968 l 5.338374863835477 -1.6335007191298558 a26.582702820877017,26.582702820877017 0 0,0 0.1301211947056321,0.43870398183648085 l -5.365701955652812 1.5413673505468453" fill="red" stroke="none" /><path d="M 120.28053869075195 94.5502522615342 l 22.839697799527787 -6.137440100985983 a44.64994643898682,44.64994643898682 0 0,0 0.1930656627835436,0.7439607551454221 l -22.941959794181635 5.743382920291711" fill="red" stroke="none" /><path d="M 120.53481517161879 95.60439243477599 l 48.035912381741035 -10.282392030459844 a70.1240925027055,70.1240925027055 0 0,0 0.2424981414699219,1.1825070592693714 l -48.205789819125954 9.454009315027061" fill="red" stroke="none" /><path d="M 120.87857604477298 97.74499172005257 l 4.090722174049518 -0.44182191130585374 a25.114512669389946,25.114512669389946 0 0,0 0.042722027601937745,0.4302049876958592 l -4.0977213273336845 0.37134139290555956" fill="red" stroke="none" /><path d="M 120.91429891909075 98.10471618934814 l 51.00593076353313 -4.6222307138927015 a72.21493912743418,72.21493912743418 0 0,0 0.10153254065148855,1.2389541684429852 l -51.077937788004114 3.743562628241947" fill="red" stroke="none" /><path d="M 120.98425023603335 99.18683210126433 l 19.702550350011066 -0.763500305593036 a40.71733813199342,40.71733813199342 0 0,0 0.021111562787331367,0.700589989737126 l -19.712773607254043 0.42424016843091095" fill="red" stroke="none" /><line stroke="#e1ed5e" stroke-width="0.3" x1="184.98032266829074" x2="189.97916517819016" y1="98.17113171792111" y2="98.06355123074" /><path d="M 185.9800911702706 98.14961562048488 a86.0,86.0 0 0,1 -9.607161424134198,41.387399972396054" fill="none" id="id28" stroke="none" /><text fill="#e1ed5e" style="font-size:6.75px; font-family:Arial;" text-anchor="middle"><textPath startOffset="21.466115282336823" xlink:href="#id28">April</textPath></text><path d="M 120.99513854157772 99.54816195383933 l 49.36087416808165 -1.0622992983218758 a70.37230375865,70.37230375865 0 0,0 0.01563938289293232,1.2112874402622569 l -49.3718465580923 0.21247559999915613" fill="red" stroke="none" /><path d="M 120.9764740272857 100.99374915477107 l 15.110608238314668 0.7158569235882646 a36.12755540286904,36.12755540286904 0 0,0 -0.034774748962139994,0.6209265030740203 l -15.096047138464998 -0.9758551429977083" fill="red" stroke="none" /><path d="M 120.95626037817324 101.35467743843564 l 18.422346887234852 1.1908774390475274 a39.460797759263926,39.460797759263926 0 0,0 -0.049651908316683126,0.677460840356319 l -18.39911842025383 -1.5078114159006166" fill="red" stroke="none" /><path d="M 120.92983693683757 101.71520430193887 l 16.4413544939641 1.3473722725529353 a37.49647082369553,37.49647082369553 0 0,0 -0.05825416660990153,0.6428298742988525 l -16.415725731077124 -1.6301835354003582" fill="red" stroke="none" /><path d="M 120.89721153311464 102.0752229133903 l 55.12355004834604 5.4741109332444395 a76.3946898216966,76.3946898216966 0 0,0 -0.14121266840091806,1.307453929066107 l -55.021155078444075 -6.422161184195338" fill="red" stroke="none" /><path d="M 120.8583938346157 102.4346265915055 l 20.320954107444233 2.3718957282627384 a41.4589116324062,41.4589116324062 0 0,0 -0.0888375453203129,0.7081226442434239 l -20.277115052877072 -2.7213361267935574" fill="red" stroke="none" /><path d="M 120.81339534386255 102.79330883721812 l 51.358721487696975 6.8927134775303 a72.8191834356173,72.8191834356173 0 0,0 -0.17742202974664492,1.240889262815468 l -51.232465406933734 -7.775748212326178" fill="red" stroke="none" /><path d="M 120.76222939487914 103.15116336523771 l 51.646752937043956 7.838626223291616 a73.23821541753253,73.23821541753253 0 0,0 -0.1998993343544287,1.244773345843843 l -51.50417184832824 -8.726478798828664" fill="red" stroke="none" /><path d="M 120.5718875245553 104.21870165774334 l 8.560746615139816 1.7555625799384063 a29.738900536149146,29.738900536149146 0 0,0 -0.10715345220694762,0.5005852554898003 l -8.529259124208426 -1.9026616548443755" fill="red" stroke="none" /><path d="M 120.32669344350535 105.2749913415812 l 51.375542071232594 13.332495043918856 a74.07731857591443,74.07731857591443 0 0,0 -0.3309207502404539,1.2314792171854816 l -51.138433244650365 -14.214865194279884" fill="red" stroke="none" /><path d="M 120.23288151984713 105.62410040840565 l 49.976261416213326 13.89181822499186 a72.87108364722978,72.87108364722978 0 0,0 -0.3463367002896422,1.2056434888147756 l -49.72973207903758 -14.750019189311217" fill="red" stroke="none" /><path d="M 120.13307415673323 105.97154293290107 l 21.01940606791936 6.234432197563034 a42.924497172662726,42.924497172662726 0 0,0 -0.21620298116685327,0.706563851874047 l -20.908976314246374 -6.595323021989139" fill="red" stroke="none" /><path d="M 119.9155931802556 106.66101706037122 l 42.83928985438492 14.328131629900241 a66.17189514766626,66.17189514766626 0 0,0 -0.3705915049156518,1.0771123833230951 l -42.58630751852604 -15.063416716312638" fill="red" stroke="none" /><path d="M 119.79798401119884 107.00284435728193 l 23.07990480711901 8.163709045007474 a45.481179531983585,45.481179531983585 0 0,0 -0.26742010728883947,0.7358252828929086 l -22.935960438824942 -8.559782124906514" fill="red" stroke="none" /><path d="M 119.67450827220406 107.3425965602758 l 26.191179592006353 9.774641506722011 a48.95570612604273,48.95570612604273 0 0,0 -0.3014406118398347,0.786966317009253 l -26.019044700573012 -10.224031390564408" fill="red" stroke="none" /><path d="M 119.54520255179757 107.68017299344265 l 47.96078497906545 18.84590986275819 a72.53062404399307,72.53062404399307 0 0,0 -0.46660465212492275,1.1580744806050527 l -47.62927771268314 -19.668683711206057" fill="red" stroke="none" /><path d="M 119.41010516605496 108.01547362559984 l 47.505250814795296 19.61746635198105 a72.39643801906624,72.39643801906624 0 0,0 -0.4855698695313001,1.147743736551325 l -47.160529964071685 -20.43228461419854" fill="red" stroke="none" /><line stroke="#e1ed5e" stroke-width="0.3" x1="174.80103733775053" x2="179.2010983576182" y1="140.37084112569926" y2="142.7455964860345" /><path d="M 175.68104954172406 140.8457921977663 a86.0,86.0 0 0,1 -30.038265399797805,32.042727171017184" fill="none" id="id29" stroke="none" /><text fill="#e1ed5e" style="font-size:6.75px; font-family:Arial;" text-anchor="middle"><textPath startOffset="22.206326154141568" xlink:href="#id29">May</textPath></text><path d="M 117.94076556474637 110.91462005526583 l 11.542128285958235 7.021882339174955 a34.51027597626097,34.51027597626097 0 0,0 -0.31311561277594896,0.504842065976396 l -11.419548033514323 -7.219520736516622" fill="red" stroke="none" /><path d="M 117.75023020441432 111.22182372390056 l 40.33846467099293 25.50226868145616 a68.72376179550523,68.72376179550523 0 0,0 -0.6407513490473408,0.9944603229427211 l -39.89350845856854 -26.192850604320338" fill="red" stroke="none" /><path d="M 117.55443506779137 111.5257021239791 l 22.69350346041934 14.899856362463412 a48.14775900383135,48.14775900383135 0 0,0 -0.4608357162477611,0.6888868687793482 l -22.433664638760852 -15.288280145448567" fill="red" stroke="none" /><path d="M 117.14729908036423 112.12312394758627 l 33.72970221607581 23.846867005948113 a62.30818172692337,62.30818172692337 0 0,0 -0.6267022419552107,0.8704346011487247 l -33.31422018174499 -24.42393521254797" fill="red" stroke="none" /><path d="M 116.93607887273984 112.41649034213515 l 21.863332953517606 16.028849682625495 a48.10958040960008,48.10958040960008 0 0,0 -0.4953883203620255,0.6636536103272437 l -21.58418336646049 -16.402816172462053" fill="red" stroke="none" /><path d="M 116.71984013943494 112.70617746262583 l 14.770317169136467 11.224645066293066 a39.55141304971524,39.55141304971524 0 0,0 -0.41659537790425405,0.5385056835633264 l -14.574914974014145 -11.477228743969645" fill="red" stroke="none" /><path d="M 116.498646956653 112.99209946851258 l 16.40842984904694 12.921056695195526 a41.88516881022396,41.88516881022396 0 0,0 -0.4509279246928734,0.5626019193924082 l -16.18358401229921 -13.201586448166186" fill="red" stroke="none" /><path d="M 116.27256486870786 113.27417163493432 l 2.377805191216518 1.9396692824584956 a24.068594866170717,24.068594866170717 0 0,0 -0.264644515787645,0.3187813675768896 l -2.34406467553533 -1.9803119071491557" fill="red" stroke="none" /><path d="M 115.56566222782051 114.09645910891815 l 20.049739995384115 18.15729622374998 a48.04957448906564,48.04957448906564 0 0,0 -0.5604721840654167,0.6082818612022807 l -19.73422140332298 -18.499729339753596" fill="red" stroke="none" /><path d="M 115.32070863581623 114.36230785411682 l 31.54340449266171 29.570178303074485 a64.23634827160231,64.23634827160231 0 0,0 -0.7631689551001882,0.800179598313273 l -31.02972898618256 -30.108765017970264" fill="red" stroke="none" /><path d="M 114.55890576462653 115.13401014063108 l 18.797399274751292 19.53993217902217 a48.11367125741563,48.11367125741563 0 0,0 -0.6017970150106694,0.5690366399683501 l -18.458266425349816 -19.86060345573644" fill="red" stroke="none" /><path d="M 114.29624159901734 115.38237550388516 l 24.158959607119005 25.994397610449035 a56.48751944597602,56.48751944597602 0 0,0 -0.7179306852204896,0.6558126589766671 l -23.707929372431654 -26.406403036012282" fill="red" stroke="none" /><path d="M 112.92097659922987 116.55440617244103 l 16.63224238490576 21.30929453232119 a48.03178721830041,48.03178721830041 0 0,0 -0.6561399939068473,0.5031001680830955 l -16.26297366250542 -21.592434042231655" fill="red" stroke="none" /><path d="M 112.63410532772338 116.77436683061366 l 23.10103886638818 30.67136849514347 a59.39779735963062,59.39779735963062 0 0,0 -0.8219948874638656,0.608092166623419 l -22.56965900850575 -31.064470610506657" fill="red" stroke="none" /><path d="M 112.34349029814194 116.9893568818739 l 5.094514519528454 7.01199767825685 a29.667305788396167,29.667305788396167 0 0,0 -0.41572749285121874,0.29661052789980874 l -4.973059698828352 -7.0986524680008785" fill="red" stroke="none" /><path d="M 112.04921762599082 117.19931262002967 l 16.264714539936797 23.21660366101252 a49.34698616463788,49.34698616463788 0 0,0 -0.6998885758927249,0.4813897444237725 l -15.86266907942119 -23.49313419480139" fill="red" stroke="none" /><path d="M 111.7513745106137 117.40417183066458 l 22.711337384578037 33.63623701962585 a61.585727622362285,61.585727622362285 0 0,0 -0.883682758529849,0.585656746605562 l -22.128979927308222 -34.02219178732273" fill="red" stroke="none" /><path d="M 111.45004920935366 117.60387380957326 l 9.815134349794922 15.090274579488117 a39.00147908336616,39.00147908336616 0 0,0 -0.565926686847032,0.36120118744023005 l -9.55392586090096 -15.256990195752154" fill="red" stroke="none" /><line stroke="#e1ed5e" stroke-width="0.3" x1="143.8653032363475" x2="146.44561519142675" y1="172.8068346515853" y2="177.08958963109032" /><path d="M 144.38136562736335 173.6633856474863 a86.0,86.0 0 0,1 -40.68145358897372,12.25698825130547" fill="none" id="id30" stroke="none" /><text fill="#e1ed5e" style="font-size:6.75px; font-family:Arial;" text-anchor="middle"><textPath startOffset="21.466115282336833" xlink:href="#id30">June</textPath></text><path d="M 110.8373102113329 117.98757091392108 l 6.969340158915315 11.56758438091334 a34.504840267852856,34.504840267852856 0 0,0 -0.5113816617328312,0.3021332995823288 l -6.769190626154102 -11.685836252789418" fill="red" stroke="none" /><path d="M 110.5260780823613 118.17145234162733 l 9.020188682447358 15.571794876787463 a38.995682803152974,38.995682803152974 0 0,0 -0.5837305225676633,0.33145742514474547 l -8.750809392958496 -15.724755467726837" fill="red" stroke="none" /><line stroke="#e1ed5e" stroke-width="0.3" x1="102.19456741930631" x2="102.32365962044197" y1="184.97166512339345" y2="189.96999836594603" /><path d="M 102.22038585953345 185.97133177190398 a86.0,86.0 0 0,1 -42.740103519485714,-10.115201625700543" fill="none" id="id31" stroke="none" /><text fill="#e1ed5e" style="font-size:6.75px; font-family:Arial;" text-anchor="middle"><textPath startOffset="22.20632615414155" xlink:href="#id31">July</textPath></text><path d="M 94.81253420990036 120.34920634021253 l -3.5774282708390173 14.033408411010377 a35.48221477064938,35.48221477064938 0 0,0 -0.5905415796455856,-0.15596739853329378 l 3.8184602932960923 -13.9697496631735" fill="red" stroke="none" /><path d="M 94.46302465271185 120.25689768951611 l -3.577074532796436 13.086645378350847 a34.5667147634161,34.5667147634161 0 0,0 -0.572603937486217,-0.16182359231974214 l 3.801809638387267 -13.023132992692583" fill="red" stroke="none" /><path d="M 91.40352486487194 119.15986991738527 l -3.3269741075982044 7.415177746470737 a29.12733767751677,29.12733767751677 0 0,0 -0.4556791726263687,-0.20917995850071439 l 3.4541212759919926 -7.356810717635947" fill="red" stroke="none" /><path d="M 91.07499286063937 119.00905698771935 l -21.96019570192209 46.77224399276067 a72.67100737730061,72.67100737730061 0 0,0 -1.1277409860915821,-0.5413842060308302 l 22.762049356013915 -46.387305510230284" fill="red" stroke="none" /><path d="M 90.42595943632237 118.69057910512821 l -4.089852281165279 7.984268197005167 a29.970809903429064,29.970809903429064 0 0,0 -0.4571391938436824,-0.2391536204864307 l 4.226682377535457 -7.912685157574019" fill="red" stroke="none" /><path d="M 90.10565033884886 118.52300852407294 l -28.207724387881374 52.80710073678945 a80.86873644372417,80.86873644372417 0 0,0 -1.2221853419164368,-0.6664328962839132 l 29.11253254166645 -52.31372718874577" fill="red" stroke="none" /><line stroke="#e1ed5e" stroke-width="0.3" x1="58.666819895761336" x2="56.23545636021788" y1="174.27360380694188" y2="178.64263932499728" /><path d="M 58.180547188652646 175.14741091055294 a86.0,86.0 0 0,1 -31.652253787137756,-30.449443065178592" fill="none" id="id32" stroke="none" /><text fill="#e1ed5e" style="font-size:6.75px; font-family:Arial;" text-anchor="middle"><textPath startOffset="22.20632615414155" xlink:href="#id32">August</textPath></text><path d="M 89.7882731507175 118.34994917583269 l -25.201086810185668 45.285059908858315 a72.82500774108385,72.82500774108385 0 0,0 -1.0901252848753493,-0.6190015872745145 l 25.976860861982225 -44.844555155789166" fill="red" stroke="none" /><path d="M 89.4739219176387 118.17145234162733 l -9.124536332687233 15.751933038262075 a39.20386106649965,39.20386106649965 0 0,0 -0.5810238639825813,-0.3432791402145449 l 9.394328067698197 -15.592535325753781" fill="red" stroke="none" /><path d="M 89.1626897886671 117.98757091392108 l -6.987663668794124 11.597997410245323 a34.540346652735394,34.540346652735394 0 0,0 -0.5066259624090933,-0.3112110450687315 l 7.186268831135526 -11.475997898348215" fill="red" stroke="none" /><path d="M 88.8546689885994 117.79835938074946 l -9.674514244434496 15.449561900000164 a39.22869136190809,39.22869136190809 0 0,0 -0.5692236257075264,-0.3633054498102568 l 9.939019672188945 -15.280742021366102" fill="red" stroke="none" /><path d="M 87.95078237400918 117.19931262002967 l -10.49139880230879 14.975648496304398 a39.28495274027118,39.28495274027118 0 0,0 -0.5504994294385659,-0.39276672623803277 l 10.74762555959624 -14.79283750822215" fill="red" stroke="none" /><path d="M 87.65650970185807 116.9893568818739 l -37.030470894425804 50.96807064562169 a84.0,84.0 0 0,0 -1.1624601183257428,-0.8599602050409239 l 37.902315983170105 -50.323100491841" fill="red" stroke="none" /><path d="M 87.36589467227662 116.77436683061367 l -24.55682287106414 32.604220429422455 a61.81755430364719,61.81755430364719 0 0,0 -0.8444609716433429,-0.6474966633929872 l 25.11441257120097 -32.1766844242021" fill="red" stroke="none" /><path d="M 87.07902340077011 116.55440617244103 l -20.641998145871707 26.446609425629788 a54.548699491425616,54.548699491425616 0 0,0 -0.7352190796695467,-0.5841025024165333 l 21.09417471825861 -26.08737300920812" fill="red" stroke="none" /><path d="M 85.97065885151581 115.62618273729859 l -10.490450506343963 11.684490018009768 a36.70276596039762,36.70276596039762 0 0,0 -0.4664754652686967,-0.4261142774964215 l 10.690025521079516 -11.502182973926768" fill="red" stroke="none" /><path d="M 84.9287848128048 114.62390073753433 l -12.72910279895112 12.351302366639127 a38.73653653390116,38.73653653390116 0 0,0 -0.4602148613084764,-0.4825334421671681 l 12.939824211638554 -12.130361807889459" fill="red" stroke="none" /><path d="M 84.19399662182784 113.82643327865904 l -13.604516402098193 11.90066418572318 a39.07508435931388,39.07508435931388 0 0,0 -0.4384922056393344,-0.5100654988134778 l 13.807351117308306 -11.664721587748172" fill="red" stroke="none" /><path d="M 83.50135304334701 112.99209946851258 l -14.144382751351753 11.138199884456181 a39.00341801111213,39.00341801111213 0 0,0 -0.41082334139295273,-0.5310445482941176 l 14.334012909962775 -10.893077342048812" fill="red" stroke="none" /><path d="M 83.28015986056508 112.70617746262583 l -15.74923841730281 11.96857246018006 a40.78093115754734,40.78093115754734 0 0,0 -0.41992461411918935,-0.5625576437123394 l 15.952924298117082 -11.695701936958415" fill="red" stroke="none" /><line stroke="#e1ed5e" stroke-width="0.3" x1="26.63291911575756" x2="22.317208475507996" y1="142.92168965132927" y2="145.44649492493687" /><path d="M 25.769776987707644 143.4266507060508 a86.0,86.0 0 0,1 -11.730757126820373,-40.83630448921669" fill="none" id="id33" stroke="none" /><text fill="#e1ed5e" style="font-size:6.75px; font-family:Arial;" text-anchor="middle"><textPath startOffset="21.46611528233685" xlink:href="#id33">September</textPath></text><path d="M 81.51974371655577 109.97397251340807 l -10.09294925987778 5.44726203756313 a32.469101467348864,32.469101467348864 0 0,0 -0.2612177739571553,-0.49412558583855837 l 10.185219542059821 -5.272721436638445" fill="red" stroke="none" /><path d="M 81.02952815118164 109.00673069616217 l -12.960078168865618 6.153138140074986 a35.346593153566204,35.346593153566204 0 0,0 -0.25622136600992257,-0.5518780278625693 l 13.064074151715367 -5.929140044933589" fill="red" stroke="none" /><path d="M 80.87730276802145 108.67885076344099 l -20.12737248432114 9.134823395074907 a43.10330567091302,43.10330567091302 0 0,0 -0.30081779636309924,-0.6782647172198583 l 20.281631365415517 -8.787010341362354" fill="red" stroke="none" /><path d="M 80.32549172779595 107.34259656027581 l -14.048041021081138 5.242778942827855 a35.99447190044843,35.99447190044843 0 0,0 -0.21164019131593517,-0.5823429106561319 l 14.136205473402295 -5.000188235165606" fill="red" stroke="none" /><path d="M 80.20201598880116 107.00284435728193 l -14.434026272020438 5.105531925609266 a36.3103746088981,36.3103746088981 0 0,0 -0.2033539517091715,-0.5910417715416508 l 14.519771054672837 -4.856317450978318" fill="red" stroke="none" /><line stroke="#e1ed5e" stroke-width="0.3" x1="15.007084014347285" x2="10.007500721073583" y1="101.09737516637583" y2="101.16192664675087" /><path d="M 14.007167355692545 101.11028546245083 a86.0,86.0 0 0,1 10.666146001902534,-42.60595125391555" fill="none" id="id34" stroke="none" /><text fill="#e1ed5e" style="font-size:6.75px; font-family:Arial;" text-anchor="middle"><textPath startOffset="22.20632615414155" xlink:href="#id34">October</textPath></text><line stroke="#e1ed5e" stroke-width="0.3" x1="26.266209847984257" x2="21.92892807433627" y1="57.711370442889674" y2="55.22380399835377" /><path d="M 25.39875349325466 57.213857153982495 a86.0,86.0 0 0,1 29.58750427330802,-30.492523968695096" fill="none" id="id35" stroke="none" /><text fill="#e1ed5e" style="font-size:6.75px; font-family:Arial;" text-anchor="middle"><textPath startOffset="21.46611528233685" xlink:href="#id35">November</textPath></text><line stroke="#e1ed5e" stroke-width="0.3" x1="56.762969772571076" x2="54.21961505331055" y1="26.818313649435495" y2="22.513508569990535" /><path d="M 56.25429882871897 25.957352633546506 a86.0,86.0 0 0,1 42.265352541879196,-11.944610805530505" fill="none" id="id36" stroke="none" /><text fill="#e1ed5e" style="font-size:6.75px; font-family:Arial;" text-anchor="middle"><textPath startOffset="22.20632615414155" xlink:href="#id36">December</textPath></text></svg>