<?xml version="1.0" encoding="utf-8" ?>
<svg baseProfile="full" height="200mm" version="1.1" viewBox="0,0,200,200" width="200mm" xmlns="http://www.w3.org/2000/svg" xmlns:ev="http://www.w3.org/2001/xml-events" xmlns:xlink="http://www.w3.org/1999/xlink"><defs /><rect fill="#1a1a1a" height="200" width="200" x="0" y="0" /><rect fill="#1a1a1a" height="200" width="180" x="10" y="0" /><text alignment-baseline="middle" fill="#e1ed5e" style="dominant-baseline: central; font-size:9.0px; font-family:Arial;" text-anchor="middle" x="100.0" y="100.0">2025</text><line stroke="#e1ed5e" stroke-width="0.3" x1="100.0" x2="100.0" y1="15.0" y2="10.0" /><path d="M 100.0 14.0 a86.0,86.0 0 0,1 42.46469731375804,11.215312516191453" fill="none" id="id121" stroke="none" /><text fill="#e1ed5e" style="font-size:6.75px; font-family:Arial;" text-anchor="middle"><textPath startOffset="22.20632615414155" xlink:href="#id121">January</textPath></text><line stroke="#e1ed5e" stroke-width="0.3" x1="143.23703022742887" x2="145.7803849466894" y1="26.81831364943548" y2="22.513508569990506" /><path d="M 143.74570117128098 25.957352633546492 a86.0,86.0 0 0,1 28.547481713284135,27.462654790039103" fill="none" id="id122" stroke="none" /><text fill="#e1ed5e" style="font-size:6.75px; font-family:Arial;" text-anchor="middle"><textPath startOffset="19.985693538727396" xlink:href="#id122">February</textPath></text><path d="M 112.77801427241765 83.33499621200491 l 5.83248899821129 -7.6066945283072185 a30.58539146624877,30.58539146624877 0 0,0 0.41504004074216555,0.32394533505529693 l -5.962561594112886 7.505170804028696" fill="#ff6108" stroke="none" /><path d="M 113.34407831869373 83.78471172551755 l 5.945832723791082 -7.225181788168764 a30.357145860324636,30.357145860324636 0 0,0 0.40063115117246206,0.3355170675718265 l -6.069321411922662 7.121763563203118" fill="#ff5e08" stroke="none" /><path d="M 113.89432698308785 84.25364557470405 l 5.031372393975755 -5.702023067229199 a28.604457589208792,28.604457589208792 0 0,0 0.3663945141558886,0.32895261244812296 l -5.128777895727634 5.614571446011781" fill="#ff4406" stroke="none" /><path d="M 114.16331599549186 84.49514656593476 l 8.746810333880399 -9.575300888969057 a33.96892740866293,33.96892740866293 0 0,0 0.4283192463694804,0.39807605958263775 l -8.910337464044726 9.423320243311778" fill="#ff900d" stroke="none" /><path d="M 114.42810811169701 84.74124197986012 l 12.928598568551049 -13.672919246918799 a39.81747543321109,39.81747543321109 0 0,0 0.49395807368582734,0.47518727552329704 l -13.162039885849294 13.4483488846332" fill="#ffde14" stroke="none" /><path d="M 116.38621287248628 86.86637796730983 l 4.645623949452411 -3.723488125835855 a26.95366993567551,26.95366993567551 0 0,0 0.28705134733957044,0.3645260606005316 l -4.709029377385946 3.642969671282285" fill="#ff2c04" stroke="none" /><line stroke="#e1ed5e" stroke-width="0.3" x1="172.23445277983987" x2="176.4835382374775" y1="55.19839476539836" y2="52.563006222186495" /><path d="M 173.08426987136738 54.67131705675599 a86.0,86.0 0 0,1 12.851231095245387,41.99856678651699" fill="none" id="id123" stroke="none" /><text fill="#e1ed5e" style="font-size:6.75px; font-family:Arial;" text-anchor="middle"><textPath startOffset="22.20632615414155" xlink:href="#id123">March</textPath></text><line stroke="#e1ed5e" stroke-width="0.3" x1="184.98032266829074" x2="189.97916517819016" y1="98.17113171792111" y2="98.06355123074" /><path d="M 185.9800911702706 98.14961562048488 a86.0,86.0 0 0,1 -9.607161424134198,41.387399972396054" fill="none" id="id124" stroke="none" /><text fill="#e1ed5e" style="font-size:6.75px; font-family:Arial;" text-anchor="middle"><textPath startOffset="21.466115282336823" xlink:href="#id124">April</textPath></text><line stroke="#e1ed5e" stroke-width="0.3" x1="174.80103733775053" x2="179.2010983576182" y1="140.37084112569926" y2="142.7455964860345" /><path d="M 175.68104954172406 140.8457921977663 a86.0,86.0 0 0,1 -30.038265399797805,32.042727171017184" fill="none" id="id125" stroke="none" /><text fill="#e1ed5e" style="font-size:6.75px; font-family:Arial;" text-anchor="middle"><textPath startOffset="22.206326154141568" xlink:href="#id125">May</textPath></text><path d="M 117.14729908036423 112.12312394758627 l 2.5632252076351283 1.8121977549993342 a24.139137487954418,24.139137487954418 0 0,0 -0.24279398247998105,0.33721960630288694 l -2.5316514327795443 -1.8560509667533522" fill="#ff0200" stroke="none" /><path d="M 116.27256486870786 113.27417163493432 l 11.406229291401496 9.304510170528609 a35.71991766829882,35.71991766829882 0 0,0 -0.3927558034801663,0.4730996664885835 l -11.244377488027785 -9.499471094130962" fill="#ffa80f" stroke="none" /><path d="M 116.0416608686014 113.55231037782055 l 19.220009345832803 16.237441637303956 a46.16074860131853,46.16074860131853 0 0,0 -0.5180060081771861,0.6025580148318512 l -18.937660828084837 -16.565876751297335" fill="#d1ff1c" stroke="none" /><path d="M 115.80600337817218 113.82643327865902 l 9.51509670450427 8.323410199095527 a33.64184411541589,33.64184411541589 0 0,0 -0.3850247387928732,0.43257937565302484 l -9.370413116063057 -8.485963744489418" fill="#ff8b0c" stroke="none" /><path d="M 115.56566222782051 114.09645910891815 l 23.12318721576935 20.940648607443897 a52.196034220970475,52.196034220970475 0 0,0 -0.6088383843240446,0.6607738191424566 l -22.759302423449583 -21.335573681387686" fill="#8bff24" stroke="none" /><path d="M 115.32070863581623 114.36230785411682 l 2.5687426053115576 2.4080525889790314 a24.520959506105036,24.520959506105036 0 0,0 -0.2913247024130909,0.30545278577931423 l -2.526911351519502 -2.4519124913408525" fill="#ff0801" stroke="none" /><path d="M 115.07121518719521 114.62390073753431 l 6.361322633732294 6.172518247511274 a29.863769354303756,29.863769354303756 0 0,0 -0.36115162850974447,0.3658446929506452 l -6.254130380167013 -6.281103434442584" fill="#ff5608" stroke="none" /><path d="M 114.81725581225074 114.88116024355365 l 10.174115178144381 10.217994493768542 a35.41943241368509,35.41943241368509 0 0,0 -0.4357434309951371,0.42646665906386627 l -9.996721794773451 -10.39161125575498" fill="#ffa40f" stroke="none" /><path d="M 114.55890576462653 115.13401014063108 l 5.630386480257956 5.8527974193589305 a29.12136008000668,29.12136008000668 0 0,0 -0.36424465461046657,0.3444160559392229 l -5.528805991256681 -5.948848112044075" fill="#ff4c07" stroke="none" /><path d="M 114.29624159901734 115.38237550388516 l 19.193994574751976 20.652227365034427 a49.194395238640695,49.194395238640695 0 0,0 -0.6252383929951602,0.5711404477418649 l -18.83565663228995 -20.979560579362875" fill="#adff20" stroke="none" /><path d="M 114.0293411484842 115.62618273729858 l 21.815546733333928 24.29862644020063 a53.65488211821769,53.65488211821769 0 0,0 -0.6925507667637376,0.6110955301720719 l -21.3940536136636 -24.67054511214499" fill="#7bff26" stroke="none" /><path d="M 113.75828350139079 115.86535959552629 l 2.336854132787713 2.694742489876806 a24.566864775215688,24.566864775215688 0 0,0 -0.3218663158059568,0.27430145707043363 l -2.2901223404047086 -2.7345683371701863" fill="#ff0901" stroke="none" /><path d="M 113.48314897796784 116.09983520530334 l 18.500237476341074 22.0905943496413 a49.81411364941526,49.81411364941526 0 0,0 -0.6621241495057824,0.5448830978606638 l -18.1172431982906 -22.405772566359143" fill="#a6ff21" stroke="none" /><path d="M 113.20401910651253 116.32954008644616 l 11.423659510967862 14.127751892319989 a39.16847187171991,39.16847187171991 0 0,0 -0.5279210707143577,0.41941242686637964 l -11.178780947536154 -14.322298233191495" fill="#ffd513" stroke="none" /><path d="M 112.92097659922987 116.55440617244103 l 8.913428402117255 11.419919618646768 a35.48667560125593,35.48667560125593 0 0,0 -0.48476703577481917,0.37169869150527685 l -8.715532637848941 -11.571657651979416" fill="#ffa50f" stroke="none" /><path d="M 112.63410532772338 116.77436683061366 l 7.833068398167422 10.400005327787197 a34.01987217096893,34.01987217096893 0 0,0 -0.4707945789201332,0.3482825743763388 l -7.6528888488287246 -10.533297850903304" fill="#ff910d" stroke="none" /><path d="M 112.34349029814194 116.9893568818739 l 19.916796444637633 27.413118540103778 a54.88447799082807,54.88447799082807 0 0,0 -0.7690953332371456,0.5487290995170956 l -19.441973783551603 -27.751891901465093" fill="#6eff28" stroke="none" /><path d="M 112.04921762599082 117.19931262002967 l 23.264770545153578 33.20863429142776 a61.54704600856192,61.54704600856192 0 0,0 -0.872922091688039,0.6004037743916231 l -22.689691568842655 -33.60417885518448" fill="#30ff38" stroke="none" /><path d="M 111.7513745106137 117.40417183066458 l 10.289170693459381 15.238599925673995 a39.387005227983565,39.387005227983565 0 0,0 -0.5651572007644169,0.37455537558642404 l -10.025338793955001 -15.413453322351737" fill="#ffd814" stroke="none" /><path d="M 111.45004920935366 117.60387380957326 l 10.254388431028206 15.765605599904513 a39.807094459967644,39.807094459967644 0 0,0 -0.5776164804566171,0.3686621668053092 l -9.981490148524658 -15.939782195533628" fill="#ffde14" stroke="none" /><line stroke="#e1ed5e" stroke-width="0.3" x1="143.8653032363475" x2="146.44561519142675" y1="172.8068346515853" y2="177.08958963109032" /><path d="M 144.38136562736335 173.6633856474863 a86.0,86.0 0 0,1 -40.68145358897372,12.25698825130547" fill="none" id="id126" stroke="none" /><text fill="#e1ed5e" style="font-size:6.75px; font-family:Arial;" text-anchor="middle"><textPath startOffset="21.466115282336833" xlink:href="#id126">June</textPath></text><path d="M 110.5260780823613 118.17145234162733 l 1.884897558843278 3.2539494663986748 a24.760455549160177,24.760455549160177 0 0,0 -0.3706418920700638,0.21046013947656744 l -1.828606899852015 -3.285912771669871" fill="#ff0c01" stroke="none" /><path d="M 110.21172684928248 118.3499491758327 l 9.609557709279565 17.267882129054517 a40.76166371009523,40.76166371009523 0 0,0 -0.616039152945989,0.33591366451697596 l -9.310895744464927 -17.430736445331263" fill="#ffea16" stroke="none" /><path d="M 109.89434966115114 118.52300852407294 l 14.869073711450387 27.836087113806425 a52.5584711106854,52.5584711106854 0 0,0 -0.8016645926690903,0.4193930258759462 l -14.387718216254802 -28.08790955862709" fill="#87ff25" stroke="none" /><path d="M 109.57404056367764 118.69057910512821 l 20.85939354623452 40.72200682332774 a66.75364618077822,66.75364618077822 0 0,0 -1.0271990433926714,0.5150589246594293 l -20.15534059515909 -41.07503358889647" fill="#37ff77" stroke="none" /><path d="M 109.2508944713604 118.85261126421891 l 14.716509889794445 29.991115018905617 a54.40722441948214,54.40722441948214 0 0,0 -0.8443154860751249,0.4053227422836518 l -14.198081735719088 -30.23999203768883" fill="#73ff27" stroke="none" /><path d="M 108.92500713936063 119.00905698771935 l 1.930745868251733 4.1122273254596085 a25.54292782069315,25.54292782069315 0 0,0 -0.3996032986143077,0.18343827508971483 l -1.859674573870006 -4.144852670883398" fill="#ff1702" stroke="none" /><path d="M 108.59647513512805 119.15986991738527 l 6.321680772094084 14.089796032517018 a36.44299193881148,36.44299193881148 0 0,0 -0.5745486278359344,0.25186523401552363 l -6.078211469600396 -14.196525819826997" fill="#ffb110" stroke="none" /><path d="M 108.2653958097858 119.30500536409082 l 11.988861734869316 28.001688658028495 a51.46025891877768,51.46025891877768 0 0,0 -0.8173078595744133,0.3416347515877349 l -11.505082415797443 -28.203908452636202" fill="#93ff23" stroke="none" /><path d="M 107.93186726928326 119.44442032107085 l 8.888316190472718 21.78908825459302 a44.53224450978408,44.53224450978408 0 0,0 -0.7122591603517516,0.2834226192577693 l -8.5119359540791 -21.938857718256855" fill="#e5ff1a" stroke="none" /><path d="M 107.59598834532513 119.57807347666477 l 11.993493771387291 30.912304182595644 a54.15741912033604,54.15741912033604 0 0,0 -0.8720112462548808,0.32972003829731283 l -11.459612304372136 -31.114172470999588" fill="#76ff27" stroke="none" /><path d="M 107.2578585660854 119.70592522655815 l 13.727063549464477 37.27056478476654 a60.71809755094667,60.71809755094667 0 0,0 -0.9838657577315598,0.35277925645555136 l -13.083478231103182 -37.501331582262054" fill="#31ff2f" stroke="none" /><path d="M 106.91757812671514 119.82793768551818 l 8.575249835979317 24.579342115256697 a47.03226783375384,47.03226783375384 0 0,0 -0.7666937527665153,0.2601041478866503 l -8.150886350275574 -24.72330925004147" fill="#c7ff1e" stroke="none" /><path d="M 106.57524785965236 119.94407469862006 l 6.591732798120288 19.994076896441968 a42.05264952975395,42.05264952975395 0 0,0 -0.6894204578793233,0.220730659432467 l -6.246590995150024 -20.10458040253414" fill="#fffa17" stroke="none" /><path d="M 106.2309692047433 120.05430185196036 l 5.309220950253924 17.08766582477923 a38.89346669703619,38.89346669703619 0 0,0 -0.6410477216485285,0.1931424199380559 l -5.0142982541651495 -17.17652361382301" fill="#ffd213" stroke="none" /><path d="M 105.88484417918355 120.15858648285463 l 4.997054635571938 17.11745544377388 a38.8319330388064,38.8319330388064 0 0,0 -0.643258056497607,0.1817911520972803 l -4.701665410969724 -17.200935389209683" fill="#ffd113" stroke="none" /><path d="M 105.53697534728816 120.25689768951611 l 9.76170851631962 35.71298737799378 a58.02307956691785,58.02307956691785 0 0,0 -0.9656962307688909,0.25504915162252256 l -9.145521842739234 -35.87572787891989" fill="#4cff2c" stroke="none" /><path d="M 105.18746579009965 120.34920634021253 l 7.323474094490863 28.72826376232021 a50.64703040120746,50.64703040120746 0 0,0 -0.8466416028502193,0.20808390729272622 l -6.827879206897433 -28.850068927926966" fill="#9dff22" stroke="none" /><path d="M 104.83641907484287 120.43548508189849 l 3.02042295611676 12.76229526548073 a34.11484408131294,34.11484408131294 0 0,0 -0.5726092926317613,0.13032401074718686 l -2.8002935140921363 -12.812396009805603" fill="#ff920d" stroke="none" /><path d="M 104.48393922423573 120.51570834832081 l 6.762862035398726 30.942637306111152 a52.6730659451746,52.6730659451746 0 0,0 -0.8874371659093439,0.18597108650624727 l -6.229233408060004 -31.05446437334394" fill="#86ff25" stroke="none" /><path d="M 104.13013068566511 120.58985236759428 l 6.763696441696268 33.71891152914504 a55.39058860016393,55.39058860016393 0 0,0 -0.9364501333806456,0.1794728968325027 l -6.182278693743918 -33.83034162432601" fill="#68ff28" stroke="none" /><path d="M 103.7750983002368 120.6578951692458 l 1.6285313356765787 8.91156386845033 a30.05914371741336,30.05914371741336 0 0,0 -0.5097902357917256,0.08863356702017151 l -1.4748921284128031 -8.938276013991507" fill="#ff5908" stroke="none" /><path d="M 103.41894727170886 120.7198165907248 l 1.990666377117644 12.064018234064331 a33.227153739804834,33.227153739804834 0 0,0 -0.5651213176297345,0.08826032750686945 l -1.7827091958793924 -12.096496868918306" fill="#ff860c" stroke="none" /><path d="M 103.06178313531738 120.77559828337769 l 5.249417591164847 35.61969815488978 a57.00443419485841,57.00443419485841 0 0,0 -0.9719837171785984,0.13470808646515203 l -4.635505282799418 -35.70478080684754" fill="#57ff2a" stroke="none" /><path d="M 102.70371172650421 120.8252237178851 l 4.6584083425959255 35.881190643521606 a57.18232455610211,57.18232455610211 0 0,0 -0.9771984842552714,0.11832512761146664 l -4.040082435289274 -35.956061299858426" fill="#55ff2b" stroke="none" /><path d="M 102.34483914955558 120.86867818915974 l 3.2000458223649058 28.479875248651936 a49.659092578866,49.659092578866 0 0,0 -0.8502757606430874,0.08813455915849033 l -2.709337465116216 -28.530739176266184" fill="#a8ff21" stroke="none" /><path d="M 101.98527174616119 120.90594882070398 l 2.706369332807512 28.499483192162838 a49.62769598109378,49.62769598109378 0 0,0 -0.8511284145231515,0.07343894096665048 l -2.2153966005428187 -28.54184638540815" fill="#a8ff21" stroke="none" /><path d="M 101.62511606390274 120.93702456842531 l 1.5968537340765803 20.57290959407078 a41.63478982238113,41.63478982238113 0 0,0 -0.7150026503377629,0.04931076898091145 l -1.242488322959887 -20.597348707567978" fill="#fff517" stroke="none" /><path d="M 101.26447882468166 120.96189622390904 l 0.22118821884136633 3.666747436811576 a24.67341271755822,24.67341271755822 0 0,0 -0.42416173257129103,0.021924316625980083 l -0.15803841785659573 -3.6700115601997583" fill="#ff0a01" stroke="none" /><path d="M 100.90346689309514 120.98055641714683 l 0.5570962623024713 12.93704246425305 a33.94903177721632,33.94903177721632 0 0,0 -0.5840521076885127,0.02011593550680239 l -0.3343238029393064 -12.944715198185946" fill="#ff900d" stroke="none" /><line stroke="#e1ed5e" stroke-width="0.3" x1="102.19456741930631" x2="102.32365962044197" y1="184.97166512339345" y2="189.96999836594603" /><path d="M 102.22038585953345 185.97133177190398 a86.0,86.0 0 0,1 -42.740103519485714,-10.115201625700543" fill="none" id="id127" stroke="none" /><text fill="#e1ed5e" style="font-size:6.75px; font-family:Arial;" text-anchor="middle"><textPath startOffset="22.20632615414155" xlink:href="#id127">July</textPath></text><path d="M 100.54218724476979 120.99299961872073 l 0.7015023626759408 27.161536856958797 a48.17059421501067,48.17059421501067 0 0,0 -0.8290854529108529,0.014273457951394482 l -0.23385721987241995 -27.16958779218935" fill="#b9ff1f" stroke="none" /><path d="M 100.18074693466247 120.99922214144158 l 0.025638547138140705 2.9786925445958894 a23.978802882087113,23.978802882087113 0 0,0 -0.41277096360119025,0.0 l 0.025638547138138654 -2.9786925445958894" fill="#ff0000" stroke="none" /><path d="M 99.45781275523022 120.99299961872073 l -0.5322838138343331 20.609547732204767 a41.6164202466019,41.6164202466019 0 0,0 -0.7159602700596476,-0.02465911932918377 l 0.8869644355686237 -20.59733181444949" fill="#fff517" stroke="none" /><path d="M 98.73552117531835 120.96189622390904 l -2.623021881297244 43.48314214169494 a64.56218422329866,64.56218422329866 0 0,0 -1.108739422684407,-0.0764651620608578 l 3.3711240647605814 -43.4315486351178" fill="#34ff5d" stroke="none" /><path d="M 98.37488393609728 120.93702456842531 l -1.8376021187298661 23.67456796559038 a44.74577751736335,44.74577751736335 0 0,0 -0.7674021919024373,-0.06621469017736371 l 2.244848628373845 -23.639429023134355" fill="#e2ff1b" stroke="none" /><path d="M 98.01472825383883 120.90594882070398 l -2.755442778032974 29.016252211982575 a50.14678982893996,50.14678982893996 0 0,0 -0.8586262384455706,-0.08900012032575363 l 3.254501613084138 -28.96452272320106" fill="#a2ff22" stroke="none" /><path d="M 97.65516085044442 120.86867818915974 l -1.1146655142580262 9.920337567723468 a30.982763979292592,30.982763979292592 0 0,0 -0.5294697309637773,-0.0641114108260702 l 1.285262668273193 -9.89968062817205" fill="#ff6609" stroke="none" /><path d="M 97.2962882734958 120.8252237178851 l -2.7985946051665764 21.556055024999296 a42.73696482963675,42.73696482963675 0 0,0 -0.7287088192831849,-0.10099240234276123 l 3.1692320156365925 -21.50468805716393" fill="#fbff18" stroke="none" /><path d="M 96.93821686468263 120.77559828337769 l -1.0990610072245994 7.457631375533713 a28.538182860009858,28.538182860009858 0 0,0 -0.48537216358941143,-0.0758051497699602 l 1.2272690344225279 -7.437607918416647" fill="#ff4306" stroke="none" /><path d="M 96.58105272829116 120.7198165907248 l -5.372478062547747 32.55878235233616 a53.999057998666466,53.999057998666466 0 0,0 -0.9158009545602614,-0.15922373475257423 l 5.932127988580057 -32.46148003906258" fill="#77ff27" stroke="none" /><path d="M 95.86986931433489 120.58985236759428 l -2.9797313596891173 14.854791158069602 a36.1506969914185,36.1506969914185 0 0,0 -0.6090678700401354,-0.1276360940228906 l 3.2349906911586395 -14.80129908332017" fill="#ffae10" stroke="none" /><path d="M 95.51606077576429 120.51570834832081 l -1.6156251871453982 7.392092863463353 a28.566589829467727,28.566589829467727 0 0,0 -0.4794832054974359,-0.10912881650792065 l 1.7426285420356968 -7.363187313377746" fill="#ff4406" stroke="none" /><path d="M 95.16358092515715 120.4354850818985 l -7.9068284141767755 33.408989502898045 a55.33188773102908,55.33188773102908 0 0,0 -0.924956068425486,-0.22733169754964538 l 8.480737767345472 -33.26793654703437" fill="#69ff28" stroke="none" /><path d="M 94.81253420990036 120.34920634021253 l -5.709022228616097 22.395149391190007 a44.11137492795595,44.11137492795595 0 0,0 -0.7341593865736313,-0.19389816666492535 l 6.093672058001218 -22.2935598752215" fill="#eaff1a" stroke="none" /><path d="M 94.46302465271185 120.25689768951611 l -6.558964638488032 23.995822140707048 a45.87608283748434,45.87608283748434 0 0,0 -0.7599456832672212,-0.21476824098357314 l 6.971041489859868 -23.879365106384952" fill="#d5ff1c" stroke="none" /><path d="M 94.11515582081647 120.15858648285463 l -4.942465350864183 16.930459359712597 a38.63713179276531,38.63713179276531 0 0,0 -0.6368227728250706,-0.1918694775153317 l 5.233163098129499 -16.842874513091537" fill="#ffce13" stroke="none" /><path d="M 93.76903079525671 120.05430185196036 l -2.344760413254764 7.5465840951585355 a28.902457396333524,28.902457396333524 0 0,0 -0.4738332931417194,-0.1517064573017597 l 2.474315051487424 -7.505104791197069" fill="#ff4906" stroke="none" /><path d="M 93.42475214034765 119.94407469862007 l -9.429355791751467 28.601169155089494 a51.11543836117083,51.11543836117083 0 0,0 -0.8332553173909707,-0.28268544450759436 l 9.920280842079665 -28.434620723683775" fill="#97ff23" stroke="none" /><path d="M 93.08242187328487 119.8279376855182 l -11.50154326594884 32.96701229637105 a55.91574712429298,55.91574712429298 0 0,0 -0.906049285674834,-0.3248770381534712 l 12.0673121122534 -32.76414771717762" fill="#63ff29" stroke="none" /><path d="M 92.7421414339146 119.70592522655815 l -11.504180631971328 31.235180633826918 a54.286373807322725,54.286373807322725 0 0,0 -0.8740875995807044,-0.3305051374586496 l 12.040138452312316 -31.032527246261637" fill="#74ff27" stroke="none" /><path d="M 92.40401165467489 119.57807347666478 l -7.375517194752662 19.009826108559114 a41.39048166590843,41.39048166590843 0 0,0 -0.6620090687645012,-0.2634270707715004 l 7.701647339559021 -18.880052193381545" fill="#fff216" stroke="none" /><path d="M 92.06813273071674 119.44442032107085 l -4.362405172522223 10.694132529653466 a32.54967746090951,32.54967746090951 0 0,0 -0.5169641151126426,-0.21609104204411655 l 4.545840747132328 -10.617456444589376" fill="#ff7c0b" stroke="none" /><path d="M 91.7346041902142 119.30500536409082 l -12.516365400494724 29.233748359563847 a52.80049442994564,52.80049442994564 0 0,0 -0.8324358130287611,-0.3649153973982832 l 13.017721888181228 -29.01396840887111" fill="#84ff25" stroke="none" /><path d="M 91.40352486487194 119.15986991738527 l -1.2734003426802927 2.838161517946949 a24.11074094625271,24.11074094625271 0 0,0 -0.3771976212669023,-0.17315292754859826 l 1.3220659597146143 -2.815821520064276" fill="#ff0200" stroke="none" /><path d="M 91.07499286063937 119.00905698771935 l -6.682838547022145 14.23354141867633 a36.724313414669005,36.724313414669005 0 0,0 -0.5699042151537811,-0.27358865629593904 l 6.926855430176168 -14.11639848588083" fill="#ffb510" stroke="none" /><path d="M 90.7491055286396 118.85261126421891 l -7.241218190502711 14.757045607597657 a37.437932836801124,37.437932836801124 0 0,0 -0.5760915095546452,-0.2888642423542582 l 7.494163607740117 -14.630213524334096" fill="#ffbf11" stroke="none" /><path d="M 90.42595943632237 118.69057910512821 l -21.768846618264007 42.49745413547489 a68.74846899206608,68.74846899206608 0 0,0 -1.0486076216920899,-0.5485819474124588 l 22.497145142482594 -42.11644276911771" fill="#39ff8e" stroke="none" /><path d="M 90.10565033884886 118.52300852407294 l -7.626070101596562 14.27660900763199 a37.185750212803356,37.185750212803356 0 0,0 -0.5619956590997444,-0.30644484265009037 l 7.870688572564946 -14.143223513222134" fill="#ffbb11" stroke="none" /><line stroke="#e1ed5e" stroke-width="0.3" x1="58.666819895761336" x2="56.23545636021788" y1="174.27360380694188" y2="178.64263932499728" /><path d="M 58.180547188652646 175.14741091055294 a86.0,86.0 0 0,1 -31.652253787137756,-30.449443065178592" fill="none" id="id128" stroke="none" /><text fill="#e1ed5e" style="font-size:6.75px; font-family:Arial;" text-anchor="middle"><textPath startOffset="22.20632615414155" xlink:href="#id128">August</textPath></text><path d="M 89.7882731507175 118.34994917583269 l -17.878642710988476 32.127003583391144 a57.766699939407246,57.766699939407246 0 0,0 -0.86471587413549,-0.49100824103216917 l 18.429007352045176 -31.81449217656434" fill="#4fff2b" stroke="none" /><path d="M 89.4739219176387 118.17145234162733 l -7.1783096532082675 12.392109457680947 a35.32105115864365,35.32105115864365 0 0,0 -0.5234783785533378,-0.3092802531017575 l 7.390555902789988 -12.26671063228544" fill="#ffa20f" stroke="none" /><path d="M 88.8546689885994 117.79835938074946 l -3.9551792174097073 6.316160646527353 a28.452337080042106,28.452337080042106 0 0,0 -0.4128545182182824,-0.26350328706236403 l 4.063315537674913 -6.247142930641186" fill="#ff4206" stroke="none" /><path d="M 88.54995079064634 117.60387380957326 l -6.775238410197223 10.416587721339425 a33.4261480464129,33.4261480464129 0 0,0 -0.47962591095466683,-0.3178699005792045 l 6.953539019891852 -10.298419799668906" fill="#ff880c" stroke="none" /><path d="M 88.24862548938628 117.40417183066458 l -15.028420811713726 22.257585094778975 a47.85616365651054,47.85616365651054 0 0,0 -0.6787442320691335,-0.4668464719374844 l 15.409321928405753 -21.99559783347639" fill="#bdff1f" stroke="none" /><path d="M 87.95078237400918 117.19931262002967 l -17.541509555851732 25.039128351997267 a51.57225058980498,51.57225058980498 0 0,0 -0.7226811423766119,-0.5156138067113106 l 17.969918026077227 -24.73347028344174" fill="#92ff23" stroke="none" /><path d="M 87.65650970185807 116.9893568818739 l -14.163697999823965 19.494657853971432 a45.09672230560886,45.09672230560886 0 0,0 -0.624085013660491,-0.46168317334053566 l 14.497167983903019 -19.247964731891127" fill="#deff1b" stroke="none" /><path d="M 87.36589467227662 116.77436683061367 l -3.923608703246517 5.209395519572206 a27.521695096792765,27.521695096792765 0 0,0 -0.37596112697292916,-0.2882709603579557 l 4.012698558712932 -5.141085217386884" fill="#ff3505" stroke="none" /><path d="M 87.07902340077011 116.55440617244103 l -38.76292979768965 49.663218517323095 a84.0,84.0 0 0,0 -1.1321700291305676,-0.8994643439794774 l 39.61205731953757 -48.98862025933849" fill="#4dd2ff" stroke="none" /><path d="M 86.79598089348748 116.32954008644616 l -20.153637702108306 24.924201645692172 a53.052846056207954,53.052846056207954 0 0,0 -0.705173052381321,-0.5803094141728351 l 20.579680883034317 -24.573597112662156" fill="#82ff25" stroke="none" /><path d="M 86.51685102203217 116.09983520530335 l -20.597334145916793 24.59467635933578 a53.08034100721219,53.08034100721219 0 0,0 -0.695439729816507,-0.5926688249923692 l 21.017639352310358 -24.23648314412046" fill="#81ff25" stroke="none" /><path d="M 86.24171649860922 115.8653595955263 l -18.826729534298593 21.710036287533153 a49.73623880335833,49.73623880335833 0 0,0 -0.6419708507292563,-0.5664646350976392 l 19.197642737934437 -21.382748510663223" fill="#a7ff21" stroke="none" /><path d="M 85.97065885151581 115.62618273729859 l -25.481594641147815 28.3819496643551 a59.14245314876535,59.14245314876535 0 0,0 -0.751673685287656,-0.6866360894992091 l 25.96636787590233 -27.939120808269312" fill="#41ff2d" stroke="none" /><path d="M 85.70375840098266 115.38237550388516 l -19.583960902151897 21.071820755394388 a49.767223615852885,49.767223615852885 0 0,0 -0.6224793459877973,-0.5885930748332338 l 19.943776082530512 -20.731593043815227" fill="#a7ff21" stroke="none" /><path d="M 85.44109423537348 115.13401014063109 l -20.258043531310978 21.058274652557397 a50.22052804209794,50.22052804209794 0 0,0 -0.6178321814947031,-0.6046788260294548 l 20.617525665181475 -20.70644572360537" fill="#a2ff22" stroke="none" /><path d="M 85.18274418774928 114.88116024355367 l -6.127385265424797 6.153811688490074 a29.684137751575683,29.684137751575683 0 0,0 -0.35897928900740994,-0.3636441245038254 l 6.23240517948774 -6.047427070005586" fill="#ff5407" stroke="none" /><path d="M 84.9287848128048 114.62390073753433 l -24.17679418768676 23.459225680283488 a54.687574069859004,54.687574069859004 0 0,0 -0.6497234024479916,-0.6812323899067865 l 24.57702414151371 -23.039586173794202" fill="#70ff27" stroke="none" /><path d="M 84.43433777217949 114.09645910891817 l -27.836817497742842 25.209371360892842 a58.5553033913194,58.5553033913194 0 0,0 -0.6701547131552505,-0.7529259244912608 l 28.26663106054643 -24.726471266660713" fill="#47ff2c" stroke="none" /><path d="M 84.19399662182784 113.82643327865904 l -20.95272149809541 18.328567878190754 a48.83797655437973,48.83797655437973 0 0,0 -0.5480492853545844,-0.6375051335317973 l 21.26511329302077 -17.965185645497424" fill="#b2ff20" stroke="none" /><path d="M 83.95833913139862 113.55231037782056 l -16.957389320732048 14.325935771520706 a43.198772225161775,43.198772225161775 0 0,0 -0.4749890145941834,-0.5721548667112127 l 17.201474335219768 -14.031919647695732" fill="#f5ff19" stroke="none" /><path d="M 83.72743513129214 113.27417163493432 l -22.19083714624938 18.10193926887574 a49.63762313016614,49.63762313016614 0 0,0 -0.5343894037096139,-0.6667329472548501 l 22.499144462013852 -17.71727848804263" fill="#a8ff21" stroke="none" /><path d="M 83.50135304334701 112.99209946851258 l -5.260356425835026 4.142344163362985 a27.69554813996369,27.69554813996369 0 0,0 -0.29171744961756063,-0.37708412753863774 l 5.330880692670655 -4.051182041711095" fill="#ff3705" stroke="none" /><path d="M 83.28015986056508 112.70617746262583 l -32.40656225857987 24.627240905250957 a61.70241113281226,61.70241113281226 0 0,0 -0.6353548202484954,-0.8511616099236831 l 32.82567834552345 -24.06576641581797" fill="#30ff3a" stroke="none" /><path d="M 83.06392112726016 112.41649034213515 l -28.48703774330503 20.88494223920468 a56.3226857943079,56.3226857943079 0 0,0 -0.5664994946398637,-0.7868182506087797 l 28.8423170303205 -20.39149038314476" fill="#5eff29" stroke="none" /><path d="M 82.85270091963577 112.12312394758628 l -5.768126494808906 4.078059880695767 a28.06412454948643,28.06412454948643 0 0,0 -0.2754815798057184,-0.39685176209723955 l 5.837468981776756 -3.9781668564115167" fill="#ff3d05" stroke="none" /><path d="M 82.44556493220864 111.52570212397912 l -26.241606088032583 17.2294314147652 a52.392279257097066,52.392279257097066 0 0,0 -0.488483498815776,-0.7581372379578737 l 26.534294450225403 -16.77517257688588" fill="#89ff24" stroke="none" /><path d="M 82.05923443525364 110.91462005526583 l -34.645157448022125 21.07706769453963 a61.55280159493853,61.55280159493853 0 0,0 -0.5428931433207138,-0.9099201353607789 l 35.00283146704107 -20.477585465292737" fill="#30ff38" stroke="none" /><line stroke="#e1ed5e" stroke-width="0.3" x1="26.63291911575756" x2="22.317208475507996" y1="142.92168965132927" y2="145.44649492493687" /><path d="M 25.769776987707644 143.4266507060508 a86.0,86.0 0 0,1 -11.730757126820373,-40.83630448921669" fill="none" id="id129" stroke="none" /><text fill="#e1ed5e" style="font-size:6.75px; font-family:Arial;" text-anchor="middle"><textPath startOffset="21.46611528233685" xlink:href="#id129">September</textPath></text><path d="M 81.87401531095188 110.60418214915194 l -28.743666839046398 16.815808025036617 a54.301197919729276,54.301197919729276 0 0,0 -0.4650458120189583,-0.8108465720832042 l 29.028864647217734 -16.318541607095103" fill="#74ff27" stroke="none" /><path d="M 81.69416730710424 110.29060199501025 l -28.209810519524062 15.858111306989887 a53.36159921530966,53.36159921530966 0 0,0 -0.4432153205973011,-0.8045645474765075 l 28.47860224957288 -15.370176241115558" fill="#7eff26" stroke="none" /><path d="M 81.51974371655577 109.97397251340807 l -34.14971095035265 18.43092829101001 a59.80595154948515,59.80595154948515 0 0,0 -0.4811459765480716,-0.9101468630334324 l 34.461909435125605 -17.84036641289045" fill="#3aff2e" stroke="none" /><path d="M 81.35079622478065 109.6543875284942 l -16.05317835244225 8.310467661061768 a39.07673665131165,39.07673665131165 0 0,0 -0.30409391828424265,-0.6000061501723201 l 16.19385094051276 -8.03290729918676" fill="#ffd413" stroke="none" /><path d="M 81.18737489456691 109.33194174019688 l -28.40800361761572 14.091698167010767 a52.71104896985595,52.71104896985595 0 0,0 -0.396203210491135,-0.8162959651262818 l 28.64636008472157 -13.6006132459192" fill="#85ff25" stroke="none" /><path d="M 81.02952815118164 109.00673069616217 l -30.928911750661683 14.684314712020553 a55.237796083303635,55.237796083303635 0 0,0 -0.40040927017640077,-0.862445945879022 l 31.177095637677912 -14.149748698862705" fill="#6aff28" stroke="none" /><path d="M 80.87730276802145 108.67885076344099 l -24.993020098993295 11.34310128615686 a48.446620929664476,48.446620929664476 0 0,0 -0.33810877199459516,-0.7623460227388288 l 25.18456995571917 -10.911206926925336" fill="#b6ff1f" stroke="none" /><path d="M 80.73074385275274 108.34839909993369 l -21.723138683009115 9.411542928442286 a44.67428762466062,44.67428762466062 0 0,0 -0.299634741803149,-0.7082480189507899 l 21.881924406004572 -9.036220383825338" fill="#e3ff1b" stroke="none" /><path d="M 80.58989483394504 108.01547362559985 l -12.38240845794692 5.113360673060714 a34.39665990432837,34.39665990432837 0 0,0 -0.22128089673107104,-0.5492010385722539 l 12.468591968935378 -4.899460266645655" fill="#ff960d" stroke="none" /><path d="M 80.45479744820244 107.68017299344265 l -24.896776387847712 9.783042622914289 a47.749904625404724,47.749904625404724 0 0,0 -0.2940159912823371,-0.7675829755952869 l 25.06148665872356 -9.353036080485845" fill="#beff1e" stroke="none" /><path d="M 80.32549172779595 107.34259656027581 l -25.77535421659818 9.619453995608431 a48.51186617015888,48.51186617015888 0 0,0 -0.28523992977981594,-0.7848577810788524 l 25.93711840738322 -9.174348417523461" fill="#b5ff1f" stroke="none" /><path d="M 80.20201598880116 107.00284435728193 l -27.828609514407997 9.843397236745906 a50.51819738171314,50.51819738171314 0 0,0 -0.282923962681393,-0.8223094693234458 l 27.993924308032618 -9.362915064333164" fill="#9eff22" stroke="none" /><path d="M 80.0844068197444 106.66101706037122 l -38.9292120612655 13.020357633333154 a62.04891307465858,62.04891307465858 0 0,0 -0.33006401935516794,-1.015832598583299 l 39.14756833163692 -12.348326134772051" fill="#31ff3e" stroke="none" /><path d="M 79.97269907076064 106.31721596034903 l -30.142829219924437 9.50795928572557 a52.60682589505858,52.60682589505858 0 0,0 -0.264971131577544,-0.865940989122487 l 30.30202712400811 -8.987691324051037" fill="#87ff25" stroke="none" /><path d="M 79.86692584326677 105.97154293290107 l -15.848251404548593 4.700648939000763 a37.53067370162225,37.53067370162225 0 0,0 -0.17837321800223602,-0.6209405722335668 l 15.926817259436932 -4.4271508912626" fill="#ffc011" stroke="none" /><path d="M 79.76711848015287 105.62410040840567 l -27.679039141279024 7.693896451973103 a49.72847455745154,49.72847455745154 0 0,0 -0.2221487551820833,-0.8266981593978983 l 27.807375972802877 -7.216307359399666" fill="#a7ff21" stroke="none" /><path d="M 79.67330655649465 105.27499134158121 l -37.69759131081195 9.782922555293263 a59.9462959003789,59.9462959003789 0 0,0 -0.25060031095112595,-1.0010236715956733 l 37.860402936058136 -9.132571044300198" fill="#39ff2e" stroke="none" /><path d="M 79.58551787078972 104.9243191809786 l -37.232993798168536 8.981229323629737 a59.30089173032507,59.30089173032507 0 0,0 -0.23082006332619964,-0.9943667916869617 l 37.38207442742529 -8.338993874594202" fill="#3fff2d" stroke="none" /><path d="M 79.50377843672027 104.57218783832718 l -24.867388862346154 5.547284536144435 a46.478606605465785,46.478606605465785 0 0,0 -0.16746897369291078,-0.7823592918011791 l 24.959191874763505 -5.118411424927093" fill="#cdff1d" stroke="none" /><line stroke="#e1ed5e" stroke-width="0.3" x1="15.007084014347285" x2="10.007500721073583" y1="101.09737516637583" y2="101.16192664675087" /><path d="M 14.007167355692545 101.11028546245083 a86.0,86.0 0 0,1 10.666146001902534,-42.60595125391555" fill="none" id="id130" stroke="none" /><text fill="#e1ed5e" style="font-size:6.75px; font-family:Arial;" text-anchor="middle"><textPath startOffset="22.20632615414155" xlink:href="#id130">October</textPath></text><line stroke="#e1ed5e" stroke-width="0.3" x1="26.266209847984257" x2="21.92892807433627" y1="57.711370442889674" y2="55.22380399835377" /><path d="M 25.39875349325466 57.213857153982495 a86.0,86.0 0 0,1 29.58750427330802,-30.492523968695096" fill="none" id="id131" stroke="none" /><text fill="#e1ed5e" style="font-size:6.75px; font-family:Arial;" text-anchor="middle"><textPath startOffset="21.46611528233685" xlink:href="#id131">November</textPath></text><line stroke="#e1ed5e" stroke-width="0.3" x1="56.762969772571076" x2="54.21961505331055" y1="26.818313649435495" y2="22.513508569990535" /><path d="M 56.25429882871897 25.957352633546506 a86.0,86.0 0 0,1 42.265352541879196,-11.944610805530505" fill="none" id="id132" stroke="none" /><text fill="#e1ed5e" style="font-size:6.75px; font-family:Arial;" text-anchor="middle"><textPath startOffset="22.20632615414155" xlink:href="#id132">December</textPath></text></svg>