<?xml version="1.0" encoding="utf-8" ?>
<svg baseProfile="full" height="200mm" version="1.1" viewBox="0,0,200,200" width="200mm" xmlns="http://www.w3.org/2000/svg" xmlns:ev="http://www.w3.org/2001/xml-events" xmlns:xlink="http://www.w3.org/1999/xlink"><defs /><rect fill="#1a1a1a" height="200" width="200" x="0" y="0" /><rect fill="#1a1a1a" height="200" width="180" x="10" y="0" /><text alignment-baseline="middle" fill="#e1ed5e" style="dominant-baseline: central; font-size:9.0px; font-family:Arial;" text-anchor="middle" x="100.0" y="100.0">2015</text><line stroke="#e1ed5e" stroke-width="0.3" x1="100.0" x2="100.0" y1="15.0" y2="10.0" /><path d="M 100.0 14.0 a86.0,86.0 0 0,1 42.46469731375804,11.215312516191453" fill="none" id="id1" stroke="none" /><text fill="#e1ed5e" style="font-size:6.75px; font-family:Arial;" text-anchor="middle"><textPath startOffset="22.20632615414155" xlink:href="#id1">January</textPath></text><line stroke="#e1ed5e" stroke-width="0.3" x1="143.23703022742887" x2="145.7803849466894" y1="26.81831364943548" y2="22.513508569990506" /><path d="M 143.74570117128098 25.957352633546492 a86.0,86.0 0 0,1 28.547481713284135,27.462654790039103" fill="none" id="id2" stroke="none" /><text fill="#e1ed5e" style="font-size:6.75px; font-family:Arial;" text-anchor="middle"><textPath startOffset="19.985693538727396" xlink:href="#id2">February</textPath></text><line stroke="#e1ed5e" stroke-width="0.3" x1="172.23445277983987" x2="176.4835382374775" y1="55.19839476539836" y2="52.563006222186495" /><path d="M 173.08426987136738 54.67131705675599 a86.0,86.0 0 0,1 12.851231095245387,41.99856678651699" fill="none" id="id3" stroke="none" /><text fill="#e1ed5e" style="font-size:6.75px; font-family:Arial;" text-anchor="middle"><textPath startOffset="22.20632615414155" xlink:href="#id3">March</textPath></text><line stroke="#e1ed5e" stroke-width="0.3" x1="184.98032266829074" x2="189.97916517819016" y1="98.17113171792111" y2="98.06355123074" /><path d="M 185.9800911702706 98.14961562048488 a86.0,86.0 0 0,1 -9.607161424134198,41.387399972396054" fill="none" id="id4" stroke="none" /><text fill="#e1ed5e" style="font-size:6.75px; font-family:Arial;" text-anchor="middle"><textPath startOffset="21.466115282336823" xlink:href="#id4">April</textPath></text><path d="M 120.89721153311464 102.0752229133903 l 1.5119042578419528 0.1501414843676198 a22.519340959169053,22.519340959169053 0 0,0 -0.04162614227371607,0.3854063794978965 l -1.509095814067185 -0.1761441857503077" fill="#ff0000" stroke="none" /><path d="M 120.76222939487914 103.15116336523771 l 4.878231503749048 0.7403879472381638 a25.934097376074497,25.934097376074497 0 0,0 -0.07078556970571921,0.4407818101276163 l -4.864764179682041 -0.8242489870589851" fill="#ff3204" stroke="none" /><path d="M 120.70491114924044 103.5080841355445 l 7.638273244203393 1.2941714648182367 a28.747134820916905,28.747134820916905 0 0,0 -0.08686228461629365,0.4871698215670718 l -7.614864517247911 -1.4254600371185269" fill="#ff5908" stroke="none" /><path d="M 120.64145759157962 103.86396538481128 l 8.960403421667985 1.6773373925586275 a30.116045755014326,30.116045755014326 0 0,0 -0.0997702534135387,0.5087263726945248 l -8.930203235278784 -1.8313274923210972" fill="#ff6c0a" stroke="none" /><path d="M 120.5718875245553 104.21870165774334 l 10.403834146779877 2.133526751471766 a31.620343749283666,31.620343749283666 0 0,0 -0.11393255741205219,0.5322549781277189 l -10.365567550643382 -2.3122955490156536" fill="#ff810b" stroke="none" /><path d="M 120.32669344350535 105.2749913415812 l 14.662592885016041 3.8050975053349174 a36.14828033595989,36.14828033595989 0 0,0 -0.16148284358348117,0.6009377340664589 l -14.594921965090784 -4.056926172576924" fill="#ffbd11" stroke="none" /><path d="M 120.13307415673323 105.97154293290107 l 14.537348674775851 4.311830427195045 a36.163323782234954,36.163323782234954 0 0,0 -0.18214816539774856,0.5952707435421595 l -14.460973736871969 -4.5614281432892625" fill="#ffbd11" stroke="none" /><path d="M 119.9155931802556 106.66101706037122 l 7.204423034404786 2.4096086070827134 a28.596704871060172,28.596704871060172 0 0,0 -0.16015403322128816,0.46548258698226364 l -7.161878170240267 -2.5332638971542774" fill="#ff5708" stroke="none" /><path d="M 119.67450827220406 107.3425965602758 l 18.377907440511535 6.858700511890857 a40.61604584527221,40.61604584527221 0 0,0 -0.25008986038505143,0.6529057088470714 l -18.257123300532978 -7.1740297875710715" fill="#fff517" stroke="none" /><path d="M 119.41010516605496 108.01547362559984 l 19.61866646798249 8.10159977487204 a42.2256446991404,42.2256446991404 0 0,0 -0.28321145830457656,0.6694282281196842 l -19.476304028485604 -8.438102528657888" fill="#f5ff19" stroke="none" /><path d="M 119.26925614724726 108.34839909993367 l 13.92742081129835 6.034050638848909 a36.17836676217765,36.17836676217765 0 0,0 -0.2524886756599489,0.5692953085494886 l -13.82149105090713 -6.272894283891085" fill="#ffbd11" stroke="none" /><path d="M 118.81262510543309 109.33194174019688 l 13.81299479446197 6.8518913207032925 a36.41905444126074,36.41905444126074 0 0,0 -0.28341192009129124,0.5591986056359434 l -13.69300420458441 -7.08864413804193" fill="#ffc011" stroke="none" /><line stroke="#e1ed5e" stroke-width="0.3" x1="174.80103733775053" x2="179.2010983576182" y1="140.37084112569926" y2="142.7455964860345" /><path d="M 175.68104954172406 140.8457921977663 a86.0,86.0 0 0,1 -30.038265399797805,32.042727171017184" fill="none" id="id5" stroke="none" /><text fill="#e1ed5e" style="font-size:6.75px; font-family:Arial;" text-anchor="middle"><textPath startOffset="22.206326154141568" xlink:href="#id5">May</textPath></text><path d="M 118.48025628344425 109.97397251340804 l 14.336760426196363 7.737687845287191 a37.291547277936964,37.291547277936964 0 0,0 -0.30973931301555413,0.562266822988425 l -14.201444703729303 -7.9833251866734205" fill="#ffcb13" stroke="none" /><path d="M 117.94076556474637 110.91462005526583 l 14.61221378733282 8.889629658192867 a38.103868194842406,38.103868194842406 0 0,0 -0.3457206788832736,0.5574118142204643 l -14.457028468781584 -9.139837803778603" fill="#ffd614" stroke="none" /><path d="M 117.75023020441432 111.22182372390056 l 12.75320981019167 8.062671343174967 a36.08810888252149,36.08810888252149 0 0,0 -0.3364702956722506,0.5222093709086166 l -12.612534651142372 -8.28100231400504" fill="#ffbc11" stroke="none" /><path d="M 117.55443506779137 111.5257021239791 l 12.68798351246526 8.330539715684035 a36.17836676217765,36.17836676217765 0 0,0 -0.3462733033576005,0.5176316055408556 l -12.542707103696936 -8.547708235430697" fill="#ffbd11" stroke="none" /><path d="M 116.498646956653 112.99209946851258 l 17.76322806292941 13.987912250124925 a43.60959885386819,43.60959885386819 0 0,0 -0.46949281730156045,0.5857644774044788 l -17.519817333572995 -14.291604561107654" fill="#e5ff1a" stroke="none" /><path d="M 116.27256486870786 113.27417163493432 l 6.422767365800881 5.239304133845855 a29.28868194842407,29.28868194842407 0 0,0 -0.3220416104636612,0.38791986561567976 l -6.331629755443676 -5.349085256575305" fill="#ff6108" stroke="none" /><path d="M 115.56566222782051 114.09645910891815 l 11.18363840580514 10.128043328255666 a36.08810888252149,36.08810888252149 0 0,0 -0.4209481856864348,0.4568561172862448 l -11.007643812122984 -10.319050700343247" fill="#ffbc11" stroke="none" /><path d="M 115.32070863581623 114.36230785411682 l 11.007643812122984 10.319050700343247 a36.08810888252149,36.08810888252149 0 0,0 -0.4287498447291291,0.44954249807920155 l -10.82838741601489 -10.507000315004955" fill="#ffbc11" stroke="none" /><path d="M 115.07121518719521 114.62390073753431 l 8.64759553362705 8.390934448972057 a33.049426934097426,33.049426934097426 0 0,0 -0.3996767526883871,0.40487044034704855 l -8.501878155883126 -8.53854538329977" fill="#ff940d" stroke="none" /><path d="M 114.29624159901734 115.38237550388516 l 26.912982035972473 28.957652452872633 a60.532951289398284,60.532951289398284 0 0,0 -0.7693462843447991,0.7027795897246348 l -26.41053620216081 -29.41662480918385" fill="#30ff32" stroke="none" /><path d="M 114.0293411484842 115.62618273729858 l 5.396673493363908 6.010931325164278 a29.07808022922636,29.07808022922636 0 0,0 -0.37532552423464605,0.3311811367866516 l -5.292405616222673 -6.1029356037232185" fill="#ff5e08" stroke="none" /><path d="M 113.75828350139079 115.86535959552629 l 9.894925956587649 11.410330253516042 a36.10315186246419,36.10315186246419 0 0,0 -0.47301064198788445,0.4031099308488021 l -9.697049838022718 -11.578964574587792" fill="#ffbc11" stroke="none" /><path d="M 113.20401910651253 116.32954008644616 l 9.496300274311306 11.744167798561568 a36.10315186246419,36.10315186246419 0 0,0 -0.48660602971229044,0.3865892595900413 l -9.292736751881664 -11.905890972156737" fill="#ffbc11" stroke="none" /><path d="M 112.92097659922987 116.55440617244103 l 5.932912607526041 7.601271029036321 a30.642550143266476,30.642550143266476 0 0,0 -0.41859368199051095,0.3209597856000318 l -5.801190197042036 -7.702270156463724" fill="#ff730a" stroke="none" /><path d="M 112.34349029814194 116.9893568818739 l 8.850883802607509 12.182196446100122 a36.058022922636106,36.058022922636106 0 0,0 -0.5052805122823952,0.3605042294838155 l -8.639875962476228 -12.332744937428156" fill="#ffbb11" stroke="none" /><path d="M 112.04921762599082 117.19931262002967 l 8.68303218606502 12.394347059992732 a36.13323782234957,36.13323782234957 0 0,0 -0.5124779105557553,0.35248697990332256 l -8.468397390886382 -12.54197482926115" fill="#ffbc11" stroke="none" /><path d="M 111.7513745106137 117.40417183066458 l 2.340173434062042 3.4658737599747513 a25.181948424068768,25.181948424068768 0 0,0 -0.3613313426284384,0.23947071109823279 l -2.280167392693639 -3.5056424921643026" fill="#ff2703" stroke="none" /><path d="M 111.1453310114006 117.79835938074945 l 16.90162303089905 26.99077851650902 a52.84598853868195,52.84598853868195 0 0,0 -0.7751268414310885,0.47614621492257 l -16.434516989535652 -27.27771319825997" fill="#7cff26" stroke="none" /><line stroke="#e1ed5e" stroke-width="0.3" x1="143.8653032363475" x2="146.44561519142675" y1="172.8068346515853" y2="177.08958963109032" /><path d="M 144.38136562736335 173.6633856474863 a86.0,86.0 0 0,1 -40.68145358897372,12.25698825130547" fill="none" id="id6" stroke="none" /><text fill="#e1ed5e" style="font-size:6.75px; font-family:Arial;" text-anchor="middle"><textPath startOffset="21.466115282336833" xlink:href="#id6">June</textPath></text><path d="M 110.5260780823613 118.17145234162733 l 4.524102327662447 7.810079802991688 a30.025787965616047,30.025787965616047 0 0,0 -0.44945921291209645,0.25521467125639086 l -4.3889943478291515 -7.886797640042707" fill="#ff6b09" stroke="none" /><path d="M 109.89434966115114 118.52300852407294 l 3.2036146467337505 5.997421098052267 a27.799426934097422,27.799426934097422 0 0,0 -0.42401949293054164,0.2218269583024093 l -3.099904251276713 -6.0516774752993925" fill="#ff4c07" stroke="none" /><path d="M 109.57404056367764 118.69057910512821 l 6.865053441433606 13.40205564773162 a36.058022922636106,36.058022922636106 0 0,0 -0.5548575811493003,0.2782171098426955 l -6.633341952601545 -13.518240598483617" fill="#ffbb11" stroke="none" /><path d="M 109.2508944713604 118.85261126421891 l 6.626715237364179 13.504735862620992 a36.04297994269341,36.04297994269341 0 0,0 -0.5593309795640704,0.2685128606784055 l -6.393271589799876 -13.616802999798956" fill="#ffbb11" stroke="none" /><path d="M 108.59647513512805 119.15986991738527 l 6.164091411363307 13.73856001955778 a36.058022922636106,36.058022922636106 0 0,0 -0.568479328685791,0.24920463162836137 l -5.926691408019763 -13.842629204480597" fill="#ffbb11" stroke="none" /><path d="M 107.93186726928326 119.44442032107085 l 2.8466085257241507 6.978262593736743 a28.5365329512894,28.5365329512894 0 0,0 -0.4564199991035671,0.18161893707857255 l -2.7260674505787175 -7.026228375221385" fill="#ff5608" stroke="none" /><path d="M 107.59598834532513 119.57807347666477 l 2.2744435016804467 5.862202516651774 a27.287965616045845,27.287965616045845 0 0,0 -0.43937494236451397,0.16613400738293094 l -2.173198338555658 -5.9004847741413355" fill="#ff4506" stroke="none" /><path d="M 106.91757812671514 119.82793768551818 l 10.559712742141805 30.267432097306056 a53.056590257879655,53.056590257879655 0 0,0 -0.8648988910676221,0.2934206627581089 l -10.037144118136956 -30.444715746962288" fill="#7aff26" stroke="none" /><path d="M 106.2309692047433 120.05430185196036 l 2.2361859395246393 7.197138415352535 a28.5365329512894,28.5365329512894 0 0,0 -0.47034324748341955,0.1417105621822626 l -2.1119677176009737 -7.234564346640523" fill="#ff5608" stroke="none" /><path d="M 105.53697534728816 120.25689768951611 l 3.966314718687791 14.510671697361108 a36.04297994269341,36.04297994269341 0 0,0 -0.5998745695011835,0.15843232598038165 l -3.71594970637511 -14.576795372645075" fill="#ffbb11" stroke="none" /><path d="M 105.18746579009965 120.34920634021253 l 1.8654067526003062 7.317551277067831 a28.551575931232094,28.551575931232094 0 0,0 -0.4772827117173247,0.11730447830943494 l -1.7391707561397702 -7.348577013691296" fill="#ff5708" stroke="none" /><path d="M 104.83641907484287 120.43548508189849 l 2.269236743568823 9.588282756907963 a30.853151862464184,30.853151862464184 0 0,0 -0.5178625885352721,0.11786383913479175 l -2.103854005640689 -9.62592332962044" fill="#ff760a" stroke="none" /><path d="M 103.7750983002368 120.6578951692458 l 2.171492654967939 11.88272835817308 a33.07951214183381,33.07951214183381 0 0,0 -0.5610143939293774,0.09753954350733261 l -1.966629289566512 -11.91834648020142" fill="#ff940d" stroke="none" /><path d="M 103.41894727170886 120.7198165907248 l 0.9894374625862317 5.996279299894568 a27.077363896848137,27.077363896848137 0 0,0 -0.4605268234274134,0.07192481860688368 l -0.8860747755503011 -6.012422425848558" fill="#ff4206" stroke="none" /><path d="M 101.98527174616119 120.90594882070398 l 0.9983243308059856 10.512876842503005 a31.560171919770774,31.560171919770774 0 0,0 -0.5412654880932991,0.04670266383908608 l -0.8172145249711449 -10.528503758620754" fill="#ff800b" stroke="none" /><path d="M 101.62511606390274 120.93702456842531 l 1.1676156247094847 15.042862207829936 a36.08810888252149,36.08810888252149 0 0,0 -0.6197483788619957,0.04274147672308875 l -0.9085044850685585 -15.06073202906931" fill="#ffbc11" stroke="none" /><path d="M 100.90346689309514 120.98055641714683 l 0.750084619697185 17.41867112283179 a38.434813753581665,38.434813753581665 0 0,0 -0.6612245712544867,0.022773911190064743 l -0.45013969676804594 -17.42900183244795" fill="#ffda14" stroke="none" /><line stroke="#e1ed5e" stroke-width="0.3" x1="102.19456741930631" x2="102.32365962044197" y1="184.97166512339345" y2="189.96999836594603" /><path d="M 102.22038585953345 185.97133177190398 a86.0,86.0 0 0,1 -42.740103519485714,-10.115201625700543" fill="none" id="id7" stroke="none" /><text fill="#e1ed5e" style="font-size:6.75px; font-family:Arial;" text-anchor="middle"><textPath startOffset="22.20632615414155" xlink:href="#id7">July</textPath></text><path d="M 100.54218724476979 120.99299961872073 l 0.653654106695963 25.308895672139677 a46.317335243553,46.317335243553 0 0,0 -0.7971881911321456,0.013724317662942267 l -0.21790622567114942 -25.31639746708178" fill="#c5ff1e" stroke="none" /><path d="M 100.18074693466247 120.99922214144158 l 0.1297338313264954 15.072507582897178 a36.0730659025788,36.0730659025788 0 0,0 -0.6209615319778913,0.0 l 0.12973383132648503 -15.072507582897178" fill="#ffbc11" stroke="none" /><path d="M 99.09653310690486 120.98055641714683 l -1.3687911739944234 31.78644471508993 a52.81590257879656,52.81590257879656 0 0,0 -0.9079605242122065,-0.046931188007098244 l 1.9157397666201188 -31.75817372032063" fill="#7cff26" stroke="none" /><path d="M 98.37488393609728 120.93702456842531 l -1.1652873781995854 15.012866470625893 a36.058022922636106,36.058022922636106 0 0,0 -0.6184048498377683,-0.05335857255590531 l 1.4235365457788953 -14.990583645791324" fill="#ffbb11" stroke="none" /><path d="M 98.01472825383883 120.90594882070398 l -1.1405358450464544 12.01043839505876 a33.06447066618911,33.06447066618911 0 0,0 -0.5661383743834355,-0.05868255730499246 l 1.3471068160354833 -11.989026469298008" fill="#ff940d" stroke="none" /><path d="M 97.65516085044442 120.86867818915974 l -2.5430418856928028 22.632649554719087 a43.77507163323782,43.77507163323782 0 0,0 -0.7480796553871468,-0.09058202823011145 l 2.932248964131339 -22.585521997763628" fill="#e3ff1b" stroke="none" /><path d="M 97.2962882734958 120.8252237178851 l -0.4260863752370504 3.281912047231173 a24.30945558739255,24.30945558739255 0 0,0 -0.4145010004599434,-0.057446061722027555 l 0.48251596688382486 -3.2740914200165405" fill="#ff1a02" stroke="none" /><path d="M 96.93821686468263 120.77559828337769 l -1.5440510940282404 10.477092544052935 a31.59025787965616,31.59025787965616 0 0,0 -0.537281293998649,-0.08391228837469762 l 1.7241682516354064 -10.448961948331132" fill="#ff800b" stroke="none" /><path d="M 96.58105272829116 120.7198165907248 l -1.0653596441213091 6.456389840233013 a27.543696275071632,27.543696275071632 0 0,0 -0.4671293218013442,-0.0812164202922906 l 1.1763379373947034 -6.437094841419716" fill="#ff4806" stroke="none" /><line stroke="#e1ed5e" stroke-width="0.3" x1="58.666819895761336" x2="56.23545636021788" y1="174.27360380694188" y2="178.64263932499728" /><path d="M 58.180547188652646 175.14741091055294 a86.0,86.0 0 0,1 -31.652253787137756,-30.449443065178592" fill="none" id="id8" stroke="none" /><text fill="#e1ed5e" style="font-size:6.75px; font-family:Arial;" text-anchor="middle"><textPath startOffset="22.20632615414155" xlink:href="#id8">August</textPath></text><path d="M 88.8546689885994 117.79835938074946 l -3.991880734742333 6.374770551844359 a28.521489971346703,28.521489971346703 0 0,0 -0.4138579536669291,-0.26414372704159544 l 4.101020490456186 -6.30511239597896" fill="#ff5608" stroke="none" /><path d="M 88.54995079064634 117.60387380957326 l -7.15217973535559 10.99611601858731 a34.117478510028654,34.117478510028654 0 0,0 -0.48954569001272685,-0.32444418922986756 l 7.340400124108278 -10.871373808266126" fill="#ffa20f" stroke="none" /><path d="M 85.70375840098266 115.38237550388516 l -10.240860744281756 11.0188936274249 a36.04297994269341,36.04297994269341 0 0,0 -0.45081901203410324,-0.426277514582203 l 10.429015590706674 -10.840981476096768" fill="#ffbb11" stroke="none" /><path d="M 83.95833913139862 113.55231037782056 l -11.502652241740682 9.717666682090535 a36.058022922636106,36.058022922636106 0 0,0 -0.3964734156555826,-0.47757776984119954 l 11.668221657289802 -9.518227655135574" fill="#ffbb11" stroke="none" /><path d="M 83.72743513129214 113.27417163493432 l -11.714847917658592 9.556262530880371 a36.11819484240688,36.11819484240688 0 0,0 -0.3888417572752714,-0.48513987935429703 l 11.877607586988724 -9.353194817947815" fill="#ffbc11" stroke="none" /><path d="M 83.50135304334701 112.99209946851258 l -14.950421490090283 11.772926810650732 a40.029369627507165,40.029369627507165 0 0,0 -0.4216296986982234,-0.5450132218228042 l 15.150858006006576 -11.513835594714674" fill="#ffee16" stroke="none" /><path d="M 83.28015986056508 112.70617746262583 l -14.444217197821287 10.976826661838652 a39.14183381088825,39.14183381088825 0 0,0 -0.40304669345228417,-0.5399469108286438 l 14.631025157968656 -10.726566871500703" fill="#ffe315" stroke="none" /><path d="M 83.06392112726016 112.41649034213515 l -15.783552015354244 11.571528606817921 a40.57091690544412,40.57091690544412 0 0,0 -0.40806654725142305,-0.5667687436234055 l 15.980398354981274 -11.298126257743375" fill="#fff517" stroke="none" /><path d="M 82.85270091963577 112.12312394758628 l -12.332298192468262 8.718922953708189 a36.10315186246419,36.10315186246419 0 0,0 -0.35439385588172234,-0.5105307813403837 l 12.480552955512115 -8.505350910180795" fill="#ffbc11" stroke="none" /><path d="M 82.64656182679789 111.8261652097733 l -12.480552955512115 8.505350910180795 a36.10315186246419,36.10315186246419 0 0,0 -0.3455534004400011,-0.516555448356751 l 12.625109461362849 -8.289258547618221" fill="#ffbc11" stroke="none" /><path d="M 82.24976979558568 111.22182372390057 l -2.1488459201619046 1.3585159092687642 a23.542263610315185,23.542263610315185 0 0,0 -0.21360160381063684,-0.3443937975740412 l 2.1719121636404974 -1.3213257803294587" fill="#ff0f01" stroke="none" /><line stroke="#e1ed5e" stroke-width="0.3" x1="26.63291911575756" x2="22.317208475507996" y1="142.92168965132927" y2="145.44649492493687" /><path d="M 25.769776987707644 143.4266507060508 a86.0,86.0 0 0,1 -11.730757126820373,-40.83630448921669" fill="none" id="id9" stroke="none" /><text fill="#e1ed5e" style="font-size:6.75px; font-family:Arial;" text-anchor="middle"><textPath startOffset="21.46611528233685" xlink:href="#id9">September</textPath></text><path d="M 81.02952815118164 109.00673069616217 l -2.880902601683017 1.3677843177552853 a24.189111747851,24.189111747851 0 0,0 -0.17534270495813659,-0.37767258726049135 l 2.90401992348098 -1.3179916632159667" fill="#ff1802" stroke="none" /><path d="M 80.73074385275274 108.34839909993369 l -4.2513831614270465 1.8419104031372324 a25.63323782234957,25.63323782234957 0 0,0 -0.17192459029248536,-0.4063789457484709 l 4.282458732911839 -1.7684569317226029" fill="#ff2d04" stroke="none" /><path d="M 80.45479744820244 107.68017299344265 l -2.8421748696381846 1.11681598686881 a24.053724928366762,24.053724928366762 0 0,0 -0.1481087728724751,-0.3866652697949718 l 2.8609779221041713 -1.0677271502406802" fill="#ff1602" stroke="none" /><path d="M 80.32549172779595 107.34259656027581 l -5.651488689573059 2.109155707394363 a27.032235257879655,27.032235257879655 0 0,0 -0.15894405834035152,-0.4373457847958822 l 5.6869570089186325 -2.0115621255923637" fill="#ff4106" stroke="none" /><path d="M 80.0844068197444 106.66101706037122 l -30.287109112953186 10.129899154131884 a52.93624641833811,52.93624641833811 0 0,0 -0.2815899489067469,-0.8666447499843194 l 30.45699131287618 -9.607055504169761" fill="#7bff26" stroke="none" /><path d="M 79.97269907076064 106.31721596034903 l -15.737785902131497 4.964173286893183 a37.50214899713467,37.50214899713467 0 0,0 -0.18889158749442478,-0.6173086371258917 l 15.820904262132052 -4.692537677215244" fill="#ffce13" stroke="none" /><path d="M 79.86692584326677 105.97154293290107 l -14.479660783209287 4.294719988991893 a36.10315186246419,36.10315186246419 0 0,0 -0.1715885898806234,-0.5973223916826431 l 14.551442009976013 -4.044840121804653" fill="#ffbc11" stroke="none" /><path d="M 79.76711848015287 105.62410040840567 l -14.493468137426301 4.028725220920967 a36.04297994269341,36.04297994269341 0 0,0 -0.16101244203804652,-0.5991871949222125 l 14.56066865580612 -3.778647092823216" fill="#ffbb11" stroke="none" /><path d="M 79.50377843672027 104.57218783832718 l -1.6590781064832458 0.37009829923422016 a22.699856733524356,22.699856733524356 0 0,0 -0.08179078478855223,-0.38209931697780003 l 1.6652029299962388 -0.3414851628402563" fill="#ff0300" stroke="none" /><path d="M 79.4281124754447 104.21870165774334 l -31.167293778248165 6.391514331036651 a52.81590257879656,52.81590257879656 0 0,0 -0.17497170868369274,-0.8921769729687754 l 31.272695419907524 -5.854073630999921" fill="#7cff26" stroke="none" /><path d="M 79.18660465613746 102.79330883721812 l -28.581145325347062 3.835797307268727 a49.837392550143264,49.837392550143264 0 0,0 -0.10679083084899152,-0.8512279943021599 l 28.6429376654429 -3.343251558679158" fill="#9dff22" stroke="none" /><path d="M 79.1416061653843 102.43462659150553 l -1.9125174862684877 0.22323223761655306 a22.925501432664756,22.925501432664756 0 0,0 -0.042376914407161126,-0.3923575970254958 l 1.916076702176701 -0.1902783187062752" fill="#ff0601" stroke="none" /><path d="M 79.07016306316243 101.71520430193888 l -13.703345960078465 1.1229919283468028 a34.749283667621775,34.749283667621775 0 0,0 -0.04372360278322733,-0.5965738214129533 l 13.720646121526029 -0.8869449704370888" fill="#ffaa0f" stroke="none" /><line stroke="#e1ed5e" stroke-width="0.3" x1="15.007084014347285" x2="10.007500721073583" y1="101.09737516637583" y2="101.16192664675087" /><path d="M 14.007167355692545 101.11028546245083 a86.0,86.0 0 0,1 10.666146001902534,-42.60595125391555" fill="none" id="id10" stroke="none" /><text fill="#e1ed5e" style="font-size:6.75px; font-family:Arial;" text-anchor="middle"><textPath startOffset="22.20632615414155" xlink:href="#id10">October</textPath></text><path d="M 79.08570108090925 98.10471618934814 l -9.003935279637211 -0.8159495488551322 a30.04083094555874,30.04083094555874 0 0,0 0.05110213467950525,-0.5145915223375735 l 8.988556019275478 0.970816601897136" fill="#ff6b09" stroke="none" /><path d="M 79.12142395522702 97.74499172005258 l -7.492956016068244 -0.8092830574882949 a28.5365329512894,28.5365329512894 0 0,0 0.056950286785237704,-0.4879152782218748 l 7.477915376279418 0.9381420740350315" fill="#ff5608" stroke="none" /><path d="M 79.16333360222342 97.38593545837743 l -24.98608850277793 -3.1346304030631584 a46.181948424068764,46.181948424068764 0 0,0 0.10574346912066622,-0.787911668955226 l 24.92842903459943 3.564260414083044" fill="#c6ff1e" stroke="none" /><path d="M 79.21141760316559 97.0276538004421 l -13.998042588126326 -2.0014365527109095 a35.14040114613181,35.14040114613181 0 0,0 0.09076950782649715,-0.5980576457393073 l 13.961517186860528 2.242093310842309" fill="#ffb010" stroke="none" /><path d="M 79.26566170972629 96.67025291283419 l -32.69074396625533 -5.249837635280766 a54.10959885386819,54.10959885386819 0 0,0 0.15559894993678924,-0.9183538104784862 l 32.59553315479832 5.81177723407508" fill="#6eff28" stroke="none" /><path d="M 79.32604984820605 96.31383870115002 l -19.326292942758663 -3.445874280085407 a40.6310888252149,40.6310888252149 0 0,0 0.12869273618872765,-0.6874817426744922 l 19.264114482660073 3.7780341002224724" fill="#fff517" stroke="none" /><path d="M 79.3925641242962 95.95851677861259 l -16.488901055273026 -3.2337655861674333 a37.80300859598854,37.80300859598854 0 0,0 0.13072767146534287,-0.637474553052557 l 16.43079408789269 3.517115795383393" fill="#ffd213" stroke="none" /><path d="M 79.54389044137918 95.25157060432595 l -13.466450346971735 -3.1259359703613536 a34.82449856733524,34.82449856733524 0 0,0 0.14057024885115602,-0.5827544331722753 l 13.410647297859763 3.3572756351930257" fill="#ffab0f" stroke="none" /><path d="M 79.62865764111835 94.90015583598534 l -21.888978179314094 -5.479775247866747 a43.56446991404012,43.56446991404012 0 0,0 0.18837207944383233,-0.7258744639043627 l 21.791409767999955 5.855746137319974" fill="#e5ff1a" stroke="none" /><path d="M 79.81627453868168 94.20196356495316 l -60.551176383954946 -17.394109305140535 a84.0,84.0 0 0,0 0.4111764115531722,-1.3862824530138431 l 60.24279407529007 18.433821144900918" fill="#4dd2ff" stroke="none" /><path d="M 79.91906864156998 93.8553929516997 l -14.39900593824388 -4.405982561137971 a36.058022922636106,36.058022922636106 0 0,0 0.18671963138081332,-0.5919522572176823 l 14.321030823094862 4.653184984782068" fill="#ffbb11" stroke="none" /><path d="M 80.02781315780177 93.51064311812611 l -24.66479234666887 -8.014076836927357 a46.93409742120344,46.93409742120344 0 0,0 0.25626622022354595,-0.7662033802882198 l 24.523188832673554 8.437453320137898" fill="#beff1f" stroke="none" /><path d="M 80.38941819471856 92.48833698450439 l -14.047694702923662 -5.380847432303449 a36.04297994269341,36.04297994269341 0 0,0 0.22691021094804303,-0.5774617365829161 l 13.952990942093928 5.621858173782129" fill="#ffbb11" stroke="none" /><path d="M 80.52162464483688 92.15188598940014 l -29.510575842528663 -11.890230037549205 a52.81590257879656,52.81590257879656 0 0,0 0.34702138778119823,-0.8403398160017365 l 29.301532767861264 12.396444424004253" fill="#7cff26" stroke="none" /><path d="M 80.65960295795068 91.81776055985345 l -29.315386920470186 -12.402305627041608 a52.83094555873926,52.83094555873926 0 0,0 0.36153798498030465,-0.8344795159110769 l 29.0975582256472 12.905084287539285" fill="#7cff26" stroke="none" /><path d="M 80.803312248108 91.48605970444005 l -9.667099920902636 -4.287464203279828 a31.575214899713465,31.575214899713465 0 0,0 0.22463161654292613,-0.4949459910032185 l 9.591865987396357 4.453232203125117" fill="#ff800b" stroke="none" /><path d="M 80.95270993114464 91.15688171328213 l -13.766988309079556 -6.391623460815426 a36.17836676217765,36.17836676217765 0 0,0 0.2671028250792175,-0.5625866693298854 l 13.654927290158588 6.6276525457858435" fill="#ffbd11" stroke="none" /><path d="M 81.10775173730289 90.83032412892265 l -9.527322906116595 -4.624249149884275 a31.59025787965616,31.59025787965616 0 0,0 0.24165041031363407,-0.48715248148437024 l 9.446312482849548 4.787561219867606" fill="#ff800b" stroke="none" /><line stroke="#e1ed5e" stroke-width="0.3" x1="26.266209847984257" x2="21.92892807433627" y1="57.711370442889674" y2="55.22380399835377" /><path d="M 25.39875349325466 57.213857153982495 a86.0,86.0 0 0,1 29.58750427330802,-30.492523968695096" fill="none" id="id11" stroke="none" /><text fill="#e1ed5e" style="font-size:6.75px; font-family:Arial;" text-anchor="middle"><textPath startOffset="21.46611528233685" xlink:href="#id11">November</textPath></text><path d="M 81.78341655067847 89.55222093294921 l -27.533661230708056 -15.791413919396245 a52.740687679083095,52.740687679083095 0 0,0 0.45844296655232136,-0.7836276363089222 l 27.25775858968541 16.26302096805906" fill="#7dff26" stroke="none" /><path d="M 81.96595687620814 89.24020034530311 l -12.957124106850456 -7.730715654484945 a36.08810888252149,36.08810888252149 0 0,0 0.32287550136916904,-0.5307224298540317 l 12.822132807195068 7.952605857546052" fill="#ffbc11" stroke="none" /><path d="M 82.95767976084542 87.72973835380427 l -25.771015777116993 -18.554815426303147 a52.75573065902579,52.75573065902579 0 0,0 0.5369462879045099,-0.7323941332693746 l 25.447806876698852 18.995672003244024" fill="#7dff26" stroke="none" /><path d="M 83.84228863543731 86.58626213691792 l -12.859038199161281 -10.675259860948561 a37.71275071633238,37.71275071633238 0 0,0 0.418951641825057,-0.495906599770635 l 12.6733759438491 10.89502541034831" fill="#ffd113" stroke="none" /><path d="M 85.57189188830299 84.74124197986013 l -12.53674436926109 -13.258505357041303 a39.24713467048711,39.24713467048711 0 0,0 0.4948729449707882,-0.4599304691484561 l 12.306663540495446 13.472340412264407" fill="#ffe415" stroke="none" /><path d="M 86.65592168130627 83.78471172551755 l -3.9191060964644904 -4.762369765428225 a27.167621776504298,27.167621776504298 0 0,0 0.36365362621240127,-0.29404927531588354 l 3.8365490716875885 4.829125138008243" fill="#ff4306" stroke="none" /><path d="M 88.39885842347998 82.49532879139004 l -2.559564187369748 -3.86206212912025 a25.63323782234957,25.63323782234957 0 0,0 0.3698912521945378,-0.24058755962188563 l 2.4927059093909234 3.9055486129016703" fill="#ff2d04" stroke="none" /><line stroke="#e1ed5e" stroke-width="0.3" x1="56.762969772571076" x2="54.21961505331055" y1="26.818313649435495" y2="22.513508569990535" /><path d="M 56.25429882871897 25.957352633546506 a86.0,86.0 0 0,1 42.265352541879196,-11.944610805530505" fill="none" id="id12" stroke="none" /><text fill="#e1ed5e" style="font-size:6.75px; font-family:Arial;" text-anchor="middle"><textPath startOffset="22.20632615414155" xlink:href="#id12">December</textPath></text><path d="M 89.63071344664047 81.73862282372117 l -3.929335663844692 -6.919963127687322 a28.957736389684815,28.957736389684815 0 0,0 0.43557387430968086,-0.24239638946751052 l 3.8096377004629667 6.986574914715018" fill="#ff5c08" stroke="none" /><path d="M 89.94658935756843 81.56283822128135 l -2.8806334219001632 -5.282854377856345 a27.017191977077363,27.017191977077363 0 0,0 0.4102174043231831,-0.21912393066107005 l 2.789270971048675 5.331657035019166" fill="#ff4106" stroke="none" /><path d="M 90.58718382345135 81.22770947309562 l -4.1467635734795225 -8.270027703471488 a30.251432664756447,30.251432664756447 0 0,0 0.46749805303870584,-0.2293992643043426 l 4.0037942534303905 8.340182127910658" fill="#ff6e0a" stroke="none" /><path d="M 92.57280143429618 80.3572730644239 l -5.325663154920859 -14.08479202185651 a36.058022922636106,36.058022922636106 0 0,0 0.5824532701455257,-0.21452245491994648 l 5.082427559002765 14.17437774458278" fill="#ffbb11" stroke="none" /><path d="M 93.25333710446033 80.11325718540243 l -1.4063602454169373 -4.145445672670413 a25.377507163323784,25.377507163323784 0 0,0 0.4148825779921601,-0.13678026301910917 l 1.3347948451823677 4.169039659948754" fill="#ff2a04" stroke="none" /><path d="M 94.28887869178378 79.79150937346287 l -4.12788065901875 -14.606280116171888 a36.17836676217765,36.17836676217765 0 0,0 0.6007368025909365,-0.164204061112291 l 3.8758459672040906 14.675170718110476" fill="#ffbd11" stroke="none" /><path d="M 98.19473922651362 79.07773832637324 l -2.198383463414647 -25.4783988862217 a46.5730659025788,46.5730659025788 0 0,0 0.799304279179236,-0.06204139560495778 l 1.7594889948730768 25.51246554401512" fill="#c2ff1e" stroke="none" /></svg>