<?xml version="1.0" encoding="utf-8" ?>
<svg baseProfile="full" height="200mm" version="1.1" viewBox="0,0,200,200" width="200mm" xmlns="http://www.w3.org/2000/svg" xmlns:ev="http://www.w3.org/2001/xml-events" xmlns:xlink="http://www.w3.org/1999/xlink"><defs /><rect fill="#1a1a1a" height="200" width="200" x="0" y="0" /><rect fill="#1a1a1a" height="200" width="180" x="10" y="0" /><text alignment-baseline="middle" fill="#e1ed5e" style="dominant-baseline: central; font-size:9.0px; font-family:Arial;" text-anchor="middle" x="100.0" y="100.0">2020</text><line stroke="#e1ed5e" stroke-width="0.3" x1="100.0" x2="100.0" y1="15.0" y2="10.0" /><path d="M 100.0 14.0 a86.0,86.0 0 0,1 42.35913384403234,11.155469271406648" fill="none" id="id61" stroke="none" /><text fill="#e1ed5e" style="font-size:6.75px; font-family:Arial;" text-anchor="middle"><textPath startOffset="22.145653131862478" xlink:href="#id61">January</textPath></text><path d="M 102.15924093988457 79.11130261209362 l 3.256610638155495 -31.50475376513722 a52.67262260455353,52.67262260455353 0 0,0 0.8986052213210414,0.10069058936014941 l -3.7969517610773327 31.4442074152701" fill="red" stroke="none" /><path d="M 104.29559338865022 79.4440306129975 l 6.574925986513854 -31.46340099546872 a53.14304363201776,53.14304363201776 0 0,0 0.8913798696402785,0.19427209380791266 l -7.114068272773267 31.34589744352709" fill="red" stroke="none" /><path d="M 104.9986988182912 79.60360301121754 l 13.1414862405688 -53.62174840469636 a76.20860949695813,76.20860949695813 0 0,0 1.2679468937566718,0.32230714212518835 l -14.060038427550866 53.3882560307359" fill="red" stroke="none" /><line stroke="#e1ed5e" stroke-width="0.3" x1="143.13028292997686" x2="145.6673583964461" y1="26.7553504044142" y2="22.446841604673864" /><path d="M 143.63769802327073 25.89364864446614 a86.0,86.0 0 0,1 29.32050498858742,28.57503671076993" fill="none" id="id62" stroke="none" /><text fill="#e1ed5e" style="font-size:6.75px; font-family:Arial;" text-anchor="middle"><textPath startOffset="20.669276256404974" xlink:href="#id62">February</textPath></text><line stroke="#e1ed5e" stroke-width="0.3" x1="172.87174338648825" x2="177.1583165268699" y1="56.24261187166439" y2="53.66864786411523" /><path d="M 173.72905801456457 55.72781907015455 a86.0,86.0 0 0,1 12.242430191666344,42.057860355516425" fill="none" id="id63" stroke="none" /><text fill="#e1ed5e" style="font-size:6.75px; font-family:Arial;" text-anchor="middle"><textPath startOffset="22.145653131862474" xlink:href="#id63">March</textPath></text><line stroke="#e1ed5e" stroke-width="0.3" x1="184.99686870605535" x2="189.99668451229388" y1="99.2704041080226" y2="99.22748670261217" /><path d="M 185.99683186730306 99.26182062694052 a86.0,86.0 0 0,1 -10.086455211305974,41.156179273409016" fill="none" id="id64" stroke="none" /><text fill="#e1ed5e" style="font-size:6.75px; font-family:Arial;" text-anchor="middle"><textPath startOffset="21.40746469413373" xlink:href="#id64">April</textPath></text><line stroke="#e1ed5e" stroke-width="0.3" x1="174.33088141563837" x2="178.70328620479359" y1="141.23008692659167" y2="143.65538615756765" /><path d="M 175.20536237346943 141.71514677278685 a86.0,86.0 0 0,1 -30.301960400862466,31.631185727798858" fill="none" id="id65" stroke="none" /><text fill="#e1ed5e" style="font-size:6.75px; font-family:Arial;" text-anchor="middle"><textPath startOffset="22.145653131862474" xlink:href="#id65">May</textPath></text><line stroke="#e1ed5e" stroke-width="0.3" x1="143.1302829299769" x2="145.66735839644613" y1="173.24464959558577" y2="177.55315839532614" /><path d="M 143.63769802327073 174.10635135553383 a86.0,86.0 0 0,1 -40.68552437913181,11.842963189579606" fill="none" id="id66" stroke="none" /><text fill="#e1ed5e" style="font-size:6.75px; font-family:Arial;" text-anchor="middle"><textPath startOffset="21.407464694133747" xlink:href="#id66">June</textPath></text><path d="M 108.07796709384702 119.3841803445677 l 12.505278150212014 30.008115173845013 a53.50952103462795,53.50952103462795 0 0,0 -0.8509174206357271,0.346060707182896 l -11.988306268385845 -30.218363137607202" fill="red" stroke="none" /><path d="M 107.74402155503746 119.51999308798841 l 11.628185302232739 29.31062305447486 a52.532956050211574,52.532956050211574 0 0,0 -0.8410969979661664,0.3253543876347579 l -11.123316041773043 -29.50591733024766" fill="red" stroke="none" /><path d="M 102.15924093988457 120.88869738790638 l 3.2593900734084817 31.531642279909512 a52.69965439115718,52.69965439115718 0 0,0 -0.90066328430691,0.08529374943995094 l -2.7176272257165563 -31.582947784854646" fill="red" stroke="none" /><line stroke="#e1ed5e" stroke-width="0.3" x1="101.45913802915013" x2="101.54496967792366" y1="184.9874750549273" y2="189.98673829345242" /><path d="M 101.47630435890484 185.9873277026323 a86.0,86.0 0 0,1 -42.54439059252881,-10.42667462771756" fill="none" id="id67" stroke="none" /><text fill="#e1ed5e" style="font-size:6.75px; font-family:Arial;" text-anchor="middle"><textPath startOffset="22.145653131862474" xlink:href="#id67">July</textPath></text><path d="M 100.36049292484886 120.99690560180557 l 0.5750514696013458 33.49386518046493 a54.49880130571618,54.49880130571618 0 0,0 -0.9355443944501939,0.008030523445679767 l -4.102419979431849e-15 -33.49880130571618" fill="red" stroke="none" /><path d="M 100.0 121.0 l 3.911829601045526e-15 31.942512761794617 a52.94251276179462,52.94251276179462 0 0,0 -0.908828632111763,-0.007801200757092595 l 0.5483357072629069 -31.93780595923196" fill="red" stroke="none" /><path d="M 99.27912038922189 120.98762331915562 l -1.1073770561102794 32.24007473429829 a53.25908713552723,53.25908713552723 0 0,0 -0.9134548190539131,-0.03922768028436191 l 1.6606576357650311 -32.2163144855881" fill="red" stroke="none" /><path d="M 98.91894614982273 120.97215588758144 l -1.6258716781416485 31.541476200837753 a52.58335288790279,52.58335288790279 0 0,0 -0.9010674533583075,-0.05420598044616091 l 2.167083483632402 -31.5089182425669" fill="red" stroke="none" /><path d="M 98.19965949673042 120.92268563240118 l -2.706762138868551 31.456679006211477 a52.57291901893517,52.57291901893517 0 0,0 -0.8984973138104794,-0.08508862978198792 l 3.2463590160640456 -31.405578620924302" fill="red" stroke="none" /><path d="M 97.84075906011543 120.88869738790638 l -6.4777228196537076 62.666092163719114 a84.0,84.0 0 0,0 -1.4330563935968028,-0.16057695797211657 l 7.552515114851309 -62.54565944524002" fill="red" stroke="none" /><path d="M 95.70440661134978 120.55596938700252 l -6.547204576156424 31.33074401164494 a53.0075211174697,53.0075211174697 0 0,0 -0.8891067209251248,-0.19377667162544093 l 7.084073713700685 -31.21373588188578" fill="red" stroke="none" /><path d="M 95.35216902796893 120.47920084513623 l -7.124171773173898 31.390415330513253 a53.188693637297696,53.188693637297696 0 0,0 -0.8886763039003606,-0.20972518798036252 l 7.661980230814146 -31.263493998886663" fill="red" stroke="none" /><path d="M 95.00130118170881 120.39639698878247 l -7.720654357030324 31.502904456443336 a53.43518911448689,53.43518911448689 0 0,0 -0.8890462967667897,-0.2259920920496205 l 8.260305947022493 -31.365727132558455" fill="red" stroke="none" /><path d="M 94.6519064749342 120.30758222061772 l -8.10096974001759 30.760701601627105 a52.80953432153676,52.80953432153676 0 0,0 -0.8746732497622881,-0.23839608372188834 l 8.627824390714572 -30.617105023761074" fill="red" stroke="none" /><path d="M 89.97174638481275 118.45085714620012 l -15.158183141272564 27.889349678192865 a52.742500557090274,52.742500557090274 0 0,0 -0.7917799919906079,-0.4391870145325678 l 15.634707321419274 -27.62502974822715" fill="red" stroke="none" /><line stroke="#e1ed5e" stroke-width="0.3" x1="58.13341422392154" x2="55.670673884152215" y1="173.97424548756322" y2="178.32567169271397" /><path d="M 57.64086615596767 174.84453072859336 a86.0,86.0 0 0,1 -31.369924170532244,-30.572349798747897" fill="none" id="id68" stroke="none" /><text fill="#e1ed5e" style="font-size:6.75px; font-family:Arial;" text-anchor="middle"><textPath startOffset="22.145653131862474" xlink:href="#id68">August</textPath></text><line stroke="#e1ed5e" stroke-width="0.3" x1="26.387840678322732" x2="22.057713659400548" y1="142.50000000000003" y2="145.00000000000006" /><path d="M 25.521815274538298 143.00000000000003 a86.0,86.0 0 0,1 -11.493303480769221,-40.785679425670985" fill="none" id="id69" stroke="none" /><text fill="#e1ed5e" style="font-size:6.75px; font-family:Arial;" text-anchor="middle"><textPath startOffset="21.40746469413373" xlink:href="#id69">September</textPath></text><path d="M 80.28708602549918 107.23885506374661 l -22.599260732923913 8.29876157350799 a45.07480071212656,45.07480071212656 0 0,0 -0.26048905474889644,-0.7286342471363483 l 22.738389957716755 -7.909592369990721" fill="red" stroke="none" /><path d="M 79.17382384314188 102.69636545807758 l -32.162668927774725 4.164101411764875 a53.431111808340894,53.431111808340894 0 0,0 -0.10996100862777466,-0.910634893581811 l 32.22941202266216 -3.6113728412596653" fill="red" stroke="none" /><path d="M 79.06263194458094 101.62068470465958 l -31.83463641520692 2.4642021948489807 a52.92986639723876,52.92986639723876 0 0,0 -0.062346439558569604,-0.9065035480189989 l 31.872246815930556 -1.9173552226756383" fill="red" stroke="none" /><path d="M 79.03789590574601 101.26102812881392 l -31.307812780705827 1.8834002727298724 a52.3644119616333,52.3644119616333 0 0,0 -0.04627620262138798,-0.8977459680680431 l 31.33553057278379 -1.3456825112850985" fill="red" stroke="none" /><line stroke="#e1ed5e" stroke-width="0.3" x1="15.003131293944662" x2="10.003315487706104" y1="100.72959589197737" y2="100.7725132973878" /><path d="M 14.003168132696942 100.73817937305945 a86.0,86.0 0 0,1 10.791469493833615,-42.45332614584628" fill="none" id="id70" stroke="none" /><text fill="#e1ed5e" style="font-size:6.75px; font-family:Arial;" text-anchor="middle"><textPath startOffset="22.145653131862435" xlink:href="#id70">October</textPath></text><path d="M 79.00077361379809 100.18025310272382 l -31.522902992656793 0.2705862095482715 a52.52406429985271,52.52406429985271 0 0,0 0.0,-0.9016786245441666 l 31.522902992656793 0.2705862095482599" fill="red" stroke="none" /><path d="M 79.34024301695615 96.23510406497455 l -31.48321677265608 -5.73729085710835 a53.001710028264306,53.001710028264306 0 0,0 0.17080105871421467,-0.8937033128503067 l 31.380089421659704 6.276896734991971" fill="red" stroke="none" /><path d="M 79.407916724674 95.88100663000787 l -31.35215787948646 -6.271309644288861 a52.973225179121286,52.973225179121286 0 0,0 0.1860174709392712,-0.8901609375269257 l 31.239882697722823 6.808587033101196" fill="red" stroke="none" /><path d="M 79.48165901384962 95.52812308129327 l -30.854670907540054 -6.724631916335431 a52.57897071189616,52.57897071189616 0 0,0 0.19977289396605388,-0.8802362313871026 l 30.73468715201634 7.2533024816615415" fill="red" stroke="none" /><path d="M 79.94057633289273 93.78553927170692 l -30.273721734908435 -9.378876379651818 a52.693241390357315,52.693241390357315 0 0,0 0.27509707125950206,-0.8617376575534842 l 30.108259947871677 9.897183070896693" fill="red" stroke="none" /><line stroke="#e1ed5e" stroke-width="0.3" x1="26.387840678322718" x2="22.05771365940052" y1="57.49999999999999" y2="54.99999999999999" /><path d="M 25.521815274538284 56.99999999999999 a86.0,86.0 0 0,1 29.574782752854787,-30.34633250058573" fill="none" id="id71" stroke="none" /><text fill="#e1ed5e" style="font-size:6.75px; font-family:Arial;" text-anchor="middle"><textPath startOffset="21.40746469413373" xlink:href="#id71">November</textPath></text><line stroke="#e1ed5e" stroke-width="0.3" x1="56.869717070023135" x2="54.33264160355391" y1="26.7553504044142" y2="22.446841604673864" /><path d="M 56.362301976729285 25.89364864446614 a86.0,86.0 0 0,1 42.16139366436587,-11.88097634709845" fill="none" id="id72" stroke="none" /><text fill="#e1ed5e" style="font-size:6.75px; font-family:Arial;" text-anchor="middle"><textPath startOffset="22.145653131862474" xlink:href="#id72">December</textPath></text></svg>