<?xml version="1.0" encoding="utf-8" ?>
<svg baseProfile="full" height="200mm" version="1.1" viewBox="0,0,200,200" width="200mm" xmlns="http://www.w3.org/2000/svg" xmlns:ev="http://www.w3.org/2001/xml-events" xmlns:xlink="http://www.w3.org/1999/xlink"><defs /><rect fill="#1a1a1a" height="200" width="200" x="0" y="0" /><rect fill="#1a1a1a" height="200" width="180" x="10" y="0" /><text alignment-baseline="middle" fill="#e1ed5e" style="dominant-baseline: central; font-size:9.0px; font-family:Arial;" text-anchor="middle" x="100.0" y="100.0">2019</text><line stroke="#e1ed5e" stroke-width="0.3" x1="100.0" x2="100.0" y1="15.0" y2="10.0" /><path d="M 100.0 14.0 a86.0,86.0 0 0,1 42.46469731375804,11.215312516191453" fill="none" id="id49" stroke="none" /><text fill="#e1ed5e" style="font-size:6.75px; font-family:Arial;" text-anchor="middle"><textPath startOffset="22.20632615414155" xlink:href="#id49">January</textPath></text><path d="M 101.44485096284872 79.0497635885617 l 2.413837994830749 -35.00047960026957 a56.08361706144586,56.08361706144586 0 0,0 0.9625278954757464,0.07471068965792883 l -3.0159560796688365 34.95374364842318" fill="red" stroke="none" /><path d="M 106.0581310904928 79.89281104454417 l 3.1348485729927407 -10.40469274473537 a31.866687935518506,31.866687935518506 0 0,0 0.5238498475525654,0.16276269760497733 l -3.3134837932560246 10.349189912247871" fill="red" stroke="none" /><path d="M 106.40334571778207 80.00007090966166 l 9.34674874980991 -29.193224988975807 a51.652994918099516,51.652994918099516 0 0,0 0.8444457351432704,0.2784004821731563 l -9.847877307195597 29.028010782543415" fill="red" stroke="none" /><path d="M 107.08798089147638 80.2323363322302 l 1.8131796910456002 -5.056775243979875 a26.372019774735378,26.372019774735378 0 0,0 0.425993105365017,0.1568968558096392 l -1.8999551221831936 5.024815120363911" fill="red" stroke="none" /><path d="M 107.4271985657038 80.35727306442388 l 2.152340517220324 -5.692299280560466 a27.085625752668122,27.085625752668122 0 0,0 0.4346815173889391,0.1686496755643551 l -2.25000519960893 5.654406901105563" fill="red" stroke="none" /><path d="M 107.76421540070413 80.48803036053334 l 2.083822198483087 -5.236778395813343 a26.636147879691258,26.636147879691258 0 0,0 0.4245499213029398,0.1731845727131513 l -2.173655989374414 5.200132936916613" fill="red" stroke="none" /><path d="M 108.09893153111575 80.62456947434976 l 2.351960103183698 -5.62669771972488 a27.098478790331654,27.098478790331654 0 0,0 0.4288221257715171,0.18359925494184232 l -2.4484659867455307 5.585378936820247" fill="red" stroke="none" /><line stroke="#e1ed5e" stroke-width="0.3" x1="143.23703022742887" x2="145.7803849466894" y1="26.81831364943548" y2="22.513508569990506" /><path d="M 143.74570117128098 25.957352633546492 a86.0,86.0 0 0,1 28.547481713284135,27.462654790039103" fill="none" id="id50" stroke="none" /><text fill="#e1ed5e" style="font-size:6.75px; font-family:Arial;" text-anchor="middle"><textPath startOffset="19.985693538727396" xlink:href="#id50">February</textPath></text><path d="M 113.6212207817346 84.01681056812373 l 4.01832698107705 -4.715119324979848 a27.195103064166908,27.195103064166908 0 0,0 0.35367387110782705,0.30670249586450593 l -4.098894650831641 4.645251835695668" fill="red" stroke="none" /><path d="M 113.89432698308785 84.25364557470405 l 3.7732877594940444 -4.276243569187954 a26.702978132429486,26.702978132429486 0 0,0 0.342038462670861,0.3070855089425504 l -3.8463372097608954 4.210659051476108" fill="red" stroke="none" /><path d="M 114.16331599549186 84.49514656593476 l 6.8129937684363675 -7.4583148367535435 a31.10165057269805,31.10165057269805 0 0,0 0.3921653272675205,0.3644749319738105 l -6.940366979498735 7.339935318705092" fill="red" stroke="none" /><path d="M 114.42810811169701 84.74124197986012 l 6.804750017297532 -7.19651066499204 a30.904261130910015,30.904261130910015 0 0,0 0.38338466039902364,0.3688157395485924 l -6.927617921308974 7.078311838681146" fill="red" stroke="none" /><path d="M 114.68862486808459 84.99185889309783 l 7.557124972744687 -7.721512324811412 a31.80425334930165,31.80425334930165 0 0,0 0.38795767192855285,0.386291658392753 l -7.688918444840563 7.590284815768542" fill="red" stroke="none" /><path d="M 114.94478906791727 85.2469230424477 l 11.864309899222626 -11.712114249055382 a37.67139674915447,37.67139674915447 0 0,0 0.4515827046657478,0.4653956723984576 l -12.064156867591484 11.506154381106809" fill="red" stroke="none" /><path d="M 115.19652480421416 85.50635884689758 l 7.262607717529742 -6.926690901359112 a31.036160505975065,31.036160505975065 0 0,0 0.36538824179270324,0.3897707003860519 l -7.380763281292909 6.800650784095004" fill="red" stroke="none" /><path d="M 115.4437574822437 85.77008943001954 l 7.7678631041805355 -7.157325373661658 a31.562528282080493,31.562528282080493 0 0,0 0.364707057423003,0.40271864190045226 l -7.889913802219574 7.022553944491658" fill="red" stroke="none" /><path d="M 115.68641384162765 86.03803664274999 l 4.142538220865795 -3.6871376357704526 a26.54577378338216,26.54577378338216 0 0,0 0.300862388003184,0.343937718810186 l -4.2053924724468255 3.6152843607573186" fill="red" stroke="none" /><path d="M 115.92442197804982 86.31012108654704 l 4.375829190734497 -3.7618050972073247 a26.770533657804894,26.770533657804894 0 0,0 0.29739435112627244,0.3520211087264571 l -4.439934155347888 3.685925038851761" fill="red" stroke="none" /><path d="M 116.15771136456269 86.58626213691792 l 4.019664923134993 -3.337027773290592 a26.22431435252461,26.22431435252461 0 0,0 0.2853473987530546,0.34980217101503 l -4.076510813964457 3.267341432667461" fill="red" stroke="none" /><line stroke="#e1ed5e" stroke-width="0.3" x1="172.23445277983987" x2="176.4835382374775" y1="55.19839476539836" y2="52.563006222186495" /><path d="M 173.08426987136738 54.67131705675599 a86.0,86.0 0 0,1 12.851231095245387,41.99856678651699" fill="none" id="id51" stroke="none" /><text fill="#e1ed5e" style="font-size:6.75px; font-family:Arial;" text-anchor="middle"><textPath startOffset="22.20632615414155" xlink:href="#id51">March</textPath></text><path d="M 118.73160827565052 90.50648371742162 l 9.864958457108438 -4.999738536133035 a32.05960174645403,32.05960174645403 0 0,0 0.24524066710806045,0.494390220101498 l -9.949559137169906 4.829188727532587" fill="red" stroke="none" /><path d="M 118.89224826269711 90.83032412892265 l 11.065866767432311 -5.3710077317920275 a33.30045248637352,33.30045248637352 0 0,0 0.24585534758924438,0.5178340629536714 l -11.156680308863312 5.179731253197816" fill="red" stroke="none" /><path d="M 119.04729006885535 91.15688171328212 l 4.963946626729301 -2.304620081409796 a26.472845679594347,26.472845679594347 0 0,0 0.18833246704372691,0.4149656267163307 l -5.002881410736375 2.218832445851403" fill="red" stroke="none" /><path d="M 119.47837535516314 92.15188598940014 l 10.006268225563002 -4.031667550448199 a31.787944523367216,31.787944523367216 0 0,0 0.20012244295199152,0.5092897889145 l -10.074184218396693 3.858828756637914" fill="red" stroke="none" /><path d="M 119.61058180528143 92.48833698450437 l 20.94674457372265 -8.023468557525964 a43.4308304779468,43.4308304779468 0 0,0 0.2614027471417258,0.7004294010705641 l -21.081751909366 7.661716019426066" fill="red" stroke="none" /><path d="M 119.7369772167798 92.82701384747503 l 10.500804678120794 -3.816294953337291 a32.17277969257925,32.17277969257925 0 0,0 0.18468235589167384,0.5221218896992676 l -10.564940114822278 3.6349754372114087" fill="red" stroke="none" /><path d="M 119.85752413597 93.16781622104841 l 17.985363360795855 -6.1880477631949855 a40.020126980108216,40.020126980108216 0 0,0 0.21851505062555274,0.6533321882497849 l -18.08921570519318 5.877542472022887" fill="red" stroke="none" /><path d="M 119.97218684219823 93.5106431181261 l 11.008078128990345 -3.576741401779643 a32.57457831409681,32.57457831409681 0 0,0 0.16868127429624474,0.5347657358340215 l -11.068014887054796 3.3867254995192027" fill="red" stroke="none" /><path d="M 120.08093135843002 93.85539295169968 l 10.785835061937496 -3.300380692530157 a32.27948361845284,32.27948361845284 0 0,0 0.15800669334554104,0.5327200206263116 l -10.841047652394739 3.1142312851573153" fill="red" stroke="none" /><path d="M 120.18372546131832 94.20196356495316 l 7.587171053848248 -2.1795131078973577 a28.89401304710406,28.89401304710406 0 0,0 0.1332058435422754,0.47921229253198433 l -7.623563667956886 2.0485895119464215" fill="red" stroke="none" /><path d="M 120.28053869075195 94.5502522615342 l 26.609214305181887 -7.150377398414164 a48.55318825252077,48.55318825252077 0 0,0 0.20994321870097624,0.8089968628836468 l -26.72835385575317 6.691284109981667" fill="red" stroke="none" /><path d="M 120.37134235888165 94.90015583598534 l 17.015638644221294 -4.259763736132998 a38.54073959553561,38.54073959553561 0 0,0 0.1555709795900287,0.644942146506681 l -17.08644242407214 3.96623635796691" fill="red" stroke="none" /><path d="M 120.45610955862082 95.25157060432595 l 32.639345990100296 -7.5764958879804505 a54.507166346948246,54.507166346948246 0 0,0 0.20428666381516522,0.9157770572940424 l -32.7649270409175 7.013540661136444" fill="red" stroke="none" /><path d="M 120.53481517161879 95.60439243477599 l 28.49962606197619 -6.100525905741699 a50.14524149838354,50.14524149838354 0 0,0 0.17340870210119658,0.8456024162924917 l -28.60041405999238 5.609047833285795" fill="red" stroke="none" /><path d="M 120.6074358757038 95.95851677861258 l 22.413520259175623 -4.395688362494631 a43.8404896311057,43.8404896311057 0 0,0 0.13885802053572932,0.7417850981289076 l -22.485864003621213 4.00922518690316" fill="red" stroke="none" /><path d="M 120.67395015179393 96.31383870115 l 17.08934351658758 -3.0470266316344 a38.35886036356717,38.35886036356717 0 0,0 0.11030572245531059,0.6510306179801736 l -17.139261100563115 2.7524102253383886" fill="red" stroke="none" /><path d="M 120.73433829027371 96.67025291283417 l 14.588117663650202 -2.342719676786484 a35.77503003220317,35.77503003220317 0 0,0 0.09240878767995597,0.6088584517956824 l -14.626282344769457 2.0912621125987196" fill="red" stroke="none" /><path d="M 120.78858239683441 97.02765380044208 l 12.748594277586976 -1.8227907525075688 a33.878246083296844,33.878246083296844 0 0,0 0.07757150555181441,0.577997817841185 l -12.778081782196628 1.6030745926017196" fill="red" stroke="none" /><path d="M 120.87857604477298 97.74499172005257 l 12.230718531158985 -1.3209891085639818 a33.30184896726425,33.30184896726425 0 0,0 0.05664941739080874,0.5704519022052472 l -12.251645074232021 1.1102616756542996" fill="red" stroke="none" /><path d="M 120.91429891909075 98.10471618934814 l 17.3011449191897 -1.5678546050209916 a38.372040282514,38.372040282514 0 0,0 0.05395020458287459,0.6583291467682224 l -17.32556960759207 1.2698115410450006" fill="red" stroke="none" /><path d="M 120.94382443527127 98.46500227214037 l 34.14492267266666 -2.502521871421873 a55.23650624756169,55.23650624756169 0 0,0 0.06133727050828805,0.948860426244689 l -34.182940534179366 1.9144023809241488" fill="red" stroke="none" /><line stroke="#e1ed5e" stroke-width="0.3" x1="184.98032266829074" x2="189.97916517819016" y1="98.17113171792111" y2="98.06355123074" /><path d="M 185.9800911702706 98.14961562048488 a86.0,86.0 0 0,1 -9.607161424134198,41.387399972396054" fill="none" id="id52" stroke="none" /><text fill="#e1ed5e" style="font-size:6.75px; font-family:Arial;" text-anchor="middle"><textPath startOffset="21.466115282336823" xlink:href="#id52">April</textPath></text><path d="M 120.99513854157772 99.54816195383933 l 24.74983081595564 -0.5326430771839106 a45.75556167947113,45.75556167947113 0 0,0 0.01016861336585804,0.7875703113908064 l -24.755332436439215 0.10653650773264157" fill="red" stroke="none" /><path d="M 120.99980553446 99.90962569577887 l 31.756550699835667 -0.13666679766396658 a52.75684477659607,52.75684477659607 0 0,0 -0.003908284115058062,0.9081475879342344 l -31.754198118431106 -0.4099902684739526" fill="red" stroke="none" /><path d="M 120.99824983174949 100.27111621757518 l 29.417264965792754 0.3798172549063463 a50.41971684457181,50.41971684457181 0 0,0 -0.018674352240797772,0.8677237691717594 l -29.406368550866947 -0.8861308398682205" fill="red" stroke="none" /><path d="M 120.9904718944345 100.63252640178507 l 41.167165963374096 1.2405304411191445 a62.18585278018813,62.18585278018813 0 0,0 -0.041450919321509995,1.069664044668632 l -41.139712911201386 -1.9489717328017828" fill="red" stroke="none" /><path d="M 120.95626037817324 101.35467743843564 l 14.922596586864355 0.9646427632745427 a35.95374282763461,35.95374282763461 0 0,0 -0.04523912449540444,0.6172519110880405 l -14.903780903704613 -1.2213678108593533" fill="red" stroke="none" /><path d="M 120.92983693683757 101.71520430193887 l 23.93352426595425 1.9613570762833534 a45.013756585959385,45.013756585959385 0 0,0 -0.06993295150963733,0.7717042924899874 l -23.896216718167537 -2.3730427573219113" fill="red" stroke="none" /><path d="M 120.89721153311464 102.0752229133903 l 23.844407502497525 2.367897780380236 a44.96169253294704,44.96169253294704 0 0,0 -0.08310997260696881,0.7694951271726798 l -23.800115228389505 -2.7779892294377073" fill="red" stroke="none" /><path d="M 120.8583938346157 102.4346265915055 l 21.551273842981423 2.5155007041752118 a42.69758392189972,42.69758392189972 0 0,0 -0.09149175406150147,0.729279299409972 l -21.504780579673074 -2.8860977578725784" fill="red" stroke="none" /><path d="M 120.81339534386255 102.79330883721812 l 17.823424568374758 2.3920330409239376 a38.98322233120129,38.98322233120129 0 0,0 -0.09498159833365392,0.6643010775245145 l -17.779608919024504 -2.6984795904288617" fill="red" stroke="none" /><path d="M 120.76222939487914 103.15116336523771 l 10.04314387929878 1.5242865523903344 a31.158158714752126,31.158158714752126 0 0,0 -0.08504433308867257,0.5295711433243194 l -10.01541779184882 -1.6969369254078588" fill="red" stroke="none" /><path d="M 120.70491114924044 103.5080841355445 l 31.15662388932784 5.278943589539984 a52.60067179036831,52.60067179036831 0 0,0 -0.1589380838308355,0.8914091804299159 l -31.061139363157814 -5.814471520703118" fill="red" stroke="none" /><path d="M 120.5718875245553 104.21870165774334 l 29.957694717639512 6.143460400345867 a51.581131085783994,51.581131085783994 0 0,0 -0.18585408891839794,0.8682484294146523 l -29.847506589996673 -6.658222649176689" fill="red" stroke="none" /><path d="M 120.49622156327973 104.57218783832717 l 29.345906081122116 6.54632828175417 a51.067201693781456,51.067201693781456 0 0,0 -0.19877162695047668,0.8563029665658526 l -29.228873888241086 -7.0504999056685875" fill="red" stroke="none" /><path d="M 120.41448212921028 104.9243191809786 l 5.532720327452046 1.3345859404622704 a26.691407018855763,26.691407018855763 0 0,0 -0.11158112103813977,0.445711112801222 l -5.508927892118845 -1.4296248926608883" fill="red" stroke="none" /><path d="M 120.32669344350535 105.2749913415812 l 17.4486208552764 4.52810114886269 a39.02659340434343,39.02659340434343 0 0,0 -0.17434094290898888,0.6487875049870304 l -17.36809183602563 -4.827779587025268" fill="red" stroke="none" /><path d="M 120.23288151984713 105.62410040840565 l 16.85354481916927 4.684751808959791 a38.49253762274929,38.49253762274929 0 0,0 -0.1829446990328199,0.6368544974229938 l -16.77040748325035 -4.974163781887367" fill="red" stroke="none" /><path d="M 120.13307415673323 105.97154293290107 l 22.195458063275293 6.583253491664474 a44.15118971401091,44.15118971401091 0 0,0 -0.22238161113071286,0.7267559720890775 l -22.078849679638445 -6.964336436305608" fill="red" stroke="none" /><path d="M 120.02730092923936 106.31721596034902 l 4.058765036305684 1.2802571528359536 a25.25589379535311,25.25589379535311 0 0,0 -0.13434662116436336,0.4134763842326845 l -4.036126164125073 -1.3499324370464334" fill="red" stroke="none" /><path d="M 119.67450827220406 107.3425965602758 l 21.69582735033945 8.096960039402992 a44.15749741002741,44.15749741002741 0 0,0 -0.2718960482834026,0.7098347844405591 l -21.55323702246254 -8.469218390676694" fill="red" stroke="none" /><path d="M 119.54520255179757 107.68017299344265 l 9.74871037990599 3.830698708914739 a31.474330845918885,31.474330845918885 0 0,0 -0.20248094358483595,0.5025410966362398 l -9.681326822063761 -3.997939173393792" fill="red" stroke="none" /><path d="M 119.41010516605496 108.01547362559984 l 27.446224490448937 11.334018370504216 a50.69436329007655,50.69436329007655 0 0,0 -0.3400119680232341,0.803687854495265 l -27.247061541233393 -11.804780750665644" fill="red" stroke="none" /><path d="M 119.26925614724726 108.34839909993367 l 22.2014676233824 9.618778789794128 a45.195579555759565,45.195579555759565 0 0,0 -0.31541976736350386,0.7111883070179916 l -22.03260677128762 -9.999515433304808" fill="red" stroke="none" /><path d="M 118.97047184881838 109.00673069616215 l 15.951740448531874 7.573508529465097 a38.65831404135764,38.65831404135764 0 0,0 -0.29057566553304603,0.5986719366672463 l -15.819011526384115 -7.846969422097619" fill="red" stroke="none" /><path d="M 118.81262510543309 109.33194174019688 l 10.731995252128867 5.3235714786030925 a32.97982200950886,32.97982200950886 0 0,0 -0.2566479230002866,0.5063907002743293 l -10.638768659342311 -5.5075163905801165" fill="red" stroke="none" /><path d="M 118.64920377521936 109.65438752849418 l 11.121599190373807 5.757469853116715 a33.52351498824795,33.52351498824795 0 0,0 -0.26970065584522357,0.5101720015132843 l -11.02084602630369 -5.948056869716134" fill="red" stroke="none" /><line stroke="#e1ed5e" stroke-width="0.3" x1="174.80103733775053" x2="179.2010983576182" y1="140.37084112569926" y2="142.7455964860345" /><path d="M 175.68104954172406 140.8457921977663 a86.0,86.0 0 0,1 -30.038265399797805,32.042727171017184" fill="none" id="id53" stroke="none" /><text fill="#e1ed5e" style="font-size:6.75px; font-family:Arial;" text-anchor="middle"><textPath startOffset="22.206326154141568" xlink:href="#id53">May</textPath></text><path d="M 117.94076556474637 110.91462005526583 l 14.782654581398985 8.993320690910304 a38.3033723164738,38.3033723164738 0 0,0 -0.34753080220245286,0.5603303093667934 l -14.625659139528569 -9.246447331642369" fill="red" stroke="none" /><path d="M 117.75023020441432 111.22182372390056 l 30.498132940015246 19.2811398961926 a57.081830171478174,57.081830171478174 0 0,0 -0.5322068922434625,0.8259969155268566 l -30.161721184394736 -19.80325841164091" fill="red" stroke="none" /><path d="M 117.55443506779137 111.5257021239791 l 28.9834472526074 19.029639989527876 a55.67228594678629,55.67228594678629 0 0,0 -0.5328550757138223,0.7965460394661 l -28.651589071482853 -19.52572294319978" fill="red" stroke="none" /><path d="M 117.35343817320211 111.8261652097733 l 25.490871204479227 17.37173067356473 a51.84739115967861,51.84739115967861 0 0,0 -0.5089416276031442,0.7331683732225733 l -25.18806866971395 -17.807940308974324" fill="red" stroke="none" /><path d="M 117.14729908036423 112.12312394758627 l 33.06291228689185 23.37544716772088 a61.49157565693899,61.49157565693899 0 0,0 -0.6184887322576182,0.8590267545526277 l -32.655643762258634 -23.941107527724636" fill="red" stroke="none" /><path d="M 116.93607887273984 112.41649034213515 l 22.577266723420262 16.552261968641048 a48.99482718251679,48.99482718251679 0 0,0 -0.5045037794495382,0.6758652574020014 l -22.289001677275632 -16.938440105552363" fill="red" stroke="none" /><path d="M 116.71984013943494 112.70617746262583 l 3.259375154472301 2.476949467496414 a25.093751954151852,25.093751954151852 0 0,0 -0.2643127077466268,0.3416598044740754 l -3.216255629507606 -2.532687266083742" fill="red" stroke="none" /><path d="M 116.498646956653 112.99209946851258 l 16.07743167925981 12.660407373037877 a41.46386386420069,41.46386386420069 0 0,0 -0.4463922341281802,0.5569429480186472 l -15.857121533076777 -12.935278154634775" fill="red" stroke="none" /><path d="M 116.27256486870786 113.27417163493432 l 3.3157242204790265 2.7047667501627455 a25.27899407326736,25.27899407326736 0 0,0 -0.27795337381832586,0.33481274442700143 l -3.268674846767157 -2.7614407517035175" fill="red" stroke="none" /><path d="M 116.0416608686014 113.55231037782055 l 23.726935425171163 20.044981366350264 a52.06072669220042,52.06072669220042 0 0,0 -0.5842142953431201,0.6795732105059452 l -23.378378620257262 -20.45043167601774" fill="red" stroke="none" /><path d="M 115.80600337817218 113.82643327865902 l 26.707608762175475 23.362703508763342 a56.483972170993134,56.483972170993134 0 0,0 -0.6464487070479874,0.7262919753241054 l -26.30150120547915 -23.81896965382831" fill="red" stroke="none" /><path d="M 115.56566222782051 114.09645910891815 l 20.337430611971524 18.417832457505302 a48.43770464761023,48.43770464761023 0 0,0 -0.5649995115178303,0.6131953809938444 l -20.01738469245797 -18.765179093300482" fill="red" stroke="none" /><path d="M 115.32070863581623 114.36230785411682 l 10.332692127496669 9.686321228640097 a35.1629568080269,35.1629568080269 0 0,0 -0.41775844560700715,0.43801806004269134 l -10.164427130510699 -9.862746405265296" fill="red" stroke="none" /><path d="M 115.07121518719521 114.62390073753431 l 13.95475042527341 13.540572707743397 a40.444335130966905,40.444335130966905 0 0,0 -0.48910562237641897,0.4954614131939522 l -13.719604177841456 -13.778774614918014" fill="red" stroke="none" /><path d="M 114.55890576462653 115.13401014063108 l 9.67219413977484 10.054264143199493 a34.95132850085331,34.95132850085331 0 0,0 -0.437164835124258,0.41336663806319335 l -9.497693470259774 -10.219265418008607" fill="red" stroke="none" /><path d="M 114.29624159901734 115.38237550388516 l 18.48547771151117 19.88988207548965 a48.1536423928662,48.1536423928662 0 0,0 -0.6120108975936909,0.5590574443135116 l -18.140367264450614 -20.205132286389745" fill="red" stroke="none" /><path d="M 114.0293411484842 115.62618273729858 l 28.024505273451503 31.214298368719565 a62.94884168213897,62.94884168213897 0 0,0 -0.8125126149341099,0.7169479134575042 l -27.483050305610803 -31.69206942394936" fill="red" stroke="none" /><path d="M 113.48314897796784 116.09983520530334 l 17.354115422079776 20.72204341032269 a48.029028935242295,48.029028935242295 0 0,0 -0.6383969844198806,0.5253572563321415 l -16.994848309115202 -21.01769578551201" fill="red" stroke="none" /><path d="M 113.20401910651253 116.32954008644616 l 3.7289034395570715 4.611571499824715 a26.93054066334058,26.93054066334058 0 0,0 -0.3629756072299642,0.2883697748900569 l -3.648970339609756 -4.675075188719897" fill="red" stroke="none" /><path d="M 112.63410532772338 116.77436683061366 l 14.223248549736002 18.884280485831436 a44.64142230863281,44.64142230863281 0 0,0 -0.6177842030847946,0.4570219843077422 l -13.896079376232644 -19.126312418878946" fill="red" stroke="none" /><path d="M 112.34349029814194 116.9893568818739 l 22.520891337373346 30.997347669656534 a59.314828841890176,59.314828841890176 0 0,0 -0.8311777705470986,0.5930232701468021 l -21.983986238977366 -31.380415201647555" fill="red" stroke="none" /><path d="M 112.04921762599082 117.19931262002967 l 3.414217622250968 4.873527731065441 a26.950475150570156,26.950475150570156 0 0,0 -0.38223873713044687,0.2629072888372088 l -3.3298220004976375 -4.931575809267747" fill="red" stroke="none" /><path d="M 111.7513745106137 117.40417183066458 l 2.7845724434505796 4.124043296975689 a25.976100562504183,25.976100562504183 0 0,0 -0.37272649178845524,0.24702279460300008 l -2.7131712529221605 -4.171364112670007" fill="red" stroke="none" /><path d="M 111.45004920935366 117.60387380957326 l 6.075504446589298 9.340782004664979 a32.14279869418807,32.14279869418807 0 0,0 -0.4664045569172032,0.29768145539240826 l -5.913818087625164 -9.443977888881193" fill="red" stroke="none" /><path d="M 111.1453310114006 117.79835938074945 l 2.744283987525678 4.382440737099303 a26.170771839713808,26.170771839713808 0 0,0 -0.3838639085932215,0.23580056495604557 l -2.6684408790001477 -4.429029768883726" fill="red" stroke="none" /><line stroke="#e1ed5e" stroke-width="0.3" x1="143.8653032363475" x2="146.44561519142675" y1="172.8068346515853" y2="177.08958963109032" /><path d="M 144.38136562736335 173.6633856474863 a86.0,86.0 0 0,1 -40.68145358897372,12.25698825130547" fill="none" id="id54" stroke="none" /><text fill="#e1ed5e" style="font-size:6.75px; font-family:Arial;" text-anchor="middle"><textPath startOffset="21.466115282336833" xlink:href="#id54">June</textPath></text><path d="M 110.8373102113329 117.98757091392108 l 2.170156849567724 3.6019869750623172 a25.20522186337942,25.20522186337942 0 0,0 -0.3735559457972165,0.22070343723290511 l -2.1078330327421253 -3.6388089845889717" fill="red" stroke="none" /><path d="M 110.5260780823613 118.17145234162733 l 2.7245049381733346 4.703386318357899 a26.435510097299716,26.435510097299716 0 0,0 -0.39571596172158374,0.2246978506177206 l -2.643140209530552 -4.749587334770249" fill="red" stroke="none" /><path d="M 110.21172684928248 118.3499491758327 l 10.698448655287793 19.224563287117345 a43.00092355357405,43.00092355357405 0 0,0 -0.6498815335468822,0.35436722875759324 l -10.365944309872262 -19.40587116763471" fill="red" stroke="none" /><path d="M 109.89434966115114 118.52300852407294 l 11.203334727785105 20.973532548137406 a44.77822063508064,44.77822063508064 0 0,0 -0.6829938780043872,0.3573101166877208 l -10.84064994725422 -21.163272083769844" fill="red" stroke="none" /><path d="M 109.57404056367764 118.69057910512821 l 8.319015242958521 16.240500699900625 a39.24718821068191,39.24718821068191 0 0,0 -0.6039321668914805,0.3028241259055131 l -8.03822916838428 -16.381292666715442" fill="red" stroke="none" /><path d="M 109.2508944713604 118.85261126421891 l 2.484260813762595 5.0627324250420305 a26.639398141501303,26.639398141501303 0 0,0 -0.41340201840063895,0.1984580912315927 l -2.396746127361723 -5.104744792773183" fill="red" stroke="none" /><path d="M 108.2653958097858 119.30500536409082 l 1.8826723979004365 4.397248671051306 a25.783330558604398,25.783330558604398 0 0,0 -0.4094988862145636,0.1711705676490306 l -1.8067020521884118 -4.42900428172031" fill="red" stroke="none" /><path d="M 107.93186726928326 119.44442032107085 l 12.331844597379845 30.23065837399569 a53.6491515494532,53.6491515494532 0 0,0 -0.8580771092236754,0.34144659045340275 l -11.809646412114304 -30.438451808855163" fill="red" stroke="none" /><path d="M 107.59598834532513 119.57807347666477 l 3.4498044634332055 8.891604646390553 a30.537388742398925,30.537388742398925 0 0,0 -0.4916952625726199,0.18591707561379872 l -3.296238980100311 -8.949669972110982" fill="red" stroke="none" /><path d="M 107.2578585660854 119.70592522655815 l 3.5393582950185625 9.609767023781021 a31.24083392072471,31.24083392072471 0 0,0 -0.5062211758494137,0.18151290317284977 l -3.3734175585394137 -9.669267467993832" fill="red" stroke="none" /><path d="M 106.91757812671514 119.82793768551818 l 8.923962546270765 25.578861566017174 a48.09087053862821,48.09087053862821 0 0,0 -0.7839505026080875,0.2659585743726349 l -8.48234231072545 -25.72868312728793" fill="red" stroke="none" /><path d="M 106.57524785965236 119.94407469862006 l 3.530131800667905 10.707613436220667 a32.27452065631263,32.27452065631263 0 0,0 -0.5291156456852368,0.16940612082704 l -3.3452948098917283 -10.766792403707415" fill="red" stroke="none" /><path d="M 106.2309692047433 120.05430185196036 l 2.556744988608367 8.228853983262693 a29.61690099830747,29.61690099830747 0 0,0 -0.4881500292876134,0.14707559946860774 l -2.4147199848805077 -8.271644951837027" fill="red" stroke="none" /><path d="M 105.88484417918355 120.15858648285463 l 3.3552589123328467 11.49346947806769 a32.97320354007492,32.97320354007492 0 0,0 -0.5462071333016638,0.1543635917866372 l -3.1569206109265773 -11.549521863192846" fill="red" stroke="none" /><path d="M 105.53697534728816 120.25689768951611 l 1.1064924524749378 4.048077334312918 a25.196576658654287,25.196576658654287 0 0,0 -0.41935449288725807,0.11075533302519942 l -1.0366475167761824 -4.066524016641701" fill="red" stroke="none" /><path d="M 105.18746579009965 120.34920634021253 l 2.8442709289112673 11.157404860451418 a32.51423294610087,32.51423294610087 0 0,0 -0.5435245083248941,0.13358510026067114 l -2.651793135843162 -11.204711219026118" fill="red" stroke="none" /><path d="M 104.48393922423573 120.51570834832081 l 4.046467491244293 18.514110637946736 a39.95115278477353,39.95115278477353 0 0,0 -0.6730980467139217,0.14105424009862602 l -3.7271779831009937 -18.581020858771904" fill="red" stroke="none" /><path d="M 104.13013068566511 120.58985236759428 l 3.651981234601524 18.2061441132246 a39.56880853499719,39.56880853499719 0 0,0 -0.6689623087016932,0.1282082186063931 l -3.338051311328127 -18.26630953017946" fill="red" stroke="none" /><path d="M 103.7750983002368 120.6578951692458 l 0.8297093357876265 4.540291964998677 a25.61548141685401,25.61548141685401 0 0,0 -0.43442762156434034,0.07553081053335005 l -0.7514327427512363 -4.553901354053034" fill="red" stroke="none" /><path d="M 103.41894727170886 120.7198165907248 l 5.294652145567793 32.0871346205406 a53.52103241748731,53.52103241748731 0 0,0 -0.9102758724844007,0.14216637051323172 l -4.741540409474875 -32.17351929840094" fill="red" stroke="none" /><path d="M 103.06178313531738 120.77559828337769 l 3.691629816229391 25.049395951085586 a46.31995987781846,46.31995987781846 0 0,0 -0.7898025376009498,0.10945943501437888 l -3.259898687441611 -25.109229951592567" fill="red" stroke="none" /><path d="M 102.70371172650421 120.8252237178851 l 2.825556776680371 21.763729995740515 a42.946382718474126,42.946382718474126 0 0,0 -0.7339180493714513,0.0888672549614295 l -2.4505113042575393 -21.809142779427297" fill="red" stroke="none" /><path d="M 102.34483914955558 120.86867818915974 l 2.058212872464604 18.317752025076224 a39.433021441981865,39.433021441981865 0 0,0 -0.6751823394232863,0.06998541013525164 l -1.7425979364357147 -18.350466803667235" fill="red" stroke="none" /><path d="M 101.98527174616119 120.90594882070398 l 2.4070752056329914 25.34775964744073 a46.461793538358556,46.461793538358556 0 0,0 -0.7968323309885312,0.0687540464132789 l -1.9703985569029183 -25.38543794613267" fill="red" stroke="none" /><path d="M 101.62511606390274 120.93702456842531 l 1.0318181588711863 13.293328779578426 a34.33331311996176,34.33331311996176 0 0,0 -0.5896129169950256,0.04066315883496169 l -0.8028424810972304 -13.309120282929673" fill="red" stroke="none" /><path d="M 100.90346689309514 120.98055641714683 l 0.1817465381534984 4.220568043492266 a25.224479425192992,25.224479425192992 0 0,0 -0.4339567169487473,0.014946346765929827 l -0.10906946953009879 -4.2230711886842895" fill="red" stroke="none" /><line stroke="#e1ed5e" stroke-width="0.3" x1="102.19456741930631" x2="102.32365962044197" y1="184.97166512339345" y2="189.96999836594603" /><path d="M 102.22038585953345 185.97133177190398 a86.0,86.0 0 0,1 -42.740103519485714,-10.115201625700543" fill="none" id="id55" stroke="none" /><text fill="#e1ed5e" style="font-size:6.75px; font-family:Arial;" text-anchor="middle"><textPath startOffset="22.20632615414155" xlink:href="#id55">July</textPath></text><path d="M 100.54218724476979 120.99299961872073 l 0.6196873723137918 23.99373444543678 a45.00173545970259,45.00173545970259 0 0,0 -0.7745448199963345,0.013334491494059322 l -0.20658286242478935 -24.00084641421" fill="red" stroke="none" /><path d="M 100.18074693466247 120.99922214144158 l 0.1856398136330595 21.567677991642448 a42.56847690708789,42.56847690708789 0 0,0 -0.7327734965910151,0.0 l 0.18563981363304466 -21.567677991642448" fill="red" stroke="none" /><path d="M 99.81925306533755 120.99922214144158 l -0.26681581792968934 30.99872560505467 a51.99987386777839,51.99987386777839 0 0,0 -0.8949928826815226,-0.015408114124908709 l 0.8003683905038798 -30.989540013650604" fill="red" stroke="none" /><path d="M 99.45781275523022 120.99299961872073 l -0.41378041093013535 16.021203177840967 a37.02654565070499,37.02654565070499 0 0,0 -0.636997018637594,-0.02193946529129346 l 0.6894977812423724 -16.01170691412358" fill="red" stroke="none" /><path d="M 99.09653310690486 120.98055641714683 l -0.47545431437513724 11.04113071852541 a32.05136300863488,32.05136300863488 0 0,0 -0.5509964033203679,-0.02848022034647338 l 0.6654387861089941 -11.031310691416735" fill="red" stroke="none" /><path d="M 98.73552117531835 120.96189622390904 l -0.3014485178903151 4.997262449577879 a26.00634629234728,26.00634629234728 0 0,0 -0.44661223471901107,-0.030800994541592682 l 0.3874235133882562 -4.991333110520001" fill="red" stroke="none" /><path d="M 98.37488393609728 120.93702456842531 l -0.37221006951086766 4.795332187689722 a25.809755828120423,25.809755828120423 0 0,0 -0.44264429615242534,-0.03819321242209366 l 0.45469868340483466 -4.788214722988965" fill="red" stroke="none" /><path d="M 98.01472825383883 120.90594882070398 l -2.0468620769314345 21.554527185566634 a42.65149617359759,42.65149617359759 0 0,0 -0.7302898919060457,-0.0756975332712708 l 2.4175845654430734 -21.516100283839602" fill="red" stroke="none" /><path d="M 97.65516085044442 120.86867818915974 l -4.216977060417596 37.53039402365948 a58.766564195055174,58.766564195055174 0 0,0 -1.0042718252902574,-0.12160333217733252 l 4.862376308759242 -37.4522451627568" fill="red" stroke="none" /><path d="M 97.2962882734958 120.8252237178851 l -2.884076632036038 22.214476674010122 a43.40091230105587,43.40091230105587 0 0,0 -0.7400298005436128,-0.1025613871884403 l 3.2660350237664817 -22.161540721329075" fill="red" stroke="none" /><path d="M 96.93821686468263 120.77559828337769 l -3.7966650577354177 25.762108082116693 a47.04037016624939,47.04037016624939 0 0,0 -0.8000539612363875,-0.12495197480438565 l 4.239554882580323 -25.6929377999652" fill="red" stroke="none" /><path d="M 96.58105272829116 120.7198165907248 l -4.3435515380824405 26.323187832155863 a47.679142745053426,47.679142745053426 0 0,0 -0.8086178918086536,-0.14058858541302685 l 4.796018401363145 -26.24452066822183" fill="red" stroke="none" /><path d="M 95.86986931433489 120.58985236759428 l -2.3238279505204864 11.584929889742906 a32.81570044025655,32.81570044025655 0 0,0 -0.5528797626161047,-0.11586132980544916 l 2.522899174565978 -11.543212579210916" fill="red" stroke="none" /><path d="M 95.51606077576429 120.51570834832081 l -4.559922472564922 20.863360286521598 a42.35585857325828,42.35585857325828 0 0,0 -0.7109327001066246,-0.1618059679461105 l 4.918375322064409 -20.7817775849978" fill="red" stroke="none" /><path d="M 95.16358092515715 120.4354850818985 l -5.833057051433411 24.64661323012078 a46.32745739865022,46.32745739865022 0 0,0 -0.7744334164759528,-0.19033689189837735 l 6.256443752652573 -24.54255507990837" fill="red" stroke="none" /><path d="M 94.81253420990036 120.34920634021253 l -5.206245297680023 20.422873924768005 a42.0760235681825,42.0760235681825 0 0,0 -0.7002843983604193,-0.18495147439283927 l 5.557020138851931 -20.330231101071583" fill="red" stroke="none" /><path d="M 94.46302465271185 120.25689768951611 l -1.4993870237903226 5.485473138829199 a26.68670176850584,26.68670176850584 0 0,0 -0.4420700843500315,-0.12493342155603929 l 1.593588276244968 -5.458850923934638" fill="red" stroke="none" /><path d="M 94.11515582081647 120.15858648285463 l -1.699588677238695 5.821956247641914 a27.0649630024638,27.0649630024638 0 0,0 -0.446088619571504,-0.13440284175614908 l 1.7995522712504448 -5.79183803678004" fill="red" stroke="none" /><path d="M 93.42475214034765 119.94407469862007 l -4.925724410443851 14.940731921230203 a36.731758684575276,36.731758684575276 0 0,0 -0.59878060762743,-0.20313889236216676 l 5.182174751008507 -14.853730041969914" fill="red" stroke="none" /><path d="M 93.08242187328487 119.8279376855182 l -7.298995881687816 20.92120000062557 a43.15788686556259,43.15788686556259 0 0,0 -0.6993230811860089,-0.2507523761898381 l 7.658038523503551 -20.792460083395774" fill="red" stroke="none" /><path d="M 92.7421414339146 119.70592522655815 l -7.422165660397922 20.15203798629769 a42.47540868276027,42.47540868276027 0 0,0 -0.6839143124294519,-0.2585978727393717 l 7.767950193587657 -20.021291863451683" fill="red" stroke="none" /><path d="M 92.40401165467489 119.57807347666478 l -9.865216693858454 25.42683433873991 a48.27354771397565,48.27354771397565 0 0,0 -0.7720984410386744,-0.3072339039851027 l 10.301436210938986 -25.25325359034874" fill="red" stroke="none" /><path d="M 92.06813273071674 119.44442032107085 l -11.12924832655581 27.282577351887547 a50.46522009549348,50.46522009549348 0 0,0 -0.8015043430756799,-0.3350288804095623 l 11.597224129128954 -27.086963428458013" fill="red" stroke="none" /><path d="M 91.7346041902142 119.30500536409082 l -4.621069499404903 10.793163875858 a32.74081214266953,32.74081214266953 0 0,0 -0.5161812378739331,-0.22627868551565553 l 4.806171411936579 -10.71202063704789" fill="red" stroke="none" /><path d="M 91.40352486487194 119.15986991738527 l -8.82506743542835 19.669357663120994 a42.558419378971976,42.558419378971976 0 0,0 -0.6658001340735409,-0.3056361861187556 l 9.16233556526931 -19.514534406668165" fill="red" stroke="none" /><path d="M 91.07499286063937 119.00905698771935 l -5.043442095171345 10.741848908844991 a32.866913084193406,32.866913084193406 0 0,0 -0.5100433626702726,-0.24485180936583986 l 5.22759812584186 -10.65344282297959" fill="red" stroke="none" /><path d="M 90.7491055286396 118.85261126421891 l -2.578630101165005 5.255049772968429 a26.853621213830785,26.853621213830785 0 0,0 -0.4132210838007973,-0.20719762974670333 l 2.6687050926485627 -5.209884302312424" fill="red" stroke="none" /><path d="M 90.42595943632237 118.69057910512821 l -12.53896399035947 24.478745081496083 a48.50335577191264,48.50335577191264 0 0,0 -0.739812671987506,-0.3870350242776441 l 12.958467564873471 -24.259280638273722" fill="red" stroke="none" /><path d="M 90.10565033884886 118.52300852407294 l -12.442854162183812 23.294011390649857 a47.40900578153408,47.40900578153408 0 0,0 -0.7165017593831737,-0.39069388767951335 l 12.841978733435626 -23.076376851210576" fill="red" stroke="none" /><line stroke="#e1ed5e" stroke-width="0.3" x1="58.666819895761336" x2="56.23545636021788" y1="174.27360380694188" y2="178.64263932499728" /><path d="M 58.180547188652646 175.14741091055294 a86.0,86.0 0 0,1 -31.652253787137756,-30.449443065178592" fill="none" id="id56" stroke="none" /><text fill="#e1ed5e" style="font-size:6.75px; font-family:Arial;" text-anchor="middle"><textPath startOffset="22.20632615414155" xlink:href="#id56">August</textPath></text><path d="M 89.7882731507175 118.34994917583269 l -14.509965842122137 26.073664099693154 a50.83915327758445,50.83915327758445 0 0,0 -0.7610166914995439,-0.4321251387490584 l 14.956631300542888 -25.820035795149465" fill="red" stroke="none" /><path d="M 89.4739219176387 118.17145234162733 l -5.63394045548899 9.72602328060238 a32.23996503156549,32.23996503156549 0 0,0 -0.4778149026068877,-0.28230146662875494 l 5.80052322912426 -9.627603241679877" fill="red" stroke="none" /><path d="M 89.1626897886671 117.98757091392108 l -25.441381995804853 42.22714436273482 a70.29904298145868,70.29904298145868 0 0,0 -1.0311222601496153,-0.6333995096675972 l 26.164483455886778 -41.782956386238844" fill="red" stroke="none" /><path d="M 88.54995079064634 117.60387380957326 l -5.859950960600037 9.009379379472001 a31.747462122003157,31.747462122003157 0 0,0 -0.4555387422930597,-0.3019062386234531 l 6.014164401633059 -8.907175119757232" fill="red" stroke="none" /><path d="M 88.24862548938628 117.40417183066458 l -17.221361575014754 25.505402430911733 a51.77500361754898,51.77500361754898 0 0,0 -0.7343251607672283,-0.5050755415099999 l 17.657843620404876 -25.20518610003663" fill="red" stroke="none" /><path d="M 87.95078237400918 117.19931262002967 l -2.515540157756884 3.5907361726269476 a25.384213560799605,25.384213560799605 0 0,0 -0.3557085883329086,-0.25378863312674854 l 2.576976073938677 -3.546903277655982" fill="red" stroke="none" /><path d="M 87.65650970185807 116.9893568818739 l -15.06280070857376 20.73216656694131 a46.6263671975879,46.6263671975879 0 0,0 -0.6452534801143758,-0.4773430987565607 l 15.417439159106701 -20.46981351944498" fill="red" stroke="none" /><path d="M 87.36589467227662 116.77436683061367 l -5.5376807039553775 7.352407242887624 a30.204553212634828,30.204553212634828 0 0,0 -0.41261040882831873,-0.31637206687911806 l 5.663419841277183 -7.25599583418114" fill="red" stroke="none" /><path d="M 87.07902340077011 116.55440617244103 l -3.277314739687828 4.198908568486519 a26.32650214207078,26.32650214207078 0 0,0 -0.35483424639397887,-0.2819017854582381 l 3.349106478799165 -4.14187286902315" fill="red" stroke="none" /><path d="M 86.51685102203217 116.09983520530335 l -6.944667470130808 8.292425011949135 a31.81631724985416,31.81631724985416 0 0,0 -0.41684606112437134,-0.355245256572361 l 7.086379007832236 -8.171655365153821" fill="red" stroke="none" /><path d="M 86.24171649860922 115.8653595955263 l -22.732085816617005 26.213496458372486 a55.697191848147405,55.697191848147405 0 0,0 -0.7189118939080581,-0.6343561599212373 l 23.179940063431648 -25.818317156678958" fill="red" stroke="none" /><path d="M 85.97065885151581 115.62618273729859 l -16.002079703298705 17.823461485044806 a44.95291911520598,44.95291911520598 0 0,0 -0.5713311602204006,-0.521897468730271 l 16.30651041298596 -17.545371249727957" fill="red" stroke="none" /><path d="M 85.70375840098266 115.38237550388516 l -7.531521491896204 8.103716693756214 a32.06318400080002,32.06318400080002 0 0,0 -0.40104045106399616,-0.3792087781638492 l 7.669897777351014 -7.9728732788464365" fill="red" stroke="none" /><path d="M 85.44109423537348 115.13401014063109 l -30.897049842092393 32.117541880236615 a65.56640197922079,65.56640197922079 0 0,0 -0.8066230035180719,-0.7894503805801546 l 31.445322797986258 -31.580941396733888" fill="red" stroke="none" /><path d="M 85.18274418774928 114.88116024355367 l -13.875707473319757 13.935551158698752 a40.66557509918924,40.66557509918924 0 0,0 -0.4917811444736843,-0.49817170295284297 l 14.113529242848974 -13.694638961765246" fill="red" stroke="none" /><path d="M 84.9287848128048 114.62390073753433 l -8.570601115200295 8.316225228883852 a32.94214409280833,32.94214409280833 0 0,0 -0.3913737683183835,-0.4103538313901186 l 8.712481434897636 -8.167464280911233" fill="red" stroke="none" /><path d="M 84.67929136418377 114.36230785411682 l -23.011175328536662 21.571690449153554 a52.54127484479277,52.54127484479277 0 0,0 -0.6128654286531255,-0.6651443804107611 l 23.379087165185517 -21.172394813941448" fill="red" stroke="none" /><path d="M 84.43433777217949 114.09645910891817 l -17.19236642120109 15.569622846424366 a44.19462478120184,44.19462478120184 0 0,0 -0.5057993790130526,-0.5682709642635668 l 17.45782464986248 -15.271377712419934" fill="red" stroke="none" /><path d="M 84.19399662182784 113.82643327865904 l -7.546748858065959 6.60158150421146 a31.026679245067466,31.026679245067466 0 0,0 -0.3481747317735716,-0.4050058722877445 l 7.659266099410309 -6.470698532762185" fill="red" stroke="none" /><path d="M 83.95833913139862 113.55231037782056 l -16.784207633515106 14.179628478520108 a42.97206157086324,42.97206157086324 0 0,0 -0.4724962337873127,-0.569152151645236 l 17.025799867195953 -13.888615069761112" fill="red" stroke="none" /><path d="M 83.72743513129214 113.27417163493432 l -16.305460769557985 13.30100611600683 a42.042452675618534,42.042452675618534 0 0,0 -0.45262121348754936,-0.5647145575188198 l 16.531999895100398 -13.01836372490975" fill="red" stroke="none" /><path d="M 83.50135304334701 112.99209946851258 l -3.542498947481833 2.789592311036511 a25.50900477430485,25.50900477430485 0 0,0 -0.26868656931561796,-0.3473136101544694 l 3.5899923340155198 -2.728200706768789" fill="red" stroke="none" /><path d="M 83.28015986056508 112.70617746262583 l -11.772373399860358 8.946369362833929 a35.78601705132228,35.78601705132228 0 0,0 -0.3684915712955247,-0.49365467778230665 l 11.924626237850967 -8.742401805542318" fill="red" stroke="none" /><path d="M 83.06392112726016 112.41649034213515 l -18.284336649454477 13.404949937126254 a43.67178090771533,43.67178090771533 0 0,0 -0.43925536336450544,-0.6100872813535316 l 18.51237180519459 -13.088229050321582" fill="red" stroke="none" /><path d="M 82.85270091963577 112.12312394758628 l -24.334643742913848 17.20456970704643 a50.802216442727136,50.802216442727136 0 0,0 -0.4986820386503246,-0.7183886701397412 l 24.6271866887263 -16.78313977471968" fill="red" stroke="none" /><path d="M 82.64656182679789 111.8261652097733 l -14.97777345733177 10.207177483393105 a39.1251253765771,39.1251253765771 0 0,0 -0.3744775571956064,-0.5597931382252576 l 15.151254119938109 -9.947847430962025" fill="red" stroke="none" /><path d="M 82.44556493220864 111.52570212397912 l -17.813308526688886 11.695670474628656 a42.30968485262294,42.30968485262294 0 0,0 -0.39447764410444996,-0.6122380638496567 l 18.01199103417038 -11.387310810857551" fill="red" stroke="none" /><path d="M 82.24976979558568 111.22182372390057 l -7.699778358828712 4.867855484735737 a30.109478788347815,30.109478788347815 0 0,0 -0.2731866852546614,-0.44046392116477184 l 7.782429683751329 -4.734595232205701" fill="red" stroke="none" /><line stroke="#e1ed5e" stroke-width="0.3" x1="26.63291911575756" x2="22.317208475507996" y1="142.92168965132927" y2="145.44649492493687" /><path d="M 25.769776987707644 143.4266507060508 a86.0,86.0 0 0,1 -11.730757126820373,-40.83630448921669" fill="none" id="id57" stroke="none" /><text fill="#e1ed5e" style="font-size:6.75px; font-family:Arial;" text-anchor="middle"><textPath startOffset="21.46611528233685" xlink:href="#id57">September</textPath></text><path d="M 81.69416730710424 110.29060199501025 l -20.007152536621845 11.246996914144008 a43.95171218472423,43.95171218472423 0 0,0 -0.3650578785720489,-0.6626860878370162 l 20.197786824645412 -10.900940307909169" fill="red" stroke="none" /><path d="M 81.51974371655577 109.97397251340807 l -26.63159999224282 14.373331312979133 a51.26276212078954,51.26276212078954 0 0,0 -0.4124150038938911,-0.7801337647150489 l 26.875067504361596 -13.912782533177957" fill="red" stroke="none" /><path d="M 81.35079622478065 109.6543875284942 l -14.691605141277314 7.605603497023326 a37.543532457765465,37.543532457765465 0 0,0 -0.29216257215097635,-0.5764644723242845 l 14.820346383214558 -7.3515848129963555" fill="red" stroke="none" /><path d="M 81.18737489456691 109.33194174019688 l -30.63561587955017 15.196698013210696 a55.1976693770799,55.1976693770799 0 0,0 -0.41489392160140554,-0.8548043660192023 l 30.892663057766292 -14.66710469122621" fill="red" stroke="none" /><path d="M 81.02952815118164 109.00673069616217 l -4.737335818022226 2.2491748370964735 a26.244152753357234,26.244152753357234 0 0,0 -0.19023934326637726,-0.4097586209092835 l 4.7753497781284295 -2.167296148908363" fill="red" stroke="none" /><path d="M 80.87730276802145 108.67885076344099 l -17.996990863184823 8.167948067043238 a40.7637814133701,40.7637814133701 0 0,0 -0.28449026600927313,-0.6414504466141083 l 18.134922213925375 -7.856949283936433" fill="red" stroke="none" /><path d="M 80.45479744820244 107.68017299344265 l -3.798504611079519 1.4926001637571804 a25.081236642151534,25.081236642151534 0 0,0 -0.15443558917614394,-0.4031825907176676 l 3.8236344798491744 -1.426994006206355" fill="red" stroke="none" /><path d="M 80.32549172779595 107.34259656027581 l -16.56141061837013 6.180777428199328 a38.67716977593419,38.67716977593419 0 0,0 -0.22741391049095064,-0.6257454112829555 l 16.6653487898663 -5.894784219910256" fill="red" stroke="none" /><path d="M 80.20201598880116 107.00284435728193 l -10.395262135507899 3.6769603787400933 a32.02640070434359,32.02640070434359 0 0,0 -0.1793618273674787,-0.5213094277402289 l 10.457014793818606 -3.4974782479105677" fill="red" stroke="none" /><path d="M 80.0844068197444 106.66101706037122 l -4.128761855588413 1.3809155925895154 a25.35357351310607,25.35357351310607 0 0,0 -0.13486622027824396,-0.4150755458714045 l 4.151920326882907 -1.3096411467403075" fill="red" stroke="none" /><path d="M 79.86692584326677 105.97154293290107 l -4.768492799194484 1.414352286885922 a25.973823073591287,25.973823073591287 0 0,0 -0.12344660909342924,-0.4297338409278824 l 4.792132045174017 -1.3320609704534434" fill="red" stroke="none" /><path d="M 79.76711848015287 105.62410040840567 l -16.72711445976852 4.649608172338242 a38.361313726399615,38.361313726399615 0 0,0 -0.17136898260620537,-0.6377277351039885 l 16.804671518716496 -4.360989504058714" fill="red" stroke="none" /><path d="M 79.67330655649465 105.27499134158121 l -26.569571085775593 6.895083935640005 a48.44966830695051,48.44966830695051 0 0,0 -0.2025396525479728,-0.8090452316989544 l 26.684322052618626 -6.436710864543659" fill="red" stroke="none" /><path d="M 79.58551787078972 104.9243191809786 l -22.76620805253892 5.4915953430362 a44.4191769390631,44.4191769390631 0 0,0 -0.17289516118235965,-0.7448278292868351 l 22.857363779651834 -5.0988988564007895" fill="red" stroke="none" /><path d="M 79.50377843672027 104.57218783832718 l -15.996547923668118 3.568424631145027 a37.389728485315835,37.389728485315835 0 0,0 -0.1347204641749325,-0.629369157873379 l 16.055602426567493 -3.2925416538554844" fill="red" stroke="none" /><path d="M 79.4281124754447 104.21870165774334 l -10.394081135411364 2.131526689728322 a31.61038777229836,31.61038777229836 0 0,0 -0.1047207998087605,-0.5339691021086578 l 10.42923186819579 -1.9522938605517095" fill="red" stroke="none" /><path d="M 79.23777060512086 103.15116336523772 l -29.772108066060664 4.518627285122286 a51.113060476129725,51.113060476129725 0 0,0 -0.12453563070034014,-0.8710019110629831 l 29.845477747777604 -4.0054799020789025" fill="red" stroke="none" /><path d="M 79.18660465613746 102.79330883721812 l -16.66326959366813 2.236331816311106 a37.81266586665869,37.81266586665869 0 0,0 -0.08102442358823156,-0.6458443766396662 l 16.69929552650321 -1.949169685384031" fill="red" stroke="none" /><path d="M 79.1416061653843 102.43462659150553 l -5.6302331509008035 0.6571702238554279 a26.668456406873442,26.668456406873442 0 0,0 -0.049295623820683546,-0.45641625344217446 l 5.640711076222539 -0.5601576485284714" fill="red" stroke="none" /><path d="M 79.10278846688536 102.07522291339032 l -35.122293474908325 3.4878619127939423 a56.295051773022045,56.295051773022045 0 0,0 -0.08745946627132334,-0.9651079224242844 l 35.17712753745673 -2.8827726018210917" fill="red" stroke="none" /><path d="M 79.07016306316243 101.71520430193888 l -10.00474406756338 0.8198907672462282 a31.038282957142634,31.038282957142634 0 0,0 -0.039054202327515164,-0.5328635620506992 l 10.01737482855523 -0.6475540686987684" fill="red" stroke="none" /><path d="M 79.04373962182676 101.35467743843564 l -30.300450052198258 1.9587147381940069 a51.36369273970773,51.36369273970773 0 0,0 -0.04944036486481386,-0.8827909268198407 l 30.329676767950605 -1.4368520950387285" fill="red" stroke="none" /><path d="M 79.0235259727143 100.99374915477108 l -29.8776720646655 1.4154386157639065 a50.91118109467911,50.91118109467911 0 0,0 -0.033935616635798686,-0.8757274758470928 l 29.8976098141525 -0.9009338929028169" fill="red" stroke="none" /><line stroke="#e1ed5e" stroke-width="0.3" x1="15.007084014347285" x2="10.007500721073583" y1="101.09737516637583" y2="101.16192664675087" /><path d="M 14.007167355692545 101.11028546245083 a86.0,86.0 0 0,1 10.666146001902534,-42.60595125391555" fill="none" id="id58" stroke="none" /><text fill="#e1ed5e" style="font-size:6.75px; font-family:Arial;" text-anchor="middle"><textPath startOffset="22.20632615414155" xlink:href="#id58">October</textPath></text><path d="M 79.05617556472873 98.46500227214037 l -4.774438188397661 -0.3499242363135169 a25.78724419535807,25.78724419535807 0 0,0 0.036256271225744034,-0.44241834272152447 l 4.76770743335242 0.4320564962428198" fill="red" stroke="none" /><path d="M 79.08570108090925 98.10471618934814 l -12.425959131397587 -1.1260582659102245 a33.47687731579452,33.47687731579452 0 0,0 0.05694715623350369,-0.5734500917189085 l 12.404734849481855 1.3397838883335633" fill="red" stroke="none" /><path d="M 79.16333360222342 97.38593545837743 l -5.464485042382318 -0.6855471175102531 a26.507319822631214,26.507319822631214 0 0,0 0.0606941900631285,-0.4522422139749824 l 5.451874853261356 0.7795076735498949" fill="red" stroke="none" /><path d="M 79.21141760316559 97.0276538004421 l -4.896322265538732 -0.7000749065025683 a25.946117326016935,25.946117326016935 0 0,0 0.06702018824137283,-0.4415793029665415 l 4.883546183858057 0.7842533218612019" fill="red" stroke="none" /><path d="M 79.26566170972629 96.67025291283419 l -13.17295217322252 -2.11545690603195 a34.34173252914651,34.34173252914651 0 0,0 0.09875396664788387,-0.5828515012973543 l 13.134586345054412 2.341894195645132" fill="red" stroke="none" /><path d="M 79.32604984820605 96.31383870115002 l -33.37904095631055 -5.951476522990643 a54.905463394072136,54.905463394072136 0 0,0 0.1739046262404905,-0.9290054671900024 l 33.27165060616019 6.525160067643218" fill="red" stroke="none" /><path d="M 79.3925641242962 95.95851677861259 l -3.8793634554109686 -0.7608118937878998 a24.953263911871716,24.953263911871716 0 0,0 0.08629159973805146,-0.42078848616062 l 3.865692559757923 0.8274760361119223" fill="red" stroke="none" /><path d="M 79.46518482838121 95.60439243477599 l -22.401984895010003 -4.79528709937628 a43.90946759751743,43.90946759751743 0 0,0 0.16456769350841796,-0.7377247015163263 l 22.316122814499547 5.180189970442566" fill="red" stroke="none" /><path d="M 79.54389044137918 95.25157060432595 l -24.316413322674048 -5.644512779317078 a45.96294216223308,45.96294216223308 0 0,0 0.1855309475650776,-0.7691455558187467 l 24.215649574848157 6.062243566795222" fill="red" stroke="none" /><path d="M 79.62865764111835 94.90015583598534 l -11.411778303124953 -2.856870693886655 a32.763944670103726,32.763944670103726 0 0,0 0.14167077897351005,-0.5459153025327879 l 11.360911192281137 3.052882421968307" fill="red" stroke="none" /><path d="M 79.71946130924805 94.55025226153421 l -22.312738549471625 -5.995836614754773 a44.10429307050772,44.10429307050772 0 0,0 0.20332757352588235,-0.7314774641502904 l 22.20622420537938 6.379025382324007" fill="red" stroke="none" /><path d="M 79.81627453868168 94.20196356495316 l -10.370369394432911 -2.9790228622089776 a31.789770089791283,31.789770089791283 0 0,0 0.1556095665431041,-0.5246381007240709 l 10.3175539307781 3.1570903496795877" fill="red" stroke="none" /><path d="M 79.91906864156998 93.8553929516997 l -13.204559571096574 -4.040491367757196 a34.80890886201942,34.80890886201942 0 0,0 0.180251331178904,-0.5714459779552048 l 13.133052756149466 4.267187512138815" fill="red" stroke="none" /><path d="M 80.02781315780177 93.51064311812611 l -9.55064494679924 -3.1031926549423487 a31.042142378671496,31.042142378671496 0 0,0 0.16949409772668686,-0.5067657785868303 l 9.495813555300781 3.2671315364515015" fill="red" stroke="none" /><path d="M 80.14247586403 93.16781622104843 l -20.839420479013036 -7.170015233750042 a43.038388424594835,43.038388424594835 0 0,0 0.247054530071222,-0.6984564252321613 l 20.712912868132005 7.527669285408813" fill="red" stroke="none" /><path d="M 80.2630227832202 92.82701384747504 l -14.873051464902492 -5.405295402217763 a36.824818427485184,36.824818427485184 0 0,0 0.2216422894521351,-0.593891142118323 l 14.77780458694873 5.6605096813654265" fill="red" stroke="none" /><path d="M 80.38941819471856 92.48833698450439 l -5.357662958958193 -2.0522062577183955 a26.737255694668942,26.737255694668942 0 0,0 0.16832560291893905,-0.42837029927751347 l 5.321543806157563 2.1441255618916726" fill="red" stroke="none" /><path d="M 80.52162464483688 92.15188598940014 l -15.73854449166596 -6.341283052580252 a37.96801854870186,37.96801854870186 0 0,0 0.24946491198206486,-0.6040990717438883 l 15.627057892797696 6.611256694777452" fill="red" stroke="none" /><path d="M 80.65960295795068 91.81776055985345 l -5.3808754868636255 -2.27645852023667 a26.842609382757672,26.842609382757672 0 0,0 0.18369201620791917,-0.4239864997042141 l 5.340892760813025 2.3687441645274836" fill="red" stroke="none" /><path d="M 80.803312248108 91.48605970444005 l -16.000528530407447 -7.096408837085242 a38.503597676919,38.503597676919 0 0,0 0.2739213467384274,-0.6035493778876809 l 15.876004866705667 7.370780223814994" fill="red" stroke="none" /><path d="M 81.10775173730289 90.83032412892265 l -15.459292276971427 -7.503431958173917 a38.184039363775156,38.184039363775156 0 0,0 0.29208969470396273,-0.588835000968419 l 15.32784256931405 7.7684265476412975" fill="red" stroke="none" /><path d="M 81.26839172434947 90.50648371742162 l -20.828744873444183 -10.556382863224599 a44.351099163808314,44.351099163808314 0 0,0 0.3509873480954903,-0.677995839491395 l 20.643948092188577 10.91335142497633" fill="red" stroke="none" /><path d="M 81.43458229118936 90.18545643968196 l -17.515080668153352 -9.25928653350446 a40.81192665849176,40.81192665849176 0 0,0 0.33367034583584626,-0.6182404750907924 l 17.353102223099036 9.559407991927724" fill="red" stroke="none" /><path d="M 81.6062741919709 89.86733742301443 l -26.058908348630833 -14.355227873735554 a50.75129025150365,50.75129025150365 0 0,0 0.4281049172668545,-0.761550878587372 l 25.80794579007155 14.801662262257711" fill="red" stroke="none" /><line stroke="#e1ed5e" stroke-width="0.3" x1="26.266209847984257" x2="21.92892807433627" y1="57.711370442889674" y2="55.22380399835377" /><path d="M 25.39875349325466 57.213857153982495 a86.0,86.0 0 0,1 29.58750427330802,-30.492523968695096" fill="none" id="id59" stroke="none" /><text fill="#e1ed5e" style="font-size:6.75px; font-family:Arial;" text-anchor="middle"><textPath startOffset="21.46611528233685" xlink:href="#id59">November</textPath></text><path d="M 81.78341655067847 89.55222093294921 l -9.281256901050153 -5.323090459661575 a31.699393520430547,31.699393520430547 0 0,0 0.27554369582441257,-0.47099349496523685 l 9.188253530755416 5.482063366980704" fill="red" stroke="none" /><path d="M 81.96595687620814 89.24020034530311 l -4.404493090627442 -2.62788898253912 a26.128875109605943,26.128875109605943 0 0,0 0.23377156388797082,-0.38425898493780236 l 4.358605728453252 2.7033157406839967" fill="red" stroke="none" /><path d="M 82.34701348167596 88.62581576622439 l -7.622087047282404 -4.911068290437663 a30.06723787653619,30.06723787653619 0 0,0 0.284068626676122,-0.43265600725598696 l 7.536421785248362 5.041542361671317" fill="red" stroke="none" /><path d="M 82.54541684631803 88.32363383020206 l -24.46530490043828 -16.36623779313855 a50.4347563837883,50.4347563837883 0 0,0 0.4889182133188862,-0.7174271487066789 l 24.179962221450655 16.784942965115643" fill="red" stroke="none" /><path d="M 82.7489923806493 88.02491185347247 l -27.36289457307004 -18.99443103190666 a54.30940422227339,54.30940422227339 0 0,0 0.5396993946265918,-0.7633665194849574 l 27.03188255863957 19.462624051723406" fill="red" stroke="none" /><path d="M 82.95767976084542 87.72973835380427 l -4.392622343425028 -3.1626342370282967 a26.41270601170804,26.41270601170804 0 0,0 0.268827751399428,-0.3666807507941155 l 4.33753197951197 3.237777431493913" fill="red" stroke="none" /><path d="M 83.17141714833178 87.43820079747576 l -4.53676939639502 -3.386499427075757 a26.661329784215972,26.661329784215972 0 0,0 0.2776892518775019,-0.36540650510257056 l 4.477804204293407 3.4640907080593544" fill="red" stroke="none" /><path d="M 83.39014120810768 87.1503855733568 l -12.617417780827859 -9.761007337560825 a36.952319445769234,36.952319445769234 0 0,0 0.3935350217444925,-0.4997495135083411 l 12.447528678489395 9.976749245022214" fill="red" stroke="none" /><path d="M 83.6137871275137 86.86637796730984 l -49.15863861745889 -39.40086609807048 a84.0,84.0 0 0,0 0.9140060316944298,-1.1204633215676711 l 48.47313409368807 40.241213589246236" fill="red" stroke="none" /><path d="M 83.84228863543731 86.58626213691792 l -8.757049045273009 -7.269888519302963 a32.381440465266685,32.381440465266685 0 0,0 0.35972601812120364,-0.42580214202861866 l 8.63061241366468 7.419549610960698" fill="red" stroke="none" /><path d="M 84.07557802195018 86.31012108654704 l -8.394401636000524 -7.216484347509869 a32.069942419197275,32.069942419197275 0 0,0 0.36347177287423843,-0.41551106884433364 l 8.268937999548442 7.359910972557143" fill="red" stroke="none" /><path d="M 84.31358615837235 86.03803664274997 l -16.97170269443017 -15.10595688231493 a43.7206651680466,43.7206651680466 0 0,0 0.5051951161677657,-0.5578490652618568 l 16.70916393764636 15.395858734846346" fill="red" stroke="none" /><path d="M 84.5562425177563 85.77008943001954 l -22.94428800201946 -21.140915139077844 a52.19901672869363,52.19901672869363 0 0,0 0.6145382236354237,-0.6555465295357518 l 22.57698245641358 21.532731085491648" fill="red" stroke="none" /><path d="M 85.57189188830299 84.74124197986013 l -19.08189823022607 -20.1804744881211 a48.773555599426075,48.773555599426075 0 0,0 0.6149930000962511,-0.5715689692310454 l 18.73169734633496 20.505948043426795" fill="red" stroke="none" /><path d="M 85.83668400450813 84.49514656593479 l -32.31857310572181 -35.37976130461504 a68.91886557047674,68.91886557047674 0 0,0 0.8827817898004071,-0.7925702071317599 l 31.70478032832543 35.93083052051608" fill="red" stroke="none" /><path d="M 86.10567301691215 84.25364557470407 l -15.907439367861427 -18.02780218071308 a45.04263460415915,45.04263460415915 0 0,0 0.5857820397944427,-0.5079844125176645 l 15.594763529420211 18.298951586650425" fill="red" stroke="none" /><path d="M 86.37877921826538 84.01681056812374 l -16.122069621682506 -18.9176944509106 a45.855588752318695,45.855588752318695 0 0,0 0.6051681338575104,-0.5068109084018326 l 15.794043950865886 19.192406516706246" fill="red" stroke="none" /><path d="M 86.65592168130627 83.78471172551755 l -6.330421501642656 -7.692521513780072 a30.962385438660206,30.962385438660206 0 0,0 0.41444863424492295,-0.33512197258881987 l 6.197069468833232 7.800349583633026" fill="red" stroke="none" /><path d="M 86.93701828274178 83.55741782278169 l -14.228472100847341 -17.909603399762283 a43.873637932374635,43.873637932374635 0 0,0 0.5953599284499667,-0.4646878675979012 l 13.91807961723795 18.151869656583404" fill="red" stroke="none" /><path d="M 87.51073957382395 83.11751280151077 l -18.294317665705282 -24.729533475740766 a51.76088237976147,51.76088237976147 0 0,0 0.720843451505816,-0.523723423553151 l 17.86592889784568 25.040776134110587" fill="red" stroke="none" /><path d="M 87.80319425747017 82.90503203632743 l -6.912012914602889 -9.687834817898715 a32.900843078980905,32.900843078980905 0 0,0 0.46385310081575104,-0.32495874002027025 l 6.74422867420348 9.805378400682926" fill="red" stroke="none" /><path d="M 88.09926311788651 82.69761687909137 l -17.921747145536123 -26.05628024380344 a52.624654320516356,52.624654320516356 0 0,0 0.750766637757396,-0.5069209851638584 l 17.47057581337219 26.360913141265964" fill="red" stroke="none" /><path d="M 88.39885842347998 82.49532879139004 l -10.788283197426843 -16.278169612078457 a40.52859084182668,40.52859084182668 0 0,0 0.5848333058843066,-0.3803918503439074 l 10.506482865758247 16.461460386581898" fill="red" stroke="none" /><path d="M 88.70189139769569 82.29822771554957 l -5.706082309324729 -8.94023709910137 a31.60599899627268,31.60599899627268 0 0,0 0.46111775060000404,-0.28875189312270005 l 5.551345406352482 9.037133333547" fill="red" stroke="none" /><path d="M 89.00827224532344 82.1063720568725 l -5.486815325551593 -8.93208367413383 a31.482712491451625,31.482712491451625 0 0,0 0.46420200217699464,-0.2796765123199896 l 5.332251257156949 9.025206795912439" fill="red" stroke="none" /><line stroke="#e1ed5e" stroke-width="0.3" x1="56.762969772571076" x2="54.21961505331055" y1="26.818313649435495" y2="22.513508569990535" /><path d="M 56.25429882871897 25.957352633546506 a86.0,86.0 0 0,1 42.265352541879196,-11.944610805530505" fill="none" id="id60" stroke="none" /><text fill="#e1ed5e" style="font-size:6.75px; font-family:Arial;" text-anchor="middle"><textPath startOffset="22.20632615414155" xlink:href="#id60">December</textPath></text><path d="M 89.3179101791058 81.91981866633112 l -6.727657393488333 -11.387028911434937 a34.22595181580567,34.22595181580567 0 0,0 0.5098090267842135,-0.2953142942091692 l 6.530651634238798 11.501147363034153" fill="red" stroke="none" /><path d="M 89.63071344664047 81.73862282372117 l -2.754288404525121 -4.850584381910904 a26.57801698288375,26.57801698288375 0 0,0 0.39977882500605133,-0.22247648328451822 l 2.670385490447025 4.897276262755607" fill="red" stroke="none" /><path d="M 89.94658935756843 81.56283822128135 l -6.4582583420567286 -11.843936162191799 a34.49029001270247,34.49029001270247 0 0,0 0.5236857055821666,-0.27973476753749504 l 6.253427589946257 11.953349656231046" fill="red" stroke="none" /><path d="M 90.26544431104013 81.39251694778311 l -11.429168999245858 -21.846715479329013 a45.655727149043415,45.655727149043415 0 0,0 0.6994881615101748,-0.358305004593102 l 11.05142035014692 22.04021300923462" fill="red" stroke="none" /><path d="M 90.58718382345135 81.22770947309562 l -11.817238793077802 -23.567510051046323 a47.36426867369532,47.36426867369532 0 0,0 0.7319555286501007,-0.3591673990606489 l 11.409811997417275 23.767432610241798" fill="red" stroke="none" /><path d="M 90.91171255644093 81.06846463323043 l -2.6130732356137467 -5.443213441828361 a27.037940402817988,27.037940402817988 0 0,0 0.4213049153040327,-0.19780830681739914 l 2.5189901090101054 5.487386731285768" fill="red" stroke="none" /><path d="M 91.90106846888425 80.62456947434976 l -4.245907506159354 -10.157671488870326 a32.00936059118192,32.00936059118192 0 0,0 0.5101928244776477,-0.20812046328334827 l 4.070430812093326 10.229252838337251" fill="red" stroke="none" /><path d="M 92.23578459929587 80.48803036053334 l -6.577689515820083 -16.530154240553415 a38.79078409129332,38.79078409129332 0 0,0 0.6225308229346921,-0.24153228770204407 l 6.292175527885713 16.640929232146007" fill="red" stroke="none" /><path d="M 94.28887869178378 79.79150937346287 l -1.6779030280102896 -5.937168164332818 a27.16971023492783,27.16971023492783 0 0,0 0.4511493003856745,-0.12331614605896012 l 1.5754558384008925 5.965170851218074" fill="red" stroke="none" /><path d="M 94.63758080256005 79.69619591428918 l -5.919853417108183 -22.414425200937732 a44.182992075409075,44.182992075409075 0 0,0 0.7369956854912814,-0.1878766101251853 l 5.533148842931903 22.51300480723178" fill="red" stroke="none" /><path d="M 94.98787191387505 79.60689891045804 l -2.682152418595679 -10.913010296245163 a32.23778160147863,32.23778160147863 0 0,0 0.540023235822629,-0.12780605246823404 l 2.493905495810516 10.957562260854269" fill="red" stroke="none" /><path d="M 95.33964822691252 79.52364482259891 l -2.318449737483925 -10.186655985889672 a31.44716082771301,31.44716082771301 0 0,0 0.5288473167152968,-0.11558553995751471 l 2.1427596966151072 10.225055023943055" fill="red" stroke="none" /><path d="M 95.692805502759 79.44645832069477 l -1.0478929167703814 -5.0004500038447235 a26.109068389243603,26.109068389243603 0 0,0 0.44066337403179523,-0.08839292728498924 l 0.9616631332714498 5.017746887206923" fill="red" stroke="none" /><path d="M 96.04723909329186 79.375362276772 l -2.0104818526689976 -10.490252468863536 a31.681171946018324,31.681171946018324 0 0,0 0.5364752053896314,-0.09803741472174099 l 1.8296115261764727 10.523305364936013" fill="red" stroke="none" /><path d="M 96.75951476605007 79.25152402106235 l -2.89473591454423 -18.5346805345811 a39.759367754109725,39.759367754109725 0 0,0 0.6771039632102174,-0.09978752318638526 l 2.575262970905364 18.581762541928455" fill="red" stroke="none" /><path d="M 97.11714578562143 79.19881850522333 l -2.5376421799187954 -18.31031041736885 a39.48532107954063,39.48532107954063 0 0,0 0.674043145102549,-0.08751014540210862 l 2.2220843063083886 18.351278885935095" fill="red" stroke="none" /><path d="M 97.47563105711357 79.15227682838746 l -1.4253101792758454 -11.771049606262386 a32.857028208629565,32.857028208629565 0 0,0 0.5620637407742944,-0.06315441025861818 l 1.2224797349918328 11.793839969991604" fill="red" stroke="none" /><path d="M 99.63851952072746 79.00311137660856 l -0.07184141560524207 -4.172967251359482 a25.17358561310474,25.17358561310474 0 0,0 0.4333218948777768,-0.003729738353817532 l 1.022233652411233e-15 4.173585613104741" fill="red" stroke="none" /></svg>