<?xml version="1.0" encoding="utf-8" ?>
<svg baseProfile="full" height="200mm" version="1.1" viewBox="0,0,200,200" width="200mm" xmlns="http://www.w3.org/2000/svg" xmlns:ev="http://www.w3.org/2001/xml-events" xmlns:xlink="http://www.w3.org/1999/xlink"><defs /><rect fill="#1a1a1a" height="200" width="200" x="0" y="0" /><rect fill="#1a1a1a" height="200" width="180" x="10" y="0" /><text alignment-baseline="middle" fill="#e1ed5e" style="dominant-baseline: central; font-size:9.0px; font-family:Arial;" text-anchor="middle" x="100.0" y="100.0">2016</text><line stroke="#e1ed5e" stroke-width="0.3" x1="100.0" x2="100.0" y1="15.0" y2="10.0" /><path d="M 100.0 14.0 a86.0,86.0 0 0,1 42.35913384403234,11.155469271406648" fill="none" id="id13" stroke="none" /><text fill="#e1ed5e" style="font-size:6.75px; font-family:Arial;" text-anchor="middle"><textPath startOffset="22.145653131862478" xlink:href="#id13">January</textPath></text><path d="M 100.0 79.0 l 0.0 -30.788186967151447 a51.78818696715145,51.78818696715145 0 0,0 0.8890130948765603,0.007631108202105287 l -0.5285201700277056 30.783650257143776" fill="#87ff25" stroke="none" /><line stroke="#e1ed5e" stroke-width="0.3" x1="143.13028292997686" x2="145.6673583964461" y1="26.7553504044142" y2="22.446841604673864" /><path d="M 143.63769802327073 25.89364864446614 a86.0,86.0 0 0,1 29.32050498858742,28.57503671076993" fill="none" id="id14" stroke="none" /><text fill="#e1ed5e" style="font-size:6.75px; font-family:Arial;" text-anchor="middle"><textPath startOffset="20.669276256404974" xlink:href="#id14">February</textPath></text><path d="M 117.21940702142032 87.97951657250589 l 6.254202633367173 -4.36591916394454 a28.627339033064878,28.627339033064878 0 0,0 0.27783550012408914,0.4053702978955654 l -6.328227870306587 4.257914130978925" fill="#ff5808" stroke="none" /><path d="M 117.62189284568427 88.57770195909679 l 11.778089426634324 -7.634415267504946 a35.03594268364287,35.03594268364287 0 0,0 0.32280166983305886,0.5074978409098092 l -11.907408788093273 7.431103751916464" fill="#ffae10" stroke="none" /><path d="M 117.81537515405839 88.88188828441811 l 5.257781731330596 -3.2812446642058273 a27.19764756021936,27.19764756021936 0 0,0 0.24378421725165,0.39820319778538155 l -5.313333913037648 3.190504350295891" fill="#ff4406" stroke="none" /><line stroke="#e1ed5e" stroke-width="0.3" x1="172.87174338648825" x2="177.1583165268699" y1="56.24261187166439" y2="53.66864786411523" /><path d="M 173.72905801456457 55.72781907015455 a86.0,86.0 0 0,1 12.242430191666344,42.057860355516425" fill="none" id="id15" stroke="none" /><text fill="#e1ed5e" style="font-size:6.75px; font-family:Arial;" text-anchor="middle"><textPath startOffset="22.145653131862474" xlink:href="#id15">March</textPath></text><path d="M 118.36410011445183 89.81374322990088 l 17.158605574888917 -9.517589270008722 a40.62147422563336,40.62147422563336 0 0,0 0.3330083663534922,0.6126978865764451 l -17.31945929085775 9.221636549957674" fill="#fff517" stroke="none" /><path d="M 118.53625476483649 90.13048839642627 l 16.228395669507652 -8.640706625991616 a39.38539194585066,39.38539194585066 0 0,0 0.3126298589348815,0.5995089762996645 l -16.37433359741748 8.360851406587452" fill="#ffe615" stroke="none" /><path d="M 119.16976305983485 91.42560881287824 l 14.910078491535256 -6.669088460721695 a37.333621200477054,37.333621200477054 0 0,0 0.25665285537913374,0.587271959768479 l -15.02236522893136 6.412154431177367" fill="#ffcc13" stroke="none" /><path d="M 119.31412917781788 91.75594674310238 l 4.302676585753011 -1.8365567814930497 a25.678243966835772,25.678243966835772 0 0,0 0.16956708551843316,0.4068992765142185 l -4.333569515807928 1.7624249955375533" fill="#ff2e04" stroke="none" /><path d="M 119.58574465831526 92.42381321644754 l 14.779527482961077 -5.717038730821053 a36.84673355834917,36.84673355834917 0 0,0 0.22313209096603653,0.5918843809745509 l -14.875490257741555 5.4624860696523445" fill="#ffc612" stroke="none" /><path d="M 119.71291397450082 92.76114493625339 l 9.740621094549224 -3.57689098757913 a31.376601006331608,31.376601006331608 0 0,0 0.1813266172727354,0.5072028204396632 l -9.800587881865903 3.40915321075855" fill="#ff7e0b" stroke="none" /><path d="M 119.83427380445688 93.10060997987247 l 18.784823771991025 -6.534336822213597 a40.88887030102252,40.88887030102252 0 0,0 0.22491717215261248,0.6649276543067797 l -18.894226365716005 6.210907493432656" fill="#fff917" stroke="none" /><path d="M 120.05942366710727 93.78553927170692 l 27.088567008274943 -8.39210730339673 a49.35873635325676,49.35873635325676 0 0,0 0.24379379878716811,0.811510266526624 l -27.22863712706574 7.925859433279382" fill="#a2ff22" stroke="none" /><path d="M 120.26092885502905 94.47779374421319 l 30.004066771272853 -8.177741820668892 a52.0985447264099,52.0985447264099 0 0,0 0.22777116384046067,0.8648842088301054 l -30.140027415918045 7.661477107465988" fill="#84ff25" stroke="none" /><path d="M 120.43855184770803 95.1765574152323 l 30.69050317940025 -7.242875184430852 a52.533573003102916,52.533573003102916 0 0,0 0.19960040615309607,0.8794762182570792 l -30.81031444711101 6.714964632234746" fill="#7fff26" stroke="none" /><path d="M 120.51834098615036 95.52812308129327 l 20.435665433440413 -4.453858166793285 a41.91538367511872,41.91538367511872 0 0,0 0.14718744494658187,0.7043452065242723 l -20.509110589211364 4.102396508983608" fill="#f9ff18" stroke="none" /><path d="M 120.592083275326 95.88100663000786 l 14.700055540170101 -2.940422807100281 a35.99125475631047,35.99125475631047 0 0,0 0.11598388832271354,0.6068767138305741 l -14.748365720774972 2.6876435282363924" fill="#ffbb11" stroke="none" /><path d="M 120.65975698304385 96.23510406497455 l 14.70878400828106 -2.6804304216837846 a35.95102117742305,35.95102117742305 0 0,0 0.10543096193105464,0.6080977712304755 l -14.752629787704349 2.4275396175327164" fill="#ffba11" stroke="none" /><path d="M 120.7213421655516 96.59031103205396 l 22.136851046899356 -3.642610415707513 a43.43454445521972,43.43454445521972 0 0,0 0.11474684362046558,0.7367570498749264 l -22.196119382658086 3.262065183901145" fill="#e6ff1a" stroke="none" /><path d="M 120.86939407059847 97.66154086499901 l 36.29981669880483 -4.067470175273141 a57.52699010312192,57.52699010312192 0 0,0 0.10154228051683828,0.982329452269242 l -36.36429137180333 3.443736200720968" fill="#4bff2c" stroke="none" /><path d="M 120.9064616781168 98.02013634271609 l 22.77888172983388 -2.15718378292931 a43.880797510906234,43.880797510906234 0 0,0 0.06458078496171926,0.7505266138232362 l -22.812556137493342 1.7658361217304122" fill="#e1ff1b" stroke="none" /><path d="M 120.93736805541906 98.37931529534042 l 17.963259587320678 -1.3904698996522198 a39.0169947977821,39.0169947977821 0 0,0 0.04595837612096917,0.6682247023218317 l -17.984481924606715 1.0819017731760538" fill="#ffe115" stroke="none" /><path d="M 120.96210409425399 98.7389718711861 l 22.38042007301597 -1.3463504961069612 a43.4208800519298,43.4208800519298 0 0,0 0.03837250086479178,0.7444162654809703 l -22.400234163337334 0.9619624372492601" fill="#e7ff1a" stroke="none" /><path d="M 120.99303781780057 99.45929381324524 l 6.224638270276927 -0.16032460153029038 a27.226702624475653,27.226702624475653 0 0,0 0.008023538644492702,0.4673309013802554 l -6.226473240520086 0.05344678418096858" fill="#ff4406" stroke="none" /><line stroke="#e1ed5e" stroke-width="0.3" x1="184.99686870605535" x2="189.99668451229388" y1="99.2704041080226" y2="99.22748670261217" /><path d="M 185.99683186730306 99.26182062694052 a86.0,86.0 0 0,1 -10.086455211305974,41.156179273409016" fill="none" id="id16" stroke="none" /><text fill="#e1ed5e" style="font-size:6.75px; font-family:Arial;" text-anchor="middle"><textPath startOffset="21.40746469413373" xlink:href="#id16">April</textPath></text><path d="M 120.98066250479742 100.90099992219065 l 34.53206862139222 1.4829556089490503 a55.56389620124813,55.56389620124813 0 0,0 -0.04910369509976881,0.9525985667779453 l -34.50152333683588 -2.075525969103726" fill="#5fff29" stroke="none" /><path d="M 120.9064616781168 101.97986365728391 l 8.924302529987015 0.8451407281521265 a29.964231060002533,29.964231060002533 0 0,0 -0.05289058840575453,0.5116684643517254 l -8.908479549099594 -0.9982137147867833" fill="#ff6a09" stroke="none" /><path d="M 120.86939407059847 102.33845913500097 l 9.88946953505175 1.108135688862024 a30.95136032860063,30.95136032860063 0 0,0 -0.06369777242035858,0.52750893187753 l -9.86898967637173 -1.2777382976629628" fill="#ff780b" stroke="none" /><path d="M 120.82617615685814 102.69636545807757 l 13.347482955726234 1.7280988945369995 a34.45888654542798,34.45888654542798 0 0,0 -0.08098738116279812,0.5859843462751958 l -13.315851058008224 -1.9569715490122805" fill="#ffa70f" stroke="none" /><path d="M 120.77682067341334 103.0534771498775 l 31.19227823666001 4.584190735695211 a52.52733776097258,52.52733776097258 0 0,0 -0.13876849147276163,0.8909932610541338 l -31.108988253048977 -5.118972178680796" fill="#7fff26" stroke="none" /><path d="M 120.7213421655516 103.40968896794604 l 10.348085397911008 1.702773514317931 a31.48724506453061,31.48724506453061 0 0,0 -0.09234036828408866,0.5325947057646716 l -10.317330212134685 -1.8801612530031906" fill="#ff7f0b" stroke="none" /><path d="M 120.65975698304385 103.76489593502545 l 14.747524431362939 2.6874902172806934 a35.990399611805756,35.990399611805756 0 0,0 -0.11598113257036344,0.6068622945698291 l -14.699217006510414 -2.9402550768838367" fill="#ffbb11" stroke="none" /><path d="M 120.592083275326 104.11899336999214 l 17.712041372691107 3.5429043291874533 a39.06290620785306,39.06290620785306 0 0,0 -0.13717086312477278,0.6564122364634482 l -17.64861279874197 -3.846433016936311" fill="#ffe215" stroke="none" /><path d="M 120.35273937422433 105.17358676015961 l 43.48895871497098 11.054723243095454 a65.87200058047206,65.87200058047206 0 0,0 -0.2879877416059166,1.0935363627770753 l -43.29278149256033 -11.799640110245333" fill="#36ff71" stroke="none" /><path d="M 120.16314734710363 105.8691983318838 l 17.300721894501514 5.0359880000668555 a39.018772244736915,39.018772244736915 0 0,0 -0.19272241172211182,0.6415102290555064 l -17.211723162775773 -5.332235832713085" fill="#ffe115" stroke="none" /><path d="M 119.94978838288452 106.5578916946017 l 10.061981184027859 3.3075730715311984 a31.591671490904965,31.591671490904965 0 0,0 -0.1737761244807725,0.5137382340336404 l -10.003719637974722 -3.479812980038999" fill="#ff810b" stroke="none" /><path d="M 119.31412917781788 108.2440532568976 l 5.830607163606737 2.48873948881051 a27.33954289672899,27.33954289672899 0 0,0 -0.18794779406816217,0.430061333989522 l -5.787025487521609 -2.588462892575877" fill="#ff4606" stroke="none" /><path d="M 119.16976305983485 108.57439118712176 l 13.669048943407297 6.11399172910264 a35.974104109455084,35.974104109455084 0 0,0 -0.2569844990161824,0.5615575086683435 l -13.562079979536058 -6.347738219985672" fill="#ffbb11" stroke="none" /><path d="M 119.0197475246899 108.90220220490707 l 6.831874231790931 3.1976621020309066 a28.543178934492648,28.543178934492648 0 0,0 -0.2115195564747026,0.4419945209912242 l -6.7759754173563165 -3.3144691250872342" fill="#ff5708" stroke="none" /><path d="M 118.8641267826498 109.22738970284198 l 3.6383045754630587 1.7796770856262683 a25.050248228558175,25.050248228558175 0 0,0 -0.1922667230260312,0.3846622404238367 l -3.607217939225295 -1.8418711822138507" fill="#ff2503" stroke="none" /><path d="M 118.5362547648365 109.86951160357373 l 6.587710578181421 3.5075848286076567 a28.46331575050674,28.46331575050674 0 0,0 -0.2333377224674621,0.429315127964724 l -6.52652750609862 -3.620154790046984" fill="#ff5607" stroke="none" /><line stroke="#e1ed5e" stroke-width="0.3" x1="174.33088141563837" x2="178.70328620479359" y1="141.23008692659167" y2="143.65538615756765" /><path d="M 175.20536237346943 141.71514677278685 a86.0,86.0 0 0,1 -30.301960400862466,31.631185727798858" fill="none" id="id17" stroke="none" /><text fill="#e1ed5e" style="font-size:6.75px; font-family:Arial;" text-anchor="middle"><textPath startOffset="22.145653131862474" xlink:href="#id17">May</textPath></text><path d="M 118.36410011445183 110.18625677009912 l 55.092300343355504 30.558770310297355 a84.0,84.0 0 0,0 -0.7102665399144867,1.2549729196035138 l -54.559600438419636 -31.49999999999999" fill="#4dd2ff" stroke="none" /><path d="M 117.423217284605 111.72311816256416 l 12.402487937338337 8.344947389691592 a35.948573643413056,35.948573643413056 0 0,0 -0.3488899169227549,0.5090408154917884 l -12.257408283600261 -8.556622940253424" fill="#ffba11" stroke="none" /><path d="M 116.35404254752997 113.17365903436017 l 4.687694918364523 3.7760752017221613 a27.019404254303048,27.019404254303048 0 0,0 -0.29406527545706285,0.35871182171265353 l -4.622182823668832 -3.8559893051333076" fill="#ff4106" stroke="none" /><path d="M 116.1254893667686 113.45245675266167 l 9.239157838348342 7.707634070785577 a33.03202645156036,33.03202645156036 0 0,0 -0.3669786356917062,0.4322999100901756 l -9.105484639149521 -7.86510076332531" fill="#ff940d" stroke="none" /><path d="M 115.41159269507618 114.26474011684316 l 9.951845574244835 9.21127969109338 a34.56049054721716,34.56049054721716 0 0,0 -0.40673445818846915,0.4319378996487915 l -9.792255282320106 -9.380759050686668" fill="#ffa80f" stroke="none" /><path d="M 114.65682725009322 115.03919595460226 l 10.42715950633162 10.69918423611206 a35.93981923213098,35.93981923213098 0 0,0 -0.4455297047214622,0.4268073788335088 l -10.241957315744845 -10.876603745251149" fill="#ffba11" stroke="none" /><path d="M 114.13192950727249 115.5334660781643 l 5.226090012614194 5.74438840008364 a28.765952286163063,28.765952286163063 0 0,0 -0.36811511504866773,0.32917080578696134 l -5.126709870742149 -5.833254735753989" fill="#ff5a08" stroke="none" /><path d="M 113.86319453409587 115.77377054828091 l 20.82628995721046 23.69649494198846 a52.54771348160576,52.54771348160576 0 0,0 -0.6826711680630462,0.5896750955953932 l -20.416439309384554 -24.050514170048572" fill="#7fff26" stroke="none" /><path d="M 113.59037401385874 116.0094264158162 l 0.9667592212745973 1.1388399317799907 a22.493847308842547,22.493847308842547 0 0,0 -0.2965178218348122,0.24736571299637874 l -0.9470670652778924 -1.1552678286882396" fill="#ff0000" stroke="none" /><path d="M 110.96478420261333 117.91015095944535 l 1.1305743315499595 1.8467082046272958 a23.165301252065728,23.165301252065728 0 0,0 -0.3409350381663104,0.2047216945595735 l -1.0987065368262123 -1.8658438997227929" fill="#ff0a01" stroke="none" /><line stroke="#e1ed5e" stroke-width="0.3" x1="143.1302829299769" x2="145.66735839644613" y1="173.24464959558577" y2="177.55315839532614" /><path d="M 143.63769802327073 174.10635135553383 a86.0,86.0 0 0,1 -40.68552437913181,11.842963189579606" fill="none" id="id18" stroke="none" /><text fill="#e1ed5e" style="font-size:6.75px; font-family:Arial;" text-anchor="middle"><textPath startOffset="21.407464694133747" xlink:href="#id18">June</textPath></text><path d="M 106.0420521117495 120.11202640906438 l 5.595893344320374 18.62690897756775 a40.44931259401224,40.44931259401224 0 0,0 -0.6667202171649482,0.1940725383321569 l -5.2753131147738195 -18.72022521020243" fill="#fff316" stroke="none" /><path d="M 104.9986988182912 120.39639698878246 l 2.1314998197928237 8.697246640851738 a29.954629563169192,29.954629563169192 0 0,0 -0.5004817314451866,0.11811232587996187 l -1.981885934607758 -8.732555110377925" fill="#ff6a09" stroke="none" /><path d="M 104.29559338865022 120.5559693870025 l 2.860710638212991 13.689535992757584 a34.985244404463955,34.985244404463955 0 0,0 -0.5889241357874462,0.11780132093985218 l -2.625290016894586 -13.736626710360298" fill="#ffae10" stroke="none" /><line stroke="#e1ed5e" stroke-width="0.3" x1="101.45913802915013" x2="101.54496967792366" y1="184.9874750549273" y2="189.98673829345242" /><path d="M 101.47630435890484 185.9873277026323 a86.0,86.0 0 0,1 -42.54439059252881,-10.42667462771756" fill="none" id="id19" stroke="none" /><text fill="#e1ed5e" style="font-size:6.75px; font-family:Arial;" text-anchor="middle"><textPath startOffset="22.145653131862474" xlink:href="#id19">July</textPath></text><path d="M 100.0 121.0 l 1.8333337269487944e-15 14.970305954543242 a35.97030595454324,35.97030595454324 0 0,0 -0.6174781333933989,-0.005300307133286187 l 0.2569852085445449 -14.968100045604391" fill="#ffbb11" stroke="none" /><path d="M 94.6519064749342 120.30758222061772 l -2.0147131183060796 7.650193869871485 a28.911038818998037,28.911038818998037 0 0,0 -0.47884747712126396,-0.13051200922954956 l 2.1457419963620383 -7.6144813664977935" fill="#ff5c08" stroke="none" /><path d="M 94.30408787586889 120.21278271476187 l -2.931603474988267 10.40322651656391 a31.808395851813614,31.808395851813614 0 0,0 -0.5242932260146531,-0.1526141169615163 l 3.109756713384527 -10.351368705299874" fill="#ff840c" stroke="none" /><path d="M 91.59046798132341 119.24265499422711 l -4.067991958679209 9.308361702685206 a31.158452449260928,31.158452449260928 0 0,0 -0.48827757565770386,-0.2184003489516596 l 4.227182937192548 -9.237157602823691" fill="#ff7b0b" stroke="none" /><path d="M 90.93487009805054 118.94263497670748 l -4.073407739325526 8.51185551138601 a30.43633058225015,30.43633058225015 0 0,0 -0.4693568432920544,-0.229585951825497 l 4.218924831879649 -8.440675809463288" fill="#ff710a" stroke="none" /><path d="M 90.28995756902619 118.62028667847754 l -6.913588252469332 13.257717064890622 a35.95208227296031,35.95208227296031 0 0,0 -0.5447787940484599,-0.29006402304320167 l 7.140155862304354 -13.137082574124848" fill="#ffba11" stroke="none" /><path d="M 89.97174638481275 118.45085714620012 l -3.1642992564988157 5.8219542295048665 a27.626306726610878,27.626306726610878 0 0,0 -0.41473113120696514,-0.23004436736343079 l 3.2637745758618824 -5.766776946708288" fill="#ff4a06" stroke="none" /><line stroke="#e1ed5e" stroke-width="0.3" x1="58.13341422392154" x2="55.670673884152215" y1="173.97424548756322" y2="178.32567169271397" /><path d="M 57.64086615596767 174.84453072859336 a86.0,86.0 0 0,1 -31.369924170532244,-30.572349798747897" fill="none" id="id20" stroke="none" /><text fill="#e1ed5e" style="font-size:6.75px; font-family:Arial;" text-anchor="middle"><textPath startOffset="22.145653131862474" xlink:href="#id20">August</textPath></text><path d="M 87.2517909369889 116.68781488649013 l -9.068911866408447 11.871496749110538 a35.93912974389158,35.93912974389158 0 0,0 -0.48704375826551505,-0.378728172285099 l 9.271365569309191 -11.714067525204644" fill="#ffba11" stroke="none" /><path d="M 86.13680546590413 115.77377054828092 l -6.208161734601217 7.0637484374451125 a30.40413813756875,30.40413813756875 0 0,0 -0.38907882127895543,-0.3479166811667098 l 6.328505582703543 -6.956136226395021" fill="#ff700a" stroke="none" /><line stroke="#e1ed5e" stroke-width="0.3" x1="26.387840678322732" x2="22.057713659400548" y1="142.50000000000003" y2="145.00000000000006" /><path d="M 25.521815274538298 143.00000000000003 a86.0,86.0 0 0,1 -11.493303480769221,-40.785679425670985" fill="none" id="id21" stroke="none" /><text fill="#e1ed5e" style="font-size:6.75px; font-family:Arial;" text-anchor="middle"><textPath startOffset="21.40746469413373" xlink:href="#id21">September</textPath></text><path d="M 80.9802524753101 108.90220220490708 l -1.376966118815711 0.6444896707010005 a22.520329776070536,22.520329776070536 0 0,0 -0.16087615823799223,-0.35154343927402526 l 1.387826741908759 -0.6207572492122864" fill="#ff0000" stroke="none" /><path d="M 80.41425534168474 107.57618678355246 l -6.9969014000118905 2.7065517720861387 a28.502136475462905,28.502136475462905 0 0,0 -0.1725998669243924,-0.4578416531147188 l 7.042331950750719 -2.586041838777275" fill="#ff5608" stroke="none" /><path d="M 79.03789590574601 101.26102812881392 l -8.94789168015869 0.5382829439031894 a29.964067940815163,29.964067940815163 0 0,0 -0.02648026068556176,-0.5137099830414037 l 8.955813530300825 -0.38460116748505496" fill="#ff6a09" stroke="none" /><line stroke="#e1ed5e" stroke-width="0.3" x1="15.003131293944662" x2="10.003315487706104" y1="100.72959589197737" y2="100.7725132973878" /><path d="M 14.003168132696942 100.73817937305945 a86.0,86.0 0 0,1 10.791469493833615,-42.45332614584628" fill="none" id="id22" stroke="none" /><text fill="#e1ed5e" style="font-size:6.75px; font-family:Arial;" text-anchor="middle"><textPath startOffset="22.145653131862435" xlink:href="#id22">October</textPath></text><line stroke="#e1ed5e" stroke-width="0.3" x1="26.387840678322718" x2="22.05771365940052" y1="57.49999999999999" y2="54.99999999999999" /><path d="M 25.521815274538284 56.99999999999999 a86.0,86.0 0 0,1 29.574782752854787,-30.34633250058573" fill="none" id="id23" stroke="none" /><text fill="#e1ed5e" style="font-size:6.75px; font-family:Arial;" text-anchor="middle"><textPath startOffset="21.40746469413373" xlink:href="#id23">November</textPath></text><line stroke="#e1ed5e" stroke-width="0.3" x1="56.869717070023135" x2="54.33264160355391" y1="26.7553504044142" y2="22.446841604673864" /><path d="M 56.362301976729285 25.89364864446614 a86.0,86.0 0 0,1 42.16139366436587,-11.88097634709845" fill="none" id="id24" stroke="none" /><text fill="#e1ed5e" style="font-size:6.75px; font-family:Arial;" text-anchor="middle"><textPath startOffset="22.145653131862474" xlink:href="#id24">December</textPath></text></svg>