<?xml version="1.0" encoding="utf-8" ?>
<svg baseProfile="full" height="200mm" version="1.1" viewBox="0,0,200,200" width="200mm" xmlns="http://www.w3.org/2000/svg" xmlns:ev="http://www.w3.org/2001/xml-events" xmlns:xlink="http://www.w3.org/1999/xlink"><defs /><rect fill="#1a1a1a" height="200" width="200" x="0" y="0" /><rect fill="#1a1a1a" height="200" width="180" x="10" y="0" /><text alignment-baseline="middle" fill="#e1ed5e" style="dominant-baseline: central; font-size:9.0px; font-family:Arial;" text-anchor="middle" x="100.0" y="100.0">2024</text><line stroke="#e1ed5e" stroke-width="0.3" x1="100.0" x2="100.0" y1="15.0" y2="10.0" /><path d="M 100.0 14.0 a86.0,86.0 0 0,1 42.35913384403234,11.155469271406648" fill="none" id="id109" stroke="none" /><text fill="#e1ed5e" style="font-size:6.75px; font-family:Arial;" text-anchor="middle"><textPath startOffset="22.145653131862478" xlink:href="#id109">January</textPath></text><line stroke="#e1ed5e" stroke-width="0.3" x1="143.13028292997686" x2="145.6673583964461" y1="26.7553504044142" y2="22.446841604673864" /><path d="M 143.63769802327073 25.89364864446614 a86.0,86.0 0 0,1 29.32050498858742,28.57503671076993" fill="none" id="id110" stroke="none" /><text fill="#e1ed5e" style="font-size:6.75px; font-family:Arial;" text-anchor="middle"><textPath startOffset="20.669276256404974" xlink:href="#id110">February</textPath></text><line stroke="#e1ed5e" stroke-width="0.3" x1="172.87174338648825" x2="177.1583165268699" y1="56.24261187166439" y2="53.66864786411523" /><path d="M 173.72905801456457 55.72781907015455 a86.0,86.0 0 0,1 12.242430191666344,42.057860355516425" fill="none" id="id111" stroke="none" /><text fill="#e1ed5e" style="font-size:6.75px; font-family:Arial;" text-anchor="middle"><textPath startOffset="22.145653131862474" xlink:href="#id111">March</textPath></text><path d="M 118.18653347947321 89.5 l 13.063186911443486 -7.542034479796294 a36.084068959592585,36.084068959592585 0 0,0 0.3051107953091178,0.5391015401594635 l -13.190731071773978 7.316676169537713" fill="red" stroke="none" /><path d="M 118.36410011445183 89.81374322990088 l 42.262928521557114 -23.442534025293117 a69.32915816301036,69.32915816301036 0 0,0 0.5683493802388455,1.04569884511468 l -42.6591232514113 22.713580346703836" fill="red" stroke="none" /><path d="M 118.70294669586156 90.45014215332178 l 7.56573361948796 -3.8631174940968878 a29.494939786381526,29.494939786381526 0 0,0 0.22638080736112218,0.45291326121316344 l -7.630934340060819 3.7326723767199748" fill="red" stroke="none" /><path d="M 118.8641267826498 90.77261029715802 l 24.437500957717322 -11.953606297208996 a48.204414284580906,48.204414284580906 0 0,0 0.3572193676463952,0.7464510890771452 l -24.63909958332363 11.532342706066748" fill="red" stroke="none" /><path d="M 119.0197475246899 91.09779779509293 l 20.813120882089645 -9.741591488899473 a43.9800915052372,43.9800915052372 0 0,0 0.31417604585152215,0.6865313599344346 l -20.977281392796222 9.382871146750356" fill="red" stroke="none" /><path d="M 119.16976305983485 91.42560881287824 l 26.29202015727766 -11.760086195354958 a49.802256010126584,49.802256010126584 0 0,0 0.34236944604661823,0.7834082938513564 l -26.490023485341247 11.307015831727753" fill="red" stroke="none" /><path d="M 119.31412917781788 91.75594674310238 l 37.33212133958324 -15.934862694713516 a61.59072717767863,61.59072717767863 0 0,0 0.40671628932135506,0.9759710345049051 l -37.60016347344107 15.291659150767332" fill="red" stroke="none" /><path d="M 119.4528033332814 92.08871423366111 l 34.72205266263746 -14.121156539840262 a58.48370316723846,58.48370316723846 0 0,0 0.37023338056859745,0.9332299733773998 l -34.95934471817218 13.523025549249297" fill="red" stroke="none" /><path d="M 120.16314734710363 94.1308016681162 l 30.17708407418811 -8.784109368460474 a52.42955584505916,52.42955584505916 0 0,0 0.24412576335189504,0.8663162110247614 l -30.323428329614586 8.264785233532699" fill="red" stroke="none" /><path d="M 120.26092885502905 94.47779374421319 l 18.38730274960249 -5.011541129107593 a40.05802841046986,40.05802841046986 0 0,0 0.17513087553829063,0.6650004600132432 l -18.47062310594551 4.6951601647215515" fill="red" stroke="none" /><path d="M 120.35273937422433 94.82641323984039 l 24.870937423841593 -6.322095036096286 a46.66188640739565,46.66188640739565 0 0,0 0.19067485190640338,0.7780184637308711 l -24.975799802264287 5.894220747757321" fill="red" stroke="none" /><path d="M 120.51834098615036 95.52812308129327 l 24.36026993989115 -5.309207452551609 a45.93211654309746,45.93211654309746 0 0,0 0.16129235336047515,0.7718422993190768 l -24.447820004075993 4.890248701947129" fill="red" stroke="none" /><path d="M 120.592083275326 95.88100663000786 l 15.158850453060355 -3.0321946389792562 a36.45913811914826,36.45913811914826 0 0,0 0.11749166936760527,0.6147660613850716 l -15.208668414710118 2.77152601256087" fill="red" stroke="none" /><path d="M 120.65975698304385 96.23510406497455 l 24.246509730265867 -4.418521766589712 a45.64582254057885,45.64582254057885 0 0,0 0.13386220532755394,0.7720816278325647 l -24.318786753085657 4.001647105836554" fill="red" stroke="none" /><path d="M 120.7213421655516 96.59031103205396 l 28.149140404926275 -4.6319303416264175 a49.52768627536997,49.52768627536997 0 0,0 0.13084391106674514,0.840111770137083 l -28.224505808131283 4.148030389557893" fill="red" stroke="none" /><path d="M 120.77682067341334 96.94652285012252 l 32.28426560071117 -4.744675273560615 a53.6310549757252,53.6310549757252 0 0,0 0.1260469831419472,0.9120131797807353 l -32.360957100408335 4.189773785579794" fill="red" stroke="none" /><path d="M 120.82617615685814 97.30363454192243 l 22.382424735321273 -2.8978529937416013 a43.56923767001577,43.56923767001577 0 0,0 0.08966531215975973,0.7425574120821556 l -22.428872133740697 2.5132019047360328" fill="red" stroke="none" /><path d="M 120.86939407059847 97.66154086499901 l 25.998572960189083 -2.9131943280229735 a47.16127858418048,47.16127858418048 0 0,0 0.08324551260100997,0.8053248201734264 l -26.04475086527176 2.4664649855666156" fill="red" stroke="none" /><path d="M 120.9064616781168 98.02013634271609 l 8.574014334464147 -0.8119680718428484 a29.61237562797216,29.61237562797216 0 0,0 0.043581488284492015,0.5064829553701673 l -8.58668944544638 0.664664069097019" fill="red" stroke="none" /><path d="M 120.93736805541906 98.37931529534042 l 9.535973184807535 -0.7381446342135346 a30.56449905025802,30.56449905025802 0 0,0 0.03600212549892777,0.5234630033739955 l -9.547239271471529 0.574338206685205" fill="red" stroke="none" /><path d="M 120.96210409425399 98.7389718711861 l 48.7114455624655 -2.9303596038478994 a69.79950754047528,69.79950754047528 0 0,0 0.06168418650786627,1.1966567391897467 l -48.75457133842994 2.093731071281422" fill="red" stroke="none" /><path d="M 120.99303781780057 99.45929381324524 l 25.633757072641693 -0.6602346529949772 a46.64225831427925,46.64225831427925 0 0,0 0.01374518123669549,0.8005878978833053 l -25.641313685477055 0.22009983914260545" fill="red" stroke="none" /><line stroke="#e1ed5e" stroke-width="0.3" x1="184.99686870605535" x2="189.99668451229388" y1="99.2704041080226" y2="99.22748670261217" /><path d="M 185.99683186730306 99.26182062694052 a86.0,86.0 0 0,1 -10.086455211305974,41.156179273409016" fill="none" id="id112" stroke="none" /><text fill="#e1ed5e" style="font-size:6.75px; font-family:Arial;" text-anchor="middle"><textPath startOffset="21.40746469413373" xlink:href="#id112">April</textPath></text><path d="M 120.99922638620191 100.18025310272382 l 20.66490039557826 0.17738331618870226 a41.66566169277027,41.66566169277027 0 0,0 -0.012278609398688203,0.7151674407308752 l -20.658810354580904 -0.5320976728886486" fill="red" stroke="none" /><path d="M 120.98066250479742 100.90099992219065 l 24.87490160198104 1.0682353049032682 a45.89782834656229,45.89782834656229 0 0,0 -0.04056146388129806,0.7868815632150228 l -24.85289854864317 -1.4950886614950216" fill="red" stroke="none" /><path d="M 120.96210409425399 101.26102812881392 l 62.886312282761985 3.7830843864417396 a84.0,84.0 0 0,0 -0.09894415533973566,1.438626303382626 l -62.812104166257186 -4.86205411397871" fill="red" stroke="none" /><path d="M 120.9064616781168 101.97986365728391 l 16.220061570258974 1.5360566946379552 a37.292632307645505,37.292632307645505 0 0,0 -0.06582612655739731,0.636808061794625 l -16.19130305121991 -1.8142692787155117" fill="red" stroke="none" /><path d="M 120.86939407059847 102.33845913500097 l 16.18334540332899 1.8133776076712687 a37.28462485878791,37.28462485878791 0 0,0 -0.07673160480894743,0.6354477614523265 l -16.14983171226038 -2.090919046047004" fill="red" stroke="none" /><path d="M 120.82617615685814 102.69636545807757 l 26.542391396728505 3.4364439634947814 a47.76392512639667,47.76392512639667 0 0,0 -0.11225769599209763,0.8122407670900944 l -26.479489184181197 -3.8915730387849607" fill="red" stroke="none" /><path d="M 120.43855184770803 104.8234425847677 l 7.290348095588117 1.720502299970104 a28.49061436192304,28.49061436192304 0 0,0 -0.11642143283176004,0.47503917486496083 l -7.259739136240062 -1.8453972994431644" fill="red" stroke="none" /><path d="M 120.26092885502905 105.52220625578681 l 24.479371588584172 6.671961581398852 a46.37232162644255,46.37232162644255 0 0,0 -0.21592169212553003,0.7662299121236532 l -24.361231404384064 -7.091199417425514" fill="red" stroke="none" /><path d="M 120.16314734710363 105.8691983318838 l 24.021629591882697 6.992346279216212 a46.01862495698121,46.01862495698121 0 0,0 -0.22729624423385242,0.7565952729574797 l -23.898057027645212 -7.403679155764416" fill="red" stroke="none" /><path d="M 120.05942366710727 106.21446072829308 l 13.51332507090639 4.186462649946926 a35.1469581179626,35.1469581179626 0 0,0 -0.18349270203941664,0.5747882756790651 l -13.43946765308972 -4.417819959317375" fill="red" stroke="none" /><path d="M 119.94978838288452 106.5578916946017 l 53.91111231292337 17.72165342801198 a77.7491412361386,77.7491412361386 0 0,0 -0.42767425109539065,1.2643429306292062 l -53.59895264025561 -18.644498033115347" fill="red" stroke="none" /><line stroke="#e1ed5e" stroke-width="0.3" x1="174.33088141563837" x2="178.70328620479359" y1="141.23008692659167" y2="143.65538615756765" /><path d="M 175.20536237346943 141.71514677278685 a86.0,86.0 0 0,1 -30.301960400862466,31.631185727798858" fill="none" id="id113" stroke="none" /><text fill="#e1ed5e" style="font-size:6.75px; font-family:Arial;" text-anchor="middle"><textPath startOffset="22.145653131862474" xlink:href="#id113">May</textPath></text><line stroke="#e1ed5e" stroke-width="0.3" x1="143.1302829299769" x2="145.66735839644613" y1="173.24464959558577" y2="177.55315839532614" /><path d="M 143.63769802327073 174.10635135553383 a86.0,86.0 0 0,1 -40.68552437913181,11.842963189579606" fill="none" id="id114" stroke="none" /><text fill="#e1ed5e" style="font-size:6.75px; font-family:Arial;" text-anchor="middle"><textPath startOffset="21.407464694133747" xlink:href="#id114">June</textPath></text><line stroke="#e1ed5e" stroke-width="0.3" x1="101.45913802915013" x2="101.54496967792366" y1="184.9874750549273" y2="189.98673829345242" /><path d="M 101.47630435890484 185.9873277026323 a86.0,86.0 0 0,1 -42.54439059252881,-10.42667462771756" fill="none" id="id115" stroke="none" /><text fill="#e1ed5e" style="font-size:6.75px; font-family:Arial;" text-anchor="middle"><textPath startOffset="22.145653131862474" xlink:href="#id115">July</textPath></text><line stroke="#e1ed5e" stroke-width="0.3" x1="58.13341422392154" x2="55.670673884152215" y1="173.97424548756322" y2="178.32567169271397" /><path d="M 57.64086615596767 174.84453072859336 a86.0,86.0 0 0,1 -31.369924170532244,-30.572349798747897" fill="none" id="id116" stroke="none" /><text fill="#e1ed5e" style="font-size:6.75px; font-family:Arial;" text-anchor="middle"><textPath startOffset="22.145653131862474" xlink:href="#id116">August</textPath></text><path d="M 88.4268655584334 117.5232005979908 l -3.9724789634914486 6.0148394628980375 a28.20825102780263,28.20825102780263 0 0,0 -0.40177107565272796,-0.2703295101725631 l 4.07514632724118 -5.945760278668353" fill="red" stroke="none" /><path d="M 87.83215693770417 117.11559508785305 l -4.5423462965066985 6.3893789196479505 a28.839456158192974,28.839456158192974 0 0,0 -0.40103184993715074,-0.29031613266010925 l 4.651359156817803 -6.310462015614776" fill="red" stroke="none" /><path d="M 87.54013794807813 116.9041958592261 l -4.076418003211095 5.5304439201015825 a27.87044348570688,27.87044348570688 0 0,0 -0.38268376556357053,-0.28717303200097877 l 4.170754757685431 -5.459651860836589" fill="red" stroke="none" /><path d="M 87.2517909369889 116.68781488649013 l -8.608075353998858 11.2682469613156 a35.17999826802954,35.17999826802954 0 0,0 -0.4767560788014809,-0.3707284105093931 l 8.800241377435567 -11.118817499185415" fill="red" stroke="none" /><path d="M 86.68645165197938 116.24036423190432 l -6.419427753602587 7.830658075042877 a31.12562386087679,31.12562386087679 0 0,0 -0.4103034071387475,-0.3422896951814985 l 6.552905494903227 -7.7193061959495095" fill="red" stroke="none" /><line stroke="#e1ed5e" stroke-width="0.3" x1="26.387840678322732" x2="22.057713659400548" y1="142.50000000000003" y2="145.00000000000006" /><path d="M 25.521815274538298 143.00000000000003 a86.0,86.0 0 0,1 -11.493303480769221,-40.785679425670985" fill="none" id="id117" stroke="none" /><text fill="#e1ed5e" style="font-size:6.75px; font-family:Arial;" text-anchor="middle"><textPath startOffset="21.40746469413373" xlink:href="#id117">September</textPath></text><line stroke="#e1ed5e" stroke-width="0.3" x1="15.003131293944662" x2="10.003315487706104" y1="100.72959589197737" y2="100.7725132973878" /><path d="M 14.003168132696942 100.73817937305945 a86.0,86.0 0 0,1 10.791469493833615,-42.45332614584628" fill="none" id="id118" stroke="none" /><text fill="#e1ed5e" style="font-size:6.75px; font-family:Arial;" text-anchor="middle"><textPath startOffset="22.145653131862435" xlink:href="#id118">October</textPath></text><line stroke="#e1ed5e" stroke-width="0.3" x1="26.387840678322718" x2="22.05771365940052" y1="57.49999999999999" y2="54.99999999999999" /><path d="M 25.521815274538284 56.99999999999999 a86.0,86.0 0 0,1 29.574782752854787,-30.34633250058573" fill="none" id="id119" stroke="none" /><text fill="#e1ed5e" style="font-size:6.75px; font-family:Arial;" text-anchor="middle"><textPath startOffset="21.40746469413373" xlink:href="#id119">November</textPath></text><line stroke="#e1ed5e" stroke-width="0.3" x1="56.869717070023135" x2="54.33264160355391" y1="26.7553504044142" y2="22.446841604673864" /><path d="M 56.362301976729285 25.89364864446614 a86.0,86.0 0 0,1 42.16139366436587,-11.88097634709845" fill="none" id="id120" stroke="none" /><text fill="#e1ed5e" style="font-size:6.75px; font-family:Arial;" text-anchor="middle"><textPath startOffset="22.145653131862474" xlink:href="#id120">December</textPath></text></svg>