<?xml version="1.0" encoding="utf-8" ?>
<svg baseProfile="full" height="200mm" version="1.1" viewBox="0,0,200,200" width="200mm" xmlns="http://www.w3.org/2000/svg" xmlns:ev="http://www.w3.org/2001/xml-events" xmlns:xlink="http://www.w3.org/1999/xlink"><defs /><rect fill="#1a1a1a" height="200" width="200" x="0" y="0" /><rect fill="#1a1a1a" height="200" width="180" x="10" y="0" /><text alignment-baseline="middle" fill="#e1ed5e" style="dominant-baseline: central; font-size:9.0px; font-family:Arial;" text-anchor="middle" x="100.0" y="100.0">2023</text><line stroke="#e1ed5e" stroke-width="0.3" x1="100.0" x2="100.0" y1="15.0" y2="10.0" /><path d="M 100.0 14.0 a86.0,86.0 0 0,1 42.46469731375804,11.215312516191453" fill="none" id="id97" stroke="none" /><text fill="#e1ed5e" style="font-size:6.75px; font-family:Arial;" text-anchor="middle"><textPath startOffset="22.20632615414155" xlink:href="#id97">January</textPath></text><path d="M 108.43124777332544 80.76684994638697 l 9.897030751995947 -22.576857264305353 a45.65087628541369,45.65087628541369 0 0,0 0.7169750145995354,0.3216857897307733 l -10.284187885062263 22.40315114405805" fill="red" stroke="none" /><path d="M 109.08828744355905 81.06846463323043 l 2.980055932038393 -6.207663943587028 a27.88591497148982,27.88591497148982 0 0,0 0.4309419359024963,0.21146133638707562 l -3.086469134951321 6.155447447065121" fill="red" stroke="none" /><path d="M 109.73455568895987 81.39251694778311 l 16.114103425698183 -30.801909812422803 a55.76236438027089,55.76236438027089 0 0,0 0.8466717190448874,0.4522627102152839 l -16.64192019127138 30.519968375705766" fill="red" stroke="none" /><line stroke="#e1ed5e" stroke-width="0.3" x1="143.23703022742887" x2="145.7803849466894" y1="26.81831364943548" y2="22.513508569990506" /><path d="M 143.74570117128098 25.957352633546492 a86.0,86.0 0 0,1 28.547481713284135,27.462654790039103" fill="none" id="id98" stroke="none" /><text fill="#e1ed5e" style="font-size:6.75px; font-family:Arial;" text-anchor="middle"><textPath startOffset="19.985693538727396" xlink:href="#id98">February</textPath></text><path d="M 117.65298651832404 88.62581576622439 l 6.67544876952206 -4.301129673942737 a28.94111659318665,28.94111659318665 0 0,0 0.26622024093485347,0.42109648822979046 l -6.748496606702869 4.18558553799874" fill="red" stroke="none" /><line stroke="#e1ed5e" stroke-width="0.3" x1="172.23445277983987" x2="176.4835382374775" y1="55.19839476539836" y2="52.563006222186495" /><path d="M 173.08426987136738 54.67131705675599 a86.0,86.0 0 0,1 12.851231095245387,41.99856678651699" fill="none" id="id99" stroke="none" /><text fill="#e1ed5e" style="font-size:6.75px; font-family:Arial;" text-anchor="middle"><textPath startOffset="22.20632615414155" xlink:href="#id99">March</textPath></text><path d="M 117.84615892207809 88.93136811851018 l 11.5833153715929 -7.184260454878586 a34.630362918180595,34.630362918180595 0 0,0 0.3098332424733673,0.5092843854604108 l -11.705264412352491 6.983808296211094" fill="red" stroke="none" /><path d="M 118.03404312379186 89.2402003453031 l 19.701337193309612 -11.75457104513501 a43.94150447681257,43.94150447681257 0 0,0 0.38195697768861603,0.6528882880432856 l -19.900753845468557 11.41370334473783" fill="red" stroke="none" /><path d="M 118.56541770881063 90.18545643968196 l 9.715400847379762 -5.136012898719106 a31.989433202903435,31.989433202903435 0 0,0 0.253159144613196,0.489022888455365 l -9.802369425153074 4.968017288003398" fill="red" stroke="none" /><path d="M 118.73160827565052 90.50648371742162 l 39.104744615993496 -19.81898853931224 a64.84031658420662,64.84031658420662 0 0,0 0.49599750553256516,0.9999007049756113 l -39.44010213447947 19.142928245837677" fill="red" stroke="none" /><path d="M 118.89224826269711 90.83032412892265 l 47.239483419645055 -22.9284913712772 a73.50985155490018,73.50985155490018 0 0,0 0.5427190550236244,1.1431047404947938 l -47.627160668510435 22.111944215141865" fill="red" stroke="none" /><path d="M 119.196687751892 91.48605970444005 l 57.06326598438528 -25.30818055384735 a83.42371606810059,83.42371606810059 0 0,0 0.5708934770682136,1.3177008562644446 l -57.490450171296175 24.322180552996304" fill="red" stroke="none" /><path d="M 119.34039704204932 91.81776055985345 l 10.371511460790321 -4.387820474621364 a32.26149272959901,32.26149272959901 0 0,0 0.21197077835063233,0.5133040531473766 l -10.44550392602715 4.208641851020684" fill="red" stroke="none" /><path d="M 119.47837535516314 92.15188598940014 l 7.180928498754612 -2.8932980565678106 a28.741893033901025,28.741893033901025 0 0,0 0.18094588798533037,0.4604875482111868 l -7.2296679366216425 2.769261503460839" fill="red" stroke="none" /><path d="M 119.61058180528143 92.48833698450437 l 36.5061162946344 -13.983350740564756 a60.09259040855472,60.09259040855472 0 0,0 0.36168703298536004,0.9691414289214518 l -36.74140791612139 13.352886174613971" fill="red" stroke="none" /><path d="M 119.7369772167798 92.82701384747503 l 32.80499590633007 -11.92228064030445 a55.904276701867225,55.904276701867225 0 0,0 0.32090896790314455,0.9072528663285554 l -33.005357955043024 11.35583014754928" fill="red" stroke="none" /><path d="M 119.85752413597 93.16781622104841 l 33.56641728432417 -11.548868334097447 a56.49761582280837,56.49761582280837 0 0,0 0.30848426312790816,0.9223286821343127 l -33.760238841223845 10.969366549040819" fill="red" stroke="none" /><path d="M 119.97218684219823 93.5106431181261 l 32.99078408645499 -10.719355543856356 a55.68856321490839,55.68856321490839 0 0,0 0.28837266030708963,0.9142201381091193 l -33.17041223053028 10.149885239320817" fill="red" stroke="none" /><path d="M 120.18372546131832 94.20196356495316 l 8.065995509202317 -2.317061631506389 a29.39220222341377,29.39220222341377 0 0,0 0.13550257225786713,0.4874748477161603 l -8.104684852026548 2.177875480371277" fill="red" stroke="none" /><path d="M 120.28053869075195 94.5502522615342 l 14.122000987658884 -3.794837214072652 a35.62298537839484,35.62298537839484 0 0,0 0.1540332258137496,0.5935528531676852 l -14.18523054534294 3.551187935356116" fill="red" stroke="none" /><path d="M 120.37134235888165 94.90015583598534 l 40.896267781210454 -10.238136932741444 a63.15832262182684,63.15832262182684 0 0,0 0.2549406737560071,1.0568936815680843 l -41.066441255227275 9.532658019513953" fill="red" stroke="none" /><path d="M 120.45610955862082 95.25157060432595 l 61.36832867586249 -14.245288187022162 a84.0,84.0 0 0,0 0.31482245199184966,1.4112873218001445 l -61.60444551485638 13.186822695672053" fill="red" stroke="none" /><path d="M 120.53481517161879 95.60439243477599 l 34.37463926370346 -7.358109782658941 a56.15334413798216,56.15334413798216 0 0,0 0.1941854946679879,0.94691743557586 l -34.496204054286444 6.765316690919669" fill="red" stroke="none" /><path d="M 120.67395015179393 96.31383870115 l 34.40001743143358 -6.133516430313752 a55.942541737599214,55.942541737599214 0 0,0 0.16086980749337354,0.9494627101435601 l -34.50049910044718 5.540467931854354" fill="red" stroke="none" /><path d="M 120.73433829027371 96.67025291283417 l 11.805888923506362 -1.8959189198185746 a32.95715358372118,32.95715358372118 0 0,0 0.08513006433013005,0.5609007592310676 l -11.836774881275792 1.6924190481954249" fill="red" stroke="none" /><path d="M 120.83666639777658 97.38593545837742 l 30.866085366023423 -3.8723055672008604 a52.10803716450815,52.10803716450815 0 0,0 0.10399187824954315,0.8909389060722827 l -30.928167597276556 3.340422922803725" fill="red" stroke="none" /><path d="M 120.87857604477298 97.74499172005257 l 52.82650848057907 -5.705571767392729 a74.13373266994859,74.13373266994859 0 0,0 0.12610809594646816,1.2698913162665022 l -52.916893702207766 4.795404920421792" fill="red" stroke="none" /><path d="M 120.91429891909075 98.10471618934814 l 43.99181440391153 -3.986601413869426 a65.17208083599033,65.17208083599033 0 0,0 0.09163044415429661,1.1181235100865523 l -44.053919331885325 3.228763986575105" fill="red" stroke="none" /><path d="M 120.94382443527127 98.46500227214037 l 10.363231640366482 -0.7595335355493098 a31.391027919485012,31.391027919485012 0 0,0 0.03485810565934679,0.539239465987339 l -10.374770337030245 0.5810350053089355" fill="red" stroke="none" /><path d="M 120.96714384426684 98.82574320788733 l 49.47891031992629 -2.771047260468616 a70.55644528582593,70.55644528582593 0 0,0 0.057474580700533774,1.2131975594701785 l -49.51927850886032 1.9189385943754373" fill="red" stroke="none" /><line stroke="#e1ed5e" stroke-width="0.3" x1="184.98032266829074" x2="189.97916517819016" y1="98.17113171792111" y2="98.06355123074" /><path d="M 185.9800911702706 98.14961562048488 a86.0,86.0 0 0,1 -9.607161424134198,41.387399972396054" fill="none" id="id100" stroke="none" /><text fill="#e1ed5e" style="font-size:6.75px; font-family:Arial;" text-anchor="middle"><textPath startOffset="21.466115282336823" xlink:href="#id100">April</textPath></text><path d="M 120.76222939487914 103.15116336523771 l 21.369056146424494 3.243263793960813 a42.61377617692613,42.61377617692613 0 0,0 -0.11631175669057749,0.7242734199404679 l -21.310062635372628 -3.610616443594486" fill="red" stroke="none" /><path d="M 120.70491114924044 103.5080841355445 l 10.226800024398269 1.7327519381455447 a31.37255359196469,31.37255359196469 0 0,0 -0.09479524468164875,0.5316620745236882 l -10.195458337377431 -1.9085327634024511" fill="red" stroke="none" /><path d="M 120.49622156327973 104.57218783832717 l 34.0963915809158 7.606041261595254 a55.93444979547031,55.93444979547031 0 0,0 -0.2177166795841737,0.9379177574737261 l -33.960414335401076 -8.191827676417544" fill="red" stroke="none" /><path d="M 120.32669344350535 105.2749913415812 l 43.44043955701669 11.273252247082057 a65.87937171054382,65.87937171054382 0 0,0 -0.29429859950291515,1.0951945705166257 l -43.239952881171995 -12.01933775077423" fill="red" stroke="none" /><path d="M 120.23288151984713 105.62410040840565 l 48.418785977307124 13.458889368889887 a71.25455739095003,71.25455739095003 0 0,0 -0.3386537849066104,1.1788982524626344 l -48.17993955551441 -14.290345096857104" fill="red" stroke="none" /><path d="M 118.81262510543309 109.33194174019688 l 13.536375859532694 6.7146753941365205 a36.11027256733517,36.11027256733517 0 0,0 -0.28100898939687197,0.5544573954097601 l -13.418788200349553 -6.946687001248975" fill="red" stroke="none" /><line stroke="#e1ed5e" stroke-width="0.3" x1="174.80103733775053" x2="179.2010983576182" y1="140.37084112569926" y2="142.7455964860345" /><path d="M 175.68104954172406 140.8457921977663 a86.0,86.0 0 0,1 -30.038265399797805,32.042727171017184" fill="none" id="id101" stroke="none" /><text fill="#e1ed5e" style="font-size:6.75px; font-family:Arial;" text-anchor="middle"><textPath startOffset="22.206326154141568" xlink:href="#id101">May</textPath></text><path d="M 118.48025628344425 109.97397251340804 l 6.6553848927303 3.591975401645865 a28.56283249559394,28.56283249559394 0 0,0 -0.23723960952936482,0.43065880219858277 l -6.5925688737494275 -3.706004722242253" fill="red" stroke="none" /><path d="M 117.75023020441432 111.22182372390056 l 29.508803152645545 18.65567845987242 a55.91137067346012,55.91137067346012 0 0,0 -0.5212940218946017,0.8090598984023584 l -29.183304267373895 -19.160859958196234" fill="red" stroke="none" /><path d="M 117.35343817320211 111.8261652097733 l 5.662807434968722 3.8591370544938695 a27.852760527765774,27.852760527765774 0 0,0 -0.2734067994392332,0.39386288623488225 l -5.595539728367353 -3.956041202915771" fill="red" stroke="none" /><path d="M 116.71984013943494 112.70617746262583 l 29.3666795085643 22.317093836549446 a57.88434007364214,57.88434007364214 0 0,0 -0.6096962578152673,0.7881146011088759 l -28.978176433530965 -22.819286431771577" fill="red" stroke="none" /><path d="M 116.498646956653 112.99209946851258 l 27.604346696310923 21.73744422703455 a56.13568610477913,56.13568610477913 0 0,0 -0.6043463391810376,0.7540149806260172 l -27.22608244507503 -22.20938704123882" fill="red" stroke="none" /><path d="M 116.27256486870786 113.27417163493432 l 5.52029649014626 4.5031231202426705 a28.124029139130833,28.124029139130833 0 0,0 -0.30923575368265976,0.372494386173978 l -5.441964736570057 -4.597478763530419" fill="red" stroke="none" /><path d="M 115.07121518719521 114.62390073753431 l 25.4642193803541 24.708440026354513 a56.48145257999958,56.48145257999958 0 0,0 -0.6830473520558143,0.6919233614278669 l -25.03513140324275 -25.143103881763043" fill="red" stroke="none" /><path d="M 113.48314897796784 116.09983520530334 l 4.662965889715179 5.567911658844545 a28.262567805490306,28.262567805490306 0 0,0 -0.37566318659730763,0.3091452275500518 l -4.56643257457318 -5.647352005251775" fill="red" stroke="none" /><path d="M 112.34349029814194 116.9893568818739 l 4.357704900265584 5.997866239474186 a28.413770391941128,28.413770391941128 0 0,0 -0.39816172091070295,0.2840778160204222 l -4.253815851505997 -6.071988317338828" fill="red" stroke="none" /><path d="M 112.04921762599082 117.19931262002967 l 13.12243363898809 18.731244259852136 a43.87045640410112,43.87045640410112 0 0,0 -0.6222149242101647,0.42796509853033826 l -12.798061830155042 -18.954350147747572" fill="red" stroke="none" /><path d="M 111.7513745106137 117.40417183066458 l 19.880326640699014 29.443417073633437 a56.5266406561726,56.5266406561726 0 0,0 -0.811090810711381,0.5375467619094098 l -19.37056113124767 -29.781261856634163" fill="red" stroke="none" /><line stroke="#e1ed5e" stroke-width="0.3" x1="143.8653032363475" x2="146.44561519142675" y1="172.8068346515853" y2="177.08958963109032" /><path d="M 144.38136562736335 173.6633856474863 a86.0,86.0 0 0,1 -40.68145358897372,12.25698825130547" fill="none" id="id102" stroke="none" /><text fill="#e1ed5e" style="font-size:6.75px; font-family:Arial;" text-anchor="middle"><textPath startOffset="21.466115282336833" xlink:href="#id102">June</textPath></text><path d="M 109.89434966115114 118.52300852407294 l 3.219073779887585 6.026361823313631 a27.832237761220824,27.832237761220824 0 0,0 -0.4245199503792681,0.22208877398650326 l -3.114862926981821 -6.080880016244851" fill="red" stroke="none" /><path d="M 109.57404056367764 118.69057910512821 l 4.025487737889078 7.858614813810472 a29.829630701209236,29.829630701209236 0 0,0 -0.4590156474458153,0.23015997463786197 l -3.889618182760502 -7.926742629357635" fill="red" stroke="none" /><path d="M 109.2508944713604 118.85261126421891 l 3.448501489351293 7.0277807431587 a28.828273417297734,28.828273417297734 0 0,0 -0.44736995762490345,0.21476476628750688 l -3.3270188637261566 -7.086099785945767" fill="red" stroke="none" /><path d="M 108.59647513512805 119.15986991738527 l 14.55597370880056 32.44243232227352 a56.558230912077036,56.558230912077036 0 0,0 -0.8916790920438781,0.3908859099190329 l -13.995373942098928 -32.68818278548701" fill="red" stroke="none" /><line stroke="#e1ed5e" stroke-width="0.3" x1="102.19456741930631" x2="102.32365962044197" y1="184.97166512339345" y2="189.96999836594603" /><path d="M 102.22038585953345 185.97133177190398 a86.0,86.0 0 0,1 -42.740103519485714,-10.115201625700543" fill="none" id="id103" stroke="none" /><text fill="#e1ed5e" style="font-size:6.75px; font-family:Arial;" text-anchor="middle"><textPath startOffset="22.20632615414155" xlink:href="#id103">July</textPath></text><line stroke="#e1ed5e" stroke-width="0.3" x1="58.666819895761336" x2="56.23545636021788" y1="174.27360380694188" y2="178.64263932499728" /><path d="M 58.180547188652646 175.14741091055294 a86.0,86.0 0 0,1 -31.652253787137756,-30.449443065178592" fill="none" id="id104" stroke="none" /><text fill="#e1ed5e" style="font-size:6.75px; font-family:Arial;" text-anchor="middle"><textPath startOffset="22.20632615414155" xlink:href="#id104">August</textPath></text><line stroke="#e1ed5e" stroke-width="0.3" x1="26.63291911575756" x2="22.317208475507996" y1="142.92168965132927" y2="145.44649492493687" /><path d="M 25.769776987707644 143.4266507060508 a86.0,86.0 0 0,1 -11.730757126820373,-40.83630448921669" fill="none" id="id105" stroke="none" /><text fill="#e1ed5e" style="font-size:6.75px; font-family:Arial;" text-anchor="middle"><textPath startOffset="21.46611528233685" xlink:href="#id105">September</textPath></text><line stroke="#e1ed5e" stroke-width="0.3" x1="15.007084014347285" x2="10.007500721073583" y1="101.09737516637583" y2="101.16192664675087" /><path d="M 14.007167355692545 101.11028546245083 a86.0,86.0 0 0,1 10.666146001902534,-42.60595125391555" fill="none" id="id106" stroke="none" /><text fill="#e1ed5e" style="font-size:6.75px; font-family:Arial;" text-anchor="middle"><textPath startOffset="22.20632615414155" xlink:href="#id106">October</textPath></text><line stroke="#e1ed5e" stroke-width="0.3" x1="26.266209847984257" x2="21.92892807433627" y1="57.711370442889674" y2="55.22380399835377" /><path d="M 25.39875349325466 57.213857153982495 a86.0,86.0 0 0,1 29.58750427330802,-30.492523968695096" fill="none" id="id107" stroke="none" /><text fill="#e1ed5e" style="font-size:6.75px; font-family:Arial;" text-anchor="middle"><textPath startOffset="21.46611528233685" xlink:href="#id107">November</textPath></text><line stroke="#e1ed5e" stroke-width="0.3" x1="56.762969772571076" x2="54.21961505331055" y1="26.818313649435495" y2="22.513508569990535" /><path d="M 56.25429882871897 25.957352633546506 a86.0,86.0 0 0,1 42.265352541879196,-11.944610805530505" fill="none" id="id108" stroke="none" /><text fill="#e1ed5e" style="font-size:6.75px; font-family:Arial;" text-anchor="middle"><textPath startOffset="22.20632615414155" xlink:href="#id108">December</textPath></text></svg>