<?xml version="1.0" encoding="utf-8" ?>
<svg baseProfile="full" height="200mm" version="1.1" viewBox="0,0,200,200" width="200mm" xmlns="http://www.w3.org/2000/svg" xmlns:ev="http://www.w3.org/2001/xml-events" xmlns:xlink="http://www.w3.org/1999/xlink"><defs /><rect fill="#1a1a1a" height="200" width="200" x="0" y="0" /><rect fill="#1a1a1a" height="200" width="180" x="10" y="0" /><text alignment-baseline="middle" fill="#e1ed5e" style="dominant-baseline: central; font-size:9.0px; font-family:Arial;" text-anchor="middle" x="100.0" y="100.0">2021</text><line stroke="#e1ed5e" stroke-width="0.3" x1="100.0" x2="100.0" y1="15.0" y2="10.0" /><path d="M 100.0 14.0 a86.0,86.0 0 0,1 42.46469731375804,11.215312516191453" fill="none" id="id73" stroke="none" /><text fill="#e1ed5e" style="font-size:6.75px; font-family:Arial;" text-anchor="middle"><textPath startOffset="22.20632615414155" xlink:href="#id73">January</textPath></text><line stroke="#e1ed5e" stroke-width="0.3" x1="143.23703022742887" x2="145.7803849466894" y1="26.81831364943548" y2="22.513508569990506" /><path d="M 143.74570117128098 25.957352633546492 a86.0,86.0 0 0,1 28.547481713284135,27.462654790039103" fill="none" id="id74" stroke="none" /><text fill="#e1ed5e" style="font-size:6.75px; font-family:Arial;" text-anchor="middle"><textPath startOffset="19.985693538727396" xlink:href="#id74">February</textPath></text><path d="M 114.42810811169701 84.74124197986012 l 21.284319967096906 -22.509693265873658 a51.97916343908398,51.97916343908398 0 0,0 0.6448306218519113,0.6203265473229066 l -21.668633832561234 22.13998363178845" fill="red" stroke="none" /><path d="M 114.94478906791727 85.2469230424477 l 4.32830188204674 -4.272778322340889 a27.082008860072104,27.082008860072104 0 0,0 0.32464330670424646,0.33457346451103215 l -4.401209452454095 4.19764066227974" fill="red" stroke="none" /><path d="M 115.19652480421416 85.50635884689758 l 15.55931690427184 -14.83965305905859 a42.50134054985378,42.50134054985378 0 0,0 0.5003676306659861,0.5337573012703482 l -15.81245185690829 14.569626340910187" fill="red" stroke="none" /><path d="M 115.4437574822437 85.77008943001954 l 14.612760178717387 -13.464227909742505 a40.87003254265573,40.87003254265573 0 0,0 0.4722558716526184,0.5214767287622585 l -14.84235969098604 13.210698393710699" fill="red" stroke="none" /><path d="M 116.15771136456269 86.58626213691792 l 32.46670329424061 -26.953065161353898 a63.19661768896227,63.19661768896227 0 0,0 0.687643925599932,0.8429701448525261 l -32.925845711916956 26.39021084689327" fill="red" stroke="none" /><path d="M 117.45458315368197 88.32363383020206 l 13.902206243294511 -9.299978649476685 a37.72605576075301,37.72605576075301 0 0,0 0.3564274475051399,0.542863455631932 l -14.060230326157576 9.059297129867078" fill="red" stroke="none" /><line stroke="#e1ed5e" stroke-width="0.3" x1="172.23445277983987" x2="176.4835382374775" y1="55.19839476539836" y2="52.563006222186495" /><path d="M 173.08426987136738 54.67131705675599 a86.0,86.0 0 0,1 12.851231095245387,41.99856678651699" fill="none" id="id75" stroke="none" /><text fill="#e1ed5e" style="font-size:6.75px; font-family:Arial;" text-anchor="middle"><textPath startOffset="22.20632615414155" xlink:href="#id75">March</textPath></text><path d="M 120.53481517161879 95.60439243477599 l 18.8597352907572 -4.037046081464175 a40.28697374658082,40.28697374658082 0 0,0 0.13931754280622544,0.6793618163414185 l -18.92643212947842 3.7118086089593447" fill="red" stroke="none" /><path d="M 120.67395015179393 96.31383870115 l 15.835489626044719 -2.823464726347977 a37.0852318838586,37.0852318838586 0 0,0 0.10664324374081396,0.6294144612861817 l -15.881744731305757 2.550464476745957" fill="red" stroke="none" /><path d="M 120.73433829027371 96.67025291283417 l 15.95038124760024 -2.561486880113996 a37.154747815450214,37.154747815450214 0 0,0 0.09597267141605814,0.6323399927662026 l -15.992109812455597 2.2865477749557113" fill="red" stroke="none" /><path d="M 120.94382443527127 98.46500227214037 l 19.217453776946282 -1.408469975196199 a40.26899886709468,40.26899886709468 0 0,0 0.044716631163071875,0.6917464920432952 l -19.23885099911377 1.0774644188998688" fill="red" stroke="none" /><line stroke="#e1ed5e" stroke-width="0.3" x1="184.98032266829074" x2="189.97916517819016" y1="98.17113171792111" y2="98.06355123074" /><path d="M 185.9800911702706 98.14961562048488 a86.0,86.0 0 0,1 -9.607161424134198,41.387399972396054" fill="none" id="id76" stroke="none" /><text fill="#e1ed5e" style="font-size:6.75px; font-family:Arial;" text-anchor="middle"><textPath startOffset="21.466115282336823" xlink:href="#id76">April</textPath></text><path d="M 120.9904718944345 100.63252640178507 l 16.503348272095085 0.49731152079158114 a37.51083955887089,37.51083955887089 0 0,0 -0.025003416608805073,0.6452270824891079 l -16.49234272263508 -0.7813158502946952" fill="red" stroke="none" /><path d="M 120.9764740272857 100.99374915477107 l 31.49616204041348 1.492113706311175 a52.53148627306592,52.53148627306592 0 0,0 -0.05056443004192027,0.9028618656612835 l -31.46581125948403 -2.0340472883078817" fill="red" stroke="none" /><path d="M 120.95626037817324 101.35467743843564 l 25.01815420165753 1.6172508089080935 a46.07037175306398,46.07037175306398 0 0,0 -0.05796846501567813,0.7909336489790452 l -24.986609177977517 -2.047657594383909" fill="red" stroke="none" /><path d="M 120.92983693683757 101.71520430193887 l 27.558120041083914 2.25839342133723 a48.65050308844904,48.65050308844904 0 0,0 -0.07558296688495443,0.834051741348424 l -27.515162477921884 -2.7324265512342243" fill="red" stroke="none" /><path d="M 120.89721153311464 102.0752229133903 l 51.183289985609754 5.082818633123462 a72.4350485467667,72.4350485467667 0 0,0 -0.13389342263071713,1.2396868034362687 l -51.08821426147799 -5.963101758444522" fill="red" stroke="none" /><path d="M 120.8583938346157 102.4346265915055 l 23.1756835666785 2.705104522195454 a44.333021648702385,44.333021648702385 0 0,0 -0.0949961459389722,0.7572127506753386 l -23.125685911492678 -3.1036350271581874" fill="red" stroke="none" /><path d="M 120.81339534386255 102.79330883721812 l 26.78673876741971 3.5949749131801556 a48.026898053982826,48.026898053982826 0 0,0 -0.11701627693623684,0.818411568350144 l -26.720888439466872 -4.055531953510709" fill="red" stroke="none" /><path d="M 120.76222939487914 103.15116336523771 l 43.89186093258505 6.66163645398231 a65.39451380937076,65.39451380937076 0 0,0 -0.17849041933093474,1.111460011556141 l -43.770688758892824 -7.416175695231656" fill="red" stroke="none" /><path d="M 120.64145759157962 103.86396538481128 l 27.64124206013433 5.174285877811174 a49.12137082313477,49.12137082313477 0 0,0 -0.1627322409758449,0.8297681908148676 l -27.548079886182823 -5.649317795693987" fill="red" stroke="none" /><path d="M 120.5718875245553 104.21870165774334 l 26.196390253358313 5.372125180872197 a47.74155177369495,47.74155177369495 0 0,0 -0.1720195432258761,0.8036180376966023 l -26.100036671407995 -5.8222570379849685" fill="red" stroke="none" /><path d="M 120.41448212921028 104.9243191809786 l 13.487068392245929 3.25330954558366 a34.87389767932952,34.87389767932952 0 0,0 -0.14578731631794598,0.5823478594211724 l -13.42906976163292 -3.4849852444022282" fill="red" stroke="none" /><path d="M 120.13307415673323 105.97154293290107 l 25.637602139329587 7.604205929000777 a47.74155177369495,47.74155177369495 0 0,0 -0.2404656198413943,0.7858555588893258 l -25.50290974698206 -8.04438846044216" fill="red" stroke="none" /><path d="M 120.02730092923936 106.31721596034902 l 60.08190278771807 18.951647881047055 a84.0,84.0 0 0,0 -0.4468309959350121,1.375204400088819 l -59.746779540766816 -19.98305118111367" fill="red" stroke="none" /><path d="M 119.9155931802556 106.66101706037122 l 47.766541611147574 15.976112069924417 a71.36743644816835,71.36743644816835 0 0,0 -0.39968880468480306,1.1616827565963586 l -47.484461975519544 -16.795967529610078" fill="red" stroke="none" /><path d="M 119.79798401119884 107.00284435728193 l 41.267292817424654 14.596861401814206 a64.77279770888356,64.77279770888356 0 0,0 -0.38085090780301684,1.0479381293175911 l -41.00991764861641 -15.305047328137928" fill="red" stroke="none" /><path d="M 119.67450827220406 107.3425965602758 l 15.50165287825113 5.785272065134311 a37.5460150738906,37.5460150738906 0 0,0 -0.231186406072499,0.6035547546796669 l -15.399772192585123 -6.051250386647122" fill="red" stroke="none" /><path d="M 119.54520255179757 107.68017299344265 l 32.87205569606804 12.916881967675764 a56.3188035676786,56.3188035676786 0 0,0 -0.3623106252449913,0.8992252589799544 l -32.644842456565655 -13.480806594498532" fill="red" stroke="none" /><path d="M 119.41010516605496 108.01547362559984 l 33.72470836507913 13.926741154606503 a57.48712202266779,57.48712202266779 0 0,0 -0.3855716538557508,0.9113774936897054 l -33.479985730031075 -14.505193173962372" fill="red" stroke="none" /><path d="M 119.26925614724726 108.34839909993367 l 24.848609722340253 10.765652262618522 a48.080485109628405,48.080485109628405 0 0,0 -0.3355535115838726,0.7565845850816794 l -24.65961512602511 -11.19178518419289" fill="red" stroke="none" /><path d="M 119.12269723197855 108.67885076344098 l 14.057952743089293 6.380212603729765 a36.438042239731175,36.438042239731175 0 0,0 -0.26413309245473754,0.568919182764485 l -13.946045033794725 -6.621251853773081" fill="red" stroke="none" /><path d="M 118.97047184881838 109.00673069616215 l 38.972718574417726 18.503323665033722 a64.14215780108549,64.14215780108549 0 0,0 -0.4821252725050687,0.9933208621490983 l -38.648440045297946 -19.171433483148096" fill="red" stroke="none" /><path d="M 118.81262510543309 109.33194174019688 l 46.893893795450786 23.2615641048279 a73.34632403428186,73.34632403428186 0 0,0 -0.5707787542842708,1.126200631997316 l -46.48653637138025 -24.065318948527914" fill="red" stroke="none" /><path d="M 118.64920377521936 109.65438752849418 l 38.51936112223827 19.940842735508514 a64.37485896539243,64.37485896539243 0 0,0 -0.5179033788371098,0.9796780157755796 l -38.170405235176275 -20.60093576637023" fill="red" stroke="none" /><line stroke="#e1ed5e" stroke-width="0.3" x1="174.80103733775053" x2="179.2010983576182" y1="140.37084112569926" y2="142.7455964860345" /><path d="M 175.68104954172406 140.8457921977663 a86.0,86.0 0 0,1 -30.038265399797805,32.042727171017184" fill="none" id="id77" stroke="none" /><text fill="#e1ed5e" style="font-size:6.75px; font-family:Arial;" text-anchor="middle"><textPath startOffset="22.206326154141568" xlink:href="#id77">May</textPath></text><path d="M 118.48025628344425 109.97397251340804 l 45.73602554076804 24.68417399734948 a72.97203554025194,72.97203554025194 0 0,0 -0.6060973546934746,1.1002427516460436 l -45.30435177662306 -25.467787267393327" fill="red" stroke="none" /><path d="M 118.30583269289576 110.29060199501025 l 23.65433509595645 13.297256235907653 a48.13567010846023,48.13567010846023 0 0,0 -0.4122430563273349,0.7187805167773454 l -23.421940043476734 -13.702456598543312" fill="red" stroke="none" /><path d="M 117.35343817320211 111.8261652097733 l 22.37317953588155 15.247060255059042 a48.07456387397939,48.07456387397939 0 0,0 -0.4719069993122882,0.6798172289964965 l -22.107411629407128 -15.629918746242558" fill="red" stroke="none" /><path d="M 117.14729908036423 112.12312394758627 l 31.887488799845503 22.544423893584092 a60.05205488388387,60.05205488388387 0 0,0 -0.6040098809926499,0.8389168965017048 l -31.49469912647725 -23.089974395536927" fill="red" stroke="none" /><path d="M 116.93607887273984 112.41649034213515 l 21.586772995429122 15.826092948057251 a47.766658109609715,47.766658109609715 0 0,0 -0.49185722113479113,0.6589231258683745 l -21.31115450759924 -16.19532895343494" fill="red" stroke="none" /><path d="M 116.71984013943494 112.70617746262583 l 6.341114648104934 4.818905405659005 a28.96439478485971,28.96439478485971 0 0,0 -0.30508222237216664,0.3943598979134634 l -6.257225608514699 -4.927343297685721" fill="red" stroke="none" /><path d="M 116.498646956653 112.99209946851258 l 13.006054726366894 10.241806927672819 a37.55451807480295,37.55451807480295 0 0,0 -0.40430494562500846,0.5044325843944965 l -12.827831868687031 -10.464167345645565" fill="red" stroke="none" /><path d="M 116.27256486870786 113.27417163493432 l 33.018975234748844 26.93487769211798 a63.61150504080221,63.61150504080221 0 0,0 -0.699435760319679,0.842515430721418 l -32.55044347453562 -27.499254379953168" fill="red" stroke="none" /><path d="M 115.80600337817218 113.82643327865902 l 6.071334432626535 5.310950430458747 a29.066430205957683,29.066430205957683 0 0,0 -0.33265996534838843,0.3737469975729943 l -5.979015617629808 -5.414671597772608" fill="red" stroke="none" /><path d="M 115.32070863581623 114.36230785411682 l 13.604249247713678 12.75322313505973 a39.64725979672458,39.64725979672458 0 0,0 -0.47103483690756914,0.49387814332512503 l -13.382707859427144 -12.985508394967363" fill="red" stroke="none" /><path d="M 115.07121518719521 114.62390073753431 l 33.973479690125274 32.965145048100844 a68.33812533569197,68.33812533569197 0 0,0 -0.8264336950061333,0.8371729698165495 l -33.40100537006361 -33.545058511898056" fill="red" stroke="none" /><path d="M 114.81725581225074 114.88116024355365 l 31.131154986068776 31.26541862978226 a65.12114247004683,65.12114247004683 0 0,0 -0.8011452504037756,0.7840892462436128 l -30.588359783289206 -31.796657978948446" fill="red" stroke="none" /><path d="M 114.29624159901734 115.38237550388516 l 10.851338637435699 11.675751594204083 a36.93972162598406,36.93972162598406 0 0,0 -0.4694870640258941,0.4288653015568069 l -10.64875202394294 -11.860809662347473" fill="red" stroke="none" /><path d="M 114.0293411484842 115.62618273729858 l 28.560302396171696 31.811080759362987 a63.750856506501535,63.750856506501535 0 0,0 -0.8228646268972409,0.726082360407175 l -28.008495416367868 -32.29798626154245" fill="red" stroke="none" /><path d="M 113.75828350139079 115.86535959552629 l 3.9004246439368986 4.497773253840569 a26.953425622781715,26.953425622781715 0 0,0 -0.3531341863495262,0.3009486146896282 l -3.822424981010325 -4.564246258753144" fill="red" stroke="none" /><path d="M 113.48314897796784 116.09983520530334 l 22.46759400041659 26.827899139692494 a55.993270101793414,55.993270101793414 0 0,0 -0.7442568707559993,0.6124727358823983 l -22.0024670011159 -27.21066699443207" fill="red" stroke="none" /><path d="M 113.20401910651253 116.32954008644616 l 22.109133439696834 27.342582426440703 a56.16291505551018,56.16291505551018 0 0,0 -0.7569758235054301,0.6013873755521504 l -21.635200123474053 -27.719103715997978" fill="red" stroke="none" /><path d="M 112.92097659922987 116.55440617244103 l 26.993609748361386 34.584319258141235 a64.87174609923646,64.87174609923646 0 0,0 -0.8861828708731049,0.6794872366093191 l -26.394298148994785 -35.04384583657793" fill="red" stroke="none" /><path d="M 112.63410532772338 116.77436683061366 l 4.798509515973095 6.371005842772051 a28.975926844168015,28.975926844168015 0 0,0 -0.400992373188924,0.29664457131144684 l -4.688132172365607 -6.452660362823266" fill="red" stroke="none" /><path d="M 112.34349029814194 116.9893568818739 l 4.978869218500547 6.852825576734592 a29.470558250793157,29.470558250793157 0 0,0 -0.41297047267838116,0.2946434672099148 l -4.860171417973281 -6.937513305788726" fill="red" stroke="none" /><path d="M 112.04921762599082 117.19931262002967 l 12.08005320596616 17.24332799067679 a42.053741844456795,42.053741844456795 0 0,0 -0.5964484516294298,0.41024268373806816 l -11.781447869713846 -17.448711463779954" fill="red" stroke="none" /><path d="M 111.1453310114006 117.79835938074945 l 4.05798925391854 6.480341501798532 a28.646051449267837,28.646051449267837 0 0,0 -0.4201704612468441,0.25810301495376803 l -3.945839592739387 -6.549232983580677" fill="red" stroke="none" /><line stroke="#e1ed5e" stroke-width="0.3" x1="143.8653032363475" x2="146.44561519142675" y1="172.8068346515853" y2="177.08958963109032" /><path d="M 144.38136562736335 173.6633856474863 a86.0,86.0 0 0,1 -40.68145358897372,12.25698825130547" fill="none" id="id78" stroke="none" /><text fill="#e1ed5e" style="font-size:6.75px; font-family:Arial;" text-anchor="middle"><textPath startOffset="21.466115282336833" xlink:href="#id78">June</textPath></text><path d="M 109.89434966115114 118.52300852407294 l 4.525968216226892 8.472972021397139 a30.606021193484573,30.606021193484573 0 0,0 -0.46682795360666623,0.2442223216753582 l -4.379449360093731 -8.549623762017214" fill="red" stroke="none" /><path d="M 109.57404056367764 118.69057910512821 l 2.7916900883241507 5.449977372226828 a27.123380349695072,27.123380349695072 0 0,0 -0.4173721128780078,0.2092790418999667 l -2.697464067763382 -5.497224255036096" fill="red" stroke="none" /><path d="M 108.92500713936063 119.00905698771935 l 7.43734312885934 15.840534037246508 a38.49961689299387,38.49961689299387 0 0,0 -0.602302680954371,0.2764876197451508 l -7.16357245213755 -15.966208727325734" fill="red" stroke="none" /><path d="M 108.59647513512805 119.15986991738527 l 6.750470178874901 15.045484163609467 a37.490465164855195,37.490465164855195 0 0,0 -0.5910627577879639,0.25910454328095 l -6.490486746429183 -15.159453260184872" fill="red" stroke="none" /><path d="M 108.2653958097858 119.30500536409082 l 6.433563209748547 15.026500258749461 a37.345838785453246,37.345838785453246 0 0,0 -0.5931382430454919,0.2479318336979515 l -6.173953507205594 -15.135017135467386" fill="red" stroke="none" /><path d="M 107.93186726928326 119.44442032107085 l 2.998555121513223 7.350749093393659 a28.938818870007104,28.938818870007104 0 0,0 -0.4628542544132058,0.18417926005417376 l -2.871579791058151 -7.401275197853901" fill="red" stroke="none" /><path d="M 107.59598834532513 119.57807347666477 l 4.561790164687418 11.757661935374419 a33.61160353377759,33.61160353377759 0 0,0 -0.5411944801318754,0.20463344421502924 l -4.358725463795268 -11.834443629696079" fill="red" stroke="none" /><path d="M 103.7750983002368 120.6578951692458 l 1.5400754359056126 8.427520127270052 a29.567083975532263,29.567083975532263 0 0,0 -0.5014451127837184,0.08718266041684464 l -1.3947813516498442 -8.452781366207903" fill="red" stroke="none" /><path d="M 103.06178313531738 120.77559828337769 l 4.456926276565355 30.2422822937634 a51.56893570555596,51.56893570555596 0 0,0 -0.8793029266230563,0.12186337340344075 l -3.935694758755468 -30.314520232659444" fill="red" stroke="none" /><path d="M 102.70371172650421 120.8252237178851 l 1.1401722722059793 8.782128069666431 a29.85583232916762,29.85583232916762 0 0,0 -0.5102114040435378,0.061779495634693024 l -0.9888334451110611 -8.800453094026475" fill="red" stroke="none" /><path d="M 102.34483914955558 120.86867818915974 l 1.2190011293649308 10.848907178029847 a31.91717686542178,31.91717686542178 0 0,0 -0.5464941147228305,0.05664634947064415 l -1.0320744180364978 -10.868282895956249" fill="red" stroke="none" /><path d="M 101.98527174616119 120.90594882070398 l 1.6628371785252822 17.510544346703668 a38.589320362087946,38.589320362087946 0 0,0 -0.6618172858522858,0.05710438020524201 l -1.3611755749314547 -17.53657297918757" fill="red" stroke="none" /><path d="M 101.62511606390274 120.93702456842531 l 1.9821287236001561 25.536562406586278 a46.61337255853661,46.61337255853661 0 0,0 -0.8005008566806577,0.05520722586714142 l -1.542265106140568 -25.566897976969706" fill="red" stroke="none" /><path d="M 101.26447882468166 120.96189622390904 l 1.269804538736314 21.050183242364966 a42.08844750340191,42.08844750340191 0 0,0 -0.723544368127666,0.03739897921392385 l -0.9072721021951684 -21.068922028341092" fill="red" stroke="none" /><path d="M 100.90346689309514 120.98055641714683 l 1.8207411250354941 42.281750650495376 a63.320934965039015,63.320934965039015 0 0,0 -1.0893602436095957,0.037519769410389835 l -1.0926605297512462 -42.30682721833186" fill="red" stroke="none" /><line stroke="#e1ed5e" stroke-width="0.3" x1="102.19456741930631" x2="102.32365962044197" y1="184.97166512339345" y2="189.96999836594603" /><path d="M 102.22038585953345 185.97133177190398 a86.0,86.0 0 0,1 -42.740103519485714,-10.115201625700543" fill="none" id="id79" stroke="none" /><text fill="#e1ed5e" style="font-size:6.75px; font-family:Arial;" text-anchor="middle"><textPath startOffset="22.20632615414155" xlink:href="#id79">July</textPath></text><path d="M 100.18074693466247 120.99922214144158 l 0.16769717318551614 19.483097728825808 a40.4838194267159,40.4838194267159 0 0,0 -0.6968882156959297,0.0 l 0.1676971731855027 -19.483097728825808" fill="red" stroke="none" /><path d="M 99.81925306533755 120.99922214144158 l -0.07629431251490909 8.86389149349152 a29.864219832027715,29.864219832027715 0 0,0 -0.514006327485792,-0.008849085068807768 l 0.22886032989336907 -8.861264931143552" fill="red" stroke="none" /><path d="M 99.09653310690486 120.98055641714683 l -1.2761017085648318 29.633984482641825 a50.66144756899195,50.66144756899195 0 0,0 -0.8709231925643115,-0.045016781016379376 l 1.7860129695426323 -29.607627894863246" fill="red" stroke="none" /><path d="M 98.73552117531835 120.96189622390904 l -1.249926181687983 20.720649801855576 a41.758315048934165,41.758315048934165 0 0,0 -0.7171239739891083,-0.04945706787988168 l 1.6064129164560215 -20.69606438945941" fill="red" stroke="none" /><path d="M 98.37488393609728 120.93702456842531 l -2.283176820236424 29.41508624593275 a50.50356241622572,50.50356241622572 0 0,0 -0.8661497608808766,-0.07473504593692412 l 2.7891708988588424 -29.37142694771716" fill="red" stroke="none" /><path d="M 98.01472825383883 120.90594882070398 l -2.4719111667496363 26.030516195740514 a47.147621655382174,47.147621655382174 0 0,0 -0.8072737092784603,-0.08367722070975929 l 2.91961747263369 -25.984109606574997" fill="red" stroke="none" /><path d="M 97.65516085044442 120.86867818915974 l -2.381380060265172 21.19388621312239 a42.327254483552444,42.327254483552444 0 0,0 -0.7233376615081952,-0.0875861173376376 l 2.7458451448247567 -21.149754567059404" fill="red" stroke="none" /><path d="M 97.2962882734958 120.8252237178851 l -2.0825338161790903 16.040627481416244 a37.17524890359019,37.17524890359019 0 0,0 -0.6338758927566073,-0.08784942284577267 l 2.3583383001225284 -16.002403493077868" fill="red" stroke="none" /><path d="M 96.93821686468263 120.77559828337769 l -1.5595587091983862 10.582318802370139 a31.696620709477976,31.696620709477976 0 0,0 -0.5390902934394806,-0.084194816883403 l 1.741484866246384 -10.553905678139632" fill="red" stroke="none" /><path d="M 96.58105272829116 120.7198165907248 l -3.1130426524663286 18.8659454715623 a40.121059936416614,40.121059936416614 0 0,0 -0.6804360362850622,-0.11830252678603935 l 3.4373276602234406 -18.809564366255252" fill="red" stroke="none" /><path d="M 96.22490169976321 120.6578951692458 l -3.7624030222529226 20.588424734073605 a41.92937910050061,41.92937910050061 0 0,0 -0.7088708324561166,-0.13585678216701186 l 4.116241469280734 -20.520610753558127" fill="red" stroke="none" /><path d="M 94.11515582081647 120.15858648285463 l -3.6474855223285036 12.494494349894689 a34.01601089793437,34.01601089793437 0 0,0 -0.5606567924518291,-0.1689212924279382 l 3.8620172892205784 -12.429857688361025" fill="red" stroke="none" /><line stroke="#e1ed5e" stroke-width="0.3" x1="58.666819895761336" x2="56.23545636021788" y1="174.27360380694188" y2="178.64263932499728" /><path d="M 58.180547188652646 175.14741091055294 a86.0,86.0 0 0,1 -31.652253787137756,-30.449443065178592" fill="none" id="id80" stroke="none" /><text fill="#e1ed5e" style="font-size:6.75px; font-family:Arial;" text-anchor="middle"><textPath startOffset="22.20632615414155" xlink:href="#id80">August</textPath></text><path d="M 88.24862548938628 117.40417183066458 l -4.521401810692071 6.696344666548554 a29.07985805735118,29.07985805735118 0 0,0 -0.41243978659645497,-0.28367984604779994 l 4.635998481911418 -6.617524031135651" fill="red" stroke="none" /><path d="M 87.95078237400918 117.19931262002967 l -28.237297995407634 40.30652701635612 a70.21342416660009,70.21342416660009 0 0,0 -0.9838996166850054,-0.7019862523496961 l 28.926924939941525 -39.81449650216221" fill="red" stroke="none" /><path d="M 87.65650970185807 116.9893568818739 l -4.858779600360183 6.687536397489911 a29.266249589301584,29.266249589301584 0 0,0 -0.40501009476821714,-0.29961678568565053 l 4.973174665546964 -6.602909663064492" fill="red" stroke="none" /><path d="M 86.79598089348748 116.32954008644616 l -3.469218910580538 4.29041709285626 a26.517531937397624,26.517531937397624 0 0,0 -0.35246834671418614,-0.29005745342289696 l 3.542557385839413 -4.230064520576183" fill="red" stroke="none" /><path d="M 86.51685102203217 116.09983520530335 l -6.977968451637021 8.33218874335201 a31.868183517353923,31.868183517353923 0 0,0 -0.41752559449533677,-0.3558243696532594 l 7.120359522709414 -8.2108399834758" fill="red" stroke="none" /><path d="M 86.24171649860922 115.8653595955263 l -8.607170607000457 9.925355642388283 a34.13758236837743,34.13758236837743 0 0,0 -0.4406310835347592,-0.38880569992182007 l 8.776744043441804 -9.775726800694173" fill="red" stroke="none" /><path d="M 85.97065885151581 115.62618273729859 l -10.917236603838909 12.159853577752921 a37.34160622755886,37.34160622755886 0 0,0 -0.4745948345603181,-0.43353112883592976 l 11.124930987866083 -11.970129682330413" fill="red" stroke="none" /><path d="M 85.70375840098266 115.38237550388516 l -16.717948866285973 17.988068076132564 a45.5572882747125,45.5572882747125 0 0,0 -0.5698222434330706,-0.5388024976771154 l 17.025106944109858 -17.69763094170952" fill="red" stroke="none" /><path d="M 85.44109423537348 115.13401014063109 l -8.60213237517946 8.941932910461187 a33.40785418899253,33.40785418899253 0 0,0 -0.41099622479755915,-0.40224630920307064 l 8.754778552352814 -8.792536498335544" fill="red" stroke="none" /><path d="M 85.18274418774928 114.88116024355367 l -12.985385301568877 13.041389171209852 a39.403751328062185,39.403751328062185 0 0,0 -0.4765215265591369,-0.4827137905698142 l 13.207947453183547 -12.815934886659376" fill="red" stroke="none" /><path d="M 84.9287848128048 114.62390073753433 l -7.790464944077853 7.559243539846083 a31.855114321812124,31.855114321812124 0 0,0 -0.37845915849364137,-0.39681291462080615 l 7.919430653950452 -7.424023508642776" fill="red" stroke="none" /><path d="M 84.67929136418377 114.36230785411682 l -4.327870668014044 4.0571368051154355 a26.932185396165448,26.932185396165448 0 0,0 -0.3141493120626523,-0.3409470330013434 l 4.3970663880724254 -3.98203851731275" fill="red" stroke="none" /><path d="M 84.43433777217949 114.09645910891817 l -10.316176347266087 9.342458798811222 a34.91779547325572,34.91779547325572 0 0,0 -0.3996277681803012,-0.44898603397545195 l 10.475462965094726 -9.163498595094904" fill="red" stroke="none" /><path d="M 84.19399662182784 113.82643327865904 l -13.403298384093624 11.724647046295875 a38.807744268527145,38.807744268527145 0 0,0 -0.4354921725495286,-0.5065757825660074 l 13.603133066213932 -11.492194164568337" fill="red" stroke="none" /><path d="M 83.72743513129214 113.27417163493432 l -9.856500589906647 8.04033547298076 a33.719968490405265,33.719968490405265 0 0,0 -0.36302289913119623,-0.4529268839886398 l 9.993441401092703 -7.86948075541386" fill="red" stroke="none" /><path d="M 83.50135304334701 112.99209946851258 l -8.639270029327303 6.803118816425057 a31.996336311246107,31.996336311246107 0 0,0 -0.33701768885931493,-0.4356407932923075 l 8.755094535404687 -6.653400029019497" fill="red" stroke="none" /><path d="M 83.06392112726016 112.41649034213515 l -11.595259273278177 8.500930224938205 a35.37761636377225,35.37761636377225 0 0,0 -0.3558317844577181,-0.4942192266844094 l 11.739870850111503 -8.300077392802654" fill="red" stroke="none" /><path d="M 82.85270091963577 112.12312394758628 l -9.040032695478327 6.391294415749374 a32.07117136729923,32.07117136729923 0 0,0 -0.314815341519185,-0.4535149794960608 l 9.148708944159644 -6.234738174066303" fill="red" stroke="none" /><path d="M 82.64656182679789 111.8261652097733 l -4.639032138376746 3.161446160370191 a26.613854380531414,26.613854380531414 0 0,0 -0.25472867064465626,-0.38078480057387326 l 4.692763914432135 -3.0811244455904947" fill="red" stroke="none" /><path d="M 82.24976979558568 111.22182372390057 l -9.407225645901486 5.947315990471479 a32.12953107023941,32.12953107023941 0 0,0 -0.29151484665560345,-0.4700147531567274 l 9.508205132225045 -5.784504905949487" fill="red" stroke="none" /><path d="M 82.05923443525364 110.91462005526583 l -15.789069238682309 9.605592980108652 a39.48139940381725,39.48139940381725 0 0,0 -0.3482242963706372,-0.5836439505412937 l 15.952074410751178 -9.332386935681248" fill="red" stroke="none" /><line stroke="#e1ed5e" stroke-width="0.3" x1="26.63291911575756" x2="22.317208475507996" y1="142.92168965132927" y2="145.44649492493687" /><path d="M 25.769776987707644 143.4266507060508 a86.0,86.0 0 0,1 -11.730757126820373,-40.83630448921669" fill="none" id="id81" stroke="none" /><text fill="#e1ed5e" style="font-size:6.75px; font-family:Arial;" text-anchor="middle"><textPath startOffset="21.46611528233685" xlink:href="#id81">September</textPath></text><path d="M 81.87401531095188 110.60418214915194 l -14.668700812650275 8.5815793170531 a37.99453697827394,37.99453697827394 0 0,0 -0.3253924586979689,-0.5673491791518761 l 14.81424526750062 -8.327810292042917" fill="red" stroke="none" /><path d="M 81.69416730710424 110.29060199501025 l -23.584333110056207 13.257904703101433 a48.055365555885814,48.055365555885814 0 0,0 -0.3991423526370195,-0.724559308769679 l 23.809051872144746 -12.849974875933931" fill="red" stroke="none" /><path d="M 81.51974371655577 109.97397251340807 l -11.154428880502099 6.020152824209549 a33.675311581062516,33.675311581062516 0 0,0 -0.270921877445998,-0.5124820925525649 l 11.256403266172985 -5.827255716570858" fill="red" stroke="none" /><path d="M 81.35079622478065 109.6543875284942 l -24.430857895320113 12.647455227466848 a48.51045149088076,48.51045149088076 0 0,0 -0.37750678628135786,-0.7448567034112215 l 24.644943351387738 -12.225044312352939" fill="red" stroke="none" /><path d="M 81.18737489456691 109.33194174019688 l -16.987432857316914 8.426561038214995 a39.96258964415497,39.96258964415497 0 0,0 -0.3003792682177247,-0.6188702619288848 l 17.129965382149358 -8.132901820320827" fill="red" stroke="none" /><path d="M 81.02952815118164 109.00673069616217 l -10.799207371894683 5.127207868407504 a32.954544758669996,32.954544758669996 0 0,0 -0.23888181917893436,-0.5145301865871238 l 10.885863807913443 -4.940557614541554" fill="red" stroke="none" /><path d="M 80.87730276802145 108.67885076344099 l -11.055038451450288 5.017337655892587 a33.140327520964256,33.140327520964256 0 0,0 -0.23128621205345876,-0.5214893504037872 l 11.139765748235028 -4.826299968996104" fill="red" stroke="none" /><path d="M 80.73074385275274 108.34839909993369 l -25.93196796772462 11.235016878022485 a49.26114942688188,49.26114942688188 0 0,0 -0.33039926486264193,-0.7809662637702323 l 26.12151821377957 -10.786976088586092" fill="red" stroke="none" /><path d="M 80.58989483394504 108.01547362559985 l -10.594859462017252 4.375185804415535 a32.462691561891376,32.462691561891376 0 0,0 -0.20883927448477532,-0.5183219524869622 l 10.668601350759417 -4.192164484085768" fill="red" stroke="none" /><path d="M 80.45479744820244 107.68017299344265 l -10.210239140042788 4.012053735034628 a31.97021232564197,31.97021232564197 0 0,0 -0.19685387315788264,-0.5139233449750872 l 10.277787292794182 -3.8357068232263827" fill="red" stroke="none" /><path d="M 80.32549172779595 107.34259656027581 l -31.803271492802907 11.869094192228685 a54.9458903932262,54.9458903932262 0 0,0 -0.3230706867156988,-0.8889517765028108 l 32.002866440523825 -11.319894618719758" fill="red" stroke="none" /><path d="M 80.20201598880116 107.00284435728193 l -36.27024144515892 12.829329263919536 a59.47235505986326,59.47235505986326 0 0,0 -0.33307115525903813,-0.9680606843346017 l 36.48570343136119 -12.203095876495638" fill="red" stroke="none" /><path d="M 80.0844068197444 106.66101706037122 l -15.398257905621612 5.150138270098227 a37.23669519111475,37.23669519111475 0 0,0 -0.19807749520921344,-0.609619846090309 l 15.484627651847074 -4.884319524030114" fill="red" stroke="none" /><path d="M 79.97269907076064 106.31721596034903 l -16.227798424570782 5.118738045192938 a38.01596076875495,38.01596076875495 0 0,0 -0.19147956508531147,-0.6257662976322906 l 16.313504762162225 -4.8386447750086" fill="red" stroke="none" /><path d="M 79.86692584326677 105.97154293290107 l -15.605607453975313 4.6286798618008715 a37.277581554721536,37.277581554721536 0 0,0 -0.17717033896380768,-0.6167531924978933 l 15.682970429825225 -4.359369193798382" fill="red" stroke="none" /><path d="M 79.67330655649465 105.27499134158121 l -52.0393688931335 13.504765105823868 a74.76313416607246,74.76313416607246 0 0,0 -0.312540823220073,-1.2484452281637763 l 52.26412103064863 -12.6069920382627" fill="red" stroke="none" /><path d="M 79.58551787078972 104.9243191809786 l -18.306154395926406 4.415754788745324 a39.83120227499622,39.83120227499622 0 0,0 -0.15503713963160834,-0.6678959398340449 l 18.379452101488567 -4.099990191562704" fill="red" stroke="none" /><path d="M 79.4281124754447 104.21870165774334 l -16.708967609066203 3.426528035767646 a38.05669056237831,38.05669056237831 0 0,0 -0.12607650062614195,-0.6428613604869627 l 16.76547404266801 -3.138402948212728" fill="red" stroke="none" /><path d="M 79.29508885075956 103.50808413554451 l -19.035063473304948 3.2251577274811716 a40.30635345682555,40.30635345682555 0 0,0 -0.11001378420185544,-0.6850559392413226 l 19.087759011868094 -2.8970225585466354" fill="red" stroke="none" /><path d="M 79.23777060512086 103.15116336523772 l -10.893360659820459 1.6533272214020769 a32.018112241484616,32.018112241484616 0 0,0 -0.07801129035679089,-0.5456107830597636 l 10.920206001193849 -1.4655709663619128" fill="red" stroke="none" /><path d="M 79.18660465613746 102.79330883721812 l -5.343164857557032 0.7170915349824695 a26.391069556644208,26.391069556644208 0 0,0 -0.056550395210021066,-0.4507622902540166 l 5.354716762013902 -0.6250114904410442" fill="red" stroke="none" /><path d="M 79.1416061653843 102.43462659150553 l -7.21084257359801 0.8416615975342838 a28.25979647552034,28.25979647552034 0 0,0 -0.05223715520135167,-0.4836511807661658 l 7.224262030300414 -0.717414094883336" fill="red" stroke="none" /><path d="M 79.10278846688536 102.07522291339032 l -12.698722843226655 1.261062059562221 a33.761184873167295,33.761184873167295 0 0,0 -0.052451061269113336,-0.5787930904282306 l 12.718548500772844 -1.0422875805854244" fill="red" stroke="none" /><path d="M 79.07016306316243 101.71520430193888 l -26.797598888251166 2.1960685615215247 a47.887432441616724,47.887432441616724 0 0,0 -0.060254798182698285,-0.8221288485428261 l 26.8314302450982 -1.7344665764819382" fill="red" stroke="none" /><path d="M 79.04373962182676 101.35467743843564 l -11.574895290106458 0.7482370050189764 a32.59905425423161,32.59905425423161 0 0,0 -0.031378373528255094,-0.5602819381460841 l 11.586060014522245 -0.5488833505374547" fill="red" stroke="none" /><path d="M 79.0235259727143 100.99374915477108 l -12.520044351983833 0.5931303552873745 a33.53408609328999,33.53408609328999 0 0,0 -0.022352651528107902,-0.5768226141660884 l 12.528399136363142 -0.3775304941072892" fill="red" stroke="none" /><line stroke="#e1ed5e" stroke-width="0.3" x1="15.007084014347285" x2="10.007500721073583" y1="101.09737516637583" y2="101.16192664675087" /><path d="M 14.007167355692545 101.11028546245083 a86.0,86.0 0 0,1 10.666146001902534,-42.60595125391555" fill="none" id="id82" stroke="none" /><text fill="#e1ed5e" style="font-size:6.75px; font-family:Arial;" text-anchor="middle"><textPath startOffset="22.20632615414155" xlink:href="#id82">October</textPath></text><path d="M 79.08570108090925 98.10471618934814 l -5.625059381712642 -0.5097509613570536 a26.64810933768087,26.64810933768087 0 0,0 0.04533081241315249,-0.4564750947251222 l 5.615451443617261 0.606501586786606" fill="red" stroke="none" /><path d="M 79.26566170972629 96.67025291283419 l -34.425090805826315 -5.528358042170514 a55.86616726329149,55.86616726329149 0 0,0 0.16065018309666806,-0.9481664745220064 l 34.324828761209424 6.120110305008348" fill="red" stroke="none" /><path d="M 79.32604984820605 96.31383870115002 l -16.093031432327855 -2.869384380414391 a37.3468353941813,37.3468353941813 0 0,0 0.11829036764292986,-0.6319118739499684 l 16.041255340775063 3.145974331826932" fill="red" stroke="none" /><path d="M 79.3925641242962 95.95851677861259 l -11.733472516135901 -2.3011418105870494 a32.95699088062496,32.95699088062496 0 0,0 0.11396951820352798,-0.5557558462109543 l 11.692123702017378 2.5027733129614065" fill="red" stroke="none" /><path d="M 79.46518482838121 95.60439243477599 l -15.689509230717157 -3.3584390652080853 a37.04493106421697,37.04493106421697 0 0,0 0.13884019085125984,-0.6223933517606004 l 15.62937465286386 3.628010586518645" fill="red" stroke="none" /><path d="M 79.54389044137918 95.25157060432595 l -10.504364620874332 -2.4383538622385563 a31.78365641356261,31.78365641356261 0 0,0 0.12829578817381415,-0.5318688693137825 l 10.460836032439703 2.6188079632117356" fill="red" stroke="none" /><path d="M 79.81627453868168 94.20196356495316 l -15.42126112599682 -4.429956900387854 a37.04493106421697,37.04493106421697 0 0,0 0.1813333550145163,-0.6113659274694216 l 15.342721873870595 4.694752214603815" fill="red" stroke="none" /><path d="M 79.91906864156998 93.8553929516997 l -10.770500426276788 -3.2956884146331724 a32.26344714369343,32.26344714369343 0 0,0 0.16707014055290798,-0.5296580015856421 l 10.712174801955676 3.480596582645229" fill="red" stroke="none" /><path d="M 80.2630227832202 92.82701384747504 l -10.29728859453551 -3.74233134516469 a31.956240061999065,31.956240061999065 0 0,0 0.19233914821795933,-0.5153732922159584 l 10.231344857815925 3.9190277744099897" fill="red" stroke="none" /><path d="M 80.38941819471856 92.48833698450439 l -10.01337612137127 -3.8355367432747136 a31.722828146392104,31.722828146392104 0 0,0 0.1997124998546511,-0.5082465284463956 l 9.945870071634927 4.007332276616872" fill="red" stroke="none" /><path d="M 80.95270993114464 91.15688171328213 l -24.561935743660023 -11.403412367153713 a48.08000186652575,48.08000186652575 0 0,0 0.3549719204513386,-0.747661393596731 l 24.362005629366934 11.824516176390976" fill="red" stroke="none" /><path d="M 81.10775173730289 90.83032412892265 l -12.559995480908297 -6.096208661916192 a34.96127667980471,34.96127667980471 0 0,0 0.26743709680838,-0.539136867932839 l 12.453198371146504 6.311505118347992" fill="red" stroke="none" /><path d="M 81.43458229118936 90.18545643968196 l -9.633010624051428 -5.092457593447597 a31.896238709947106,31.896238709947106 0 0,0 0.2607774215186751,-0.4831809568476711 l 9.543925103314281 5.257519533627741" fill="red" stroke="none" /><path d="M 81.6062741919709 89.86733742301443 l -26.34016460381256 -14.51016520188573 a51.07239873275751,51.07239873275751 0 0,0 0.4308135798273457,-0.7663692870417954 l 26.086493382692787 14.961417998862311" fill="red" stroke="none" /><line stroke="#e1ed5e" stroke-width="0.3" x1="26.266209847984257" x2="21.92892807433627" y1="57.711370442889674" y2="55.22380399835377" /><path d="M 25.39875349325466 57.213857153982495 a86.0,86.0 0 0,1 29.58750427330802,-30.492523968695096" fill="none" id="id83" stroke="none" /><text fill="#e1ed5e" style="font-size:6.75px; font-family:Arial;" text-anchor="middle"><textPath startOffset="21.46611528233685" xlink:href="#id83">November</textPath></text><path d="M 82.7489923806493 88.02491185347247 l -14.106933015186252 -9.792573863599795 a38.172654482316055,38.172654482316055 0 0,0 0.3793405361450611,-0.5365502864367028 l 13.936279859237313 10.033950650368284" fill="red" stroke="none" /><path d="M 82.95767976084542 87.72973835380427 l -18.90474429800163 -13.611184136650987 a44.29492843033961,44.29492843033961 0 0,0 0.45083248959983224,-0.6149350091584276 l 18.667649195888167 13.934581589480915" fill="red" stroke="none" /><path d="M 83.17141714833178 87.43820079747576 l -4.8163542310136 -3.595197246940095 a27.010217244244025,27.010217244244025 0 0,0 0.2813230652899892,-0.37018817760258355 l 4.753755225499499 3.677570200423705" fill="red" stroke="none" /><path d="M 83.6137871275137 86.86637796730984 l -9.90229347335623 -7.936731979980818 a33.69043460857522,33.69043460857522 0 0,0 0.36658643384100614,-0.44939162222122153 l 9.76420854743883 8.106007771810123" fill="red" stroke="none" /><path d="M 84.31358615837235 86.03803664274997 l -17.208367497480715 -15.316604474652047 a44.037497358899074,44.037497358899074 0 0,0 0.5088561326424278,-0.5618916510924378 l 16.942167724222244 15.610548913014044" fill="red" stroke="none" /><path d="M 84.5562425177563 85.77008943001954 l -9.937169765594406 -9.156129086182625 a34.512292284919056,34.512292284919056 0 0,0 0.40631268793042435,-0.4334260461512797 l 9.778089755693525 9.325824549211955" fill="red" stroke="none" /><path d="M 84.80347519578584 85.50635884689758 l -13.742686484785212 -13.107047101639456 a39.990948252883356,39.990948252883356 0 0,0 0.4793881335071468,-0.4940516109857224 l 13.515034087574946 13.341662908175302" fill="red" stroke="none" /><path d="M 85.05521093208273 85.24692304244772 l -7.729381734118071 -7.630229041006769 a31.861111232739546,31.861111232739546 0 0,0 0.3886512411769026,-0.3869822492343278 l 7.596894692773856 7.762147140891208" fill="red" stroke="none" /><path d="M 85.31137513191541 84.99185889309783 l -8.958511768121335 -9.153382970242687 a33.80778485529396,33.80778485529396 0 0,0 0.4194044976738132,-0.40346679446845973 l 8.799624026835096 9.306232851473458" fill="red" stroke="none" /><path d="M 85.83668400450813 84.49514656593479 l -7.748864216828723 -8.482830150837811 a32.48926908113879,32.48926908113879 0 0,0 0.41615506685067927,-0.3736281279741257 l 7.601698162382073 8.614957287581216" fill="red" stroke="none" /><path d="M 86.10567301691215 84.25364557470407 l -7.146709276151123 -8.099321210289837 a31.801595138926256,31.801595138926256 0 0,0 0.4135815640650182,-0.358653856856774 l 7.006233913439331 8.221140060566292" fill="red" stroke="none" /><path d="M 86.65592168130627 83.78471172551755 l -8.045512510781418 -9.776644108534182 a33.66147864927618,33.66147864927618 0 0,0 0.45057748798119823,-0.3643356597168571 l 7.876031624235719 9.913685865515173" fill="red" stroke="none" /><path d="M 86.93701828274178 83.55741782278169 l -8.900504653633773 -11.203206308766385 a35.308417616429125,35.308417616429125 0 0,0 0.4791309309294157,-0.37396929143930185 l 8.706341167544931 11.354753989428907" fill="red" stroke="none" /><path d="M 87.51073957382395 83.11751280151077 l -7.519356715370349 -10.164368357797313 a33.64338204461039,33.64338204461039 0 0,0 0.46853165012596737,-0.3404081695330473 l 7.343279748890597 10.29229576214703" fill="red" stroke="none" /><path d="M 88.09926311788651 82.69761687909137 l -6.7282633337694655 -9.782166524008279 a32.87267069331811,32.87267069331811 0 0,0 0.46897608676370633,-0.31665474724700116 l 6.558882552599219 9.896533183553945" fill="red" stroke="none" /><path d="M 88.70189139769569 82.29822771554957 l -6.743598129209858 -10.565807310152062 a33.53444852570489,33.53444852570489 0 0,0 0.4892529887635655,-0.3063701766795906 l 6.560725988074051 10.680321828154582" fill="red" stroke="none" /><path d="M 89.00827224532344 82.1063720568725 l -6.561449062700286 -10.68149893412243 a33.53582997978471,33.53582997978471 0 0,0 0.49447452869603586,-0.29791537082610103 l 6.376612467786602 10.79286091440715" fill="red" stroke="none" /><line stroke="#e1ed5e" stroke-width="0.3" x1="56.762969772571076" x2="54.21961505331055" y1="26.818313649435495" y2="22.513508569990535" /><path d="M 56.25429882871897 25.957352633546506 a86.0,86.0 0 0,1 42.265352541879196,-11.944610805530505" fill="none" id="id84" stroke="none" /><text fill="#e1ed5e" style="font-size:6.75px; font-family:Arial;" text-anchor="middle"><textPath startOffset="22.20632615414155" xlink:href="#id84">December</textPath></text><path d="M 89.94658935756843 81.56283822128135 l -5.964908456990282 -10.939171404439666 a33.45975938435348,33.45975938435348 0 0,0 0.5080385724605776,-0.2713766109184784 l 5.775724838001399 11.040226741859895" fill="red" stroke="none" /><path d="M 90.91171255644093 81.06846463323043 l -5.398900919083649 -11.246286423714887 a33.47505869558601,33.47505869558601 0 0,0 0.5216080277723928,-0.24490196303919623 l 5.204514680011648 11.33755336939409" fill="red" stroke="none" /><path d="M 91.23893434514133 80.91482961587045 l -4.667129181496941 -10.166908814821463 a32.18696248521799,32.18696248521799 0 0,0 0.5055159895173336,-0.226810289059021 l 4.4914310735128335 10.245739434397013" fill="red" stroke="none" /><path d="M 91.90106846888425 80.62456947434976 l -2.5734250392946647 -6.156518038244649 a27.672722891601335,27.672722891601335 0 0,0 0.4410717487728496,-0.17992424097650903 l 2.4670694209334347 6.199903165404735" fill="red" stroke="none" /><path d="M 92.57280143429618 80.3572730644239 l -7.447216514122798 -19.695668443888575 a42.05659966043453,42.05659966043453 0 0,0 0.6793496153679426,-0.2502101966072582 l 7.107084572982287 19.820941908302157" fill="red" stroke="none" /><path d="M 92.91201910852362 80.23233633223022 l -7.068079369384154 -19.71216033032866 a41.941036527844005,41.941036527844005 0 0,0 0.6816776445329649,-0.23782394508613097 l 6.7277197207879045 19.830905128587005" fill="red" stroke="none" /><path d="M 93.25333710446033 80.11325718540243 l -3.9710297053849906 -11.70517153188837 a33.360425458372376,33.360425458372376 0 0,0 0.5453908151028992,-0.17980677689336608 l 3.768956068039682 11.771792033040969" fill="red" stroke="none" /><path d="M 93.59665428221793 80.00007090966166 l -6.263048365823471 -19.5617304962905 a41.539889844936994,41.539889844936994 0 0,0 0.6828655995455861,-0.21216966579822388 l 5.925397393567155 19.66664029697125" fill="red" stroke="none" /><path d="M 93.94186890950719 79.89281104454417 l -3.097991951375753 -10.282364085278706 a31.738927568105595,31.738927568105595 0 0,0 0.5244627783381154,-0.15310506671321308 l 2.920538955314216 10.334167480910617" fill="red" stroke="none" /><path d="M 96.75951476605007 79.25152402106235 l -3.2607551401719124 -20.878261993061738 a42.13135934896484,42.13135934896484 0 0,0 0.7174990952332037,-0.10574071559460835 l 2.90088706451006 20.931297192817315" fill="red" stroke="none" /><path d="M 97.83486435360386 79.11191278185805 l -0.6994981695638699 -6.748389551989954 a27.784545617403598,27.784545617403598 0 0,0 0.4761409439485072,-0.04521531987466165 l 0.5832320985251264 6.759430416379796" fill="red" stroke="none" /><path d="M 98.19473922651362 79.07773832637324 l -0.9560258287078544 -11.079962988583992 a32.121131471821904,32.121131471821904 0 0,0 0.5512748052965191,-0.042789534815912064 l 0.7651608340490011 11.094777785588365" fill="red" stroke="none" /><path d="M 98.55514903715128 79.0497635885617 l -0.5256179635567293 -7.621423165266111 a28.639526510698712,28.639526510698712 0 0,0 0.4921060984916107,-0.0296851837444739 l 0.39434981622549564 7.6293416183908915" fill="red" stroke="none" /><path d="M 98.91598698831166 79.02799685794201 l -0.6524595615249141 -12.622896429125483 a33.639747534656465,33.639747534656465 0 0,0 0.5785382484880864,-0.024913073967433367 l 0.4350804806475036 12.632257229617109" fill="red" stroke="none" /></svg>