<?xml version="1.0" encoding="utf-8" ?>
<svg baseProfile="full" height="200mm" version="1.1" viewBox="0,0,200,200" width="200mm" xmlns="http://www.w3.org/2000/svg" xmlns:ev="http://www.w3.org/2001/xml-events" xmlns:xlink="http://www.w3.org/1999/xlink"><defs /><rect fill="#1a1a1a" height="200" width="200" x="0" y="0" /><rect fill="#1a1a1a" height="200" width="180" x="10" y="0" /><text alignment-baseline="middle" fill="#e1ed5e" style="dominant-baseline: central; font-size:9.0px; font-family:Arial;" text-anchor="middle" x="100.0" y="100.0">2020</text><line stroke="#e1ed5e" stroke-width="0.3" x1="100.0" x2="100.0" y1="15.0" y2="10.0" /><path d="M 100.0 14.0 a86.0,86.0 0 0,1 42.35913384403234,11.155469271406648" fill="none" id="id61" stroke="none" /><text fill="#e1ed5e" style="font-size:6.75px; font-family:Arial;" text-anchor="middle"><textPath startOffset="22.145653131862478" xlink:href="#id61">January</textPath></text><path d="M 100.0 79.0 l 0.0 -21.88843731731688 a42.88843731731688,42.88843731731688 0 0,0 0.7362370576531587,0.0063197096665162 l -0.3757441328043039 21.885212005844796" fill="red" stroke="none" /><path d="M 100.36049292484886 79.00309439819443 l 0.445353551061541 -25.939611644219422 a46.94343446882789,46.94343446882789 0 0,0 0.8056089892551529,0.02074962987139504 l -0.8905758543874353 25.92814429699798" fill="red" stroke="none" /><path d="M 100.72087961077811 79.0123766808444 l 0.30030151613915174 -8.742950984696098 a29.74810681927204,29.74810681927204 0 0,0 0.5102143689141134,0.02191080031848394 l -0.45034164565410145 8.736507615951783" fill="red" stroke="none" /><path d="M 101.80034050326958 79.07731436759882 l 1.9755108813380668 -22.958430951567063 a44.043267888911885,44.043267888911885 0 0,0 0.7527213369181579,0.07128349320757281 l -2.369331781641238 22.921135702854304" fill="red" stroke="none" /><path d="M 102.15924093988457 79.11130261209362 l 4.274178832054653 -41.34880297766015 a62.569124508145954,62.569124508145954 0 0,0 1.0674414752161145,0.11960904376781764 l -4.983356208871564 41.26933817338536" fill="red" stroke="none" /><path d="M 102.51750503828377 79.15144685158666 l 2.3181360346471145 -19.197491797887245 a40.33694510529203,40.33694510529203 0 0,0 0.6867310701102655,0.08891108586077029 l -2.647344926648172 19.154869115826077" fill="red" stroke="none" /><path d="M 102.87502721639298 79.19773525538626 l 1.0588183784379932 -7.661082336592079 a28.733904507204702,28.733904507204702 0 0,0 0.4880315407421994,0.0717238302000036 l -1.1901750247878746 7.641777433093193" fill="red" stroke="none" /><path d="M 103.23170211078529 79.25015418208739 l 2.5714274175455367 -16.510408638207533 a37.70945338316915,37.70945338316915 0 0,0 0.6387667102840375,0.10510881909799745 l -2.8544716308826446 16.463833820613868" fill="red" stroke="none" /><path d="M 103.94208987418118 79.37332000966035 l 2.5950652568219508 -13.57847799389236 a34.82423337179257,34.82423337179257 0 0,0 0.5862137564580385,0.11725916916537371 l -2.8277754988109463 13.531929428064128" fill="red" stroke="none" /><path d="M 104.29559338865022 79.4440306129975 l 9.022828290067551 -43.17749966858224 a65.11017918782991,65.11017918782991 0 0,0 1.0921072462198265,0.23801969128104733 l -9.762697952906512 43.016248519167476" fill="red" stroke="none" /><path d="M 104.64783097203109 79.52079915486377 l 2.0137904348274613 -8.87313222512129 a30.098781643708595,30.098781643708595 0 0,0 0.5028902233515009,0.11868072341186722 l -2.1658128119188476 8.837255358063196" fill="red" stroke="none" /><path d="M 104.9986988182912 79.60360301121754 l 11.198386382485738 -45.693237899265014 a68.04546574634234,68.04546574634234 0 0,0 1.1321297881802261,0.2877829649963157 l -11.981121463891359 45.494269702433435" fill="red" stroke="none" /><line stroke="#e1ed5e" stroke-width="0.3" x1="143.13028292997686" x2="145.6673583964461" y1="26.7553504044142" y2="22.446841604673864" /><path d="M 143.63769802327073 25.89364864446614 a86.0,86.0 0 0,1 29.32050498858742,28.57503671076993" fill="none" id="id62" stroke="none" /><text fill="#e1ed5e" style="font-size:6.75px; font-family:Arial;" text-anchor="middle"><textPath startOffset="20.669276256404974" xlink:href="#id62">February</textPath></text><line stroke="#e1ed5e" stroke-width="0.3" x1="172.87174338648825" x2="177.1583165268699" y1="56.24261187166439" y2="53.66864786411523" /><path d="M 173.72905801456457 55.72781907015455 a86.0,86.0 0 0,1 12.242430191666344,42.057860355516425" fill="none" id="id63" stroke="none" /><text fill="#e1ed5e" style="font-size:6.75px; font-family:Arial;" text-anchor="middle"><textPath startOffset="22.145653131862474" xlink:href="#id63">March</textPath></text><path d="M 119.31412917781788 91.75594674310238 l 57.94238753345363 -24.732159770692828 a84.0,84.0 0 0,0 0.5546966218540672,1.3310699622348887 l -58.358409999844184 23.733857299016663" fill="red" stroke="none" /><line stroke="#e1ed5e" stroke-width="0.3" x1="184.99686870605535" x2="189.99668451229388" y1="99.2704041080226" y2="99.22748670261217" /><path d="M 185.99683186730306 99.26182062694052 a86.0,86.0 0 0,1 -10.086455211305974,41.156179273409016" fill="none" id="id64" stroke="none" /><text fill="#e1ed5e" style="font-size:6.75px; font-family:Arial;" text-anchor="middle"><textPath startOffset="21.40746469413373" xlink:href="#id64">April</textPath></text><line stroke="#e1ed5e" stroke-width="0.3" x1="174.33088141563837" x2="178.70328620479359" y1="141.23008692659167" y2="143.65538615756765" /><path d="M 175.20536237346943 141.71514677278685 a86.0,86.0 0 0,1 -30.301960400862466,31.631185727798858" fill="none" id="id65" stroke="none" /><text fill="#e1ed5e" style="font-size:6.75px; font-family:Arial;" text-anchor="middle"><textPath startOffset="22.145653131862474" xlink:href="#id65">May</textPath></text><line stroke="#e1ed5e" stroke-width="0.3" x1="143.1302829299769" x2="145.66735839644613" y1="173.24464959558577" y2="177.55315839532614" /><path d="M 143.63769802327073 174.10635135553383 a86.0,86.0 0 0,1 -40.68552437913181,11.842963189579606" fill="none" id="id66" stroke="none" /><text fill="#e1ed5e" style="font-size:6.75px; font-family:Arial;" text-anchor="middle"><textPath startOffset="21.407464694133747" xlink:href="#id66">June</textPath></text><path d="M 108.07796709384702 119.3841803445677 l 8.556592477537801 20.532707027972585 a43.24426516482869,43.24426516482869 0 0,0 -0.687677591947246,0.27967248996418426 l -8.202860424400114 -20.67656677451606" fill="red" stroke="none" /><path d="M 107.74402155503746 119.51999308798841 l 7.95645180293838 20.05545608240739 a42.57606182707708,42.57606182707708 0 0,0 -0.6816787114311303,0.26368796970815933 l -7.6110008290137205 -20.18908394025359" fill="red" stroke="none" /><path d="M 104.64783097203109 120.47920084513623 l 1.7798589674843668 7.842387016755178 a29.04182392649234,29.04182392649234 0 0,0 -0.4871248512781058,0.10616659409400454 l -1.6449716995871253 -7.871785068982901" fill="red" stroke="none" /><path d="M 103.94208987418118 120.62667999033965 l 1.4465056322971164 7.568728703277978 a28.70571429058275,28.70571429058275 0 0,0 -0.48480570511794085,0.088347749200234 l -1.3163651936281184 -7.592444626409576" fill="red" stroke="none" /><path d="M 103.58742460773223 120.69131181640829 l 1.7047558294077878 9.832578602791676 a30.979268230585674,30.979268230585674 0 0,0 -0.5247629832653604,0.08634954920057727 l -1.5357153430893553 -9.860394150487924" fill="red" stroke="none" /><path d="M 103.2317021107853 120.74984581791261 l 3.9783310574732886 25.54373925111692 a46.85168723568943,46.85168723568943 0 0,0 -0.7957533617567275,0.11694834090625195 l -3.539252590108876 -25.608268665322058" fill="red" stroke="none" /><path d="M 102.875027216393 120.80226474461374 l 2.882920239802693 20.85937473010113 a42.05765284260916,42.05765284260916 0 0,0 -0.7160258881167262,0.09270388655439574 l -2.5244165297951913 -20.90579021285592" fill="red" stroke="none" /><path d="M 102.15924093988457 120.88869738790638 l 2.230200100188541 21.575162894886304 a42.69012324602513,42.69012324602513 0 0,0 -0.7295954224831395,0.06909344506665444 l -1.8595051143203862 -21.610268095458142" fill="red" stroke="none" /><path d="M 101.80034050326958 120.92268563240118 l 1.2094532592881468 14.055680181172793 a35.10761930808371,35.10761930808371 0 0,0 -0.6008936618548986,0.0465129697446885 l -0.9679906026580124 -14.074370917912535" fill="red" stroke="none" /><path d="M 101.44090949804482 120.95050786540614 l 0.6745919394995911 9.808418747744408 a30.831589526416458,30.831589526416458 0 0,0 -0.5283296011340237,0.031782996846088825 l -0.5061179862331022 -9.818553722415189" fill="red" stroke="none" /><path d="M 101.08105385017728 120.97215588758144 l 0.9594172418809376 18.612438182113515 a39.63714936697711,39.63714936697711 0 0,0 -0.6798228631048711,0.02919451883946846 l -0.639768618175237 -18.626165269378813" fill="red" stroke="none" /><path d="M 100.72087961077811 120.9876233191556 l 0.6322149939370392 18.406249741410665 a39.417104151894755,39.417104151894755 0 0,0 -0.6764475968680798,0.01742289057050466 l -0.31615408299821557 -18.414390349331214" fill="red" stroke="none" /><line stroke="#e1ed5e" stroke-width="0.3" x1="101.45913802915013" x2="101.54496967792366" y1="184.9874750549273" y2="189.98673829345242" /><path d="M 101.47630435890484 185.9873277026323 a86.0,86.0 0 0,1 -42.54439059252881,-10.42667462771756" fill="none" id="id67" stroke="none" /><text fill="#e1ed5e" style="font-size:6.75px; font-family:Arial;" text-anchor="middle"><textPath startOffset="22.145653131862474" xlink:href="#id67">July</textPath></text><path d="M 100.36049292484886 120.99690560180557 l 0.5386362758485835 31.372862705815017 a52.377486250424504,52.377486250424504 0 0,0 -0.899129200697432,0.007717942803921569 l -3.8426338101872456e-15 -31.377486250424504" fill="red" stroke="none" /><path d="M 100.0 121.0 l 6.337516950189616e-15 51.74975310923968 a72.74975310923968,72.74975310923968 0 0,0 -1.248846251446747,-0.010719843079372229 l 0.8883533265978886 -51.74212766435474" fill="red" stroke="none" /><path d="M 99.63950707515114 120.99690560180557 l -0.30806999603503504 17.94353281193637 a38.946177222336075,38.946177222336075 0 0,0 -0.668365892322437,-0.017214734529184192 l 0.616049202428216 -17.935600360057137" fill="red" stroke="none" /><path d="M 99.27912038922189 120.98762331915562 l -0.7577099904771434 22.0598996386239 a43.072908655087296,43.072908655087296 0 0,0 -0.7387501006455056,-0.03172510796776658 l 1.1362858517234877 -22.043641962230303" fill="red" stroke="none" /><path d="M 98.91894614982273 120.97215588758144 l -1.792330774667006 34.7707382035246 a55.816902286445064,55.816902286445064 0 0,0 -0.956477501630887,-0.05753931135495128 l 2.388952628430339 -34.734846914344956" fill="red" stroke="none" /><path d="M 98.55909050195518 120.95050786540614 l -2.103140980856807 30.579208285660094 a51.65144664388848,51.65144664388848 0 0,0 -0.8840538756440997,-0.06843136112232473 l 2.6277638512761428 -30.538599157542713" fill="red" stroke="none" /><path d="M 98.19965949673042 120.92268563240118 l -2.7670905760689433 32.15778689327258 a53.276617668666944,53.276617668666944 0 0,0 -0.9105238734597226,-0.08622755748473819 l 3.318714012913681 -32.10554758028265" fill="red" stroke="none" /><path d="M 97.84075906011543 120.88869738790638 l -5.474013091266457 52.95611103363744 a74.23828054257851,74.23828054257851 0 0,0 -1.2665195545378007,-0.14191615779295033 l 6.382268547405057 -52.85433911533752" fill="red" stroke="none" /><path d="M 97.48249496171623 120.84855314841334 l -3.9255019389953385 32.50878729725859 a53.74493574602732,53.74493574602732 0 0,0 -0.9150003090599529,-0.11846510895218232 l 4.482980069946085 -32.436610592106014" fill="red" stroke="none" /><path d="M 97.12497278360702 120.80226474461374 l -3.837674359809531 27.76749993223784 a49.031443005645784,49.031443005645784 0 0,0 -0.8327754645686442,-0.1223893150934748 l 4.31377492998586 -27.697529543845484" fill="red" stroke="none" /><path d="M 96.76829788921471 120.74984581791261 l -3.251227737551039 20.87521434848827 a42.126879937576014,42.126879937576014 0 0,0 -0.713594234284683,-0.11742165969708916 l 3.6090994748887857 -20.816326690295515" fill="red" stroke="none" /><path d="M 96.41257539226777 120.69131181640829 l -3.282716686305709 18.9338374985992 a40.2163063897803,40.2163063897803 0 0,0 -0.6792060486344644,-0.12377396760510363 l 3.6072574684912304 -18.87469535706273" fill="red" stroke="none" /><path d="M 96.05791012581884 120.62667999033965 l -6.258087478674728 32.74495810448454 a54.337605495224054,54.337605495224054 0 0,0 -0.9146921195425727,-0.18296404135536698 l 6.819276083748258 -32.63270466646631" fill="red" stroke="none" /><path d="M 95.70440661134978 120.55596938700252 l -7.779057336922133 37.22560540762806 a59.029717735154826,59.029717735154826 0 0,0 -0.9901183391754971,-0.21579168368123797 l 8.416938092716766 -37.08658226581311" fill="red" stroke="none" /><path d="M 95.35216902796893 120.47920084513623 l -7.183053164757509 31.649857606176507 a53.45473369570272,53.45473369570272 0 0,0 -0.8931212992485266,-0.21077419477943485 l 7.7253066177459235 -31.52188726775084" fill="red" stroke="none" /><path d="M 95.00130118170881 120.39639698878247 l -5.282768779670455 21.555499370321893 a43.19340440498952,43.19340440498952 0 0,0 -0.7186450888894739,-0.18267677135594637 l 5.652019161785308 -21.46163736713068" fill="red" stroke="none" /><path d="M 94.6519064749342 120.30758222061772 l -5.5429951981532435 21.04765561922388 a42.765307322254756,42.765307322254756 0 0,0 -0.7083128229249464,-0.19305380961541213 l 5.903489422012885 -20.949401315464325" fill="red" stroke="none" /><path d="M 89.97174638481275 118.45085714620012 l -10.371812148580972 19.0829661518405 a42.71944024135387,42.71944024135387 0 0,0 -0.6413119911811869,-0.3557249509206377 l 10.697868327918261 -18.90210828548671" fill="red" stroke="none" /><line stroke="#e1ed5e" stroke-width="0.3" x1="58.13341422392154" x2="55.670673884152215" y1="173.97424548756322" y2="178.32567169271397" /><path d="M 57.64086615596767 174.84453072859336 a86.0,86.0 0 0,1 -31.369924170532244,-30.572349798747897" fill="none" id="id68" stroke="none" /><text fill="#e1ed5e" style="font-size:6.75px; font-family:Arial;" text-anchor="middle"><textPath startOffset="22.145653131862474" xlink:href="#id68">August</textPath></text><line stroke="#e1ed5e" stroke-width="0.3" x1="26.387840678322732" x2="22.057713659400548" y1="142.50000000000003" y2="145.00000000000006" /><path d="M 25.521815274538298 143.00000000000003 a86.0,86.0 0 0,1 -11.493303480769221,-40.785679425670985" fill="none" id="id69" stroke="none" /><text fill="#e1ed5e" style="font-size:6.75px; font-family:Arial;" text-anchor="middle"><textPath startOffset="21.40746469413373" xlink:href="#id69">September</textPath></text><path d="M 80.28708602549918 107.23885506374661 l -15.463283748068713 5.67833198108867 a37.472904976376824,37.472904976376824 0 0,0 -0.2165573988520269,-0.605749586778064 l 15.558481316964683 -5.412047437929685" fill="red" stroke="none" /><path d="M 79.48165901384964 104.47187691870673 l -9.243850385742268 2.0146541675996796 a30.460845700518227,30.460845700518227 0 0,0 -0.10696440438961705,-0.5118633965545933 l 9.277072500956251 -1.855674319759677" fill="red" stroke="none" /><path d="M 79.34024301695615 103.76489593502545 l -19.47794396514106 3.549530234900611 a40.79872384770414,40.79872384770414 0 0,0 -0.11964746924975198,-0.6900948075549178 l 19.536006251883045 -3.2146423944251006" fill="red" stroke="none" /><path d="M 79.22317932658666 103.0534771498775 l -18.713768530666755 2.7502795299960523 a39.914787075526085,39.914787075526085 0 0,0 -0.09381017203373068,-0.6787636733511656 l 18.758223219255697 -2.428627548444801" fill="red" stroke="none" /><path d="M 79.17382384314188 102.69636545807758 l -32.86003960052844 4.254390007200108 a54.13430302393068,54.13430302393068 0 0,0 -0.11140817326102814,-0.9226194927433113 l 32.92822986004913 -3.6896768375333973" fill="red" stroke="none" /><path d="M 79.06263194458094 101.62068470465958 l -21.782483140600306 1.6861019571339526 a42.847643158482505,42.847643158482505 0 0,0 -0.05047052215017208,-0.733830315306495 l 21.808217623915542 -1.3119282176731142" fill="red" stroke="none" /><path d="M 79.03789590574601 101.26102812881392 l -21.422010139215303 1.2886949344313345 a42.460737476579695,42.460737476579695 0 0,0 -0.03752399038414555,-0.7279553888378297 l 21.44097571905602 -0.920767752216774" fill="red" stroke="none" /><line stroke="#e1ed5e" stroke-width="0.3" x1="15.003131293944662" x2="10.003315487706104" y1="100.72959589197737" y2="100.7725132973878" /><path d="M 14.003168132696942 100.73817937305945 a86.0,86.0 0 0,1 10.791469493833615,-42.45332614584628" fill="none" id="id70" stroke="none" /><text fill="#e1ed5e" style="font-size:6.75px; font-family:Arial;" text-anchor="middle"><textPath startOffset="22.145653131862435" xlink:href="#id70">October</textPath></text><path d="M 79.00077361379809 100.18025310272382 l -21.569183138285336 0.18514549595259935 a42.569977749352546,42.569977749352546 0 0,0 0.0,-0.7307971973528259 l 21.569183138285336 0.18514549595259142" fill="red" stroke="none" /><path d="M 79.34024301695615 96.23510406497455 l -21.542028299549166 -3.9256751588966003 a42.89680133516663,42.89680133516663 0 0,0 0.1382374093136356,-0.7233165390979996 l 21.47146459795337 4.294894263027914" fill="red" stroke="none" /><path d="M 79.407916724674 95.88100663000787 l -21.452352762072966 -4.291071360593653 a42.87731090536784,42.87731090536784 0 0,0 0.15056528856462695,-0.7205094110297635 l 21.375529762683975 4.658697222908826" fill="red" stroke="none" /><path d="M 79.48165901384962 95.52812308129327 l -21.111953033998343 -4.601251901666085 a42.60754682911361,42.60754682911361 0 0,0 0.16188664060174077,-0.7133024085810583 l 21.02985553183894 4.962988644186152" fill="red" stroke="none" /><path d="M 79.73907114497095 94.47779374421319 l -7.3144805237445345 -1.9935941927966927 a28.581295610764087,28.581295610764087 0 0,0 0.13308200872774487,-0.4722611000724156 l 7.2791800229422075 2.1188632167721213" fill="red" stroke="none" /><path d="M 79.83685265289637 94.1308016681162 l -17.832020796202894 -5.190641367118969 a39.572122212559854,39.572122212559854 0 0,0 0.1954555305310865,-0.6506078926718656 l 17.740288945668176 5.4959868633815585" fill="red" stroke="none" /><path d="M 79.94057633289273 93.78553927170692 l -20.714445256829286 -6.41738809116574 a42.685735224124016,42.685735224124016 0 0,0 0.22285060540731813,-0.6980763474102052 l 20.601229935644714 6.772033472267337" fill="red" stroke="none" /><line stroke="#e1ed5e" stroke-width="0.3" x1="26.387840678322718" x2="22.05771365940052" y1="57.49999999999999" y2="54.99999999999999" /><path d="M 25.521815274538284 56.99999999999999 a86.0,86.0 0 0,1 29.574782752854787,-30.34633250058573" fill="none" id="id71" stroke="none" /><text fill="#e1ed5e" style="font-size:6.75px; font-family:Arial;" text-anchor="middle"><textPath startOffset="21.40746469413373" xlink:href="#id71">November</textPath></text><line stroke="#e1ed5e" stroke-width="0.3" x1="56.869717070023135" x2="54.33264160355391" y1="26.7553504044142" y2="22.446841604673864" /><path d="M 56.362301976729285 25.89364864446614 a86.0,86.0 0 0,1 42.16139366436587,-11.88097634709845" fill="none" id="id72" stroke="none" /><text fill="#e1ed5e" style="font-size:6.75px; font-family:Arial;" text-anchor="middle"><textPath startOffset="22.145653131862474" xlink:href="#id72">December</textPath></text></svg>