<?xml version="1.0" encoding="utf-8" ?>
<svg baseProfile="full" height="200mm" version="1.1" viewBox="0,0,200,200" width="200mm" xmlns="http://www.w3.org/2000/svg" xmlns:ev="http://www.w3.org/2001/xml-events" xmlns:xlink="http://www.w3.org/1999/xlink"><defs /><rect fill="#1a1a1a" height="200" width="200" x="0" y="0" /><rect fill="#1a1a1a" height="200" width="180" x="10" y="0" /><text alignment-baseline="middle" fill="#e1ed5e" style="dominant-baseline: central; font-size:9.0px; font-family:Arial;" text-anchor="middle" x="100.0" y="100.0">2025</text><line stroke="#e1ed5e" stroke-width="0.3" x1="100.0" x2="100.0" y1="15.0" y2="10.0" /><path d="M 100.0 14.0 a86.0,86.0 0 0,1 42.46469731375804,11.215312516191453" fill="none" id="id121" stroke="none" /><text fill="#e1ed5e" style="font-size:6.75px; font-family:Arial;" text-anchor="middle"><textPath startOffset="22.20632615414155" xlink:href="#id121">January</textPath></text><line stroke="#e1ed5e" stroke-width="0.3" x1="143.23703022742887" x2="145.7803849466894" y1="26.81831364943548" y2="22.513508569990506" /><path d="M 143.74570117128098 25.957352633546492 a86.0,86.0 0 0,1 28.547481713284135,27.462654790039103" fill="none" id="id122" stroke="none" /><text fill="#e1ed5e" style="font-size:6.75px; font-family:Arial;" text-anchor="middle"><textPath startOffset="19.985693538727396" xlink:href="#id122">February</textPath></text><path d="M 116.38621287248628 86.86637796730983 l 4.867316933715867 -3.9011760324481397 a27.23778394699472,27.23778394699472 0 0,0 0.29007710635279055,0.3683684672766825 l -4.933748120662622 3.8168151712184186" fill="#ff3004" stroke="none" /><line stroke="#e1ed5e" stroke-width="0.3" x1="172.23445277983987" x2="176.4835382374775" y1="55.19839476539836" y2="52.563006222186495" /><path d="M 173.08426987136738 54.67131705675599 a86.0,86.0 0 0,1 12.851231095245387,41.99856678651699" fill="none" id="id123" stroke="none" /><text fill="#e1ed5e" style="font-size:6.75px; font-family:Arial;" text-anchor="middle"><textPath startOffset="22.20632615414155" xlink:href="#id123">March</textPath></text><line stroke="#e1ed5e" stroke-width="0.3" x1="184.98032266829074" x2="189.97916517819016" y1="98.17113171792111" y2="98.06355123074" /><path d="M 185.9800911702706 98.14961562048488 a86.0,86.0 0 0,1 -9.607161424134198,41.387399972396054" fill="none" id="id124" stroke="none" /><text fill="#e1ed5e" style="font-size:6.75px; font-family:Arial;" text-anchor="middle"><textPath startOffset="21.466115282336823" xlink:href="#id124">April</textPath></text><line stroke="#e1ed5e" stroke-width="0.3" x1="174.80103733775053" x2="179.2010983576182" y1="140.37084112569926" y2="142.7455964860345" /><path d="M 175.68104954172406 140.8457921977663 a86.0,86.0 0 0,1 -30.038265399797805,32.042727171017184" fill="none" id="id125" stroke="none" /><text fill="#e1ed5e" style="font-size:6.75px; font-family:Arial;" text-anchor="middle"><textPath startOffset="22.206326154141568" xlink:href="#id125">May</textPath></text><path d="M 116.0416608686014 113.55231037782055 l 11.411750105860294 9.640870771146592 a35.93902371992732,35.93902371992732 0 0,0 -0.40330000658639653,0.4691290207337681 l -11.24410758970312 -9.835876891041886" fill="#ffaa0f" stroke="none" /><path d="M 115.56566222782051 114.09645910891815 l 11.085732576106427 10.03937857987086 a35.95602183131989,35.95602183131989 0 0,0 -0.4194074619888593,0.45518396600915256 l -10.911278706121847 -10.228713800681348" fill="#ffaa0f" stroke="none" /><path d="M 115.07121518719521 114.62390073753431 l 6.664890166076578 6.467075879726147 a30.286755696151374,30.286755696151374 0 0,0 -0.36626693074715716,0.37102646711048537 l -6.552582610273885 -6.580842840817297" fill="#ff5c08" stroke="none" /><path d="M 114.81725581225074 114.88116024355365 l 10.659632297184727 10.70560556973136 a36.1075395523509,36.1075395523509 0 0,0 -0.44420878871155944,0.4347517933110041 l -10.473773556097374 -10.887507465964935" fill="#ffac10" stroke="none" /><path d="M 114.29624159901734 115.38237550388516 l 10.57480486480101 11.378208614064103 a36.53351631774923,36.53351631774923 0 0,0 -0.46432437927461656,0.4241493114425889 l -10.377380936059529 -11.558550692093275" fill="#ffb210" stroke="none" /><path d="M 114.0293411484842 115.62618273729858 l 10.037690710855971 11.18019639327587 a36.02504662884688,36.02504662884688 0 0,0 -0.46499354169741425,0.41030273667592354 l -9.84375481625197 -11.351322271724081" fill="#ffab0f" stroke="none" /><path d="M 113.48314897796784 116.09983520530334 l 9.9847971012706 11.92255519474915 a36.55131812822893,36.55131812822893 0 0,0 -0.4858364157454591,0.39981029458372797 l -9.778090556980448 -12.092660608190055" fill="#ffb210" stroke="none" /><path d="M 113.20401910651253 116.32954008644616 l 11.968805910192577 14.801939797329236 a40.03548624752254,40.03548624752254 0 0,0 -0.5396068765608947,0.4286963377800952 l -11.71224154091433 -15.005770049114457" fill="#ffe015" stroke="none" /><path d="M 112.92097659922987 116.55440617244103 l 9.338784514446784 11.964887547143224 a36.17799163997181,36.17799163997181 0 0,0 -0.49421078391954604,0.3789397548805739 l -9.131445002033745 -12.12386664385117" fill="#ffad10" stroke="none" /><path d="M 112.04921762599082 117.19931262002967 l 13.736220056335458 19.607376204810457 a44.94019513439771,44.94019513439771 0 0,0 -0.6373870344992646,0.43840061433386895 l -13.396676137213312 -19.84091760850942" fill="#e0ff1b" stroke="none" /><path d="M 111.45004920935366 117.60387380957326 l 8.140809960436307 12.516085182775155 a35.9306789904017,35.9306789904017 0 0,0 -0.5213681787231154,0.3327618393427014 l -7.924159979666262 -12.654361450941662" fill="#ffaa0f" stroke="none" /><line stroke="#e1ed5e" stroke-width="0.3" x1="143.8653032363475" x2="146.44561519142675" y1="172.8068346515853" y2="177.08958963109032" /><path d="M 144.38136562736335 173.6633856474863 a86.0,86.0 0 0,1 -40.68145358897372,12.25698825130547" fill="none" id="id126" stroke="none" /><text fill="#e1ed5e" style="font-size:6.75px; font-family:Arial;" text-anchor="middle"><textPath startOffset="21.466115282336833" xlink:href="#id126">June</textPath></text><path d="M 110.21172684928248 118.3499491758327 l 4.4072357285883985 7.919576465286425 a30.063300621565233,30.063300621565233 0 0,0 -0.4543526579628514,0.2477492957865793 l -4.270260258756899 -7.994266412832775" fill="#ff5908" stroke="none" /><path d="M 109.89434966115114 118.52300852407294 l 7.760906272562497 14.52903303040144 a37.4719296674675,37.4719296674675 0 0,0 -0.571552379637007,0.2990091917923921 l -7.509662990398995 -14.660471641138548" fill="#ffbf11" stroke="none" /><path d="M 109.57404056367764 118.69057910512821 l 13.636123665614987 26.620635912742234 a50.90990011723086,50.90990011723086 0 0,0 -0.7833969182449584,0.39281147786127096 l -13.175872839687267 -26.85141523151281" fill="#9aff23" stroke="none" /><path d="M 109.2508944713604 118.85261126421891 l 6.578851383299605 13.407193010188688 a35.934326564528966,35.934326564528966 0 0,0 -0.5576448481582241,0.2677034151375625 l -6.347093867141148 -13.518450701825811" fill="#ffaa0f" stroke="none" /><path d="M 108.92500713936063 119.00905698771935 l 2.022882644289646 4.308466185442739 a25.759720061481744,25.759720061481744 0 0,0 -0.40299487906041953,0.18499518332600856 l -1.9484197694618073 -4.342648439102821" fill="#ff1a02" stroke="none" /><path d="M 108.59647513512805 119.15986991738527 l 6.623356562294803 14.76217265277279 a37.17994417733159,37.17994417733159 0 0,0 -0.58616718259492,0.2569584669840126 l -6.368268705042129 -14.873995673051256" fill="#ffbb11" stroke="none" /><path d="M 108.2653958097858 119.30500536409082 l 5.898278186973899 13.77626609286142 a35.985833077685584,35.985833077685584 0 0,0 -0.5715382088175457,0.23890301763885533 l -5.660268518658892 -13.875754153520248" fill="#ffab0f" stroke="none" /><path d="M 107.93186726928326 119.44442032107085 l 5.745722157933163 14.085237800132536 a36.21207569671038,36.21207569671038 0 0,0 -0.5791844294905508,0.23046943749864968 l -5.502416652400746 -14.182054082037254" fill="#ffae10" stroke="none" /><path d="M 107.59598834532513 119.57807347666477 l 8.646709792081982 22.28622687987181 a44.90484257989596,44.90484257989596 0 0,0 -0.7230316432540397,0.2733887001202843 l -8.261807928067666 -22.43176383009872" fill="#e1ff1b" stroke="none" /><path d="M 107.2578585660854 119.70592522655815 l 5.17884526675489 14.061163724444167 a35.98455083019221,35.98455083019221 0 0,0 -0.5830875603352118,0.20907445387449028 l -4.936038145789944 -14.148225719358619" fill="#ffab0f" stroke="none" /><path d="M 106.57524785965236 119.94407469862006 l 6.906295692444707 20.94821064101415 a43.05729922841368,43.05729922841368 0 0,0 -0.7058909077321501,0.2260039773556787 l -6.5446834396216165 -21.063987465029538" fill="#f8ff18" stroke="none" /><path d="M 106.2309692047433 120.05430185196036 l 5.562581327542877 17.90310324976463 a39.747357600399624,39.747357600399624 0 0,0 -0.6551216745414766,0.19738278649430513 l -5.253584678561155 -17.996201405364662" fill="#ffdc14" stroke="none" /><path d="M 105.88484417918355 120.15858648285463 l 2.8059492324956836 9.611804246210536 a31.01299815054482,31.01299815054482 0 0,0 -0.51373597334305,0.1451869176366828 l -2.640082091048028 -9.658679957185736" fill="#ff6609" stroke="none" /><path d="M 105.53697534728816 120.25689768951611 l 5.9473629219327275 21.758291246685417 a43.556470550615124,43.556470550615124 0 0,0 -0.7249239397542641,0.19145900122026013 l -5.571948539366965 -21.85744159720926" fill="#f1ff19" stroke="none" /><path d="M 105.18746579009965 120.34920634021253 l 3.895802557889215 15.282315743173786 a36.77106375753118,36.77106375753118 0 0,0 -0.6146838642180609,0.1510743386406842 l -3.632165408927943 -15.347111340128501" fill="#ffb510" stroke="none" /><path d="M 104.48393922423573 120.51570834832081 l 4.496529378250272 20.573313038060302 a42.058964499981705,42.058964499981705 0 0,0 -0.7086105125491523,0.14849622259563636 l -4.141727404271741 -20.647665241382477" fill="#fffa17" stroke="none" /><path d="M 104.13013068566511 120.58985236759428 l 6.049613378351135 30.15900847244357 a51.759772659570295,51.759772659570295 0 0,0 -0.8750664550739771,0.167708568790644 l -5.529579308705454 -30.258674239582685" fill="#90ff24" stroke="none" /><path d="M 103.7750983002368 120.6578951692458 l 1.7062461864051337 9.336831003704361 a30.491453484074874,30.491453484074874 0 0,0 -0.517122024745972,0.08990829250926356 l -1.5452751901871118 -9.364817874734632" fill="#ff5f08" stroke="none" /><path d="M 103.06178313531738 120.77559828337769 l 3.534827496094913 23.985420525968543 a45.244492224723984,45.244492224723984 0 0,0 -0.7714647177115911,0.10691798027230914 l -3.121434187196492 -24.042713071733456" fill="#ddff1b" stroke="none" /><path d="M 102.70371172650421 120.8252237178851 l 3.1633383252807716 24.36547789971258 a45.56996586569815,45.56996586569815 0 0,0 -0.7787529086516063,0.09429613203322472 l -2.7434579935777847 -24.416319560471155" fill="#d9ff1c" stroke="none" /><path d="M 102.34483914955558 120.86867818915974 l 1.692634953795928 15.064169390546546 a36.158964757327304,36.158964757327304 0 0,0 -0.6191230984391287,0.06417464059483634 l -1.4330792587511967 -15.091073399597141" fill="#ffad10" stroke="none" /><path d="M 101.98527174616119 120.90594882070398 l 1.5334464426636616 16.14799228952215 a37.220638488511625,37.220638488511625 0 0,0 -0.638344021377397,0.05507900817600277 l -1.2552581035447228 -16.171995549976817" fill="#ffbb11" stroke="none" /><path d="M 101.62511606390274 120.93702456842531 l 1.4417697791065354 18.57490056105519 a39.63077107768311,39.63077107768311 0 0,0 -0.6805872318884691,0.04693728022848116 l -1.1218197864391357 -18.596966185799957" fill="#ffdb14" stroke="none" /><path d="M 100.90346689309514 120.98055641714683 l 0.4158821567534095 9.657729706904433 a30.66667993987234,30.66667993987234 0 0,0 -0.5275832068563369,0.018171032385442744 l -0.24957859822242037 -9.66345753771597" fill="#ff6109" stroke="none" /><line stroke="#e1ed5e" stroke-width="0.3" x1="102.19456741930631" x2="102.32365962044197" y1="184.97166512339345" y2="189.96999836594603" /><path d="M 102.22038585953345 185.97133177190398 a86.0,86.0 0 0,1 -42.740103519485714,-10.115201625700543" fill="none" id="id127" stroke="none" /><text fill="#e1ed5e" style="font-size:6.75px; font-family:Arial;" text-anchor="middle"><textPath startOffset="22.20632615414155" xlink:href="#id127">July</textPath></text><path d="M 100.54218724476979 120.99299961872073 l 0.4075869677574974 15.781398661198025 a36.786661168212504,36.786661168212504 0 0,0 -0.6331515343072418,0.010900277854431302 l -0.1358757435575877 -15.786076416331618" fill="#ffb510" stroke="none" /><path d="M 99.45781275523022 120.99299961872073 l -0.2485336374503132 9.62299760196149 a30.626206512240472,30.626206512240472 0 0,0 -0.5268869103943807,-0.01814705052742321 l 0.41414089951933697 -9.617293753007973" fill="#ff6108" stroke="none" /><path d="M 98.73552117531835 120.96189622390904 l -2.2145078552937614 36.71100135772238 a57.77773328697477,57.77773328697477 0 0,0 -0.9922286771936142,-0.06842989890207617 l 2.8460992932663056 -36.66744311430402" fill="#4fff2b" stroke="none" /><path d="M 98.37488393609728 120.93702456842531 l -1.9252939986630435 24.804337761972285 a45.87894549194745,45.87894549194745 0 0,0 -0.7868363292833788,-0.06789154932517674 l 2.3519746456879638 -24.767521960368445" fill="#d5ff1c" stroke="none" /><path d="M 98.01472825383883 120.90594882070398 l -1.4342602914701723 15.103510291234995 a36.17145759975387,36.17145759975387 0 0,0 -0.6193370041016371,-0.06419681279135712 l 1.6940298921774029 -15.076584109987877" fill="#ffad10" stroke="none" /><path d="M 97.2962882734958 120.8252237178851 l -2.455854286825364 18.916112409584585 a40.074866420768416,40.074866420768416 0 0,0 -0.6833173274897193,-0.09470155518840237 l 2.7811002055019145 -18.87103628890358" fill="#ffe115" stroke="none" /><path d="M 96.58105272829116 120.7198165907248 l -5.059816920162911 30.66396473439076 a52.078617737884144,52.078617737884144 0 0,0 -0.8832311081743515,-0.15356104947575847 l 5.586896999809312 -30.572325106393993" fill="#8dff24" stroke="none" /><path d="M 95.16358092515715 120.4354850818985 l -4.667126233402136 19.720166313570648 a41.264921088259804,41.264921088259804 0 0,0 -0.6898054763506775,-0.16953740320313837 l 5.005884994496024 -19.63690765205348" fill="#fff016" stroke="none" /><path d="M 94.81253420990036 120.34920634021253 l -3.6947203100625705 14.493517451686776 a35.9570386872515,35.9570386872515 0 0,0 -0.5984442223519724,-0.15805455829805237 l 3.9436549752260324 -14.427771544085143" fill="#ffaa0f" stroke="none" /><path d="M 94.46302465271185 120.25689768951611 l -3.2721228090934495 11.970986470763606 a33.41012911943284,33.41012911943284 0 0,0 -0.5534448852500536,-0.15640905278320225 l 3.477698862448117 -11.912888624641882" fill="#ff880c" stroke="none" /><path d="M 94.11515582081647 120.15858648285463 l -4.251935626037657 14.56504359796024 a36.17298426738955,36.17298426738955 0 0,0 -0.5962083382915616,-0.17963268155567214 l 4.5020189387694645 -14.489695547298844" fill="#ffad10" stroke="none" /><path d="M 93.42475214034765 119.94407469862007 l -4.99256238044816 15.143465186184347 a36.945225522639795,36.945225522639795 0 0,0 -0.6022604247552239,-0.20431943526545795 l 5.25249253814061 -15.055282764020765" fill="#ffb811" stroke="none" /><path d="M 93.08242187328487 119.8279376855182 l -6.551165350006787 18.777684320732476 a40.88766441521507,40.88766441521507 0 0,0 -0.6625367815254131,-0.23756211792540033 l 6.873421692161926 -18.662134661767116" fill="#ffeb16" stroke="none" /><path d="M 92.7421414339146 119.70592522655815 l -6.228099487836528 16.91001025899953 a39.020479188685826,39.020479188685826 0 0,0 -0.628285048280872,-0.23756364504529448 l 6.518254756877683 -16.800298363847602" fill="#ffd313" stroke="none" /><path d="M 91.7346041902142 119.30500536409082 l -11.849065753333704 27.675175296112062 a51.10507742719419,51.10507742719419 0 0,0 -0.8057064074361545,-0.3531980114913065 l 12.323692835427602 -27.467112731326303" fill="#98ff23" stroke="none" /><path d="M 90.42595943632237 118.69057910512821 l -13.698673651854525 26.742746891702396 a51.047099213296306,51.047099213296306 0 0,0 -0.7786119179833988,-0.40733295601708347 l 14.15697647236442 -26.502984516740593" fill="#98ff23" stroke="none" /><line stroke="#e1ed5e" stroke-width="0.3" x1="58.666819895761336" x2="56.23545636021788" y1="174.27360380694188" y2="178.64263932499728" /><path d="M 58.180547188652646 175.14741091055294 a86.0,86.0 0 0,1 -31.652253787137756,-30.449443065178592" fill="none" id="id128" stroke="none" /><text fill="#e1ed5e" style="font-size:6.75px; font-family:Arial;" text-anchor="middle"><textPath startOffset="22.20632615414155" xlink:href="#id128">August</textPath></text><path d="M 89.7882731507175 118.34994917583269 l -9.545192643057609 17.15222140767955 a40.62929957515402,40.62929957515402 0 0,0 -0.608184305741778,-0.3453429214355453 l 9.839025715720593 -16.985375320449375" fill="#ffe815" stroke="none" /><path d="M 89.4739219176387 118.17145234162733 l -7.52086447604848 12.983471082488421 a36.00446346314659,36.00446346314659 0 0,0 -0.5336069436245688,-0.3152643878762346 l 7.743239290701431 -12.852088122318436" fill="#ffab0f" stroke="none" /><path d="M 88.24862548938628 117.40417183066458 l -8.590443544867995 12.722729194059003 a36.35133735030683,36.35133735030683 0 0,0 -0.5155712173590281,-0.35461458452888994 l 8.808171646849916 -12.57297382016501" fill="#ffb010" stroke="none" /><path d="M 87.95078237400918 117.19931262002967 l -12.083815923416932 17.248698974565173 a42.06029970314265,42.06029970314265 0 0,0 -0.5893903231009787,-0.42051434624889417 l 12.378933574366796 -17.038140366472064" fill="#fffa17" stroke="none" /><path d="M 87.65650970185807 116.9893568818739 l -6.261274834829506 8.617905481760467 a31.65231699912401,31.65231699912401 0 0,0 -0.43803043052482876,-0.3240444406736548 l 6.408690235772899 -8.508851092347044" fill="#ff6f0a" stroke="none" /><path d="M 87.36589467227662 116.77436683061367 l -4.110846527911019 5.4579921454525175 a27.83291573457916,27.83291573457916 0 0,0 -0.38021256792916014,-0.291530783992451 l 4.204187824333666 -5.3864220196326995" fill="#ff3805" stroke="none" /><path d="M 87.07902340077011 116.55440617244103 l -38.76292979768965 49.663218517323095 a84.0,84.0 0 0,0 -1.1321700291305676,-0.8994643439794774 l 39.61205731953757 -48.98862025933849" fill="#4dd2ff" stroke="none" /><path d="M 86.79598089348748 116.32954008644616 l -9.427325014380585 11.65886541729978 a35.993451895593445,35.993451895593445 0 0,0 -0.47842131432618695,-0.3937081709331941 l 9.62661645725146 -11.494862127509405" fill="#ffab0f" stroke="none" /><path d="M 86.51685102203217 116.09983520530335 l -19.240064308656354 22.974000006598818 a50.966393692008296,50.966393692008296 0 0,0 -0.6677435447160387,-0.569065535193846 l 19.63267332994945 -22.63941008118202" fill="#99ff23" stroke="none" /><path d="M 85.97065885151581 115.62618273729859 l -10.110819289696398 11.261648581528 a36.134510084001015,36.134510084001015 0 0,0 -0.4592531914863939,-0.4195169016347465 l 10.30317203064965 -11.085938913306675" fill="#ffad10" stroke="none" /><path d="M 85.70375840098266 115.38237550388516 l -12.28470156643704 13.218011960646335 a39.0452135694818,39.0452135694818 0 0,0 -0.4883704020600181,-0.46178469769129293 l 12.510407802887872 -13.004592626209112" fill="#ffd313" stroke="none" /><path d="M 85.44109423537348 115.13401014063109 l -21.22477398015084 22.06319278668989 a51.61495560099888,51.61495560099888 0 0,0 -0.6349869636971108,-0.6214683910175516 l 21.601410896223744 -21.694574292749767" fill="#92ff23" stroke="none" /><path d="M 85.18274418774928 114.88116024355367 l -6.4197891147256145 6.447476628369142 a30.098551926043825,30.098551926043825 0 0,0 -0.36399092542246025,-0.3687208857329247 l 6.529820665203608 -6.3360152486555545" fill="#ff5908" stroke="none" /><path d="M 84.9287848128048 114.62390073753433 l -10.807285205265332 10.486524418966656 a36.05870538584014,36.05870538584014 0 0,0 -0.4284005123582579,-0.449176224484955 l 10.986192269002547 -10.298941077899201" fill="#ffac0f" stroke="none" /><path d="M 84.43433777217949 114.09645910891817 l -14.750779215927894 13.358490824140302 a40.900622215792424,40.900622215792424 0 0,0 -0.4681001234972515,-0.5259154510445005 l 14.978538189073483 -13.102601203354936" fill="#ffeb16" stroke="none" /><path d="M 84.19399662182784 113.82643327865904 l -11.545520868359677 10.099540670362735 a36.339484146282096,36.339484146282096 0 0,0 -0.40779388749549095,-0.474356419483449 l 11.717657265425947 -9.899307151717755" fill="#ffb010" stroke="none" /><path d="M 83.95833913139862 113.55231037782056 l -6.966084064492194 5.885084726156473 a30.11924061682837,30.11924061682837 0 0,0 -0.33117395898070195,-0.3989203677072756 l 7.066354023366432 -5.764303101335436" fill="#ff5908" stroke="none" /><path d="M 83.72743513129214 113.27417163493432 l -23.249802091278184 18.965778654314143 a51.004233988689684,51.004233988689684 0 0,0 -0.5491020816288282,-0.6850892751367174 l 23.57282208496187 -18.562761545599166" fill="#99ff23" stroke="none" /><path d="M 83.50135304334701 112.99209946851258 l -2.3806894697997953 1.8747085428606622 a24.03021690185544,24.03021690185544 0 0,0 -0.25311048378388434,-0.3271794199272441 l 2.412606770801748 -1.8334511288201654" fill="#ff0000" stroke="none" /><path d="M 83.28015986056508 112.70617746262583 l -12.408667489989439 9.429918581018823 a36.58519789164593,36.58519789164593 0 0,0 -0.37672080237138866,-0.5046790776101492 l 12.569149559055912 -9.214926623899368" fill="#ffb310" stroke="none" /><path d="M 82.44556493220864 111.52570212397912 l -17.502356694087382 11.491509065638283 a41.93769974120157,41.93769974120157 0 0,0 -0.3910094119276666,-0.6068552904919536 l 17.697570969392096 -11.18853217522488" fill="#fff817" stroke="none" /><path d="M 82.05923443525364 110.91462005526583 l -25.545577466851576 15.541157992216752 a50.90157386917882,50.90157386917882 0 0,0 -0.44894975893481254,-0.752465619516634 l 25.809308101484618 -15.099130278814007" fill="#9aff23" stroke="none" /><line stroke="#e1ed5e" stroke-width="0.3" x1="26.63291911575756" x2="22.317208475507996" y1="142.92168965132927" y2="145.44649492493687" /><path d="M 25.769776987707644 143.4266507060508 a86.0,86.0 0 0,1 -11.730757126820373,-40.83630448921669" fill="none" id="id129" stroke="none" /><text fill="#e1ed5e" style="font-size:6.75px; font-family:Arial;" text-anchor="middle"><textPath startOffset="21.46611528233685" xlink:href="#id129">September</textPath></text><path d="M 81.87401531095188 110.60418214915194 l -15.484485185171811 9.058834827804844 a38.9396702836829,38.9396702836829 0 0,0 -0.3334867605240503,-0.5814622766563804 l 15.638123941848237 -8.790952705290158" fill="#ffd213" stroke="none" /><path d="M 81.69416730710424 110.29060199501025 l -13.056003867521966 7.339416988014101 a35.97752578741557,35.97752578741557 0 0,0 -0.2988252012805521,-0.5424545399713507 l 13.180405478254036 -7.113591929644928" fill="#ffab0f" stroke="none" /><path d="M 81.51974371655577 109.97397251340807 l -16.07172441107138 8.67406463744235 a39.26306991937433,39.26306991937433 0 0,0 -0.31587605629853416,-0.5975184575169342 l 16.2186529755948 -8.396131164839288" fill="#ffd614" stroke="none" /><path d="M 81.18737489456691 109.33194174019688 l -18.762728411298344 9.307190646711296 a41.944301735087095,41.944301735087095 0 0,0 -0.31527483011681384,-0.6495595313607067 l 18.920156498029876 -8.982842159385307" fill="#fff817" stroke="none" /><path d="M 81.02952815118164 109.00673069616217 l -32.40486478100403 15.3850622511655 a56.87165178727337,56.87165178727337 0 0,0 -0.41225280877474496,-0.8879558743691983 l 32.664892206618596 -14.824986309517474" fill="#59ff2a" stroke="none" /><path d="M 80.87730276802145 108.67885076344099 l -13.625134187239995 6.183777571145435 a35.96273326199787,35.96273326199787 0 0,0 -0.25098377033222513,-0.5659021443188883 l 13.7295590423035 -5.948327090333851" fill="#ffaa0f" stroke="none" /><path d="M 80.73074385275274 108.34839909993369 l -13.735157352375595 5.950752556392835 a35.96883440625666,35.96883440625666 0 0,0 -0.24124643017988828,-0.5702352979018279 l 13.835554763747789 -5.7134427328248485" fill="#ffab0f" stroke="none" /><path d="M 80.45479744820244 107.68017299344265 l -6.482273600438153 2.547171486724381 a27.964765151368645,27.964765151368645 0 0,0 -0.17219067161409474,-0.449535508292735 l 6.5251585516457595 -2.435212411598488" fill="#ff3a05" stroke="none" /><path d="M 80.32549172779595 107.34259656027581 l -16.81813036713442 6.276586152775924 a38.951184996516176,38.951184996516176 0 0,0 -0.2290250643889115,-0.6301786148470785 l 16.92367969252855 -5.986159740922729" fill="#ffd213" stroke="none" /><path d="M 80.20201598880116 107.00284435728193 l -22.554265031967795 7.977782360184498 a44.92362603199432,44.92362603199432 0 0,0 -0.2515919204114287,-0.7312438882830435 l 22.68824778332245 -7.588365768812157" fill="#e1ff1b" stroke="none" /><path d="M 80.0844068197444 106.66101706037122 l -28.373433388578913 9.489846581622382 a50.918370784500524,50.918370784500524 0 0,0 -0.2708560277265014,-0.8336091374785408 l 28.53258166732166 -9.000038544166038" fill="#9aff23" stroke="none" /><path d="M 79.97269907076064 106.31721596034903 l -28.575530446973787 9.013585887228116 a50.96340552861713,50.96340552861713 0 0,0 -0.25669351842098825,-0.8388892703873708 l 28.726450737900905 -8.520369644288698" fill="#99ff23" stroke="none" /><path d="M 79.76711848015287 105.62410040840567 l -14.4278539373705 4.010486550913977 a35.97487801663704,35.97487801663704 0 0,0 -0.1607082147671809,-0.5980550520719989 l 14.494750228479454 -3.7615405656664387" fill="#ffab0f" stroke="none" /><path d="M 79.67330655649465 105.27499134158121 l -28.979685492275888 7.520534044475649 a50.939615955207955,50.939615955207955 0 0,0 -0.21294866357247877,-0.8506240565371364 l 29.104845470143427 -7.020582148541122" fill="#9aff23" stroke="none" /><path d="M 79.58551787078972 104.9243191809786 l -17.444036384453234 4.207797308692966 a38.94435742993245,38.94435742993245 0 0,0 -0.15158522554861228,-0.653025184309483 l 17.5138821759324 -3.9069034670349083" fill="#ffd213" stroke="none" /><path d="M 79.50377843672027 104.57218783832718 l -22.15393952553755 4.941982723838693 a43.6984631581941,43.6984631581941 0 0,0 -0.15745172481568415,-0.7355620399606435 l 22.235725289077674 -4.559906864461886" fill="#f0ff19" stroke="none" /><path d="M 79.4281124754447 104.21870165774334 l -14.837019578432633 3.0426454070775524 a36.14578624713829,36.14578624713829 0 0,0 -0.11974594151717355,-0.6105819759765816 l 14.887195452925473 -2.7867997040330157" fill="#ffad10" stroke="none" /><line stroke="#e1ed5e" stroke-width="0.3" x1="15.007084014347285" x2="10.007500721073583" y1="101.09737516637583" y2="101.16192664675087" /><path d="M 14.007167355692545 101.11028546245083 a86.0,86.0 0 0,1 10.666146001902534,-42.60595125391555" fill="none" id="id130" stroke="none" /><text fill="#e1ed5e" style="font-size:6.75px; font-family:Arial;" text-anchor="middle"><textPath startOffset="22.20632615414155" xlink:href="#id130">October</textPath></text><line stroke="#e1ed5e" stroke-width="0.3" x1="26.266209847984257" x2="21.92892807433627" y1="57.711370442889674" y2="55.22380399835377" /><path d="M 25.39875349325466 57.213857153982495 a86.0,86.0 0 0,1 29.58750427330802,-30.492523968695096" fill="none" id="id131" stroke="none" /><text fill="#e1ed5e" style="font-size:6.75px; font-family:Arial;" text-anchor="middle"><textPath startOffset="21.46611528233685" xlink:href="#id131">November</textPath></text><line stroke="#e1ed5e" stroke-width="0.3" x1="56.762969772571076" x2="54.21961505331055" y1="26.818313649435495" y2="22.513508569990535" /><path d="M 56.25429882871897 25.957352633546506 a86.0,86.0 0 0,1 42.265352541879196,-11.944610805530505" fill="none" id="id132" stroke="none" /><text fill="#e1ed5e" style="font-size:6.75px; font-family:Arial;" text-anchor="middle"><textPath startOffset="22.20632615414155" xlink:href="#id132">December</textPath></text></svg>