<?xml version="1.0" encoding="utf-8" ?>
<svg baseProfile="full" height="200mm" version="1.1" viewBox="0,0,200,200" width="200mm" xmlns="http://www.w3.org/2000/svg" xmlns:ev="http://www.w3.org/2001/xml-events" xmlns:xlink="http://www.w3.org/1999/xlink"><defs /><rect fill="#1a1a1a" height="200" width="200" x="0" y="0" /><rect fill="#1a1a1a" height="200" width="180" x="10" y="0" /><text alignment-baseline="middle" fill="#e1ed5e" style="dominant-baseline: central; font-size:9.0px; font-family:Arial;" text-anchor="middle" x="100.0" y="100.0">2022</text><line stroke="#e1ed5e" stroke-width="0.3" x1="100.0" x2="100.0" y1="15.0" y2="10.0" /><path d="M 100.0 14.0 a86.0,86.0 0 0,1 42.46469731375804,11.215312516191453" fill="none" id="id85" stroke="none" /><text fill="#e1ed5e" style="font-size:6.75px; font-family:Arial;" text-anchor="middle"><textPath startOffset="22.20632615414155" xlink:href="#id85">January</textPath></text><path d="M 100.0 79.0 l 0.0 -19.544933137664955 a40.544933137664955,40.544933137664955 0 0,0 0.6979143744131308,0.006007169360005433 l -0.3364338951406024 19.54203734491351" fill="red" stroke="none" /><path d="M 100.36148047927253 79.00311137660856 l 0.3778085008049486 -21.94531507852539 a42.94856699557022,42.94856699557022 0 0,0 0.739069912797517,0.019087995378926158 l -0.7555050487973334 21.935560291004105" fill="red" stroke="none" /><path d="M 100.72285384407766 79.0124445844662 l 1.5508307964935275 -45.027286702825485 a66.05398566140178,66.05398566140178 0 0,0 1.1360001180399475,0.048918554722525626 l -2.3256717469228065 44.993920421578764" fill="red" stroke="none" /><path d="M 101.44485096284872 79.0497635885617 l 1.4032537567096395 -20.34707987482861 a41.39541077150385,41.39541077150385 0 0,0 0.7104434360678954,0.05514408394922055 l -1.7532873821398762 20.319910528690926" fill="red" stroke="none" /><path d="M 101.80526077348638 79.07773832637324 l 1.2325397150908386 -14.284650074385787 a35.33772582723376,35.33772582723376 0 0,0 0.605579028142645,0.0575070256294113 l -1.4782438703237277 14.261317504241196" fill="red" stroke="none" /><path d="M 102.16513564639614 79.11191278185805 l 1.6308239541485068 -15.733329710029935 a36.81762468052442,36.81762468052442 0 0,0 0.6298150801393564,0.07076706265269729 l -1.9014057377975884 15.702926693906635" fill="red" stroke="none" /><path d="M 103.2404852339499 79.25152402106235 l 2.280862743150396 -14.604117106197998 a35.781155952923186,35.781155952923186 0 0,0 0.6077187285237059,0.10027879734141071 l -2.531910677812977 14.562692045916963" fill="red" stroke="none" /><path d="M 103.59715602781102 79.31037775812273 l 2.706977708267719 -15.569618267385305 a36.80318769442281,36.80318769442281 0 0,0 0.6232091953858301,0.11388749700383283 l -2.97458202475645 15.520715289030733" fill="red" stroke="none" /><path d="M 106.40334571778207 80.00007090966166 l 4.324488736493488 -13.506918397620739 a35.182314600658266,35.182314600658266 0 0,0 0.5751758550322564,0.18962643626611458 l -4.556347413768162 13.430478237095388" fill="red" stroke="none" /><path d="M 109.41281617654863 81.2277094730956 l 9.787001553765764 -19.518540796780066 a42.8348078592183,42.8348078592183 0 0,0 0.6562690568978208,0.3361665005715249 l -10.12153109825234 19.34718177089604" fill="red" stroke="none" /><path d="M 110.05341064243156 81.56283822128135 l 4.958257791376217 -9.093053520997454 a31.357023832234198,31.357023832234198 0 0,0 0.4716632603331849,0.2624800937164406 l -5.114045140781436 9.006358029720833" fill="red" stroke="none" /><path d="M 110.36928655335952 81.73862282372117 l 13.790544705201578 -24.286563692892617 a48.928771889846736,48.928771889846736 0 0,0 0.7288133201715549,0.42217571668813514 l -14.206554757838461 24.045583818814432" fill="red" stroke="none" /><line stroke="#e1ed5e" stroke-width="0.3" x1="143.23703022742887" x2="145.7803849466894" y1="26.81831364943548" y2="22.513508569990506" /><path d="M 143.74570117128098 25.957352633546492 a86.0,86.0 0 0,1 28.547481713284135,27.462654790039103" fill="none" id="id86" stroke="none" /><text fill="#e1ed5e" style="font-size:6.75px; font-family:Arial;" text-anchor="middle"><textPath startOffset="19.985693538727396" xlink:href="#id86">February</textPath></text><path d="M 110.68208982089419 81.91981866633111 l 18.166336774313965 -30.74779079329998 a56.7133368710673,56.7133368710673 0 0,0 0.8362190688885882,0.503812632486351 l -18.692917909420192 30.430531551355013" fill="red" stroke="none" /><path d="M 110.99172775467656 82.1063720568725 l 32.97518326402967 -53.68088382938249 a84.0,84.0 0 0,0 1.225523390510947,0.7674226347082231 l -33.894325806912875 53.10531685335132" fill="red" stroke="none" /><path d="M 111.2981086023043 82.29822771554956 l 7.643892256787554 -11.976379840155738 a35.207841599238975,35.207841599238975 0 0,0 0.5080541407396825,0.33045254558242504 l -7.848913423311517 11.843028370413785" fill="red" stroke="none" /><path d="M 111.90073688211348 82.69761687909136 l 10.658036917699143 -15.495631900238198 a39.80713585123257,39.80713585123257 0 0,0 0.5612215879958676,0.3931715877000372 l -10.923189645278661 15.309875469774227" fill="red" stroke="none" /><path d="M 112.19680574252982 82.90503203632743 l 11.783121880083758 -16.515151204687534 a41.287734731965536,41.287734731965536 0 0,0 0.5749900666431272,0.41775473659686607 l -12.065657263080674 16.309877233273994" fill="red" stroke="none" /><path d="M 112.48926042617603 83.11751280151076 l 8.188614642558477 -11.069044695922221 a34.76870219899635,34.76870219899635 0 0,0 0.47807602327569354,0.3600769491758701 l -8.377936819592554 10.926451157240505" fill="red" stroke="none" /><path d="M 112.77801427241765 83.33499621200491 l 12.344617331432325 -16.099770293240255 a41.287734731965536,41.287734731965536 0 0,0 0.5602695366582601,0.4372992602099007 l -12.619919423250016 15.884892643807126" fill="red" stroke="none" /><path d="M 113.34407831869373 83.78471172551755 l 9.027723041258385 -10.970194274948037 a35.20721456654225,35.20721456654225 0 0,0 0.4646387696085886,0.38912160725151995 l -9.21521934782609 10.813171510302697" fill="red" stroke="none" /><path d="M 114.94478906791727 85.2469230424477 l 10.998309827572866 -10.857223246965434 a36.454517646880234,36.454517646880234 0 0,0 0.4369954686278762,0.45036224340718295 l -11.183569559903852 10.666296808008134" fill="red" stroke="none" /><path d="M 115.4437574822437 85.77008943001954 l 10.58009511648886 -9.748521854388175 a35.38652463312232,35.38652463312232 0 0,0 0.40889358279640176,0.45151050684107474 l -10.746332339901297 9.564958560277551" fill="red" stroke="none" /><path d="M 116.60985879189232 87.15038557335679 l 11.278304694648012 -8.725051099360751 a35.25926623188499,35.25926623188499 0 0,0 0.3672404692836567,0.4832454101333469 l -11.42682110415578 8.52962091334637" fill="red" stroke="none" /><line stroke="#e1ed5e" stroke-width="0.3" x1="172.23445277983987" x2="176.4835382374775" y1="55.19839476539836" y2="52.563006222186495" /><path d="M 173.08426987136738 54.67131705675599 a86.0,86.0 0 0,1 12.851231095245387,41.99856678651699" fill="none" id="id87" stroke="none" /><text fill="#e1ed5e" style="font-size:6.75px; font-family:Arial;" text-anchor="middle"><textPath startOffset="22.20632615414155" xlink:href="#id87">March</textPath></text><path d="M 117.84615892207809 88.93136811851018 l 20.87868886549939 -12.949482419686023 a45.56845016845966,45.56845016845966 0 0,0 0.40769485158262037,0.6701431398584544 l -21.098499515368236 12.588171506620487" fill="red" stroke="none" /><path d="M 118.03404312379186 89.2402003453031 l 11.707334494486814 -6.985043386361493 a34.63277345499269,34.63277345499269 0 0,0 0.3010417971652273,0.5145780154876778 l -11.825835966122368 6.782485958519921" fill="red" stroke="none" /><path d="M 118.21658344932153 89.55222093294921 l 17.986727110600587 -10.315949283996327 a41.73502258935829,41.73502258935829 0 0,0 0.3520495401044056,0.626256849102413 l -18.161634291997423 10.00480892495912" fill="red" stroke="none" /><path d="M 118.56541770881063 90.18545643968196 l 19.17966194308468 -10.139261640380198 a42.69479335838662,42.69479335838662 0 0,0 0.3378796147305701,0.652675870738096 l -19.351350990975366 9.807613047381757" fill="red" stroke="none" /><path d="M 118.73160827565052 90.50648371742162 l 12.458263010495761 -6.314071968744401 a34.96695464534666,34.96695464534666 0 0,0 0.26748053053748827,0.5392244276803628 l -12.565103553986656 6.098687952565089" fill="red" stroke="none" /><path d="M 118.89224826269711 90.83032412892265 l 6.167352797428872 -2.993430180920736 a27.855425936876635,27.855425936876635 0 0,0 0.20565502612193068,0.43316193358334626 l -6.21796601739256 2.8868258316968496" fill="red" stroke="none" /><path d="M 119.04729006885535 91.15688171328212 l 26.848754807086138 -12.465117806882656 a50.601263429632425,50.601263429632425 0 0,0 0.35998626262449557,0.793182011705714 l -27.05934338667398 12.001113786334878" fill="red" stroke="none" /><path d="M 119.7369772167798 92.82701384747503 l 23.8844720004832 -8.680305248271882 a46.41290424066172,46.41290424066172 0 0,0 0.2664253627086236,0.7532203776024647 l -24.03035044400163 8.267887244242804" fill="red" stroke="none" /><path d="M 120.87857604477298 97.74499172005257 l 13.790410602020243 -1.489444970995319 a34.87061177071637,34.87061177071637 0 0,0 0.059318022936623735,0.5973243958682205 l -13.814005750639096 1.2518450444226634" fill="red" stroke="none" /><line stroke="#e1ed5e" stroke-width="0.3" x1="184.98032266829074" x2="189.97916517819016" y1="98.17113171792111" y2="98.06355123074" /><path d="M 185.9800911702706 98.14961562048488 a86.0,86.0 0 0,1 -9.607161424134198,41.387399972396054" fill="none" id="id88" stroke="none" /><text fill="#e1ed5e" style="font-size:6.75px; font-family:Arial;" text-anchor="middle"><textPath startOffset="21.466115282336823" xlink:href="#id88">April</textPath></text><path d="M 120.99513854157772 99.54816195383933 l 16.245536278276422 -0.34962147814705763 a37.249297958582,37.249297958582 0 0,0 0.008278200402037849,0.6411557440347532 l -16.249147485796176 0.06992947605184177" fill="red" stroke="none" /><path d="M 120.8583938346157 102.4346265915055 l 11.208615212530718 1.3082883019062157 a32.284709711086045,32.284709711086045 0 0,0 -0.06917920054297609,0.55142629435009 l -11.184434502740894 -1.5010323505437007" fill="red" stroke="none" /><path d="M 120.70491114924044 103.5080841355445 l 10.016395929380337 1.6971026536610236 a31.15915079281582,31.15915079281582 0 0,0 -0.09415042721399297,0.5280455957256821 l -9.985699059827155 -1.869267000119924" fill="red" stroke="none" /><path d="M 120.64145759157962 103.86396538481128 l 16.914192696817768 3.1662422482796257 a38.207992461640444,38.207992461640444 0 0,0 -0.12657774268674504,0.6454171829551613 l -16.85718502115536 -3.456923158302732" fill="red" stroke="none" /><path d="M 120.5718875245553 104.21870165774334 l 15.570516869611707 3.193064576662927 a36.894548026842486,36.894548026842486 0 0,0 -0.13293625915610657,0.6210339460178699 l -15.513246571731157 -3.460612342096966" fill="red" stroke="none" /><path d="M 120.41448212921028 104.9243191809786 l 59.1291512634774 14.262953714858234 a81.82506373043418,81.82506373043418 0 0,0 -0.34206260964846197,1.3663700899903395 l -58.874877339533874 -15.27865164424597" fill="red" stroke="none" /><path d="M 120.32669344350535 105.2749913415812 l 13.4220693638077 3.483168567330854 a34.86666539854867,34.86666539854867 0 0,0 -0.1557575691707355,0.5796318581222727 l -13.360123718295187 -3.713691358628675" fill="red" stroke="none" /><path d="M 120.23288151984713 105.62410040840565 l 15.03578048674406 4.1794708822490065 a36.60585376392848,36.60585376392848 0 0,0 -0.1739777970814645,0.6056395353833053 l -14.961610052776495 -4.437667893136894" fill="red" stroke="none" /><path d="M 120.13307415673323 105.97154293290107 l 13.660581324677775 4.05177804609727 a35.24880301860374,35.24880301860374 0 0,0 -0.17754188859872808,0.5802171644455686 l -13.588812663572915 -4.286322183094896" fill="red" stroke="none" /><line stroke="#e1ed5e" stroke-width="0.3" x1="174.80103733775053" x2="179.2010983576182" y1="140.37084112569926" y2="142.7455964860345" /><path d="M 175.68104954172406 140.8457921977663 a86.0,86.0 0 0,1 -30.038265399797805,32.042727171017184" fill="none" id="id89" stroke="none" /><text fill="#e1ed5e" style="font-size:6.75px; font-family:Arial;" text-anchor="middle"><textPath startOffset="22.206326154141568" xlink:href="#id89">May</textPath></text><line stroke="#e1ed5e" stroke-width="0.3" x1="143.8653032363475" x2="146.44561519142675" y1="172.8068346515853" y2="177.08958963109032" /><path d="M 144.38136562736335 173.6633856474863 a86.0,86.0 0 0,1 -40.68145358897372,12.25698825130547" fill="none" id="id90" stroke="none" /><text fill="#e1ed5e" style="font-size:6.75px; font-family:Arial;" text-anchor="middle"><textPath startOffset="21.466115282336833" xlink:href="#id90">June</textPath></text><path d="M 109.89434966115114 118.52300852407294 l 8.479306947781494 15.873936160622232 a38.99668012568445,38.99668012568445 0 0,0 -0.5948091150248063,0.3111760165660932 l -8.204806930230191 -16.017541596133043" fill="red" stroke="none" /><path d="M 109.57404056367764 118.69057910512821 l 7.783539519936702 15.195137324484701 a38.07265901282997,38.07265901282997 0 0,0 -0.5858586182915588,0.2937616734367981 l -7.520826993962382 -15.326866838830801" fill="red" stroke="none" /><path d="M 108.59647513512805 119.15986991738527 l 2.88272873716051 6.425041280629609 a28.042107669572058,28.042107669572058 0 0,0 -0.44210295659126403,0.19380494396134967 l -2.7717051059114923 -6.4737107778854135" fill="red" stroke="none" /><path d="M 108.2653958097858 119.30500536409082 l 6.356572355246355 14.846677187555333 a37.15022710734924,37.15022710734924 0 0,0 -0.5900314774500975,0.24663320542711048 l -6.100069418298796 -14.953895436002417" fill="red" stroke="none" /><path d="M 107.93186726928326 119.44442032107085 l 6.0131317615632796 14.740773823914836 a36.92005548073668,36.92005548073668 0 0,0 -0.5905080241592587,0.23497532950968894 l -5.758502661362154 -14.842095997830594" fill="red" stroke="none" /><path d="M 107.59598834532513 119.57807347666477 l 5.188067859993428 13.371844340359733 a35.34302161968347,35.34302161968347 0 0,0 -0.5690727665680193,0.21517462669503373 l -4.957124872665133 -13.459167217161397" fill="red" stroke="none" /><path d="M 107.2578585660854 119.70592522655815 l 4.883878885392118 13.260295892347752 a35.13109054955751,35.13109054955751 0 0,0 -0.5692582346552382,0.20411574970949192 l -4.6549010901071455 -13.342399183097205" fill="red" stroke="none" /><path d="M 106.2309692047433 120.05430185196036 l 4.046932384044164 13.025004768489893 a34.63922325281795,34.63922325281795 0 0,0 -0.5709286682738878,0.17201612435164226 l -3.8221287413300313 -13.09273626194726" fill="red" stroke="none" /><path d="M 105.88484417918355 120.15858648285463 l 6.441041996387774 22.06384709100243 a43.98478562994155,43.98478562994155 0 0,0 -0.7286159999170042,0.20591415952505343 l -6.060294828366164 -22.171450043866002" fill="red" stroke="none" /><path d="M 105.18746579009965 120.34920634021253 l 5.477364014721624 21.486408787263343 a43.17357163659375,43.17357163659375 0 0,0 -0.7217114528061859,0.17737911594735215 l -5.106699277172226 -21.577509161524723" fill="red" stroke="none" /><path d="M 104.83641907484287 120.43548508189849 l 7.636037773017362 32.26480864882033 a54.156099740710445,54.156099740710445 0 0,0 -0.9089968545748037,0.20688472466154811 l -7.0795207690496955 -32.39147010705956" fill="red" stroke="none" /><path d="M 104.48393922423573 120.51570834832081 l 6.665496404587573 30.49715292619912 a52.21706550788439,52.21706550788439 0 0,0 -0.879754458847191,0.18436110054381152 l -6.1395504843110045 -30.607370007469473" fill="red" stroke="none" /><path d="M 104.13013068566511 120.58985236759428 l 2.6830419678159037 13.37571186430698 a34.642154598083984,34.642154598083984 0 0,0 -0.5856707992063598,0.1122452025761491 l -2.4524035540378395 -13.419914265231599" fill="red" stroke="none" /><path d="M 103.41894727170886 120.7198165907248 l 5.194339929539547 31.479213365038007 a52.90489055591942,52.90489055591942 0 0,0 -0.8997966450614704,0.14052973070596686 l -4.65170742086956 -31.56396140309108" fill="red" stroke="none" /><path d="M 103.06178313531738 120.77559828337769 l 2.0234065924800557 13.729738740933474 a34.87803660943367,34.87803660943367 0 0,0 -0.5947060812084389,0.0824208438813362 l -1.7867719200847865 -13.762534150307413" fill="red" stroke="none" /><path d="M 102.70371172650421 120.8252237178851 l 1.7593968918438603 13.551679168316483 a34.66541202101176,34.66541202101176 0 0,0 -0.5924031306174357,0.0717317690900443 l -1.5258663381750441 -13.579956466131879" fill="red" stroke="none" /><path d="M 102.34483914955558 120.86867818915974 l 0.8475953108856474 7.5434572050990285 a28.590926453088304,28.590926453088304 0 0,0 -0.48954119930367374,0.05074294692102688 l -0.717621514976371 -7.556929520475814" fill="red" stroke="none" /><path d="M 101.62511606390274 120.93702456842531 l 1.2472316233988552 16.068587174572276 a37.116919076214124,37.116919076214124 0 0,0 -0.637416344001796,0.04395996304192957 l -0.9704525186181289 -16.08767548213049" fill="red" stroke="none" /><path d="M 100.90346689309514 120.98055641714683 l 0.6690538271447396 15.536951795133447 a36.55135055575295,36.55135055575295 0 0,0 -0.628821860695187,0.021657896322082995 l -0.40151161477490027 -15.546166489881625" fill="red" stroke="none" /><line stroke="#e1ed5e" stroke-width="0.3" x1="102.19456741930631" x2="102.32365962044197" y1="184.97166512339345" y2="189.96999836594603" /><path d="M 102.22038585953345 185.97133177190398 a86.0,86.0 0 0,1 -42.740103519485714,-10.115201625700543" fill="none" id="id91" stroke="none" /><text fill="#e1ed5e" style="font-size:6.75px; font-family:Arial;" text-anchor="middle"><textPath startOffset="22.20632615414155" xlink:href="#id91">July</textPath></text><path d="M 100.18074693466247 120.99922214144158 l 0.12754236318579834 14.817902289654842 a35.81845117818206,35.81845117818206 0 0,0 -0.6165785956964974,0.0 l 0.12754236318578815 -14.817902289654842" fill="red" stroke="none" /><path d="M 99.81925306533755 120.99922214144158 l -0.13965478029800002 16.225125809567622 a37.22572682482845,37.22572682482845 0 0,0 -0.640708487977944,-0.011030377665109083 l 0.41892295816861197 -16.220317954623354" fill="red" stroke="none" /><path d="M 99.45781275523022 120.99299961872073 l -0.8457296046010361 32.745885186710986 a53.756804716354075,53.756804716354075 0 0,0 -0.9248209287152044,-0.031852702716890766 l 1.4092708849908835 -32.726475685568005" fill="red" stroke="none" /><path d="M 98.73552117531835 120.96189622390904 l -0.8361591589352744 13.861427470471947 a34.88662427151486,34.88662427151486 0 0,0 -0.5991150410962804,-0.04131848094623437 l 1.0746369608104849 -13.844980645009427" fill="red" stroke="none" /><path d="M 94.46302465271185 120.25689768951611 l -3.7372554427618425 13.672663574471589 a35.17423040115883,35.17423040115883 0 0,0 -0.5826675448795381,-0.16466766829175192 l 3.9720541557459943 -13.606307112841316" fill="red" stroke="none" /><path d="M 94.11515582081647 120.15858648285463 l -3.8282228644381906 13.113611735277166 a34.66097006231279,34.66097006231279 0 0,0 -0.5712871023211376,-0.1721241175897993 l 4.053384941199574 -13.045772248581642" fill="red" stroke="none" /><line stroke="#e1ed5e" stroke-width="0.3" x1="58.666819895761336" x2="56.23545636021788" y1="174.27360380694188" y2="178.64263932499728" /><path d="M 58.180547188652646 175.14741091055294 a86.0,86.0 0 0,1 -31.652253787137756,-30.449443065178592" fill="none" id="id92" stroke="none" /><text fill="#e1ed5e" style="font-size:6.75px; font-family:Arial;" text-anchor="middle"><textPath startOffset="22.20632615414155" xlink:href="#id92">August</textPath></text><path d="M 87.36589467227662 116.77436683061367 l -7.325274782169895 9.725805123812712 a33.175834096302225,33.175834096302225 0 0,0 -0.4531997004997788,-0.3474942049166059 l 7.49160321116316 -9.59827157706874" fill="red" stroke="none" /><path d="M 86.79598089348748 116.32954008644616 l -5.171847494477947 6.396074581595326 a29.22543473376743,29.22543473376743 0 0,0 -0.3884615162124805,-0.31967738151748903 l 5.281179139235117 -6.306102081220657" fill="red" stroke="none" /><line stroke="#e1ed5e" stroke-width="0.3" x1="26.63291911575756" x2="22.317208475507996" y1="142.92168965132927" y2="145.44649492493687" /><path d="M 25.769776987707644 143.4266507060508 a86.0,86.0 0 0,1 -11.730757126820373,-40.83630448921669" fill="none" id="id93" stroke="none" /><text fill="#e1ed5e" style="font-size:6.75px; font-family:Arial;" text-anchor="middle"><textPath startOffset="21.46611528233685" xlink:href="#id93">September</textPath></text><line stroke="#e1ed5e" stroke-width="0.3" x1="15.007084014347285" x2="10.007500721073583" y1="101.09737516637583" y2="101.16192664675087" /><path d="M 14.007167355692545 101.11028546245083 a86.0,86.0 0 0,1 10.666146001902534,-42.60595125391555" fill="none" id="id94" stroke="none" /><text fill="#e1ed5e" style="font-size:6.75px; font-family:Arial;" text-anchor="middle"><textPath startOffset="22.20632615414155" xlink:href="#id94">October</textPath></text><path d="M 80.52162464483688 92.15188598940014 l -32.30392732914416 -13.015711015244092 a55.82746694950658,55.82746694950658 0 0,0 0.3668085578623502,-0.8882560178574977 l 32.07509708439561 13.5698416035549" fill="red" stroke="none" /><path d="M 80.65960295795068 91.81776055985345 l -31.500010537485288 -13.326542781126554 a55.203032122297,55.203032122297 0 0,0 0.37777088384890456,-0.871947284589493 l 31.265948943793703 13.866789210302647" fill="red" stroke="none" /><path d="M 81.6062741919709 89.86733742301443 l -30.68693861302282 -16.9046987941236 a56.03508302772344,56.03508302772344 0 0,0 0.47267556085264506,-0.8408370802004349 l 30.39140541087775 17.43041938425882" fill="red" stroke="none" /><line stroke="#e1ed5e" stroke-width="0.3" x1="26.266209847984257" x2="21.92892807433627" y1="57.711370442889674" y2="55.22380399835377" /><path d="M 25.39875349325466 57.213857153982495 a86.0,86.0 0 0,1 29.58750427330802,-30.492523968695096" fill="none" id="id95" stroke="none" /><text fill="#e1ed5e" style="font-size:6.75px; font-family:Arial;" text-anchor="middle"><textPath startOffset="21.46611528233685" xlink:href="#id95">November</textPath></text><path d="M 81.78341655067847 89.55222093294921 l -30.60559558139403 -17.553264130976206 a56.28200054622274,56.28200054622274 0 0,0 0.48922546196042127,-0.8362448992538571 l 30.298910444963283 18.077488442583956" fill="red" stroke="none" /><path d="M 81.96595687620814 89.24020034530311 l -17.148844089291615 -10.231656065354565 a40.969217296592745,40.969217296592745 0 0,0 0.3665461279337498,-0.6025054575080943 l 16.970182163071648 10.525329296069733" fill="red" stroke="none" /><path d="M 82.34701348167596 88.62581576622439 l -39.34580958598822 -25.35131869010071 a67.80579121544568,67.80579121544568 0 0,0 0.6406141485410856,-0.9756992982385465 l 38.90359880208921 26.024836052316925" fill="red" stroke="none" /><path d="M 82.54541684631803 88.32363383020206 l -11.338361283454175 -7.58487653044546 a34.641436455748895,34.641436455748895 0 0,0 0.33581661602292656,-0.4927694464196949 l 11.206120201762507 7.7789240001355715" fill="red" stroke="none" /><path d="M 82.7489923806493 88.02491185347247 l -35.95414741509618 -24.95819919794497 a64.76770982757458,64.76770982757458 0 0,0 0.6436287469151976,-0.9103672178714549 l 35.51920604837711 25.573392916148215" fill="red" stroke="none" /><path d="M 82.95767976084542 87.72973835380427 l -16.423325830846377 -11.824593260618526 a41.23725863661407,41.23725863661407 0 0,0 0.4197116156233141,-0.5724861720287986 l 16.21735160270943 12.105541876318824" fill="red" stroke="none" /><path d="M 83.17141714833178 87.43820079747576 l -35.57510320627818 -26.555254653664594 a65.39334992832056,65.39334992832056 0 0,0 0.6810999513651239,-0.8962476983576207 l 35.11272731468895 27.16368712790324" fill="red" stroke="none" /><path d="M 83.39014120810768 87.1503855733568 l -42.825868198414426 -33.1306786367431 a75.14514617100141,75.14514617100141 0 0,0 0.8002812049673356,-1.0162758604797342 l 42.24923291285312 33.86294689117588" fill="red" stroke="none" /><path d="M 83.6137871275137 86.86637796730984 l -32.69243679227037 -26.20313256629528 a62.897488942697244,62.897488942697244 0 0,0 0.6843890984768927,-0.8389801116547669 l 32.23654920171709 26.76199684755813" fill="red" stroke="none" /><path d="M 83.84228863543731 86.58626213691792 l -5.2898657206089315 -4.391517493175151 a27.875180378356397,27.875180378356397 0 0,0 0.30966589187631033,-0.366546742331295 l 5.213489215245497 4.481923185135562" fill="red" stroke="none" /><path d="M 84.07557802195018 86.31012108654704 l -9.68078315720806 -8.322358537864076 a33.76633127290853,33.76633127290853 0 0,0 0.3826981704799115,-0.43749016492650306 l 9.536093123150305 8.48776425899352" fill="red" stroke="none" /><path d="M 84.31358615837235 86.03803664274997 l -6.5847268442595235 -5.860849767528037 a29.815224762366835,29.815224762366835 0 0,0 0.3445168521452515,-0.3804241129527542 l 6.482866351498227 5.973326667750349" fill="red" stroke="none" /><path d="M 84.5562425177563 85.77008943001954 l -32.74320777954661 -30.169660395984483 a65.52332045236065,65.52332045236065 0 0,0 0.7714050470869105,-0.8228811195708313 l 32.21903541048925 30.728810932433365" fill="red" stroke="none" /><path d="M 84.80347519578584 85.50635884689758 l -31.70724078119655 -30.240688299356336 a64.81607406849227,64.81607406849227 0 0,0 0.7769772442621484,-0.8007433484400982 l 31.181999273231284 30.781995843346557" fill="red" stroke="none" /><path d="M 85.05521093208273 85.24692304244772 l -33.73476476055289 -33.302014394152884 a68.40314880003444,68.40314880003444 0 0,0 0.8344018037331921,-0.8308186172159342 l 33.15652715665239 33.87776886201893" fill="red" stroke="none" /><path d="M 85.31137513191541 84.99185889309783 l -24.382574123178866 -24.91295926450388 a55.85922345932482,55.85922345932482 0 0,0 0.6929649385691379,-0.6666317218681084 l 23.950125940997303 25.3289740731343" fill="red" stroke="none" /><line stroke="#e1ed5e" stroke-width="0.3" x1="56.762969772571076" x2="54.21961505331055" y1="26.818313649435495" y2="22.513508569990535" /><path d="M 56.25429882871897 25.957352633546506 a86.0,86.0 0 0,1 42.265352541879196,-11.944610805530505" fill="none" id="id96" stroke="none" /><text fill="#e1ed5e" style="font-size:6.75px; font-family:Arial;" text-anchor="middle"><textPath startOffset="22.20632615414155" xlink:href="#id96">December</textPath></text></svg>