<?xml version="1.0" encoding="utf-8" ?>
<svg baseProfile="full" height="200mm" version="1.1" viewBox="0,0,200,200" width="200mm" xmlns="http://www.w3.org/2000/svg" xmlns:ev="http://www.w3.org/2001/xml-events" xmlns:xlink="http://www.w3.org/1999/xlink"><defs /><rect fill="#1a1a1a" height="200" width="200" x="0" y="0" /><text alignment-baseline="middle" fill="#e1ed5e" style="dominant-baseline: central; font-size:9.0px; font-family:Arial;" text-anchor="middle" x="100.0" y="100.0">2023</text><line stroke="#e1ed5e" stroke-width="0.3" x1="100.0" x2="100.0" y1="15.0" y2="10.0" /><path d="M 100.0 14.0 a86.0,86.0 0 0,1 42.46469731375804,11.215312516191453" fill="none" id="id97" stroke="none" /><text fill="#e1ed5e" style="font-size:6.75px; font-family:Arial;" text-anchor="middle"><textPath startOffset="22.20632615414155" xlink:href="#id97">January</textPath></text><path d="M 109.73455568895987 81.39251694778311 l 27.5235645748871 -52.61095397960905 a80.37557650711715,80.37557650711715 0 0,0 1.2203881289255716,0.6518890737546612 l -28.42509775034098 52.129386179352636" fill="#ffa20f" stroke="none" /><line stroke="#e1ed5e" stroke-width="0.3" x1="143.23703022742887" x2="145.7803849466894" y1="26.81831364943548" y2="22.513508569990506" /><path d="M 143.74570117128098 25.957352633546492 a86.0,86.0 0 0,1 28.547481713284135,27.462654790039103" fill="none" id="id98" stroke="none" /><text fill="#e1ed5e" style="font-size:6.75px; font-family:Arial;" text-anchor="middle"><textPath startOffset="19.985693538727396" xlink:href="#id98">February</textPath></text><line stroke="#e1ed5e" stroke-width="0.3" x1="172.23445277983987" x2="176.4835382374775" y1="55.19839476539836" y2="52.563006222186495" /><path d="M 173.08426987136738 54.67131705675599 a86.0,86.0 0 0,1 12.851231095245387,41.99856678651699" fill="none" id="id99" stroke="none" /><text fill="#e1ed5e" style="font-size:6.75px; font-family:Arial;" text-anchor="middle"><textPath startOffset="22.20632615414155" xlink:href="#id99">March</textPath></text><path d="M 118.73160827565052 90.50648371742162 l 53.5373268666581 -27.133681040886987 a81.02067989331661,81.02067989331661 0 0,0 0.6197695699318309,1.2494176341307863 l -53.99645644954334 26.20810381825725" fill="#ecff1a" stroke="none" /><path d="M 118.89224826269711 90.83032412892265 l 53.82321585297273 -26.124018531203237 a80.82811136058321,80.82811136058321 0 0,0 0.596749351128785,1.256906323535688 l -54.26492339794327 25.19366979202701" fill="#fff216" stroke="none" /><path d="M 119.196687751892 91.48605970444005 l 54.089236893546136 -23.98916622992226 a80.17031049549254,80.17031049549254 0 0,0 0.5486294482380532,1.2663124081005968 l -54.49415705162687 23.05455467723506" fill="#ff7c0b" stroke="none" /><path d="M 119.7369772167798 92.82701384747503 l 56.03230904965237 -20.363755426816628 a80.61796870507212,80.61796870507212 0 0,0 0.4627737027984586,1.3083235755882612 l -56.37453583326064 19.396234224801752" fill="#ffcd13" stroke="none" /><path d="M 119.85752413597 93.16781622104841 l 57.33284870192361 -19.72595154462511 a81.63141681190174,81.63141681190174 0 0,0 0.44571805547129906,1.332640253794263 l -57.663904051166675 18.736138187908537" fill="#8bff24" stroke="none" /><path d="M 119.97218684219823 93.5106431181261 l 56.349643054395315 -18.30910890406683 a80.24952102100693,80.24952102100693 0 0,0 0.4155569210125032,1.317429000778653 l -56.65645545917602 17.336429736861756" fill="#ff8b0c" stroke="none" /><path d="M 120.45610955862082 95.25157060432595 l 58.22467727606422 -13.515559659035121 a80.77276467421234,80.77276467421234 0 0,0 0.3027271408201927,1.3570664134697912 l -58.448698803886444 12.511315076015366" fill="#ffe815" stroke="none" /><path d="M 120.53481517161879 95.60439243477599 l 58.71332574446345 -12.567960152790636 a81.04338633336404,81.04338633336404 0 0,0 0.2802584655696102,1.366639809885603 l -58.92096350594805 11.555444686741623" fill="#e8ff1a" stroke="none" /><path d="M 120.67395015179393 96.31383870115 l 58.756672719461655 -10.476303340069768 a80.68332699117138,80.68332699117138 0 0,0 0.23201504396914213,1.3693659231244681 l -58.92829962495102 9.46335162862946" fill="#ffd914" stroke="none" /><path d="M 120.87857604477298 97.74499172005257 l 59.46993523862873 -6.423100698221171 a80.81579573880285,80.81579573880285 0 0,0 0.13747488162228255,1.3843532968018877 l -59.57168724593324 5.3984718707148485" fill="#fff016" stroke="none" /><path d="M 120.91429891909075 98.10471618934814 l 59.52955759743553 -5.3946540214503305 a80.77349345452,80.77349345452 0 0,0 0.11356567085463644,1.3857888357225208 l -59.61359775210966 4.36915126852004" fill="#ffe815" stroke="none" /><path d="M 120.96714384426684 98.82574320788733 l 59.88851442617558 -3.3540331175675786 a80.98236156011183,80.98236156011183 0 0,0 0.06596742871542421,1.3924681580379477 l -59.9373754631245 2.322653852906631" fill="#f2ff19" stroke="none" /><line stroke="#e1ed5e" stroke-width="0.3" x1="184.98032266829074" x2="189.97916517819016" y1="98.17113171792111" y2="98.06355123074" /><path d="M 185.9800911702706 98.14961562048488 a86.0,86.0 0 0,1 -9.607161424134198,41.387399972396054" fill="none" id="id100" stroke="none" /><text fill="#e1ed5e" style="font-size:6.75px; font-family:Arial;" text-anchor="middle"><textPath startOffset="21.466115282336823" xlink:href="#id100">April</textPath></text><path d="M 120.32669344350535 105.2749913415812 l 59.0806768486266 15.332058787497429 a82.03768019473807,82.03768019473807 0 0,0 -0.3664815519774506,1.3638141893918008 l -58.808007220307374 -16.346763910064777" fill="#50ff2b" stroke="none" /><path d="M 120.23288151984713 105.62410040840565 l 56.39471900612275 15.675946200897524 a79.5328934965031,79.5328934965031 0 0,0 -0.3779984943192699,1.3158623474690596 l -56.11652787491738 -16.644366023871164" fill="#ff0000" stroke="none" /><line stroke="#e1ed5e" stroke-width="0.3" x1="174.80103733775053" x2="179.2010983576182" y1="140.37084112569926" y2="142.7455964860345" /><path d="M 175.68104954172406 140.8457921977663 a86.0,86.0 0 0,1 -30.038265399797805,32.042727171017184" fill="none" id="id101" stroke="none" /><text fill="#e1ed5e" style="font-size:6.75px; font-family:Arial;" text-anchor="middle"><textPath startOffset="22.206326154141568" xlink:href="#id101">May</textPath></text><path d="M 117.75023020441432 111.22182372390056 l 50.40227356392816 31.864681342417374 a80.63008550611724,80.63008550611724 0 0,0 -0.7517608860757304,1.1667495896093025 l -49.84630781447538 -32.72755253194813" fill="#ffd013" stroke="none" /><path d="M 116.71984013943494 112.70617746262583 l 50.159520418304794 38.11853238787748 a84.0,84.0 0 0,0 -0.8847727311277263,1.1436880235469893 l -49.495940869959 -38.97629840553772" fill="#4dd2ff" stroke="none" /><path d="M 116.498646956653 112.99209946851258 l 47.14938205198755 37.12846654078551 a81.01322567196763,81.01322567196763 0 0,0 -0.8721732957661786,1.0881702892431437 l -46.503290844166514 -37.934564663606906" fill="#edff1a" stroke="none" /><path d="M 115.07121518719521 114.62390073753431 l 43.49395482633877 42.20305198771107 a81.60380931519933,81.60380931519933 0 0,0 -0.9868596384178706,0.9996836035106769 l -42.76105456286536 -42.945476085202415" fill="#90ff24" stroke="none" /><path d="M 111.7513745106137 117.40417183066458 l 33.95643180448433 50.29059139828447 a81.68099244476642,81.68099244476642 0 0,0 -1.1720261740779978,0.7767550395449963 l -33.08573093166637 -50.867644458920786" fill="#84ff25" stroke="none" /><line stroke="#e1ed5e" stroke-width="0.3" x1="143.8653032363475" x2="146.44561519142675" y1="172.8068346515853" y2="177.08958963109032" /><path d="M 144.38136562736335 173.6633856474863 a86.0,86.0 0 0,1 -40.68145358897372,12.25698825130547" fill="none" id="id102" stroke="none" /><text fill="#e1ed5e" style="font-size:6.75px; font-family:Arial;" text-anchor="middle"><textPath startOffset="21.466115282336833" xlink:href="#id102">June</textPath></text><line stroke="#e1ed5e" stroke-width="0.3" x1="102.19456741930631" x2="102.32365962044197" y1="184.97166512339345" y2="189.96999836594603" /><path d="M 102.22038585953345 185.97133177190398 a86.0,86.0 0 0,1 -42.740103519485714,-10.115201625700543" fill="none" id="id103" stroke="none" /><text fill="#e1ed5e" style="font-size:6.75px; font-family:Arial;" text-anchor="middle"><textPath startOffset="22.20632615414155" xlink:href="#id103">July</textPath></text><line stroke="#e1ed5e" stroke-width="0.3" x1="58.666819895761336" x2="56.23545636021788" y1="174.27360380694188" y2="178.64263932499728" /><path d="M 58.180547188652646 175.14741091055294 a86.0,86.0 0 0,1 -31.652253787137756,-30.449443065178592" fill="none" id="id104" stroke="none" /><text fill="#e1ed5e" style="font-size:6.75px; font-family:Arial;" text-anchor="middle"><textPath startOffset="22.20632615414155" xlink:href="#id104">August</textPath></text><line stroke="#e1ed5e" stroke-width="0.3" x1="26.63291911575756" x2="22.317208475507996" y1="142.92168965132927" y2="145.44649492493687" /><path d="M 25.769776987707644 143.4266507060508 a86.0,86.0 0 0,1 -11.730757126820373,-40.83630448921669" fill="none" id="id105" stroke="none" /><text fill="#e1ed5e" style="font-size:6.75px; font-family:Arial;" text-anchor="middle"><textPath startOffset="21.46611528233685" xlink:href="#id105">September</textPath></text><line stroke="#e1ed5e" stroke-width="0.3" x1="15.007084014347285" x2="10.007500721073583" y1="101.09737516637583" y2="101.16192664675087" /><path d="M 14.007167355692545 101.11028546245083 a86.0,86.0 0 0,1 10.666146001902534,-42.60595125391555" fill="none" id="id106" stroke="none" /><text fill="#e1ed5e" style="font-size:6.75px; font-family:Arial;" text-anchor="middle"><textPath startOffset="22.20632615414155" xlink:href="#id106">October</textPath></text><line stroke="#e1ed5e" stroke-width="0.3" x1="26.266209847984243" x2="21.928928074336255" y1="57.711370442889674" y2="55.22380399835377" /><path d="M 25.398753493254645 57.213857153982495 a86.0,86.0 0 0,1 29.58750427330803,-30.492523968695096" fill="none" id="id107" stroke="none" /><text fill="#e1ed5e" style="font-size:6.75px; font-family:Arial;" text-anchor="middle"><textPath startOffset="21.46611528233685" xlink:href="#id107">November</textPath></text><line stroke="#e1ed5e" stroke-width="0.3" x1="56.762969772571076" x2="54.21961505331055" y1="26.818313649435495" y2="22.513508569990535" /><path d="M 56.25429882871897 25.957352633546506 a86.0,86.0 0 0,1 42.265352541879196,-11.944610805530505" fill="none" id="id108" stroke="none" /><text fill="#e1ed5e" style="font-size:6.75px; font-family:Arial;" text-anchor="middle"><textPath startOffset="22.20632615414155" xlink:href="#id108">December</textPath></text></svg>